M48
;Layer_Color=9474304
;FILE_FORMAT=4:4
METRIC,LZ
;TYPE=PLATED
T1F00S00C0.3000
T2F00S00C0.9000
T3F00S00C1.0000
T4F00S00C1.1500
T5F00S00C1.5000
T6F00S00C1.7000
T7F00S00C2.0000
T8F00S00C2.5000
T9F00S00C4.0000
%
T01
X004525Y00322002
X004875Y003125
X004875Y002925
X00535Y0028
X005415Y003075
X005225Y003225
X0052Y003525
X0051Y003525
X00511345Y00381199
X00503853
X00496147
X00488853
X00481345Y0038125
X00481199Y00388853
Y00396345
X00488706Y00396294
X00496
Y00388801
X00488706
X00503706
Y00396294
X00511199
Y00388801
X00518706
Y00396294
X00518853Y00381199
X00555Y0039
X0057Y003565
X006Y003525
Y0034
Y003275
X005875Y003075
X006Y0037
Y00385
X0063Y003715
X0062Y003525
X0066Y003525
X006625Y00315
X0067243Y00315
X006625Y002925
X007275
X007375Y00315
X007125Y00315
X007375Y003525
X0077Y00355
X0076Y00385
X00718801Y00388655
X00711294Y00388706
X00704
X00704051Y00381199
X00711345
X00718853Y00381147
Y00396199
X00711345Y0039625
X00704051
X00696345
X00688853
X00681345
X00681294Y00388706
X00688801
X00696294
X00696345Y00381199
X00688853
X00681345
X0043Y003565
X008Y0037
Y00385
Y0034
Y00325
X008525Y00322002
X008875Y003125
Y002925
X009225Y003125
Y003225
X0092Y003525
X0091Y003525
X00911345Y00381199
X00903853
X00896147
X00888853
X00881345Y0038125
X00881199Y00388853
Y00396345
X00888706Y00396294
X00896
Y00388801
X00888706
X00903706
X00911199
Y00396294
X00903706
X00918706
Y00388801
X00918853Y00381199
X00955Y0039
X0097Y003565
X01Y0035
Y0034
Y003275
X009875Y003125
X01Y0037
Y00385
X0103Y003715
X0102Y003525
X0106Y003525
Y00324
X0108143
X011125Y00315
X011375Y00315
X011275Y002925
X0107
X01081345Y00381199
X01088853
X01096345
X01096294Y00388706
X01088801
X01081294
X01081345Y0039625
X01088853
X01096345
X01104051
X01111345
X01118853Y00396199
X01118801Y00388655
X01111294Y00388706
X01104
X01104051Y00381199
X01111345
X01118853Y00381147
X0116Y00385
X0117Y00355
X011375Y003525
X009325Y0028
X0083Y003565
X0084Y00415
X0083Y00445
X008625Y004475
Y00485
X008875Y00485
Y005125
X008525Y00522002
X0083Y005565
X008Y00555
Y005675
Y0058
Y0059
Y006
Y00625
X0084Y00615
X0083Y00645
X008625Y006475
X008625Y00685
X008875Y00685
Y007125
X008525Y00722002
X0083Y007565
X008Y0076
Y00775
Y0079
X00881199Y00788853
X00888706Y00788801
X00896
X00903706
X00911199
X00918706
X00918853Y00781199
X00911345
X00903853
X00896147
X00888853
X00881345Y0078125
X0091Y007525
X0092Y007525
X009225Y007225
X0091857Y00676
X0094Y006475
X0098
X0097Y006285
X01Y006225
Y0061
Y0059
Y0057
X0103Y005715
X0102Y005525
X0106Y005525
X0108143Y00524
X011125Y00515
X011375Y00515
Y005525
X0117Y00555
X0116Y00585
X01118801Y00588655
X01111294Y00588706
X01104
X01104051Y00581199
X01111345
X01118853Y00581147
Y00596199
X01118801Y00603655
Y00611147
X01111294Y00611199
X01104
Y00603706
X01111294
X01111345Y0059625
X01104051
X01096345
X01088853
X01081345
X01081294Y00603706
Y00611199
X01088801
Y00603706
X01096294
Y00611199
X01096147Y00618801
X01088655
X01081147
X01103853
X01111147
X01118655Y0061875
X01096294Y00588706
X01088801
X01081294
X01081345Y00581199
X01088853
X01096345
X01052499Y00599998
X01045Y0061
X0103Y006435
X0108Y006475
X0109Y006475
X010775Y006775
X011125Y006875
Y00715
X011375Y00715
Y007525
X0117Y00755
X0116Y00785
X01118801Y00788655
X01111294Y00788706
X01104
X01104051Y00781199
X01111345
X01118853Y00781147
X01096345Y00781199
X01088853
X01081345
X01081294Y00788706
X01088801
X01096294
X0106Y007525
X01021
X01Y00755
Y0078
X0103Y007715
X0097Y007565
X00955Y0079
X0108143Y00724
X011475Y00677998
X0117Y006435
X011475Y00477998
X011125Y004875
X010775Y004775
X0108Y004475
X0109Y004475
X01088655Y00418801
X01096147
X01103853
X01111147
X01118655Y0041875
X01118801Y00411147
Y00403655
X01111294Y00403706
X01104
Y00411199
X01111294
X01096294
X01088801
Y00403706
X01096294
X01081294
Y00411199
X01081147Y00418801
X01045Y0041
X01052499Y00399998
X01Y004
Y0041
Y0042
Y0044
X0098Y004475
X0097Y004285
X0094Y004475
X0091857Y00476
X009225Y005225
X0092Y005525
X0091Y005525
X00911345Y00581199
X00903853
X00896147
X00888853
X00881345Y0058125
X00881199Y00588853
Y00596345
X00881147Y00603801
X00888655Y0060375
X00895949
X00896Y00596294
X00888706
Y00588801
X00896
X00903706
X00911199
Y00596294
X00903706
X00903655Y0060375
X00911147
X00918655
X00918706Y00596294
Y00588801
X00918853Y00581199
X00918706Y00611294
X00911199
X00903706
X00903655Y00618801
X00911147
X00918655
X00895949
X00888655
X00881147Y00618853
X00881199Y00611345
X00888706Y00611294
X00896
X00947501Y00600002
X00955Y0059
X0097Y005565
X0103Y004435
X00947501Y00400002
X00918655Y0040375
X00911147
X00903655
X00903706Y00411294
X00911199
X00918706
X00918655Y00418801
X00911147
X00903655
X00895949
X00888655
X00881147Y00418853
X00881199Y00411345
X00888706Y00411294
X00896
X00895949Y0040375
X00888655
X00881147Y00403801
X008Y004
Y0041
Y0042
X0117Y004435
X0077
X007475Y00477998
X007125Y004875
Y00515
X007375Y00515
Y005525
X0076Y00546
Y00585
X00718801Y00588655
X00711294Y00588706
X00704
X00704051Y00581199
X00711345
X00718853Y00581147
Y00596199
X00718801Y00603655
Y00611147
X00711294Y00611199
X00704
Y00603706
X00711294
X00711345Y0059625
X00704051
X00696345
X00688853
X00681345
X00681294Y00603706
Y00611199
X00688801
Y00603706
X00696294
Y00611199
X00696147Y00618801
X00688655
X00681147
X00703853
X00711147
X00718655Y0061875
X00696294Y00588706
X00688801
X00681294
X00681345Y00581199
X00688853
X00696345
X00652499Y00599998
X00645Y0061
X006
Y005975
Y00585
Y005725
Y0056
X0062Y005525
X0063Y005715
X0066Y005525
X0068143Y00524
X006775Y004775
X0068Y004475
X0069Y004475
X00688655Y00418801
X00696147
X00703853
X00711147
X00718655Y0041875
X00718801Y00411147
Y00403655
X00711294Y00403706
X00704
Y00411199
X00711294
X00696294
Y00403706
X00688801
Y00411199
X00681294
Y00403706
X00681147Y00418801
X00645Y0041
X00652499Y00399998
X006Y004
Y0041
Y0042
Y0043
Y0044
X0058Y004475
X0057Y004285
X0054Y004475
X0051857Y00476
X004875Y00485
X004625Y00485
Y004475
X0043Y00445
X0044Y00415
X00481199Y00411345
X00488706Y00411294
X00496
X00495949Y00418801
X00488655
X00481147Y00418853
Y00403801
X00488655Y0040375
X00495949
X00503655
X00511147
X00518655
X00518706Y00411294
X00511199
X00503706
X00503655Y00418801
X00511147
X00518655
X00547501Y00400002
X0063Y004435
X0057Y005565
X00555Y0059
X00547501Y00600002
X00518706Y00596294
Y00588801
X00511199
Y00596294
X00503706
Y00588801
X00496
X00488706
Y00596294
X00496
X00495949Y0060375
X00488655
X00481147Y00603801
X00481199Y00596345
Y00588853
X00481345Y0058125
X00488853Y00581199
X00496147
X00503853
X00511345
X00518853
X00518655Y0060375
X00511147
X00503655
X00503706Y00611294
X00511199
X00518706
X00518655Y00618801
X00511147
X00503655
X00495949
X00488655
X00481147Y00618853
X00481199Y00611345
X00488706Y00611294
X00496
X0044Y00615
X0043Y00645
X004625Y006475
X004625Y00685
X004875Y00685
Y007125
X004525Y00722002
X0043Y007565
X00481345Y0078125
X00488853Y00781199
X00496147
X00503853
X00511345
X00518853
X00518706Y00788801
X00511199
X00503706
X00496
X00488706
X00481199Y00788853
X0051Y007525
X0052Y007525
X005225Y007225
X0051857Y00676
X0054Y006475
X0058
X0057Y006285
X006Y00625
X0063Y006435
X0068Y006475
X0069Y006475
X006775Y006775
X007125Y006875
Y00715
X007375Y00715
Y007525
X0076Y007455
Y00785
X00718801Y00788655
X00711294Y00788706
X00704
X00704051Y00781199
X00711345
X00718853Y00781147
X00696345Y00781199
X00688853
X00681345
X00681294Y00788706
X00688801
X00696294
X0066Y007525
X006195
X006Y0076
Y00775
Y0079
X00555
X0057Y007565
X006305Y007715
X0068143Y00724
X007475Y00677998
X0077Y006435
X0052Y005525
X0051Y005525
X005225Y005225
X004875Y005125
X004525Y00522002
X0043Y005565
X0044Y00815
X0043Y00845
X004625Y008475
Y00885
X004875Y00885
Y009125
X004525Y00922002
X0043Y009565
X0044Y01015
X0043Y01045
X004625Y010475
Y01085
X004525Y01096
X0044Y01099
X004525Y01114
Y01131
Y01149
X004725
Y01131
X004925Y01149
X005125
Y01131
Y011125
X0052Y01099
X005
X0048
X004875Y01085
X0051857Y01076
X0054Y01099
X0056
X0058
X006
X0062
X006475Y01095
Y01075
X006775Y010775
Y0109
Y011
X0068Y01065
X00685Y01055
X0068Y010475
X0069Y010475
X00688655Y01018801
X00696147
X00703853
X00711147
X00718655Y0101875
X00718801Y01011147
Y01003655
X00718853Y00996199
X00711345Y0099625
X00704051
X00704Y01003706
X00711294
Y01011199
X00704
X00696294
X00688801
Y01003706
X00696294
X00696345Y0099625
X00688853
X00681345
X00681294Y01003706
Y01011199
X00681147Y01018801
X00681294Y00988706
X00688801
X00696294
X00696345Y00981199
X00688853
X00681345
X00704051
X00711345
X00718853Y00981147
X00718801Y00988655
X00711294Y00988706
X00704
X0076Y00985
X0077Y00955
X007375Y009525
Y00915
X007125Y00915
Y008875
X007475Y00877998
X0077Y008435
X00718655Y0081875
X00711147Y00818801
X00703853
X00696147
X00688655
X00681147
X00681294Y00811199
Y00803706
X00688801
Y00811199
X00696294
Y00803706
X00696345Y0079625
X00688853
X00681345
X00704051
X00711345
X00711294Y00803706
X00704
Y00811199
X00711294
X00718801Y00811147
Y00803655
X00718853Y00796199
X00652499Y00799998
X00645Y0081
X0063Y008435
X006Y0084
Y0082
Y00805
X0057Y008285
X0058Y008475
X0054
X0051857Y00876
X005225Y009225
X0051Y009525
X00511345Y00981199
X00503853
X00496147
X00488853
X00481345Y0098125
X00481199Y00988853
Y00996345
X00481147Y01003801
X00488655Y0100375
X00495949
X00496Y00996294
X00488706
Y00988801
X00496
X00503706
Y00996294
X00511199
Y00988801
X00518706
Y00996294
X00518655Y0100375
X00511147
X00503655
X00503706Y01011294
X00511199
X00518706
X00518655Y01018801
X00511147
X00503655
X00495949
X00488655
X00481147Y01018853
X00481199Y01011345
X00488706Y01011294
X00496
X00518853Y00981199
X00555Y0099
X00547501Y01000002
X0057Y010285
X0058Y010475
X00584Y01065
X006Y0107
Y01055
Y0104
Y0102
Y01005
Y0099
Y00975
Y0096
X0062Y009525
X0063Y009715
X0066Y009525
X006825Y00924
X006775Y008775
X0068Y008475
X0069Y008475
X00547501Y00800002
X00518706Y00796294
X00511199
X00503706
X00503655Y0080375
X00511147
X00518655
X00518706Y00811294
X00511199
X00503706
X00503655Y00818801
X00511147
X00518655
X00495949
X00488655
X00481147Y00818853
X00481199Y00811345
X00488706Y00811294
X00496
X00495949Y0080375
X00488655
X00488706Y00796294
X00496
X00481199Y00796345
X00481147Y00803801
X0057Y009565
X0054Y010475
X0063Y010435
X00645Y0101
X00652499Y00999998
X00776Y010175
X007635Y01061998
X00745Y010825
X007375Y01075
X007125Y01095
X00725Y01125
X007
X00685Y01155
Y01165
X0069Y0116
Y0117
X00685Y01175
X0068Y0117
X00675Y01175
X0067Y0117
X0066
X00665Y01175
Y01185
X0066Y0119
Y0118
X00655Y01185
X0065Y0119
Y0118
X00655Y01175
X0065Y0117
X00655Y01165
Y01155
X0065Y0116
X0066
X00665Y01155
Y01165
X00675
Y01155
X0067Y0116
X0068
X0068Y0118
X0067
X00675Y01185
X0068Y0119
X00685Y01185
X0069Y0119
Y0118
X0067Y0119
X00634Y011875
X00616
Y011675
X00634
Y011475
X00616
Y011275
X00589Y011375
X00571
Y011575
X00589
Y011775
X00571
X00549Y011675
X00531
X005325Y01149
X00531Y011875
X00549
X00571Y011175
X00589
X004325Y01149
X00755Y01155
X0075Y0116
X00755Y01165
X00765
X0076Y0116
X00765Y01155
X0077Y0116
X00775Y01155
X00775Y01165
X00785
X0079Y0116
X00785Y01155
X0078Y0116
Y0117
X00785Y01175
X0079Y0117
Y0118
X0078
X0077
X0076
Y0119
X00765Y01185
Y01175
X0076Y0117
X0075
X00755Y01175
X0075Y0118
Y0119
X00755Y01185
X0077Y0119
X0078
X00775Y01185
X00785
X0079Y0119
X00775Y01175
X0077Y0117
X008125Y0118
X008305
Y0116
X00845
Y01145
X008475Y01135
X008525Y011275
X008625
Y011175
X00875
X00885Y011125
X008875Y01085
X008975Y010675
X0091857Y01076
X0094Y010475
X0098Y010475
X01Y01045
Y0106
Y01075
Y0109
Y01105
X009825Y01115
X009875Y011225
X009825Y0113
X009875Y011375
X009825Y01145
X00975Y011525
X009725Y011625
X00954Y0117
X00936
X00919
X00901
X008875
X00879Y0118
X00861
X00901Y0119
X00954
X010525Y01185
X010575Y011775
X011425Y01161
Y01149
X011625
Y01161
X011475Y01077998
X011325Y0105
X011225
X0109Y010475
X0108Y010475
X01081147Y01018801
X01088655
X01096147
X01103853
X01111147
X01118655Y0101875
X01118801Y01011147
Y01003655
X01118853Y00996199
X01111345Y0099625
X01104051
X01104Y01003706
X01111294
Y01011199
X01104
X01096294
Y01003706
X01088801
Y01011199
X01081294
Y01003706
X01081345Y0099625
X01088853
X01096345
X01096294Y00988706
X01088801
X01081294
X01081345Y00981199
X01088853
X01096345
X01104051
X01111345
X01118853Y00981147
X01118801Y00988655
X01111294Y00988706
X01104
X0116Y00985
X0117Y00955
X011375Y009525
Y00915
X011125Y00915
Y008875
X011475Y00877998
X0117Y008435
X01118655Y0081875
X01111147Y00818801
X01103853
X01096147
X01088655
X01081147
X01081294Y00811199
Y00803706
X01088801
X01096294
Y00811199
X01088801
X01088853Y0079625
X01096345
X01104051
X01111345
X01111294Y00803706
X01104
Y00811199
X01111294
X01118801Y00811147
Y00803655
X01118853Y00796199
X01081345Y0079625
X01052499Y00799998
X01045Y0081
X01
Y00795
Y008275
Y00845
X0098Y008475
X0097Y008285
X0094Y008475
X0091857Y00876
X008875Y00885
X008625Y00885
X008625Y008475
X0083Y00845
X0084Y00815
X00881199Y00811345
X00888706Y00811294
X00896
X00895949Y00818801
X00888655
X00881147Y00818853
Y00803801
X00881199Y00796345
X00888706Y00796294
X00896
X00895949Y0080375
X00888655
X00903655
X00911147
X00918655
X00918706Y00796294
X00911199
X00903706
Y00811294
X00911199
X00918706
X00918655Y00818801
X00911147
X00903655
X00947501Y00800002
X0103Y008435
X0108Y008475
X0109Y008475
X010775Y008775
X0108143Y00924
X0106Y009525
X01029501Y00961
X0103Y009715
X01Y0097
Y009825
Y01005
Y01015
Y0103
X0097Y010285
X009625Y009975
X00955Y0099
X00918706Y00988801
Y00996294
X00911199
Y00988801
X00903706
Y00996294
X00903655Y0100375
X00911147
X00918655
X00918706Y01011294
X00911199
X00903706
X00903655Y01018801
X00911147
X00918655
X00895949
X00888655
X00881147Y01018853
X00881199Y01011345
X00888706Y01011294
X00896
X00895949Y0100375
X00888655
X00888706Y00996294
X00896
Y00988801
X00888706
X00881199Y00988853
Y00996345
X00881147Y01003801
X00881345Y0098125
X00888853Y00981199
X00896147
X00903853
X00911345
X00918853
X0092Y009525
X0091Y009525
X009225Y009225
X008875Y009125
X008525Y00922002
X0083Y009565
X008Y0097
Y0099
Y0101
Y0102
Y0103
Y01045
Y0106
X008375Y0106
X00835Y01075
X0083Y010825
X00835Y0109
X0083Y01045
X008625Y010475
X0084Y01015
X008Y0111
X008125Y0116
X0103Y010435
X01045Y0101
X01052499Y00999998
X0109Y010675
X0108Y010775
X011125Y010875
X0117Y010435
X0097Y009565
X008Y0082
Y00805
X011957Y01167
X012245Y01182
X012375Y011925
X01215Y01208
X012211Y01223
X012084
X0124Y01242
Y01258
X0123Y012865
X0123075Y01302
Y01314
X0123025Y0132925
X012305Y0134275
X012425Y013425
Y013225
X01215Y01325
Y013425
X011925Y0134275
X0120025Y0133375
X012305Y013565
X0123Y013755
Y014
X0123075Y0141725
X01231Y0144225
X0121Y0143
X01208Y014025
X0119525Y013855
X011975Y012775
X01211Y014865
X0122975
X011825Y014825
X01175Y01465
X011675Y015
X0113Y015225
X01085
X010915Y01455
X010425Y014565
X01025Y01456
X010375Y014775
X010325Y014896
X009795Y01495
X00985Y014685
X00975Y014575
X009475Y014425
X00945Y0143
X0095Y014115
Y013935
X009325Y01385
X009165
X00913Y01367
X00925
X00893Y01366
X00892Y01355
Y01345
X00873Y0136
X00855
X008365
X008185
X0083625Y01380863
Y01398863
X0084Y01417
Y01435
X0082
Y01417
X008
Y01435
X00835Y01452
X00855
X00875
X0088Y01435
Y01417
X0089Y01426
X009Y01417
Y01391
X0088Y0138075
X0086Y01417
Y01435
X00861Y0148
X00855
X00845Y01478
X00879Y014925
X0089Y014825
X00905Y014775
X00915Y01452
X00925Y01435
X0095Y01345
X00985Y0135
X01009Y01347
Y01335
X01007Y01303
X00985Y01305
X010075Y01275
X01015
X01008Y012675
Y012525
X010085Y012375
Y012125
X009925
X01Y012
X010075Y011925
X010475
X010425Y012
X00975Y01201
X00954Y0121
X00936
X00919
X00901
Y0123
X00919
X00936
X00954
X00975Y01253
X00919Y0125
X00901
X009Y012675
X00915Y012725
X009125Y01295
X0093Y0131
X008875Y013075
X008775Y01295
Y012835
X00883Y0126
X00865
Y0124
X00883
X008655Y0122
X008475
X008305
X008125
Y0124
X008305
Y0126
X008125
Y0128
X008305
Y013
X008125
X008605Y013015
X009925Y013725
X01025Y013825
X010325Y0139
X0105Y013925
X0106Y0139
X01077Y01390898
X0107125Y013975
X01069727Y01379727
X01070074Y01369926
X0107Y0136
X01065Y013525
X011Y013575
X0115Y01366
X01172Y01363
X0117Y01355
X01175Y013755
X011515Y01421
X01134Y01428
X01115Y01428
X01145Y01445
X01129Y01305
X011075Y013045
X0108Y01285
X011Y012425
X011345Y01235
X011375Y01214
X01122Y012
X01156Y011975
X01151Y012555
X0115Y01275
Y0129
X01175Y012865
X011725Y01265
X00885Y01515
X00879Y015355
Y015545
X0079Y0148
Y01452
X0077
X00745
X00725
X00705
X00685
X00665
X0066525Y01425
X0066025Y0142
Y0141
X0066525Y01415
Y01405
X0066025Y014
X0067025
X0068025
X0067525Y01405
X0068Y0141
X0067025
X0067525Y01415
X0068525
X00680251Y01419999
X0069025Y0142
X0068525Y01425
X0069525
X0070025Y0142
Y0141
X0069525Y01415
Y01405
X0070025Y014
X0069025
X0068525Y01405
X0069025Y0141
X00685Y013875
X00675001Y01387501
X00665001
X00655001Y01387501
X00650001Y01380001
X00655001Y01375001
X00650001Y01370001
Y01360001
X00655001Y01365001
Y01355001
X00650001Y01350001
X00660001
X00665001Y01345001
X00660001Y01340001
X00655001Y01345001
X00650001Y01340001
X00655001Y01335001
X00650001Y01330001
Y01320001
X00655001Y01315002
X00660001Y01320001
X00665001Y01325001
X00660001Y01330001
X00655001Y01325001
X00665001Y01335001
X00675001
X0068Y0134
X00685001Y01335001
X00680001Y01330001
X00685001Y01325001
X00680001Y01320001
X00685001Y01315001
X00675001
X0067Y0132
X00665001Y01315001
X00660001Y01310001
Y01300001
X00655001Y01305001
X00665001
X00670001Y01300001
Y01310001
X00675001Y01305001
X00680001Y01310001
X00685001Y01305001
Y01295001
X0068Y013
X00675001Y01295001
X00680001Y01290001
Y01280001
X00685001Y01285001
Y01275001
X00675001
X00670001Y01280001
Y01290001
X00675001Y01285001
X00665001
Y01275001
X00660001Y01280001
Y01290001
X00655001Y01295001
X00665001
X00650001Y01300001
Y01290001
Y01280001
X00655001Y01285001
Y01275001
X00650001Y01270001
Y01260001
X00655001Y01255001
Y01265001
X00660001Y01260001
X00665001Y01265001
Y01255001
X00660001Y01250001
Y01240001
X00665001Y01245001
X00670001Y01240001
X00675001Y01245001
X00680001Y01240001
X00675001Y01235001
X00685001
X00690001Y01240001
Y01250001
X00685001Y01245001
Y01255001
X0068Y0126
X00675001Y01255001
X00670001Y01250001
Y01260001
X00675001Y01265001
X00670001Y01270001
X00680001
X00685001Y01265001
X00680001Y01250001
Y01230001
X00675001Y01225001
X00670001Y01220001
X00680001
X00675001Y01215001
X00670001Y01210001
Y01200001
X00675001Y01205001
X00680001Y01200001
X00685001Y01205001
X00690001Y01200001
Y01210001
X00685001Y01215001
X00680001Y01210001
X00690001Y01220001
Y01230001
X00685001Y01225001
X00670001Y01230001
X00665001Y01235001
X00655001
X00650001Y01240001
Y01230001
Y01220001
X00655001Y01225001
X00660001Y01220001
Y01230001
X00665001Y01225001
Y01215001
X00660001Y01210001
X00665001Y01205001
X00660001Y01200001
X00650001
X00655001Y01205001
X00650001Y01210001
X00655001Y01215001
X00655Y01195
X00665
X00675Y01195
X00685
X00634Y012075
X00616
X005975Y01201
Y01219
X005975Y01236
Y01254
X00589Y012725
X00571
X00549Y012825
X00531
Y012625
X00549
Y012425
X00531
X00499999Y01240001
X00495001Y01235001
X00490001Y01240001
X00494999Y01245001
X00484999
X00480001Y01240001
X00485001Y01235001
X00490001Y01230001
X00485001Y01225001
X00480001Y01220001
X00490001
X00485001Y01215001
X00480001Y01210001
Y01200001
X00485001Y01205001
X00490001Y01200001
X00495001Y01205001
X00500001Y01200001
Y01210001
X00495001Y01215001
X00490001Y01210001
X00500001Y01220001
Y01230001
X00495001Y01225001
X00480001Y01230001
X00475001Y01235001
X00465001
X00469999Y01240001
X00474999Y01245001
X00479999Y01250001
X00469999
X00459999
X00464999Y01245001
X00459999Y01240001
X00460001Y01230001
Y01220001
X00465001Y01225001
X00470001Y01220001
Y01230001
X00475001Y01225001
Y01215001
X00470001Y01210001
X00475001Y01205001
X00470001Y01200001
X00460001
X00465001Y01205001
X00460001Y01210001
X00465001Y01215001
X00489999Y01250001
X00499999
X005075Y01301
Y01319
X004875
Y01301
X004675
Y01319
X00467001Y01352251
X00467001Y01358751
Y01365501
X00467001Y01372251
X00462001Y01369001
Y01362251
Y01355501
X00457001Y01352251
X00457001Y01358751
Y01365501
X00457001Y01372252
X00430001Y01379251
X00423251
X00416251
X00409001
Y01385501
X00409951Y014
X00404951Y01405
X00409951Y0141
X00404951Y01415
X00409951Y0142
X00404951Y01425
X00399951Y0142
Y0141
Y014
X00402999Y01367997
X004105Y0136725
X00418
X00425Y01367251
X0042125Y0135875
X00414Y01359
X00406001Y01359001
X004175Y0134635
X00415001Y01340001
X00423001
X00434501Y01340052
X00429001Y01346401
Y01333701
X004175Y0133365
X00415001Y01327501
X00423001
X00434501Y01327552
X00429001Y01321001
X004175Y0132095
X00417499Y01304049
X00415Y012977
X00423
X004345
X00428999Y01304049
Y01291349
X00417499
X00415Y012852
X00423
X004345
X00428999Y01278649
X00417499
Y01265949
X00411725Y01266001
X00406001
X00400001Y01250001
Y01240001
Y01230001
Y01220001
Y01210001
Y01200001
X00406001Y01300001
Y01327501
X00438501Y01387751
Y01395751
X004025Y014535
Y014715
X0053425Y0139025
X00546251Y01398864
X00546277Y01379817
X00547751Y01361751
X00529751
X005275Y01318999
Y01300999
X005475Y01301
Y01319
X005675
Y01301
X005925Y013185
Y013365
X006125
Y013185
X006325
Y013365
X00634Y01355
X00616
Y013775
Y014
X00634
X00594
Y0136
X00576
X00660001Y01360001
X00665001Y01355001
X0067Y0136
X00675001Y01355001
Y01365001
X00670001Y01370001
Y01380001
X00675001Y01375001
X0068Y0138
X00680001Y01370001
X00685001Y01375001
Y01365001
Y01355001
X00680001Y01360001
Y01350001
X00685001Y01345001
X00675001
X00670001Y01350001
Y01340001
Y01330001
X00675001Y01325001
X00696Y013275
X00705
X00713
X00724501Y01327551
X00719Y013337
X00707499Y01333649
X00705Y0134
X00713
X00724501Y01340051
X00719Y013464
X00707499Y01346349
X00705Y01359
X00712
X00714999Y0136725
X00708
X00701125
X00694Y01367499
X00698Y01359
X00699Y0137925
Y013855
X0070625Y0137925
X0071325
X0072
X007285Y0138775
Y0139575
X0072Y01417
Y01435
X0074
Y01417
X00759999Y01416999
Y01434999
X0078Y01435
Y01417
X0075675Y013725
X00757Y013655
Y0135875
X00757001Y01352251
X00752Y013555
Y0136225
Y01369
X00747001Y01372251
X00747Y013655
Y0135875
X00747001Y01352251
X00754Y013225
X00736
X00719Y01321
X00707499Y01320949
X007075Y0130035
Y0128765
X00705001Y01281301
X00713001
X00724501
X00719Y0128765
Y0127495
X007075
X00705001Y01268801
X00713001
X00724501
X00719Y0126225
X007075
X00736Y012825
X00754
Y013025
X00736
X007725Y01313
Y01331
X007925
Y01313
X00790001Y01210001
X00785001Y01215001
X00780001Y01210001
X00775001Y01215001
X00770001Y01210001
X00760001
X00765001Y01215001
X00755001
X00750001Y01210001
X00755001Y01205001
X00750001Y01200001
X00760001
X00765001Y01205001
X00775001
X00770001Y01200001
X00780001
X00785001Y01205001
X00790001Y01200001
X00785Y01195
X00775
X00765Y01195
X00755
X00655001Y01245001
X00650001Y01250001
X00634Y012425
X00616
Y012625
Y0128
X00634
Y012625
X00660001Y01270001
X00650001Y01310001
X00634Y013
X00616
X00660001Y01370001
X00665001Y01365001
Y01375001
X00660001Y01380001
X0067025Y0142
X0067525Y01425
X00675Y01478
X00685Y0148
X00683Y0149
X00666
X00706Y014925
X00705Y0148
X00725
X00735Y01478
X003825Y014715
Y014535
X003625
Y014715
X00369951Y0142
X00374951Y01425
Y01415
X00369951Y0141
Y014
X00374951Y01405
X00379951Y014
X00389951
X00384951Y01405
X00394951
Y01415
X00389952Y01419999
X00394951Y01425
X00384951
X00379951Y0142
Y0141
X00384951Y01415
X00389951Y0141
X00385001Y01385001
X00395001
Y01375001
X0039Y0138
X00385001Y01375001
X00380001Y01380001
X00375001Y01375001
X00370001Y01380001
X00375001Y01385001
X00365001
X00360001Y01380001
Y01370001
X00365001Y01375001
Y01365001
X00360001Y01360001
X00370001
X00375001Y01365001
X00370001Y01370001
X00380001
X00385001Y01365001
Y01355001
X0038Y0136
X00375001Y01355001
X00370001Y01350001
Y01340001
X00365001Y01345001
Y01335001
X00360001Y01340001
Y01350001
X00365001Y01355001
X00375001Y01345001
Y01335001
X00380001Y01330001
X00385001Y01335001
X0039Y0134
X00390001Y01330001
X00395001Y01335001
Y01325001
Y01315001
X00390001Y01320001
Y01310001
X00395001Y01305001
X00385001
X00380001Y01310001
X0038Y0132
X00375001Y01315001
X00370001Y01320001
X00365001Y01315002
X00365001Y01325001
X00370001Y01330001
X00375001Y01325001
X00385001
Y01315001
X00380001Y01300001
X00385001Y01295001
X0039Y013
X00395001Y01295001
X00390001Y01290001
X00395001Y01285001
Y01275001
X00390001Y01280001
X00385001Y01285001
X00380001Y01290001
Y01280001
X00385001Y01275001
X00380001Y01270001
X00370001
Y01260001
X00375001Y01265001
Y01255001
X00370001Y01250001
X00365001Y01255001
Y01265001
X00360001Y01260001
Y01270001
X00365001Y01275001
Y01285001
X00360001Y01290001
Y01280001
X00370001
X00375001Y01275001
Y01285001
Y01295001
X00365001
X00370001Y01290001
Y01300001
X00375001Y01305001
X00370001Y01310001
X00365001Y01305001
X00360001Y01310001
Y01320001
Y01330001
Y01300001
Y01250001
X00365001Y01245001
X00360001Y01240001
X00365001Y01235001
Y01225001
X00360001Y01230001
Y01220001
X00365001Y01215001
X00360001Y01210001
X00370001
X00375001Y01215001
Y01225001
X00370001Y01230001
Y01220001
X00380001
X00390001
X00385001Y01225001
X00390001Y01230001
X00395001Y01225001
Y01235001
Y01245001
X00390001Y01250001
X0039Y0126
X00385001Y01255001
Y01265001
X00380001Y01260001
Y01250001
X00385001Y01245001
Y01235001
X00390001Y01240001
X00380001
X00375001Y01245001
X00370001Y01240001
X00375001Y01235001
X00380001Y01230001
X00385001Y01215001
X00380001Y01210001
X00385001Y01205001
X00380001Y01200001
X00370001
X00375001Y01205001
X00365001
X00360001Y01200001
X00390001
X00395001Y01205001
Y01215001
X00390001Y01210001
X00395001Y01255001
Y01265001
X00390001Y01270001
Y01350001
X00395001Y01345001
Y01355001
Y01365001
X00390001Y01360001
Y01370001
X00380001Y01350001
Y01340001
X00385001Y01345001
T02
X008Y003025
Y003525
Y0044
Y0049
Y0064
Y0069
X01Y006925
Y006425
X006Y0064
Y0069
X006225Y011125
X006725
X007625
X005325
X004825
X008125
X009025
X009525
X008Y0089
Y0084
X008575Y012
Y0125
Y01335
Y01385
X00575
Y01335
Y012525
Y012025
X0061Y014525
Y015025
X00485Y0148
Y0143
T03
X009Y01535
X0097
T04
X00935Y0146
Y01485
Y0151
Y01535
X0102Y01545
X010454
T05
X004576Y0143
T06
X0111Y01525
X011496
T07
X005084Y0143
X005592
X0061
X0056Y0148
X0051
X0046
T08
X004322Y014554
X006354
T09
X003875Y002875
X012125
X01Y005
X006
X003875Y011125
X006Y009
X01
X012125Y011125
X012125Y01525
X0069Y0153
X005846Y015316
X00483
X003875Y01525
M30
