%FSLAX44Y44*%
%MOMM*%
G71*
G01*
G75*
G04 Layer_Color=8388736*
G04:AMPARAMS|DCode=10|XSize=2.7mm|YSize=1.15mm|CornerRadius=0.2013mm|HoleSize=0mm|Usage=FLASHONLY|Rotation=90.000|XOffset=0mm|YOffset=0mm|HoleType=Round|Shape=RoundedRectangle|*
%AMROUNDEDRECTD10*
21,1,2.7000,0.7475,0,0,90.0*
21,1,2.2975,1.1500,0,0,90.0*
1,1,0.4025,0.3738,1.1487*
1,1,0.4025,0.3738,-1.1487*
1,1,0.4025,-0.3738,-1.1487*
1,1,0.4025,-0.3738,1.1487*
%
%ADD10ROUNDEDRECTD10*%
G04:AMPARAMS|DCode=11|XSize=2.7mm|YSize=1.15mm|CornerRadius=0.2013mm|HoleSize=0mm|Usage=FLASHONLY|Rotation=0.000|XOffset=0mm|YOffset=0mm|HoleType=Round|Shape=RoundedRectangle|*
%AMROUNDEDRECTD11*
21,1,2.7000,0.7475,0,0,0.0*
21,1,2.2975,1.1500,0,0,0.0*
1,1,0.4025,1.1487,-0.3738*
1,1,0.4025,-1.1487,-0.3738*
1,1,0.4025,-1.1487,0.3738*
1,1,0.4025,1.1487,0.3738*
%
%ADD11ROUNDEDRECTD11*%
%ADD12O,1.3500X0.5000*%
G04:AMPARAMS|DCode=13|XSize=1mm|YSize=0.9mm|CornerRadius=0.198mm|HoleSize=0mm|Usage=FLASHONLY|Rotation=180.000|XOffset=0mm|YOffset=0mm|HoleType=Round|Shape=RoundedRectangle|*
%AMROUNDEDRECTD13*
21,1,1.0000,0.5040,0,0,180.0*
21,1,0.6040,0.9000,0,0,180.0*
1,1,0.3960,-0.3020,0.2520*
1,1,0.3960,0.3020,0.2520*
1,1,0.3960,0.3020,-0.2520*
1,1,0.3960,-0.3020,-0.2520*
%
%ADD13ROUNDEDRECTD13*%
G04:AMPARAMS|DCode=14|XSize=1.45mm|YSize=1.15mm|CornerRadius=0.2013mm|HoleSize=0mm|Usage=FLASHONLY|Rotation=270.000|XOffset=0mm|YOffset=0mm|HoleType=Round|Shape=RoundedRectangle|*
%AMROUNDEDRECTD14*
21,1,1.4500,0.7475,0,0,270.0*
21,1,1.0475,1.1500,0,0,270.0*
1,1,0.4025,-0.3738,-0.5238*
1,1,0.4025,-0.3738,0.5238*
1,1,0.4025,0.3738,0.5238*
1,1,0.4025,0.3738,-0.5238*
%
%ADD14ROUNDEDRECTD14*%
%ADD15O,1.5500X0.6000*%
G04:AMPARAMS|DCode=16|XSize=1mm|YSize=0.95mm|CornerRadius=0.1995mm|HoleSize=0mm|Usage=FLASHONLY|Rotation=270.000|XOffset=0mm|YOffset=0mm|HoleType=Round|Shape=RoundedRectangle|*
%AMROUNDEDRECTD16*
21,1,1.0000,0.5510,0,0,270.0*
21,1,0.6010,0.9500,0,0,270.0*
1,1,0.3990,-0.2755,-0.3005*
1,1,0.3990,-0.2755,0.3005*
1,1,0.3990,0.2755,0.3005*
1,1,0.3990,0.2755,-0.3005*
%
%ADD16ROUNDEDRECTD16*%
G04:AMPARAMS|DCode=17|XSize=1mm|YSize=0.95mm|CornerRadius=0.1995mm|HoleSize=0mm|Usage=FLASHONLY|Rotation=180.000|XOffset=0mm|YOffset=0mm|HoleType=Round|Shape=RoundedRectangle|*
%AMROUNDEDRECTD17*
21,1,1.0000,0.5510,0,0,180.0*
21,1,0.6010,0.9500,0,0,180.0*
1,1,0.3990,-0.3005,0.2755*
1,1,0.3990,0.3005,0.2755*
1,1,0.3990,0.3005,-0.2755*
1,1,0.3990,-0.3005,-0.2755*
%
%ADD17ROUNDEDRECTD17*%
G04:AMPARAMS|DCode=18|XSize=1mm|YSize=0.9mm|CornerRadius=0.198mm|HoleSize=0mm|Usage=FLASHONLY|Rotation=270.000|XOffset=0mm|YOffset=0mm|HoleType=Round|Shape=RoundedRectangle|*
%AMROUNDEDRECTD18*
21,1,1.0000,0.5040,0,0,270.0*
21,1,0.6040,0.9000,0,0,270.0*
1,1,0.3960,-0.2520,-0.3020*
1,1,0.3960,-0.2520,0.3020*
1,1,0.3960,0.2520,0.3020*
1,1,0.3960,0.2520,-0.3020*
%
%ADD18ROUNDEDRECTD18*%
G04:AMPARAMS|DCode=19|XSize=1.45mm|YSize=1.15mm|CornerRadius=0.2013mm|HoleSize=0mm|Usage=FLASHONLY|Rotation=0.000|XOffset=0mm|YOffset=0mm|HoleType=Round|Shape=RoundedRectangle|*
%AMROUNDEDRECTD19*
21,1,1.4500,0.7475,0,0,0.0*
21,1,1.0475,1.1500,0,0,0.0*
1,1,0.4025,0.5238,-0.3738*
1,1,0.4025,-0.5238,-0.3738*
1,1,0.4025,-0.5238,0.3738*
1,1,0.4025,0.5238,0.3738*
%
%ADD19ROUNDEDRECTD19*%
%ADD20O,0.6000X1.5500*%
G04:AMPARAMS|DCode=21|XSize=1.05mm|YSize=0.65mm|CornerRadius=0.2015mm|HoleSize=0mm|Usage=FLASHONLY|Rotation=180.000|XOffset=0mm|YOffset=0mm|HoleType=Round|Shape=RoundedRectangle|*
%AMROUNDEDRECTD21*
21,1,1.0500,0.2470,0,0,180.0*
21,1,0.6470,0.6500,0,0,180.0*
1,1,0.4030,-0.3235,0.1235*
1,1,0.4030,0.3235,0.1235*
1,1,0.4030,0.3235,-0.1235*
1,1,0.4030,-0.3235,-0.1235*
%
%ADD21ROUNDEDRECTD21*%
G04:AMPARAMS|DCode=22|XSize=1.75mm|YSize=1.05mm|CornerRadius=0.1995mm|HoleSize=0mm|Usage=FLASHONLY|Rotation=270.000|XOffset=0mm|YOffset=0mm|HoleType=Round|Shape=RoundedRectangle|*
%AMROUNDEDRECTD22*
21,1,1.7500,0.6510,0,0,270.0*
21,1,1.3510,1.0500,0,0,270.0*
1,1,0.3990,-0.3255,-0.6755*
1,1,0.3990,-0.3255,0.6755*
1,1,0.3990,0.3255,0.6755*
1,1,0.3990,0.3255,-0.6755*
%
%ADD22ROUNDEDRECTD22*%
%ADD23O,0.5000X1.3500*%
G04:AMPARAMS|DCode=24|XSize=6.5mm|YSize=5mm|CornerRadius=0.25mm|HoleSize=0mm|Usage=FLASHONLY|Rotation=90.000|XOffset=0mm|YOffset=0mm|HoleType=Round|Shape=RoundedRectangle|*
%AMROUNDEDRECTD24*
21,1,6.5000,4.5000,0,0,90.0*
21,1,6.0000,5.0000,0,0,90.0*
1,1,0.5000,2.2500,3.0000*
1,1,0.5000,2.2500,-3.0000*
1,1,0.5000,-2.2500,-3.0000*
1,1,0.5000,-2.2500,3.0000*
%
%ADD24ROUNDEDRECTD24*%
%ADD25C,1.3000*%
%ADD26R,1.3000X1.3000*%
G04:AMPARAMS|DCode=27|XSize=4.9mm|YSize=1.6mm|CornerRadius=0.2mm|HoleSize=0mm|Usage=FLASHONLY|Rotation=180.000|XOffset=0mm|YOffset=0mm|HoleType=Round|Shape=RoundedRectangle|*
%AMROUNDEDRECTD27*
21,1,4.9000,1.2000,0,0,180.0*
21,1,4.5000,1.6000,0,0,180.0*
1,1,0.4000,-2.2500,0.6000*
1,1,0.4000,2.2500,0.6000*
1,1,0.4000,2.2500,-0.6000*
1,1,0.4000,-2.2500,-0.6000*
%
%ADD27ROUNDEDRECTD27*%
%ADD28O,1.5000X0.3000*%
%ADD29O,0.3000X1.5000*%
%ADD30C,1.0000*%
G04:AMPARAMS|DCode=31|XSize=1.1mm|YSize=0.6mm|CornerRadius=0.201mm|HoleSize=0mm|Usage=FLASHONLY|Rotation=270.000|XOffset=0mm|YOffset=0mm|HoleType=Round|Shape=RoundedRectangle|*
%AMROUNDEDRECTD31*
21,1,1.1000,0.1980,0,0,270.0*
21,1,0.6980,0.6000,0,0,270.0*
1,1,0.4020,-0.0990,-0.3490*
1,1,0.4020,-0.0990,0.3490*
1,1,0.4020,0.0990,0.3490*
1,1,0.4020,0.0990,-0.3490*
%
%ADD31ROUNDEDRECTD31*%
G04:AMPARAMS|DCode=32|XSize=2.5mm|YSize=2mm|CornerRadius=0.2mm|HoleSize=0mm|Usage=FLASHONLY|Rotation=180.000|XOffset=0mm|YOffset=0mm|HoleType=Round|Shape=RoundedRectangle|*
%AMROUNDEDRECTD32*
21,1,2.5000,1.6000,0,0,180.0*
21,1,2.1000,2.0000,0,0,180.0*
1,1,0.4000,-1.0500,0.8000*
1,1,0.4000,1.0500,0.8000*
1,1,0.4000,1.0500,-0.8000*
1,1,0.4000,-1.0500,-0.8000*
%
%ADD32ROUNDEDRECTD32*%
G04:AMPARAMS|DCode=33|XSize=2.3mm|YSize=0.5mm|CornerRadius=0.2mm|HoleSize=0mm|Usage=FLASHONLY|Rotation=180.000|XOffset=0mm|YOffset=0mm|HoleType=Round|Shape=RoundedRectangle|*
%AMROUNDEDRECTD33*
21,1,2.3000,0.1000,0,0,180.0*
21,1,1.9000,0.5000,0,0,180.0*
1,1,0.4000,-0.9500,0.0500*
1,1,0.4000,0.9500,0.0500*
1,1,0.4000,0.9500,-0.0500*
1,1,0.4000,-0.9500,-0.0500*
%
%ADD33ROUNDEDRECTD33*%
G04:AMPARAMS|DCode=34|XSize=1mm|YSize=0.45mm|CornerRadius=0.1125mm|HoleSize=0mm|Usage=FLASHONLY|Rotation=0.000|XOffset=0mm|YOffset=0mm|HoleType=Round|Shape=RoundedRectangle|*
%AMROUNDEDRECTD34*
21,1,1.0000,0.2250,0,0,0.0*
21,1,0.7750,0.4500,0,0,0.0*
1,1,0.2250,0.3875,-0.1125*
1,1,0.2250,-0.3875,-0.1125*
1,1,0.2250,-0.3875,0.1125*
1,1,0.2250,0.3875,0.1125*
%
%ADD34ROUNDEDRECTD34*%
G04:AMPARAMS|DCode=35|XSize=1.35mm|YSize=1.65mm|CornerRadius=0.27mm|HoleSize=0mm|Usage=FLASHONLY|Rotation=90.000|XOffset=0mm|YOffset=0mm|HoleType=Round|Shape=RoundedRectangle|*
%AMROUNDEDRECTD35*
21,1,1.3500,1.1100,0,0,90.0*
21,1,0.8100,1.6500,0,0,90.0*
1,1,0.5400,0.5550,0.4050*
1,1,0.5400,0.5550,-0.4050*
1,1,0.5400,-0.5550,-0.4050*
1,1,0.5400,-0.5550,0.4050*
%
%ADD35ROUNDEDRECTD35*%
G04:AMPARAMS|DCode=36|XSize=0.7mm|YSize=0.25mm|CornerRadius=0.0838mm|HoleSize=0mm|Usage=FLASHONLY|Rotation=0.000|XOffset=0mm|YOffset=0mm|HoleType=Round|Shape=RoundedRectangle|*
%AMROUNDEDRECTD36*
21,1,0.7000,0.0825,0,0,0.0*
21,1,0.5325,0.2500,0,0,0.0*
1,1,0.1675,0.2662,-0.0413*
1,1,0.1675,-0.2662,-0.0413*
1,1,0.1675,-0.2662,0.0413*
1,1,0.1675,0.2662,0.0413*
%
%ADD36ROUNDEDRECTD36*%
G04:AMPARAMS|DCode=37|XSize=3mm|YSize=1.65mm|CornerRadius=0.1073mm|HoleSize=0mm|Usage=FLASHONLY|Rotation=90.000|XOffset=0mm|YOffset=0mm|HoleType=Round|Shape=RoundedRectangle|*
%AMROUNDEDRECTD37*
21,1,3.0000,1.4355,0,0,90.0*
21,1,2.7855,1.6500,0,0,90.0*
1,1,0.2145,0.7178,1.3927*
1,1,0.2145,0.7178,-1.3927*
1,1,0.2145,-0.7178,-1.3927*
1,1,0.2145,-0.7178,1.3927*
%
%ADD37ROUNDEDRECTD37*%
G04:AMPARAMS|DCode=38|XSize=1.2mm|YSize=1.2mm|CornerRadius=0.198mm|HoleSize=0mm|Usage=FLASHONLY|Rotation=0.000|XOffset=0mm|YOffset=0mm|HoleType=Round|Shape=RoundedRectangle|*
%AMROUNDEDRECTD38*
21,1,1.2000,0.8040,0,0,0.0*
21,1,0.8040,1.2000,0,0,0.0*
1,1,0.3960,0.4020,-0.4020*
1,1,0.3960,-0.4020,-0.4020*
1,1,0.3960,-0.4020,0.4020*
1,1,0.3960,0.4020,0.4020*
%
%ADD38ROUNDEDRECTD38*%
G04:AMPARAMS|DCode=39|XSize=1.2mm|YSize=1.2mm|CornerRadius=0.198mm|HoleSize=0mm|Usage=FLASHONLY|Rotation=270.000|XOffset=0mm|YOffset=0mm|HoleType=Round|Shape=RoundedRectangle|*
%AMROUNDEDRECTD39*
21,1,1.2000,0.8040,0,0,270.0*
21,1,0.8040,1.2000,0,0,270.0*
1,1,0.3960,-0.4020,-0.4020*
1,1,0.3960,-0.4020,0.4020*
1,1,0.3960,0.4020,0.4020*
1,1,0.3960,0.4020,-0.4020*
%
%ADD39ROUNDEDRECTD39*%
G04:AMPARAMS|DCode=40|XSize=6.45mm|YSize=6mm|CornerRadius=0.21mm|HoleSize=0mm|Usage=FLASHONLY|Rotation=90.000|XOffset=0mm|YOffset=0mm|HoleType=Round|Shape=RoundedRectangle|*
%AMROUNDEDRECTD40*
21,1,6.4500,5.5800,0,0,90.0*
21,1,6.0300,6.0000,0,0,90.0*
1,1,0.4200,2.7900,3.0150*
1,1,0.4200,2.7900,-3.0150*
1,1,0.4200,-2.7900,-3.0150*
1,1,0.4200,-2.7900,3.0150*
%
%ADD40ROUNDEDRECTD40*%
G04:AMPARAMS|DCode=41|XSize=2.85mm|YSize=1mm|CornerRadius=0.2mm|HoleSize=0mm|Usage=FLASHONLY|Rotation=90.000|XOffset=0mm|YOffset=0mm|HoleType=Round|Shape=RoundedRectangle|*
%AMROUNDEDRECTD41*
21,1,2.8500,0.6000,0,0,90.0*
21,1,2.4500,1.0000,0,0,90.0*
1,1,0.4000,0.3000,1.2250*
1,1,0.4000,0.3000,-1.2250*
1,1,0.4000,-0.3000,-1.2250*
1,1,0.4000,-0.3000,1.2250*
%
%ADD41ROUNDEDRECTD41*%
G04:AMPARAMS|DCode=42|XSize=3.95mm|YSize=1.5mm|CornerRadius=0.2475mm|HoleSize=0mm|Usage=FLASHONLY|Rotation=90.000|XOffset=0mm|YOffset=0mm|HoleType=Round|Shape=RoundedRectangle|*
%AMROUNDEDRECTD42*
21,1,3.9500,1.0050,0,0,90.0*
21,1,3.4550,1.5000,0,0,90.0*
1,1,0.4950,0.5025,1.7275*
1,1,0.4950,0.5025,-1.7275*
1,1,0.4950,-0.5025,-1.7275*
1,1,0.4950,-0.5025,1.7275*
%
%ADD42ROUNDEDRECTD42*%
G04:AMPARAMS|DCode=43|XSize=6.4mm|YSize=10.5mm|CornerRadius=0.128mm|HoleSize=0mm|Usage=FLASHONLY|Rotation=90.000|XOffset=0mm|YOffset=0mm|HoleType=Round|Shape=RoundedRectangle|*
%AMROUNDEDRECTD43*
21,1,6.4000,10.2440,0,0,90.0*
21,1,6.1440,10.5000,0,0,90.0*
1,1,0.2560,5.1220,3.0720*
1,1,0.2560,5.1220,-3.0720*
1,1,0.2560,-5.1220,-3.0720*
1,1,0.2560,-5.1220,3.0720*
%
%ADD43ROUNDEDRECTD43*%
%ADD44C,0.6000*%
%ADD45C,0.4000*%
%ADD46O,0.2500X0.8500*%
%ADD47O,0.8500X0.2500*%
%ADD48C,0.5000*%
%ADD49C,0.6000*%
%ADD50C,0.2500*%
%ADD51C,0.3500*%
%ADD52C,0.8000*%
%ADD53C,0.4000*%
%ADD54C,0.2540*%
%ADD55C,1.0000*%
%ADD56C,0.4500*%
%ADD57C,0.5500*%
%ADD58C,0.3000*%
%ADD59C,1.6000*%
%ADD60R,1.6000X1.6000*%
%ADD61C,6.0000*%
%ADD62C,3.0000*%
%ADD63C,2.0000*%
%ADD64C,7.0000*%
%ADD65C,0.5000*%
%ADD66C,1.8500*%
%ADD67C,2.4000*%
%ADD68C,3.5000*%
%ADD69C,2.3000*%
%ADD70C,1.8000*%
%ADD71C,2.0000*%
%ADD72C,0.0000*%
G04:AMPARAMS|DCode=73|XSize=2.85mm|YSize=1.3mm|CornerRadius=0.2763mm|HoleSize=0mm|Usage=FLASHONLY|Rotation=90.000|XOffset=0mm|YOffset=0mm|HoleType=Round|Shape=RoundedRectangle|*
%AMROUNDEDRECTD73*
21,1,2.8500,0.7475,0,0,90.0*
21,1,2.2975,1.3000,0,0,90.0*
1,1,0.5525,0.3738,1.1487*
1,1,0.5525,0.3738,-1.1487*
1,1,0.5525,-0.3738,-1.1487*
1,1,0.5525,-0.3738,1.1487*
%
%ADD73ROUNDEDRECTD73*%
G04:AMPARAMS|DCode=74|XSize=2.85mm|YSize=1.3mm|CornerRadius=0.2763mm|HoleSize=0mm|Usage=FLASHONLY|Rotation=0.000|XOffset=0mm|YOffset=0mm|HoleType=Round|Shape=RoundedRectangle|*
%AMROUNDEDRECTD74*
21,1,2.8500,0.7475,0,0,0.0*
21,1,2.2975,1.3000,0,0,0.0*
1,1,0.5525,1.1487,-0.3738*
1,1,0.5525,-1.1487,-0.3738*
1,1,0.5525,-1.1487,0.3738*
1,1,0.5525,1.1487,0.3738*
%
%ADD74ROUNDEDRECTD74*%
%ADD75O,1.5000X0.6500*%
G04:AMPARAMS|DCode=76|XSize=1.15mm|YSize=1.05mm|CornerRadius=0.273mm|HoleSize=0mm|Usage=FLASHONLY|Rotation=180.000|XOffset=0mm|YOffset=0mm|HoleType=Round|Shape=RoundedRectangle|*
%AMROUNDEDRECTD76*
21,1,1.1500,0.5040,0,0,180.0*
21,1,0.6040,1.0500,0,0,180.0*
1,1,0.5460,-0.3020,0.2520*
1,1,0.5460,0.3020,0.2520*
1,1,0.5460,0.3020,-0.2520*
1,1,0.5460,-0.3020,-0.2520*
%
%ADD76ROUNDEDRECTD76*%
G04:AMPARAMS|DCode=77|XSize=1.6mm|YSize=1.3mm|CornerRadius=0.2763mm|HoleSize=0mm|Usage=FLASHONLY|Rotation=270.000|XOffset=0mm|YOffset=0mm|HoleType=Round|Shape=RoundedRectangle|*
%AMROUNDEDRECTD77*
21,1,1.6000,0.7475,0,0,270.0*
21,1,1.0475,1.3000,0,0,270.0*
1,1,0.5525,-0.3738,-0.5238*
1,1,0.5525,-0.3738,0.5238*
1,1,0.5525,0.3738,0.5238*
1,1,0.5525,0.3738,-0.5238*
%
%ADD77ROUNDEDRECTD77*%
%ADD78O,1.7000X0.7500*%
G04:AMPARAMS|DCode=79|XSize=1.15mm|YSize=1.1mm|CornerRadius=0.2745mm|HoleSize=0mm|Usage=FLASHONLY|Rotation=270.000|XOffset=0mm|YOffset=0mm|HoleType=Round|Shape=RoundedRectangle|*
%AMROUNDEDRECTD79*
21,1,1.1500,0.5510,0,0,270.0*
21,1,0.6010,1.1000,0,0,270.0*
1,1,0.5490,-0.2755,-0.3005*
1,1,0.5490,-0.2755,0.3005*
1,1,0.5490,0.2755,0.3005*
1,1,0.5490,0.2755,-0.3005*
%
%ADD79ROUNDEDRECTD79*%
G04:AMPARAMS|DCode=80|XSize=1.15mm|YSize=1.1mm|CornerRadius=0.2745mm|HoleSize=0mm|Usage=FLASHONLY|Rotation=180.000|XOffset=0mm|YOffset=0mm|HoleType=Round|Shape=RoundedRectangle|*
%AMROUNDEDRECTD80*
21,1,1.1500,0.5510,0,0,180.0*
21,1,0.6010,1.1000,0,0,180.0*
1,1,0.5490,-0.3005,0.2755*
1,1,0.5490,0.3005,0.2755*
1,1,0.5490,0.3005,-0.2755*
1,1,0.5490,-0.3005,-0.2755*
%
%ADD80ROUNDEDRECTD80*%
G04:AMPARAMS|DCode=81|XSize=1.15mm|YSize=1.05mm|CornerRadius=0.273mm|HoleSize=0mm|Usage=FLASHONLY|Rotation=270.000|XOffset=0mm|YOffset=0mm|HoleType=Round|Shape=RoundedRectangle|*
%AMROUNDEDRECTD81*
21,1,1.1500,0.5040,0,0,270.0*
21,1,0.6040,1.0500,0,0,270.0*
1,1,0.5460,-0.2520,-0.3020*
1,1,0.5460,-0.2520,0.3020*
1,1,0.5460,0.2520,0.3020*
1,1,0.5460,0.2520,-0.3020*
%
%ADD81ROUNDEDRECTD81*%
G04:AMPARAMS|DCode=82|XSize=1.6mm|YSize=1.3mm|CornerRadius=0.2763mm|HoleSize=0mm|Usage=FLASHONLY|Rotation=0.000|XOffset=0mm|YOffset=0mm|HoleType=Round|Shape=RoundedRectangle|*
%AMROUNDEDRECTD82*
21,1,1.6000,0.7475,0,0,0.0*
21,1,1.0475,1.3000,0,0,0.0*
1,1,0.5525,0.5238,-0.3738*
1,1,0.5525,-0.5238,-0.3738*
1,1,0.5525,-0.5238,0.3738*
1,1,0.5525,0.5238,0.3738*
%
%ADD82ROUNDEDRECTD82*%
%ADD83O,0.7500X1.7000*%
G04:AMPARAMS|DCode=84|XSize=1.2mm|YSize=0.8mm|CornerRadius=0.2765mm|HoleSize=0mm|Usage=FLASHONLY|Rotation=180.000|XOffset=0mm|YOffset=0mm|HoleType=Round|Shape=RoundedRectangle|*
%AMROUNDEDRECTD84*
21,1,1.2000,0.2470,0,0,180.0*
21,1,0.6470,0.8000,0,0,180.0*
1,1,0.5530,-0.3235,0.1235*
1,1,0.5530,0.3235,0.1235*
1,1,0.5530,0.3235,-0.1235*
1,1,0.5530,-0.3235,-0.1235*
%
%ADD84ROUNDEDRECTD84*%
G04:AMPARAMS|DCode=85|XSize=1.9mm|YSize=1.2mm|CornerRadius=0.2745mm|HoleSize=0mm|Usage=FLASHONLY|Rotation=270.000|XOffset=0mm|YOffset=0mm|HoleType=Round|Shape=RoundedRectangle|*
%AMROUNDEDRECTD85*
21,1,1.9000,0.6510,0,0,270.0*
21,1,1.3510,1.2000,0,0,270.0*
1,1,0.5490,-0.3255,-0.6755*
1,1,0.5490,-0.3255,0.6755*
1,1,0.5490,0.3255,0.6755*
1,1,0.5490,0.3255,-0.6755*
%
%ADD85ROUNDEDRECTD85*%
%ADD86O,0.6500X1.5000*%
G04:AMPARAMS|DCode=87|XSize=6.65mm|YSize=5.15mm|CornerRadius=0.325mm|HoleSize=0mm|Usage=FLASHONLY|Rotation=90.000|XOffset=0mm|YOffset=0mm|HoleType=Round|Shape=RoundedRectangle|*
%AMROUNDEDRECTD87*
21,1,6.6500,4.5000,0,0,90.0*
21,1,6.0000,5.1500,0,0,90.0*
1,1,0.6500,2.2500,3.0000*
1,1,0.6500,2.2500,-3.0000*
1,1,0.6500,-2.2500,-3.0000*
1,1,0.6500,-2.2500,3.0000*
%
%ADD87ROUNDEDRECTD87*%
%ADD88C,1.5000*%
%ADD89R,1.5000X1.5000*%
G04:AMPARAMS|DCode=90|XSize=5.05mm|YSize=1.75mm|CornerRadius=0.275mm|HoleSize=0mm|Usage=FLASHONLY|Rotation=180.000|XOffset=0mm|YOffset=0mm|HoleType=Round|Shape=RoundedRectangle|*
%AMROUNDEDRECTD90*
21,1,5.0500,1.2000,0,0,180.0*
21,1,4.5000,1.7500,0,0,180.0*
1,1,0.5500,-2.2500,0.6000*
1,1,0.5500,2.2500,0.6000*
1,1,0.5500,2.2500,-0.6000*
1,1,0.5500,-2.2500,-0.6000*
%
%ADD90ROUNDEDRECTD90*%
%ADD91O,1.6000X0.4000*%
%ADD92O,0.4000X1.6000*%
%ADD93C,2.0000*%
G04:AMPARAMS|DCode=94|XSize=1.25mm|YSize=0.75mm|CornerRadius=0.276mm|HoleSize=0mm|Usage=FLASHONLY|Rotation=270.000|XOffset=0mm|YOffset=0mm|HoleType=Round|Shape=RoundedRectangle|*
%AMROUNDEDRECTD94*
21,1,1.2500,0.1980,0,0,270.0*
21,1,0.6980,0.7500,0,0,270.0*
1,1,0.5520,-0.0990,-0.3490*
1,1,0.5520,-0.0990,0.3490*
1,1,0.5520,0.0990,0.3490*
1,1,0.5520,0.0990,-0.3490*
%
%ADD94ROUNDEDRECTD94*%
G04:AMPARAMS|DCode=95|XSize=2.65mm|YSize=2.15mm|CornerRadius=0.275mm|HoleSize=0mm|Usage=FLASHONLY|Rotation=180.000|XOffset=0mm|YOffset=0mm|HoleType=Round|Shape=RoundedRectangle|*
%AMROUNDEDRECTD95*
21,1,2.6500,1.6000,0,0,180.0*
21,1,2.1000,2.1500,0,0,180.0*
1,1,0.5500,-1.0500,0.8000*
1,1,0.5500,1.0500,0.8000*
1,1,0.5500,1.0500,-0.8000*
1,1,0.5500,-1.0500,-0.8000*
%
%ADD95ROUNDEDRECTD95*%
G04:AMPARAMS|DCode=96|XSize=2.45mm|YSize=0.65mm|CornerRadius=0.275mm|HoleSize=0mm|Usage=FLASHONLY|Rotation=180.000|XOffset=0mm|YOffset=0mm|HoleType=Round|Shape=RoundedRectangle|*
%AMROUNDEDRECTD96*
21,1,2.4500,0.1000,0,0,180.0*
21,1,1.9000,0.6500,0,0,180.0*
1,1,0.5500,-0.9500,0.0500*
1,1,0.5500,0.9500,0.0500*
1,1,0.5500,0.9500,-0.0500*
1,1,0.5500,-0.9500,-0.0500*
%
%ADD96ROUNDEDRECTD96*%
G04:AMPARAMS|DCode=97|XSize=1.1mm|YSize=0.55mm|CornerRadius=0.1625mm|HoleSize=0mm|Usage=FLASHONLY|Rotation=0.000|XOffset=0mm|YOffset=0mm|HoleType=Round|Shape=RoundedRectangle|*
%AMROUNDEDRECTD97*
21,1,1.1000,0.2250,0,0,0.0*
21,1,0.7750,0.5500,0,0,0.0*
1,1,0.3250,0.3875,-0.1125*
1,1,0.3250,-0.3875,-0.1125*
1,1,0.3250,-0.3875,0.1125*
1,1,0.3250,0.3875,0.1125*
%
%ADD97ROUNDEDRECTD97*%
G04:AMPARAMS|DCode=98|XSize=1.5mm|YSize=1.8mm|CornerRadius=0.345mm|HoleSize=0mm|Usage=FLASHONLY|Rotation=90.000|XOffset=0mm|YOffset=0mm|HoleType=Round|Shape=RoundedRectangle|*
%AMROUNDEDRECTD98*
21,1,1.5000,1.1100,0,0,90.0*
21,1,0.8100,1.8000,0,0,90.0*
1,1,0.6900,0.5550,0.4050*
1,1,0.6900,0.5550,-0.4050*
1,1,0.6900,-0.5550,-0.4050*
1,1,0.6900,-0.5550,0.4050*
%
%ADD98ROUNDEDRECTD98*%
G04:AMPARAMS|DCode=99|XSize=0.8mm|YSize=0.35mm|CornerRadius=0.1338mm|HoleSize=0mm|Usage=FLASHONLY|Rotation=0.000|XOffset=0mm|YOffset=0mm|HoleType=Round|Shape=RoundedRectangle|*
%AMROUNDEDRECTD99*
21,1,0.8000,0.0825,0,0,0.0*
21,1,0.5325,0.3500,0,0,0.0*
1,1,0.2675,0.2662,-0.0413*
1,1,0.2675,-0.2662,-0.0413*
1,1,0.2675,-0.2662,0.0413*
1,1,0.2675,0.2662,0.0413*
%
%ADD99ROUNDEDRECTD99*%
G04:AMPARAMS|DCode=100|XSize=3.15mm|YSize=1.8mm|CornerRadius=0.1823mm|HoleSize=0mm|Usage=FLASHONLY|Rotation=90.000|XOffset=0mm|YOffset=0mm|HoleType=Round|Shape=RoundedRectangle|*
%AMROUNDEDRECTD100*
21,1,3.1500,1.4355,0,0,90.0*
21,1,2.7855,1.8000,0,0,90.0*
1,1,0.3645,0.7178,1.3927*
1,1,0.3645,0.7178,-1.3927*
1,1,0.3645,-0.7178,-1.3927*
1,1,0.3645,-0.7178,1.3927*
%
%ADD100ROUNDEDRECTD100*%
G04:AMPARAMS|DCode=101|XSize=1.35mm|YSize=1.35mm|CornerRadius=0.273mm|HoleSize=0mm|Usage=FLASHONLY|Rotation=0.000|XOffset=0mm|YOffset=0mm|HoleType=Round|Shape=RoundedRectangle|*
%AMROUNDEDRECTD101*
21,1,1.3500,0.8040,0,0,0.0*
21,1,0.8040,1.3500,0,0,0.0*
1,1,0.5460,0.4020,-0.4020*
1,1,0.5460,-0.4020,-0.4020*
1,1,0.5460,-0.4020,0.4020*
1,1,0.5460,0.4020,0.4020*
%
%ADD101ROUNDEDRECTD101*%
G04:AMPARAMS|DCode=102|XSize=1.35mm|YSize=1.35mm|CornerRadius=0.273mm|HoleSize=0mm|Usage=FLASHONLY|Rotation=270.000|XOffset=0mm|YOffset=0mm|HoleType=Round|Shape=RoundedRectangle|*
%AMROUNDEDRECTD102*
21,1,1.3500,0.8040,0,0,270.0*
21,1,0.8040,1.3500,0,0,270.0*
1,1,0.5460,-0.4020,-0.4020*
1,1,0.5460,-0.4020,0.4020*
1,1,0.5460,0.4020,0.4020*
1,1,0.5460,0.4020,-0.4020*
%
%ADD102ROUNDEDRECTD102*%
G04:AMPARAMS|DCode=103|XSize=6.6mm|YSize=6.15mm|CornerRadius=0.285mm|HoleSize=0mm|Usage=FLASHONLY|Rotation=90.000|XOffset=0mm|YOffset=0mm|HoleType=Round|Shape=RoundedRectangle|*
%AMROUNDEDRECTD103*
21,1,6.6000,5.5800,0,0,90.0*
21,1,6.0300,6.1500,0,0,90.0*
1,1,0.5700,2.7900,3.0150*
1,1,0.5700,2.7900,-3.0150*
1,1,0.5700,-2.7900,-3.0150*
1,1,0.5700,-2.7900,3.0150*
%
%ADD103ROUNDEDRECTD103*%
G04:AMPARAMS|DCode=104|XSize=3mm|YSize=1.15mm|CornerRadius=0.275mm|HoleSize=0mm|Usage=FLASHONLY|Rotation=90.000|XOffset=0mm|YOffset=0mm|HoleType=Round|Shape=RoundedRectangle|*
%AMROUNDEDRECTD104*
21,1,3.0000,0.6000,0,0,90.0*
21,1,2.4500,1.1500,0,0,90.0*
1,1,0.5500,0.3000,1.2250*
1,1,0.5500,0.3000,-1.2250*
1,1,0.5500,-0.3000,-1.2250*
1,1,0.5500,-0.3000,1.2250*
%
%ADD104ROUNDEDRECTD104*%
G04:AMPARAMS|DCode=105|XSize=4.1mm|YSize=1.65mm|CornerRadius=0.3225mm|HoleSize=0mm|Usage=FLASHONLY|Rotation=90.000|XOffset=0mm|YOffset=0mm|HoleType=Round|Shape=RoundedRectangle|*
%AMROUNDEDRECTD105*
21,1,4.1000,1.0050,0,0,90.0*
21,1,3.4550,1.6500,0,0,90.0*
1,1,0.6450,0.5025,1.7275*
1,1,0.6450,0.5025,-1.7275*
1,1,0.6450,-0.5025,-1.7275*
1,1,0.6450,-0.5025,1.7275*
%
%ADD105ROUNDEDRECTD105*%
G04:AMPARAMS|DCode=106|XSize=6.55mm|YSize=10.65mm|CornerRadius=0.203mm|HoleSize=0mm|Usage=FLASHONLY|Rotation=90.000|XOffset=0mm|YOffset=0mm|HoleType=Round|Shape=RoundedRectangle|*
%AMROUNDEDRECTD106*
21,1,6.5500,10.2440,0,0,90.0*
21,1,6.1440,10.6500,0,0,90.0*
1,1,0.4060,5.1220,3.0720*
1,1,0.4060,5.1220,-3.0720*
1,1,0.4060,-5.1220,-3.0720*
1,1,0.4060,-5.1220,3.0720*
%
%ADD106ROUNDEDRECTD106*%
%ADD107C,0.8000*%
%ADD108O,0.4500X1.0500*%
%ADD109O,1.0500X0.4500*%
%ADD110C,1.7500*%
%ADD111R,1.7500X1.7500*%
%ADD112C,6.2000*%
%ADD113C,3.2000*%
%ADD114C,2.2000*%
%ADD115C,7.2000*%
%ADD116C,1.0500*%
%ADD117C,2.5500*%
%ADD118C,3.7000*%
%ADD119C,3.1500*%
%ADD120C,2.4500*%
G36*
X325530Y-73366D02*
X326192Y-73808D01*
X326634Y-74470D01*
X326789Y-75250D01*
X326750D01*
Y-124130D01*
X324130Y-126750D01*
X275250Y-126789D01*
X274470Y-126634D01*
X273808Y-126192D01*
X273366Y-125530D01*
X273211Y-124750D01*
X273250D01*
X273211Y-75250D01*
X273366Y-74470D01*
X273808Y-73808D01*
X274470Y-73366D01*
X275250Y-73211D01*
Y-73250D01*
X324750Y-73211D01*
X325530Y-73366D01*
D02*
G37*
G36*
X-74470D02*
X-73808Y-73808D01*
X-73366Y-74470D01*
X-73211Y-75250D01*
X-73250D01*
Y-124130D01*
X-75870Y-126750D01*
X-124750Y-126789D01*
X-125530Y-126634D01*
X-126192Y-126192D01*
X-126634Y-125530D01*
X-126789Y-124750D01*
X-126750D01*
X-126789Y-75250D01*
X-126634Y-74470D01*
X-126192Y-73808D01*
X-125530Y-73366D01*
X-124750Y-73211D01*
Y-73250D01*
X-75250Y-73211D01*
X-74470Y-73366D01*
D02*
G37*
G36*
X-274470Y126634D02*
X-273808Y126192D01*
X-273366Y125530D01*
X-273211Y124750D01*
X-273250D01*
X-273211Y75250D01*
X-273366Y74470D01*
X-273808Y73808D01*
X-274470Y73366D01*
X-275250Y73211D01*
Y73250D01*
X-324750Y73211D01*
X-325530Y73366D01*
X-326192Y73808D01*
X-326634Y74470D01*
X-326789Y75250D01*
X-326750D01*
Y124130D01*
X-324130Y126750D01*
X-275250Y126789D01*
X-274470Y126634D01*
D02*
G37*
G36*
X-74470D02*
X-73808Y126192D01*
X-73366Y125530D01*
X-73211Y124750D01*
X-73250D01*
Y75870D01*
X-75870Y73250D01*
X-124750Y73211D01*
X-125530Y73366D01*
X-126192Y73808D01*
X-126634Y74470D01*
X-126789Y75250D01*
X-126750D01*
X-126789Y124750D01*
X-126634Y125530D01*
X-126192Y126192D01*
X-125530Y126634D01*
X-124750Y126789D01*
Y126750D01*
X-75250Y126789D01*
X-74470Y126634D01*
D02*
G37*
G36*
X125530D02*
X126192Y126192D01*
X126634Y125530D01*
X126789Y124750D01*
X126750D01*
X126789Y75250D01*
X126634Y74470D01*
X126192Y73808D01*
X125530Y73366D01*
X124750Y73211D01*
Y73250D01*
X75250Y73211D01*
X74470Y73366D01*
X73808Y73808D01*
X73366Y74470D01*
X73211Y75250D01*
X73250D01*
Y124130D01*
X75870Y126750D01*
X124750Y126789D01*
X125530Y126634D01*
D02*
G37*
G36*
Y-73366D02*
X126192Y-73808D01*
X126634Y-74470D01*
X126789Y-75250D01*
X126750D01*
X126789Y-124750D01*
X126634Y-125530D01*
X126192Y-126192D01*
X125530Y-126634D01*
X124750Y-126789D01*
Y-126750D01*
X75250Y-126789D01*
X74470Y-126634D01*
X73808Y-126192D01*
X73366Y-125530D01*
X73211Y-124750D01*
X73250D01*
Y-75870D01*
X75870Y-73250D01*
X124750Y-73211D01*
X125530Y-73366D01*
D02*
G37*
G36*
Y-273366D02*
X126192Y-273808D01*
X126634Y-274470D01*
X126789Y-275250D01*
X126750D01*
X126789Y-324750D01*
X126634Y-325530D01*
X126192Y-326192D01*
X125530Y-326634D01*
X124750Y-326789D01*
Y-326750D01*
X75250Y-326789D01*
X74470Y-326634D01*
X73808Y-326192D01*
X73366Y-325530D01*
X73211Y-324750D01*
X73250D01*
Y-275870D01*
X75870Y-273250D01*
X124750Y-273211D01*
X125530Y-273366D01*
D02*
G37*
G36*
X-274470D02*
X-273808Y-273808D01*
X-273366Y-274470D01*
X-273211Y-275250D01*
X-273250D01*
X-273211Y-324750D01*
X-273366Y-325530D01*
X-273808Y-326192D01*
X-274470Y-326634D01*
X-275250Y-326789D01*
Y-326750D01*
X-324750Y-326789D01*
X-325530Y-326634D01*
X-326192Y-326192D01*
X-326634Y-325530D01*
X-326789Y-324750D01*
X-326750D01*
Y-275870D01*
X-324130Y-273250D01*
X-275250Y-273211D01*
X-274470Y-273366D01*
D02*
G37*
G36*
X-74470D02*
X-73808Y-273808D01*
X-73366Y-274470D01*
X-73211Y-275250D01*
X-73250D01*
Y-324130D01*
X-75870Y-326750D01*
X-124750Y-326789D01*
X-125530Y-326634D01*
X-126192Y-326192D01*
X-126634Y-325530D01*
X-126789Y-324750D01*
X-126750D01*
X-126789Y-275250D01*
X-126634Y-274470D01*
X-126192Y-273808D01*
X-125530Y-273366D01*
X-124750Y-273211D01*
Y-273250D01*
X-75250Y-273211D01*
X-74470Y-273366D01*
D02*
G37*
G36*
X-274470Y-73366D02*
X-273808Y-73808D01*
X-273366Y-74470D01*
X-273211Y-75250D01*
X-273250D01*
X-273211Y-124750D01*
X-273366Y-125530D01*
X-273808Y-126192D01*
X-274470Y-126634D01*
X-275250Y-126789D01*
Y-126750D01*
X-324750Y-126789D01*
X-325530Y-126634D01*
X-326192Y-126192D01*
X-326634Y-125530D01*
X-326789Y-124750D01*
X-326750D01*
Y-75870D01*
X-324130Y-73250D01*
X-275250Y-73211D01*
X-274470Y-73366D01*
D02*
G37*
G36*
X325530Y-273366D02*
X326192Y-273808D01*
X326634Y-274470D01*
X326789Y-275250D01*
X326750D01*
Y-324130D01*
X324130Y-326750D01*
X275250Y-326789D01*
X274470Y-326634D01*
X273808Y-326192D01*
X273366Y-325530D01*
X273211Y-324750D01*
X273250D01*
X273211Y-275250D01*
X273366Y-274470D01*
X273808Y-273808D01*
X274470Y-273366D01*
X275250Y-273211D01*
Y-273250D01*
X324750Y-273211D01*
X325530Y-273366D01*
D02*
G37*
G36*
X-109001Y612999D02*
X-137501D01*
Y618499D01*
X-147501D01*
Y661499D01*
X-137501D01*
Y666999D01*
X-109001D01*
Y612999D01*
D02*
G37*
G36*
X-109000Y554300D02*
X-137500D01*
Y559800D01*
X-147500D01*
Y602800D01*
X-137500D01*
Y608300D01*
X-109000D01*
Y554300D01*
D02*
G37*
G36*
X-399000Y613000D02*
X-427500D01*
Y618500D01*
X-437500D01*
Y661500D01*
X-427500D01*
Y667000D01*
X-399000D01*
Y613000D01*
D02*
G37*
G36*
X-388549Y724251D02*
X-383049D01*
Y695751D01*
X-437049D01*
Y724251D01*
X-431549D01*
Y734251D01*
X-388549D01*
Y724251D01*
D02*
G37*
G36*
X-98550Y724250D02*
X-93050D01*
Y695750D01*
X-147050D01*
Y724250D01*
X-141550D01*
Y734250D01*
X-98550D01*
Y724250D01*
D02*
G37*
G36*
X-399000Y550500D02*
X-427500D01*
Y556000D01*
X-437500D01*
Y599000D01*
X-427500D01*
Y604500D01*
X-399000D01*
Y550500D01*
D02*
G37*
G36*
X-274470Y326634D02*
X-273808Y326192D01*
X-273366Y325530D01*
X-273211Y324750D01*
X-273250D01*
X-273211Y275250D01*
X-273366Y274470D01*
X-273808Y273808D01*
X-274470Y273366D01*
X-275250Y273211D01*
Y273250D01*
X-324750Y273211D01*
X-325530Y273366D01*
X-326192Y273808D01*
X-326634Y274470D01*
X-326789Y275250D01*
X-326750D01*
Y324130D01*
X-324130Y326750D01*
X-275250Y326789D01*
X-274470Y326634D01*
D02*
G37*
G36*
X325530Y126634D02*
X326192Y126192D01*
X326634Y125530D01*
X326789Y124750D01*
X326750D01*
Y75870D01*
X324130Y73250D01*
X275250Y73211D01*
X274470Y73366D01*
X273808Y73808D01*
X273366Y74470D01*
X273211Y75250D01*
X273250D01*
X273211Y124750D01*
X273366Y125530D01*
X273808Y126192D01*
X274470Y126634D01*
X275250Y126789D01*
Y126750D01*
X324750Y126789D01*
X325530Y126634D01*
D02*
G37*
G36*
X125530Y326634D02*
X126192Y326192D01*
X126634Y325530D01*
X126789Y324750D01*
X126750D01*
X126789Y275250D01*
X126634Y274470D01*
X126192Y273808D01*
X125530Y273366D01*
X124750Y273211D01*
Y273250D01*
X75250Y273211D01*
X74470Y273366D01*
X73808Y273808D01*
X73366Y274470D01*
X73211Y275250D01*
X73250D01*
Y324130D01*
X75870Y326750D01*
X124750Y326789D01*
X125530Y326634D01*
D02*
G37*
G36*
X325530D02*
X326192Y326192D01*
X326634Y325530D01*
X326789Y324750D01*
X326750D01*
Y275870D01*
X324130Y273250D01*
X275250Y273211D01*
X274470Y273366D01*
X273808Y273808D01*
X273366Y274470D01*
X273211Y275250D01*
X273250D01*
X273211Y324750D01*
X273366Y325530D01*
X273808Y326192D01*
X274470Y326634D01*
X275250Y326789D01*
Y326750D01*
X324750Y326789D01*
X325530Y326634D01*
D02*
G37*
G36*
X-74470D02*
X-73808Y326192D01*
X-73366Y325530D01*
X-73211Y324750D01*
X-73250D01*
Y275870D01*
X-75870Y273250D01*
X-124750Y273211D01*
X-125530Y273366D01*
X-126192Y273808D01*
X-126634Y274470D01*
X-126789Y275250D01*
X-126750D01*
X-126789Y324750D01*
X-126634Y325530D01*
X-126192Y326192D01*
X-125530Y326634D01*
X-124750Y326789D01*
Y326750D01*
X-75250Y326789D01*
X-74470Y326634D01*
D02*
G37*
D44*
X300000Y300000D02*
D03*
Y100000D02*
D03*
Y-100000D02*
D03*
Y-300000D02*
D03*
X100000D02*
D03*
Y-100000D02*
D03*
Y100000D02*
D03*
Y300000D02*
D03*
X-100000D02*
D03*
Y100000D02*
D03*
Y-100000D02*
D03*
Y-300000D02*
D03*
X-300000D02*
D03*
Y-100000D02*
D03*
Y100000D02*
D03*
Y300000D02*
D03*
D63*
X220000Y845000D02*
D03*
X245400D02*
D03*
X135000Y835000D02*
D03*
Y810000D02*
D03*
Y785000D02*
D03*
Y760000D02*
D03*
D73*
X397500Y-312500D02*
D03*
X427500D02*
D03*
X397500Y-350000D02*
D03*
X427500D02*
D03*
X-397500Y351247D02*
D03*
X-427500D02*
D03*
X-365429Y402500D02*
D03*
X-335429D02*
D03*
X-397500Y-97000D02*
D03*
X-427500D02*
D03*
X397500Y242000D02*
D03*
X427500D02*
D03*
X-397500Y-134500D02*
D03*
X-427500D02*
D03*
X-397500Y-59500D02*
D03*
X-427500D02*
D03*
X-397500Y15500D02*
D03*
X-427500D02*
D03*
X-397500Y-22000D02*
D03*
X-427500D02*
D03*
X-397500Y-172000D02*
D03*
X-427500D02*
D03*
X-397500Y-322000D02*
D03*
X-427500D02*
D03*
X-397500Y-359500D02*
D03*
X-427500D02*
D03*
X-397500Y-284500D02*
D03*
X-427500D02*
D03*
X-397500Y-209500D02*
D03*
X-427500D02*
D03*
X397500Y204500D02*
D03*
X427500D02*
D03*
X-397500Y-247000D02*
D03*
X-427500D02*
D03*
X-397500Y53000D02*
D03*
X-427500D02*
D03*
X397500Y318255D02*
D03*
X427500D02*
D03*
X397500Y355755D02*
D03*
X427500D02*
D03*
X397500Y280755D02*
D03*
X427500D02*
D03*
X-397500Y165499D02*
D03*
X-427500D02*
D03*
X-397500Y127999D02*
D03*
X-427500D02*
D03*
X-397500Y90499D02*
D03*
X-427500D02*
D03*
X-397500Y277999D02*
D03*
X-427500D02*
D03*
X397500Y167000D02*
D03*
X427500D02*
D03*
X-397500Y240499D02*
D03*
X-427500D02*
D03*
X-397500Y202999D02*
D03*
X-427500D02*
D03*
X397500Y-165000D02*
D03*
X427500D02*
D03*
X397500Y-127500D02*
D03*
X427500D02*
D03*
X397500Y130000D02*
D03*
X427500D02*
D03*
X397500Y-277500D02*
D03*
X427500D02*
D03*
X397500Y-240000D02*
D03*
X427500D02*
D03*
X397500Y-202500D02*
D03*
X427500D02*
D03*
X-70000Y612500D02*
D03*
X-40000D02*
D03*
X-70000Y572500D02*
D03*
X-40000D02*
D03*
X-197500Y437000D02*
D03*
X-227500D02*
D03*
X134000Y470000D02*
D03*
X104000D02*
D03*
X125000Y520000D02*
D03*
X95000D02*
D03*
X134000Y430000D02*
D03*
X104000D02*
D03*
X44250Y375500D02*
D03*
X14250D02*
D03*
X-33500Y375000D02*
D03*
X-3500D02*
D03*
X50000Y430000D02*
D03*
X20000D02*
D03*
X40000Y570000D02*
D03*
X10000D02*
D03*
X185000Y17500D02*
D03*
X155000D02*
D03*
X40000Y530000D02*
D03*
X10000D02*
D03*
X50000Y470000D02*
D03*
X20000D02*
D03*
X-215000Y-17500D02*
D03*
X-245000D02*
D03*
X215000Y17500D02*
D03*
X245000D02*
D03*
X-185000D02*
D03*
X-155000D02*
D03*
X-185000Y-17500D02*
D03*
X-155000D02*
D03*
X-215000Y17500D02*
D03*
X-245000D02*
D03*
X-427500Y315000D02*
D03*
X-397500D02*
D03*
X-240000Y575000D02*
D03*
X-270000D02*
D03*
X-170000Y574950D02*
D03*
X-200000D02*
D03*
X-170000Y475000D02*
D03*
X-200000D02*
D03*
X215000Y-17500D02*
D03*
X245000D02*
D03*
X-366624Y611250D02*
D03*
X-336624D02*
D03*
X-350999Y575001D02*
D03*
X-320999D02*
D03*
X-170000Y515000D02*
D03*
X-200000D02*
D03*
X185000Y-17500D02*
D03*
X155000D02*
D03*
D74*
X90000Y745000D02*
D03*
Y715000D02*
D03*
X50000Y747500D02*
D03*
Y717500D02*
D03*
X-125000Y746000D02*
D03*
Y776000D02*
D03*
X-30001Y740999D02*
D03*
Y710999D02*
D03*
X-70000Y741000D02*
D03*
Y711000D02*
D03*
X-417500Y753500D02*
D03*
Y783500D02*
D03*
X-12500Y637500D02*
D03*
Y607500D02*
D03*
X-267500Y635949D02*
D03*
Y605949D02*
D03*
X-307500Y635500D02*
D03*
Y605500D02*
D03*
D75*
X-437500Y558450D02*
D03*
Y571150D02*
D03*
Y583850D02*
D03*
Y596550D02*
D03*
X-382500D02*
D03*
Y583850D02*
D03*
Y571150D02*
D03*
Y558450D02*
D03*
X-147501Y620949D02*
D03*
Y633649D02*
D03*
Y646349D02*
D03*
Y659049D02*
D03*
X-92501D02*
D03*
Y646349D02*
D03*
Y633649D02*
D03*
Y620949D02*
D03*
X-437500Y620950D02*
D03*
Y633650D02*
D03*
Y646350D02*
D03*
Y659050D02*
D03*
X-382500D02*
D03*
Y646350D02*
D03*
Y633650D02*
D03*
Y620950D02*
D03*
X-147500Y562250D02*
D03*
Y574950D02*
D03*
Y587650D02*
D03*
Y600350D02*
D03*
X-92500D02*
D03*
Y587650D02*
D03*
Y574950D02*
D03*
Y562250D02*
D03*
D76*
X377500Y459000D02*
D03*
Y475000D02*
D03*
Y489500D02*
D03*
Y505500D02*
D03*
X307500Y389500D02*
D03*
Y405500D02*
D03*
X292500Y389500D02*
D03*
Y405500D02*
D03*
X335000Y183000D02*
D03*
Y167000D02*
D03*
X322500Y375500D02*
D03*
Y359500D02*
D03*
X350000Y-33000D02*
D03*
Y-17000D02*
D03*
X350000Y167000D02*
D03*
Y183000D02*
D03*
X337500Y359500D02*
D03*
Y375500D02*
D03*
X65000Y217000D02*
D03*
Y233000D02*
D03*
X65000Y17000D02*
D03*
Y33000D02*
D03*
Y-183000D02*
D03*
Y-167000D02*
D03*
Y-383000D02*
D03*
Y-367000D02*
D03*
X50000Y233000D02*
D03*
Y217000D02*
D03*
X50000Y33000D02*
D03*
Y17000D02*
D03*
X50000Y-167000D02*
D03*
Y-183000D02*
D03*
X50000Y-367000D02*
D03*
Y-383000D02*
D03*
X-65000Y-217000D02*
D03*
Y-233000D02*
D03*
Y-17000D02*
D03*
Y-33000D02*
D03*
Y183000D02*
D03*
Y167000D02*
D03*
Y378000D02*
D03*
Y362000D02*
D03*
X-50000Y-233000D02*
D03*
Y-217000D02*
D03*
Y-33000D02*
D03*
Y-17000D02*
D03*
Y167000D02*
D03*
Y183000D02*
D03*
X-335000Y217000D02*
D03*
Y233000D02*
D03*
Y17000D02*
D03*
Y33000D02*
D03*
Y-183000D02*
D03*
Y-167000D02*
D03*
X-312500Y-383000D02*
D03*
Y-367000D02*
D03*
X-350000Y233000D02*
D03*
Y217000D02*
D03*
X-350000Y33000D02*
D03*
Y17000D02*
D03*
Y-167000D02*
D03*
Y-183000D02*
D03*
X335000Y-33000D02*
D03*
Y-17000D02*
D03*
X335000Y-233000D02*
D03*
Y-217000D02*
D03*
X350000D02*
D03*
Y-233000D02*
D03*
X91000Y661000D02*
D03*
Y645000D02*
D03*
X275000Y853000D02*
D03*
Y837000D02*
D03*
X200000Y755000D02*
D03*
Y739000D02*
D03*
X185000D02*
D03*
Y755000D02*
D03*
X120000Y587000D02*
D03*
Y603000D02*
D03*
X77500Y602000D02*
D03*
Y618000D02*
D03*
X125000Y637000D02*
D03*
Y653000D02*
D03*
X75000Y682000D02*
D03*
Y698000D02*
D03*
X175000Y537000D02*
D03*
Y553000D02*
D03*
X99000Y808000D02*
D03*
Y792000D02*
D03*
X190000Y851000D02*
D03*
Y835000D02*
D03*
X-327500Y-367000D02*
D03*
Y-383000D02*
D03*
X150000Y709500D02*
D03*
Y693500D02*
D03*
X70000Y665000D02*
D03*
Y649000D02*
D03*
X-266000Y660501D02*
D03*
Y644501D02*
D03*
D77*
X301000Y522500D02*
D03*
X319000D02*
D03*
X-361499Y691702D02*
D03*
X-343499D02*
D03*
X-71500Y691701D02*
D03*
X-53500D02*
D03*
X61000Y420000D02*
D03*
X79000D02*
D03*
X61000Y440000D02*
D03*
X79000D02*
D03*
X61000Y460000D02*
D03*
X79000D02*
D03*
X44000D02*
D03*
X26000D02*
D03*
X38250Y385500D02*
D03*
X20250D02*
D03*
X44000Y420000D02*
D03*
X26000D02*
D03*
X-204500Y427000D02*
D03*
X-222500D02*
D03*
X-236000Y565000D02*
D03*
X-254000D02*
D03*
X44000Y440000D02*
D03*
X26000D02*
D03*
X34000Y540000D02*
D03*
X16000D02*
D03*
X119000Y470000D02*
D03*
X101000D02*
D03*
X-219000Y565000D02*
D03*
X-201000D02*
D03*
X-64000Y582500D02*
D03*
X-46000D02*
D03*
X92000Y696265D02*
D03*
X110000D02*
D03*
X408000Y702500D02*
D03*
X390000D02*
D03*
X262000Y755000D02*
D03*
X280000D02*
D03*
X376000Y522500D02*
D03*
X358000D02*
D03*
X61000Y792500D02*
D03*
X79000D02*
D03*
X-166000Y525000D02*
D03*
X-184000D02*
D03*
X-166000Y505000D02*
D03*
X-184000D02*
D03*
X128000Y420000D02*
D03*
X110000D02*
D03*
X128000Y440000D02*
D03*
X110000D02*
D03*
X-354000Y605000D02*
D03*
X-336000D02*
D03*
X-354000Y585000D02*
D03*
X-336000D02*
D03*
X-166000Y660000D02*
D03*
X-184000D02*
D03*
X-64000Y622500D02*
D03*
X-46000D02*
D03*
X-184000Y585000D02*
D03*
X-166000D02*
D03*
X-184000Y700000D02*
D03*
X-166000D02*
D03*
X-208500Y667500D02*
D03*
X-226500D02*
D03*
X16000Y600000D02*
D03*
X34000D02*
D03*
X16000Y520000D02*
D03*
X34000D02*
D03*
X-46000Y562500D02*
D03*
X-64000D02*
D03*
X-46000Y602500D02*
D03*
X-64000D02*
D03*
X16000Y560000D02*
D03*
X34000D02*
D03*
X69000Y520000D02*
D03*
X51000D02*
D03*
X-184000Y465000D02*
D03*
X-166000D02*
D03*
X-184000Y605000D02*
D03*
X-166000D02*
D03*
X101000Y550000D02*
D03*
X119000D02*
D03*
X79000Y480000D02*
D03*
X61000D02*
D03*
X-9500Y385000D02*
D03*
X-27500D02*
D03*
X-254000Y585000D02*
D03*
X-236000D02*
D03*
X-184000Y485000D02*
D03*
X-166000D02*
D03*
X-184000Y565000D02*
D03*
X-166000D02*
D03*
X-184000Y545000D02*
D03*
X-166000D02*
D03*
X26000Y480000D02*
D03*
X44000D02*
D03*
X69000Y540000D02*
D03*
X51000D02*
D03*
X69000Y560000D02*
D03*
X51000D02*
D03*
X-184000Y680000D02*
D03*
X-166000D02*
D03*
X101000Y530000D02*
D03*
X119000D02*
D03*
X154000Y510000D02*
D03*
X136000D02*
D03*
X101000D02*
D03*
X119000D02*
D03*
X154000Y530000D02*
D03*
X136000D02*
D03*
X-9500Y365000D02*
D03*
X-27500D02*
D03*
X154000Y470000D02*
D03*
X136000D02*
D03*
X-336000Y565000D02*
D03*
X-354000D02*
D03*
X16000Y580000D02*
D03*
X34000D02*
D03*
X-184000Y445000D02*
D03*
X-166000D02*
D03*
X20250Y365500D02*
D03*
X38250D02*
D03*
X-201000Y605000D02*
D03*
X-219000D02*
D03*
X-201000Y585000D02*
D03*
X-219000D02*
D03*
X-222500Y447000D02*
D03*
X-204500D02*
D03*
D78*
X358000Y501550D02*
D03*
Y488850D02*
D03*
Y476150D02*
D03*
Y463450D02*
D03*
X302000D02*
D03*
Y476150D02*
D03*
Y488850D02*
D03*
Y501550D02*
D03*
X215000Y815000D02*
D03*
Y802300D02*
D03*
Y789600D02*
D03*
Y776900D02*
D03*
X271000D02*
D03*
Y789600D02*
D03*
Y802300D02*
D03*
Y815000D02*
D03*
X18000Y783450D02*
D03*
Y796150D02*
D03*
Y808850D02*
D03*
Y821550D02*
D03*
X-38000D02*
D03*
Y808850D02*
D03*
Y796150D02*
D03*
Y783450D02*
D03*
D79*
X238000Y107500D02*
D03*
X222000D02*
D03*
X238000Y-92500D02*
D03*
X222000D02*
D03*
X238000Y-107500D02*
D03*
X222000D02*
D03*
X238000Y-77500D02*
D03*
X222000D02*
D03*
X238000Y-62500D02*
D03*
X222000D02*
D03*
X162000Y62500D02*
D03*
X178000D02*
D03*
X238000Y-122500D02*
D03*
X222000D02*
D03*
X238000Y-137500D02*
D03*
X222000D02*
D03*
X162000Y122500D02*
D03*
X178000D02*
D03*
X162000Y137500D02*
D03*
X178000D02*
D03*
X162000Y92500D02*
D03*
X178000D02*
D03*
X162000Y107500D02*
D03*
X178000D02*
D03*
X162000Y-107500D02*
D03*
X178000D02*
D03*
X162000Y-77500D02*
D03*
X178000D02*
D03*
X162000Y-92500D02*
D03*
X178000D02*
D03*
X162000Y-122500D02*
D03*
X178000D02*
D03*
X162000Y-62500D02*
D03*
X178000D02*
D03*
X238000Y-307500D02*
D03*
X222000D02*
D03*
X238000Y-337500D02*
D03*
X222000D02*
D03*
X238000Y-292500D02*
D03*
X222000D02*
D03*
X238000Y-262500D02*
D03*
X222000D02*
D03*
X238000Y-277500D02*
D03*
X222000D02*
D03*
X238000Y77500D02*
D03*
X222000D02*
D03*
X162000D02*
D03*
X178000D02*
D03*
X238000Y92500D02*
D03*
X222000D02*
D03*
X238000Y122500D02*
D03*
X222000D02*
D03*
X162000Y337500D02*
D03*
X178000D02*
D03*
X162000Y322500D02*
D03*
X178000D02*
D03*
X162000Y292500D02*
D03*
X178000D02*
D03*
X162000Y-307500D02*
D03*
X178000D02*
D03*
X162000Y-322500D02*
D03*
X178000D02*
D03*
X162000Y-337500D02*
D03*
X178000D02*
D03*
X162000Y-292500D02*
D03*
X178000D02*
D03*
X162000Y-262500D02*
D03*
X178000D02*
D03*
X162000Y-277500D02*
D03*
X178000D02*
D03*
X-162000Y62500D02*
D03*
X-178000D02*
D03*
X-162000Y92500D02*
D03*
X-178000D02*
D03*
X-162000Y77500D02*
D03*
X-178000D02*
D03*
X-162000Y107500D02*
D03*
X-178000D02*
D03*
X-162000Y137500D02*
D03*
X-178000D02*
D03*
X-162000Y122500D02*
D03*
X-178000D02*
D03*
X162000Y-137500D02*
D03*
X178000D02*
D03*
X-238000Y137500D02*
D03*
X-222000D02*
D03*
X-238000Y122500D02*
D03*
X-222000D02*
D03*
X162000Y262500D02*
D03*
X178000D02*
D03*
X-238000Y107500D02*
D03*
X-222000D02*
D03*
X-162000Y307500D02*
D03*
X-178000D02*
D03*
X-162000Y322500D02*
D03*
X-178000D02*
D03*
X-162000Y337500D02*
D03*
X-178000D02*
D03*
X-162000Y292500D02*
D03*
X-178000D02*
D03*
X-238000Y77500D02*
D03*
X-222000D02*
D03*
X-238000Y62500D02*
D03*
X-222000D02*
D03*
X-162000Y262500D02*
D03*
X-178000D02*
D03*
X162000Y277500D02*
D03*
X178000D02*
D03*
X-162000Y277500D02*
D03*
X-178000D02*
D03*
X-238000Y92500D02*
D03*
X-222000D02*
D03*
X162000Y307500D02*
D03*
X178000D02*
D03*
X238000Y-322500D02*
D03*
X222000D02*
D03*
X238000Y137500D02*
D03*
X222000D02*
D03*
X238000Y62500D02*
D03*
X222000D02*
D03*
Y337500D02*
D03*
X238000D02*
D03*
X401000Y730000D02*
D03*
X385000D02*
D03*
X351500D02*
D03*
X367500D02*
D03*
X222000Y352500D02*
D03*
X238000D02*
D03*
X192000Y567500D02*
D03*
X208000D02*
D03*
X238000Y292500D02*
D03*
X222000D02*
D03*
X238000Y277500D02*
D03*
X222000D02*
D03*
X238000Y307500D02*
D03*
X222000D02*
D03*
X238000Y262500D02*
D03*
X222000D02*
D03*
X238000Y322500D02*
D03*
X222000D02*
D03*
X208000Y552500D02*
D03*
X192000D02*
D03*
X-238000Y-107500D02*
D03*
X-222000D02*
D03*
X-238000Y-123000D02*
D03*
X-222000D02*
D03*
X-238000Y-138500D02*
D03*
X-222000D02*
D03*
X-238000Y-61000D02*
D03*
X-222000D02*
D03*
X-238000Y-76500D02*
D03*
X-222000D02*
D03*
X-238000Y-92000D02*
D03*
X-222000D02*
D03*
X-162000Y-92500D02*
D03*
X-178000D02*
D03*
X-162000Y-77000D02*
D03*
X-178000D02*
D03*
X-162000Y-61500D02*
D03*
X-178000D02*
D03*
X-162000Y-139000D02*
D03*
X-178000D02*
D03*
X-162000Y-123500D02*
D03*
X-178000D02*
D03*
X-162000Y-108000D02*
D03*
X-178000D02*
D03*
X-237209Y292000D02*
D03*
X-221209D02*
D03*
X-237209Y276500D02*
D03*
X-221209D02*
D03*
X-237209Y261000D02*
D03*
X-221209D02*
D03*
X-237209Y338500D02*
D03*
X-221209D02*
D03*
X-237209Y323000D02*
D03*
X-221209D02*
D03*
X-237209Y307500D02*
D03*
X-221209D02*
D03*
X-162000Y-290000D02*
D03*
X-178000D02*
D03*
X-162000Y-275000D02*
D03*
X-178000D02*
D03*
X-162000Y-260000D02*
D03*
X-178000D02*
D03*
X-162000Y-335000D02*
D03*
X-178000D02*
D03*
X-162000Y-320000D02*
D03*
X-178000D02*
D03*
X-162000Y-305000D02*
D03*
X-178000D02*
D03*
X-238000D02*
D03*
X-222000D02*
D03*
X-238000Y-320000D02*
D03*
X-222000D02*
D03*
X-238000Y-335000D02*
D03*
X-222000D02*
D03*
X-238000Y-260000D02*
D03*
X-222000D02*
D03*
X-238000Y-275000D02*
D03*
X-222000D02*
D03*
X-238000Y-290000D02*
D03*
X-222000D02*
D03*
D80*
X62500Y362000D02*
D03*
Y378000D02*
D03*
X92500Y362000D02*
D03*
Y378000D02*
D03*
X-125000Y362000D02*
D03*
Y378000D02*
D03*
X77500Y362000D02*
D03*
Y378000D02*
D03*
X290000Y-167000D02*
D03*
Y-183000D02*
D03*
X305000Y-167000D02*
D03*
Y-183000D02*
D03*
X275000Y-167000D02*
D03*
Y-183000D02*
D03*
X335000Y-167000D02*
D03*
Y-183000D02*
D03*
X260000Y-167000D02*
D03*
Y-183000D02*
D03*
X-110000Y362000D02*
D03*
Y378000D02*
D03*
X320000Y-167000D02*
D03*
Y-183000D02*
D03*
X275000Y-367000D02*
D03*
Y-383000D02*
D03*
X-125000Y-233000D02*
D03*
Y-217000D02*
D03*
X-140000Y-233000D02*
D03*
Y-217000D02*
D03*
X275000Y-33000D02*
D03*
Y-17000D02*
D03*
X260000Y-33000D02*
D03*
Y-17000D02*
D03*
X290000Y-33000D02*
D03*
Y-17000D02*
D03*
X305000Y-33000D02*
D03*
Y-17000D02*
D03*
X140000Y-167000D02*
D03*
Y-183000D02*
D03*
X125000Y-167000D02*
D03*
Y-183000D02*
D03*
X335000Y-367000D02*
D03*
Y-383000D02*
D03*
X305000Y-367000D02*
D03*
Y-383000D02*
D03*
X320000Y-217000D02*
D03*
Y-233000D02*
D03*
X320000Y-17000D02*
D03*
Y-33000D02*
D03*
X320000Y183000D02*
D03*
Y167000D02*
D03*
X307500Y375500D02*
D03*
Y359500D02*
D03*
X170000Y-367000D02*
D03*
Y-383000D02*
D03*
X305000Y-233000D02*
D03*
Y-217000D02*
D03*
X140000Y167000D02*
D03*
Y183000D02*
D03*
X125000Y167000D02*
D03*
Y183000D02*
D03*
X80000Y-233000D02*
D03*
Y-217000D02*
D03*
X110000Y-233000D02*
D03*
Y-217000D02*
D03*
X95000Y-233000D02*
D03*
Y-217000D02*
D03*
X230000Y-367000D02*
D03*
Y-383000D02*
D03*
X305000Y33000D02*
D03*
Y17000D02*
D03*
X320000Y33000D02*
D03*
Y17000D02*
D03*
X290000Y33000D02*
D03*
Y17000D02*
D03*
X275000Y33000D02*
D03*
Y17000D02*
D03*
X290000Y167000D02*
D03*
Y183000D02*
D03*
X275000Y167000D02*
D03*
Y183000D02*
D03*
X-95000Y362000D02*
D03*
Y378000D02*
D03*
X305000Y167000D02*
D03*
Y183000D02*
D03*
X260000Y167000D02*
D03*
Y183000D02*
D03*
X305000Y233000D02*
D03*
Y217000D02*
D03*
X320000Y233000D02*
D03*
Y217000D02*
D03*
X275000Y233000D02*
D03*
Y217000D02*
D03*
X290000Y233000D02*
D03*
Y217000D02*
D03*
X137500Y362000D02*
D03*
Y378000D02*
D03*
X122500Y362000D02*
D03*
Y378000D02*
D03*
X65000Y167000D02*
D03*
Y183000D02*
D03*
X-140000Y362000D02*
D03*
Y378000D02*
D03*
X110000Y167000D02*
D03*
Y183000D02*
D03*
X95000Y167000D02*
D03*
Y183000D02*
D03*
X80000Y17000D02*
D03*
Y33000D02*
D03*
Y-183000D02*
D03*
Y-167000D02*
D03*
Y-383000D02*
D03*
Y-367000D02*
D03*
X-110000Y-33000D02*
D03*
Y-17000D02*
D03*
X-95000Y-33000D02*
D03*
Y-17000D02*
D03*
X-125000Y-33000D02*
D03*
Y-17000D02*
D03*
X-110000Y-233000D02*
D03*
Y-217000D02*
D03*
X-95000Y-233000D02*
D03*
Y-217000D02*
D03*
X-165000Y-367000D02*
D03*
Y-383000D02*
D03*
X-80000Y233000D02*
D03*
Y217000D02*
D03*
X-140000Y233000D02*
D03*
Y217000D02*
D03*
X-95000Y233000D02*
D03*
Y217000D02*
D03*
X-110000Y233000D02*
D03*
Y217000D02*
D03*
X-125000Y233000D02*
D03*
Y217000D02*
D03*
X140000Y33000D02*
D03*
Y17000D02*
D03*
X110000Y33000D02*
D03*
Y17000D02*
D03*
X125000Y33000D02*
D03*
Y17000D02*
D03*
X95000Y33000D02*
D03*
Y17000D02*
D03*
X-125000Y167000D02*
D03*
Y183000D02*
D03*
X-140000Y167000D02*
D03*
Y183000D02*
D03*
X-95000Y167000D02*
D03*
Y183000D02*
D03*
X-110000Y167000D02*
D03*
Y183000D02*
D03*
X110000Y-367000D02*
D03*
Y-383000D02*
D03*
X125000Y-367000D02*
D03*
Y-383000D02*
D03*
X155000Y-367000D02*
D03*
Y-383000D02*
D03*
X95000Y-367000D02*
D03*
Y-383000D02*
D03*
X140000Y-367000D02*
D03*
Y-383000D02*
D03*
X275000Y-233000D02*
D03*
Y-217000D02*
D03*
X125000Y-233000D02*
D03*
Y-217000D02*
D03*
X290000Y-233000D02*
D03*
Y-217000D02*
D03*
X-80000D02*
D03*
Y-233000D02*
D03*
Y-17000D02*
D03*
Y-33000D02*
D03*
Y183000D02*
D03*
Y167000D02*
D03*
X95000Y233000D02*
D03*
Y217000D02*
D03*
X140000Y233000D02*
D03*
Y217000D02*
D03*
X110000Y233000D02*
D03*
Y217000D02*
D03*
X-320000D02*
D03*
Y233000D02*
D03*
Y17000D02*
D03*
Y33000D02*
D03*
Y-183000D02*
D03*
Y-167000D02*
D03*
X-297500Y-383000D02*
D03*
Y-367000D02*
D03*
X125000Y233000D02*
D03*
Y217000D02*
D03*
X-65000Y233000D02*
D03*
Y217000D02*
D03*
X-140000Y-33000D02*
D03*
Y-17000D02*
D03*
X-150000Y-367000D02*
D03*
Y-383000D02*
D03*
X260000Y-367000D02*
D03*
Y-383000D02*
D03*
X125000Y-33000D02*
D03*
Y-17000D02*
D03*
X290000Y-367000D02*
D03*
Y-383000D02*
D03*
X140000Y-33000D02*
D03*
Y-17000D02*
D03*
X110000Y-33000D02*
D03*
Y-17000D02*
D03*
X95000Y-33000D02*
D03*
Y-17000D02*
D03*
X79992Y-33001D02*
D03*
Y-17000D02*
D03*
X65000Y-33000D02*
D03*
Y-17000D02*
D03*
X320000Y-367000D02*
D03*
Y-383000D02*
D03*
X110000Y-167000D02*
D03*
Y-183000D02*
D03*
X95000Y-167000D02*
D03*
Y-183000D02*
D03*
X260000Y33000D02*
D03*
Y17000D02*
D03*
X335000Y33000D02*
D03*
Y17000D02*
D03*
X260000Y-233000D02*
D03*
Y-217000D02*
D03*
X140000Y-233000D02*
D03*
Y-217000D02*
D03*
X65000Y-233000D02*
D03*
Y-217000D02*
D03*
X80000Y167000D02*
D03*
Y183000D02*
D03*
X107500Y362000D02*
D03*
Y378000D02*
D03*
X260000Y233000D02*
D03*
Y217000D02*
D03*
X190000Y811000D02*
D03*
Y795000D02*
D03*
X80000Y233000D02*
D03*
Y217000D02*
D03*
X-80000Y362000D02*
D03*
Y378000D02*
D03*
X303750Y588500D02*
D03*
Y572500D02*
D03*
X109000Y644750D02*
D03*
Y660750D02*
D03*
X225000Y565000D02*
D03*
Y549000D02*
D03*
Y756000D02*
D03*
Y740000D02*
D03*
X318750Y588500D02*
D03*
Y572500D02*
D03*
X60500Y601500D02*
D03*
Y617500D02*
D03*
X307500Y620500D02*
D03*
Y604500D02*
D03*
X350000Y650000D02*
D03*
Y666000D02*
D03*
X262500Y359500D02*
D03*
Y375500D02*
D03*
X277500Y359500D02*
D03*
Y375500D02*
D03*
X292500Y359500D02*
D03*
Y375500D02*
D03*
X-305000Y33000D02*
D03*
Y17000D02*
D03*
X-260000Y33000D02*
D03*
Y17000D02*
D03*
X-275000Y33000D02*
D03*
Y17000D02*
D03*
X-290000Y33000D02*
D03*
Y17000D02*
D03*
X-110000Y33000D02*
D03*
Y17000D02*
D03*
X-125000Y33000D02*
D03*
Y17000D02*
D03*
X-140000Y33000D02*
D03*
Y17000D02*
D03*
X-65000Y33000D02*
D03*
Y17000D02*
D03*
X-80000Y33000D02*
D03*
Y17000D02*
D03*
X-95000Y33000D02*
D03*
Y17000D02*
D03*
X-305000Y233000D02*
D03*
Y217000D02*
D03*
X-260000Y233000D02*
D03*
Y217000D02*
D03*
X-275000Y233000D02*
D03*
Y217000D02*
D03*
X-290000Y233000D02*
D03*
Y217000D02*
D03*
Y167000D02*
D03*
Y183000D02*
D03*
X-275000Y167000D02*
D03*
Y183000D02*
D03*
X-260000Y167000D02*
D03*
Y183000D02*
D03*
X-335000Y167000D02*
D03*
Y183000D02*
D03*
X-320000Y167000D02*
D03*
Y183000D02*
D03*
X-305000Y167000D02*
D03*
Y183000D02*
D03*
X-292000Y362000D02*
D03*
Y378000D02*
D03*
X-276500Y362000D02*
D03*
Y378000D02*
D03*
X-261000Y362000D02*
D03*
Y378000D02*
D03*
X-338500Y362000D02*
D03*
Y378000D02*
D03*
X-323000Y362000D02*
D03*
Y378000D02*
D03*
X-307500Y362000D02*
D03*
Y378000D02*
D03*
X-105000Y-367000D02*
D03*
Y-383000D02*
D03*
X-120000Y-367000D02*
D03*
Y-383000D02*
D03*
X-135000Y-367000D02*
D03*
Y-383000D02*
D03*
X-60000Y-367000D02*
D03*
Y-383000D02*
D03*
X-75000Y-367000D02*
D03*
Y-383000D02*
D03*
X-90000Y-367000D02*
D03*
Y-383000D02*
D03*
X-305000Y-167000D02*
D03*
Y-183000D02*
D03*
X-260000Y-167000D02*
D03*
Y-183000D02*
D03*
X-275000Y-167000D02*
D03*
Y-183000D02*
D03*
X-290000Y-167000D02*
D03*
Y-183000D02*
D03*
X-110000Y-167000D02*
D03*
Y-183000D02*
D03*
X-125000Y-167000D02*
D03*
Y-183000D02*
D03*
X-140000Y-167000D02*
D03*
Y-183000D02*
D03*
X-65000Y-167000D02*
D03*
Y-183000D02*
D03*
X-80000Y-167000D02*
D03*
Y-183000D02*
D03*
X-95000Y-167000D02*
D03*
Y-183000D02*
D03*
X-282500Y-367000D02*
D03*
Y-383000D02*
D03*
X245000Y-367000D02*
D03*
Y-383000D02*
D03*
X-222500Y-367000D02*
D03*
Y-383000D02*
D03*
X-237500Y-367000D02*
D03*
Y-383000D02*
D03*
X-252500Y-367000D02*
D03*
Y-383000D02*
D03*
X-267500Y-367000D02*
D03*
Y-383000D02*
D03*
X-290000Y-33000D02*
D03*
Y-17000D02*
D03*
X-275000Y-33000D02*
D03*
Y-17000D02*
D03*
X-260000Y-33000D02*
D03*
Y-17000D02*
D03*
X-335000Y-33000D02*
D03*
Y-17000D02*
D03*
X-320000Y-33000D02*
D03*
Y-17000D02*
D03*
X-305000Y-33000D02*
D03*
Y-17000D02*
D03*
X-290000Y-233000D02*
D03*
Y-217000D02*
D03*
X-275000Y-233000D02*
D03*
Y-217000D02*
D03*
X-260000Y-233000D02*
D03*
Y-217000D02*
D03*
X-335000Y-233000D02*
D03*
Y-217000D02*
D03*
X-320000Y-233000D02*
D03*
Y-217000D02*
D03*
X-305000Y-233000D02*
D03*
Y-217000D02*
D03*
D81*
X253400Y497500D02*
D03*
X237400D02*
D03*
X253400Y482500D02*
D03*
X237400D02*
D03*
X278000Y393500D02*
D03*
X262000D02*
D03*
X-47500Y335250D02*
D03*
X-31500D02*
D03*
X189500Y517500D02*
D03*
X205500D02*
D03*
X329000Y620000D02*
D03*
X345000D02*
D03*
X329000Y635000D02*
D03*
X345000D02*
D03*
X160000Y567500D02*
D03*
X176000D02*
D03*
X92000Y620000D02*
D03*
X108000D02*
D03*
X-312250Y700000D02*
D03*
X-328250D02*
D03*
X189500Y537500D02*
D03*
X205500D02*
D03*
X345000Y605000D02*
D03*
X329000D02*
D03*
X377500Y540000D02*
D03*
X361500D02*
D03*
X262000Y410000D02*
D03*
X278000D02*
D03*
X284265Y482500D02*
D03*
X268265D02*
D03*
X284265Y497500D02*
D03*
X268265D02*
D03*
X205500Y502500D02*
D03*
X189500D02*
D03*
X-385500Y297500D02*
D03*
X-369500D02*
D03*
X52250Y664249D02*
D03*
X36250D02*
D03*
D82*
X-307500Y393500D02*
D03*
Y411500D02*
D03*
X-283500Y643501D02*
D03*
Y661501D02*
D03*
X152500Y431000D02*
D03*
Y449000D02*
D03*
X18000Y643500D02*
D03*
Y661500D02*
D03*
X-317750Y621501D02*
D03*
Y603501D02*
D03*
X242500Y756500D02*
D03*
Y738500D02*
D03*
X172500Y501000D02*
D03*
Y519000D02*
D03*
X39000Y619500D02*
D03*
Y637500D02*
D03*
X336250Y565001D02*
D03*
Y583001D02*
D03*
X36250Y680863D02*
D03*
Y698863D02*
D03*
X247250Y571500D02*
D03*
Y553500D02*
D03*
X287250Y571500D02*
D03*
Y553500D02*
D03*
X-222500Y546500D02*
D03*
Y528500D02*
D03*
X-187500Y641500D02*
D03*
Y623500D02*
D03*
X-167500Y641500D02*
D03*
Y623500D02*
D03*
X35000Y752000D02*
D03*
Y770000D02*
D03*
X115000D02*
D03*
Y752000D02*
D03*
X100000Y601500D02*
D03*
Y583500D02*
D03*
X-40001Y734999D02*
D03*
Y716999D02*
D03*
X-22500Y613500D02*
D03*
Y631500D02*
D03*
X-2500Y613500D02*
D03*
Y631500D02*
D03*
X-115000Y752000D02*
D03*
Y770000D02*
D03*
X-207500Y641500D02*
D03*
Y623500D02*
D03*
X55000Y752000D02*
D03*
Y770000D02*
D03*
X-55000Y752000D02*
D03*
Y770000D02*
D03*
X20000Y735000D02*
D03*
Y717000D02*
D03*
X0Y735000D02*
D03*
Y717000D02*
D03*
X-20000Y735000D02*
D03*
Y717000D02*
D03*
X-253749Y680864D02*
D03*
Y698864D02*
D03*
X-277750Y603500D02*
D03*
Y621500D02*
D03*
X-257750Y603501D02*
D03*
Y621501D02*
D03*
X-297750Y603501D02*
D03*
Y621501D02*
D03*
X-397500Y753500D02*
D03*
Y771500D02*
D03*
X75000Y752000D02*
D03*
Y770000D02*
D03*
X60000Y735000D02*
D03*
Y717000D02*
D03*
X80000Y735000D02*
D03*
Y717000D02*
D03*
X40000Y735000D02*
D03*
Y717000D02*
D03*
X-80000Y735000D02*
D03*
Y717000D02*
D03*
X-241500Y638500D02*
D03*
Y656500D02*
D03*
X-437500Y753500D02*
D03*
Y771500D02*
D03*
X-417500Y753500D02*
D03*
Y771500D02*
D03*
X-135000Y752000D02*
D03*
Y770000D02*
D03*
X95000Y752000D02*
D03*
Y770000D02*
D03*
X-60000Y735000D02*
D03*
Y717000D02*
D03*
X100000Y735000D02*
D03*
Y717000D02*
D03*
X-75000Y752000D02*
D03*
Y770000D02*
D03*
X-95000Y752000D02*
D03*
Y770000D02*
D03*
X-237750Y603501D02*
D03*
Y621501D02*
D03*
X-276000Y411500D02*
D03*
Y393500D02*
D03*
X-202500Y528500D02*
D03*
Y546500D02*
D03*
X267250Y571500D02*
D03*
Y553500D02*
D03*
D83*
X395700Y523000D02*
D03*
X408400D02*
D03*
X421100D02*
D03*
X433800D02*
D03*
Y467000D02*
D03*
X421100D02*
D03*
X408400D02*
D03*
X395700D02*
D03*
D84*
X-297499Y689952D02*
D03*
X-274499Y699452D02*
D03*
Y680452D02*
D03*
X56000Y845000D02*
D03*
X79000Y854500D02*
D03*
Y835500D02*
D03*
X-7500Y689951D02*
D03*
X15500Y699451D02*
D03*
Y680451D02*
D03*
X259500Y522500D02*
D03*
X282500Y532000D02*
D03*
Y513000D02*
D03*
X220000Y522500D02*
D03*
X243000Y532000D02*
D03*
Y513000D02*
D03*
D85*
X433500Y560000D02*
D03*
X403500D02*
D03*
X357500D02*
D03*
X387500D02*
D03*
X85000Y815000D02*
D03*
X55000D02*
D03*
D86*
X-139100Y734250D02*
D03*
X-126400D02*
D03*
X-113700D02*
D03*
X-101000D02*
D03*
Y679250D02*
D03*
X-113700D02*
D03*
X-126400D02*
D03*
X-139100D02*
D03*
X-429099Y734251D02*
D03*
X-416399D02*
D03*
X-403699D02*
D03*
X-390999D02*
D03*
Y679251D02*
D03*
X-403699D02*
D03*
X-416399D02*
D03*
X-429099D02*
D03*
D87*
X-30499Y485001D02*
D03*
X-129999D02*
D03*
X-260250Y485000D02*
D03*
X-359750D02*
D03*
D88*
X140000Y559000D02*
D03*
Y584500D02*
D03*
Y610000D02*
D03*
Y635000D02*
D03*
D89*
Y660500D02*
D03*
D90*
X328500Y765000D02*
D03*
X421500D02*
D03*
D91*
X170000Y685000D02*
D03*
Y680000D02*
D03*
Y675000D02*
D03*
Y670000D02*
D03*
Y665000D02*
D03*
Y660000D02*
D03*
Y655000D02*
D03*
Y650000D02*
D03*
Y645000D02*
D03*
Y640000D02*
D03*
Y635000D02*
D03*
Y630000D02*
D03*
Y625000D02*
D03*
Y620000D02*
D03*
Y615000D02*
D03*
Y610000D02*
D03*
X285000D02*
D03*
Y615000D02*
D03*
Y620000D02*
D03*
Y625000D02*
D03*
Y630000D02*
D03*
Y635000D02*
D03*
Y640000D02*
D03*
Y645000D02*
D03*
Y650000D02*
D03*
Y655000D02*
D03*
Y660000D02*
D03*
Y665000D02*
D03*
Y670000D02*
D03*
Y675000D02*
D03*
Y680000D02*
D03*
Y685000D02*
D03*
D92*
X190000Y590000D02*
D03*
X195000D02*
D03*
X200000D02*
D03*
X205000D02*
D03*
X210000D02*
D03*
X215000D02*
D03*
X220000D02*
D03*
X225000D02*
D03*
X230000D02*
D03*
X235000D02*
D03*
X240000D02*
D03*
X245000D02*
D03*
X250000D02*
D03*
X255000D02*
D03*
X260000D02*
D03*
X265000D02*
D03*
Y705000D02*
D03*
X260000D02*
D03*
X255000D02*
D03*
X250000D02*
D03*
X245000D02*
D03*
X240000D02*
D03*
X235000D02*
D03*
X230000D02*
D03*
X225000D02*
D03*
X220000D02*
D03*
X215000D02*
D03*
X210000D02*
D03*
X205000D02*
D03*
X200000D02*
D03*
X195000D02*
D03*
X190000D02*
D03*
D93*
X170000Y590000D02*
D03*
X285000Y705000D02*
D03*
D94*
X424500Y482000D02*
D03*
X405500D02*
D03*
Y508000D02*
D03*
X415000D02*
D03*
X424500D02*
D03*
D95*
X375000Y586500D02*
D03*
X430000D02*
D03*
Y675500D02*
D03*
X375000D02*
D03*
D96*
X374000Y647000D02*
D03*
Y639000D02*
D03*
Y631000D02*
D03*
Y623000D02*
D03*
Y615000D02*
D03*
D97*
X-362499Y672001D02*
D03*
X-313499D02*
D03*
Y665501D02*
D03*
Y659001D02*
D03*
Y652501D02*
D03*
X-362499D02*
D03*
Y659001D02*
D03*
Y665501D02*
D03*
X-72500Y672000D02*
D03*
X-23500D02*
D03*
Y665500D02*
D03*
Y659000D02*
D03*
Y652500D02*
D03*
X-72500D02*
D03*
Y659000D02*
D03*
Y665500D02*
D03*
D98*
X-337999Y662251D02*
D03*
X-48000Y662250D02*
D03*
D99*
X-323999Y669001D02*
D03*
Y664501D02*
D03*
Y660001D02*
D03*
X-351999D02*
D03*
Y664501D02*
D03*
Y669001D02*
D03*
Y655501D02*
D03*
X-323999D02*
D03*
X-34000Y669000D02*
D03*
Y664500D02*
D03*
Y660000D02*
D03*
X-62000D02*
D03*
Y664500D02*
D03*
Y669000D02*
D03*
Y655500D02*
D03*
X-34000D02*
D03*
D100*
X-337999Y662251D02*
D03*
X-48000Y662250D02*
D03*
D101*
X143500Y731000D02*
D03*
X164500D02*
D03*
D102*
X125000Y735000D02*
D03*
Y714000D02*
D03*
X315000Y728000D02*
D03*
Y707000D02*
D03*
X335000Y728000D02*
D03*
Y707000D02*
D03*
D103*
X-10000Y825000D02*
D03*
D104*
X12900Y760000D02*
D03*
X-32900D02*
D03*
D105*
X-35400Y766500D02*
D03*
X15400D02*
D03*
D106*
X-10000Y832500D02*
D03*
D107*
X-366166Y285499D02*
D03*
X-360000Y307500D02*
D03*
X32500Y297500D02*
D03*
X27500Y312500D02*
D03*
X42500Y307500D02*
D03*
X353750Y128750D02*
D03*
X363750Y118750D02*
D03*
X358750Y296250D02*
D03*
X353750Y-71250D02*
D03*
X363750Y-81250D02*
D03*
X358750Y96250D02*
D03*
X350000Y55000D02*
D03*
Y255000D02*
D03*
Y-145000D02*
D03*
X358750Y-103750D02*
D03*
X363750Y-281250D02*
D03*
X353750Y-271250D02*
D03*
X46250Y-128750D02*
D03*
X36250Y-118750D02*
D03*
X41250Y-296250D02*
D03*
X50000Y-255000D02*
D03*
X46250Y71250D02*
D03*
X36250Y81250D02*
D03*
X41250Y-96250D02*
D03*
X50000Y-55000D02*
D03*
X46250Y271250D02*
D03*
X36250Y281250D02*
D03*
X41250Y103750D02*
D03*
X50000Y145000D02*
D03*
X-46250Y128750D02*
D03*
X-36250Y118750D02*
D03*
X-41250Y296250D02*
D03*
X-50000Y255000D02*
D03*
X-46250Y-71250D02*
D03*
X-36250Y-81250D02*
D03*
X-41250Y96250D02*
D03*
X-50000Y55000D02*
D03*
X-46250Y-271250D02*
D03*
X-36250Y-281250D02*
D03*
X-41250Y-103750D02*
D03*
X-50000Y-145000D02*
D03*
X-350000Y262421D02*
D03*
X-366166Y275000D02*
D03*
X-358750Y103750D02*
D03*
X-350000Y145000D02*
D03*
X-353750Y71250D02*
D03*
X-363750Y81250D02*
D03*
X-358750Y-96250D02*
D03*
X-350000Y-55000D02*
D03*
X-353750Y-128750D02*
D03*
X-363750Y-118750D02*
D03*
X-358750Y-296250D02*
D03*
X-350000Y-255000D02*
D03*
X-365000Y315000D02*
D03*
X362500Y347500D02*
D03*
X347500D02*
D03*
X355000Y357500D02*
D03*
X377500Y110000D02*
D03*
Y-90000D02*
D03*
X22500Y-110000D02*
D03*
X-22500Y-90000D02*
D03*
Y110000D02*
D03*
X22500Y90000D02*
D03*
X-377500Y-110000D02*
D03*
Y90000D02*
D03*
Y282500D02*
D03*
X-363750Y-318750D02*
D03*
X-350000Y-327500D02*
D03*
X-41250Y-303750D02*
D03*
X358750D02*
D03*
X46250Y-328750D02*
D03*
X36250Y-318750D02*
D03*
X350000Y-345000D02*
D03*
X-50000D02*
D03*
X37500Y322500D02*
D03*
X318750Y281345D02*
D03*
X311147Y281199D02*
D03*
X303655D02*
D03*
X296199Y281147D02*
D03*
X288655Y281199D02*
D03*
X281147Y281147D02*
D03*
X281199Y288655D02*
D03*
X288706Y288706D02*
D03*
X296250Y288655D02*
D03*
X303706Y288706D02*
D03*
X311199D02*
D03*
X318801Y288853D02*
D03*
X281199Y295949D02*
D03*
X288706Y296000D02*
D03*
X296250Y295949D02*
D03*
X303706Y296000D02*
D03*
X311199D02*
D03*
X318801Y296147D02*
D03*
X281199Y303655D02*
D03*
X288706Y303706D02*
D03*
X296250Y303655D02*
D03*
X303706Y303706D02*
D03*
X311199D02*
D03*
X318801Y303853D02*
D03*
X281199Y311147D02*
D03*
X288706Y311199D02*
D03*
X296250Y311147D02*
D03*
X303706Y311199D02*
D03*
X311199D02*
D03*
X318801Y311345D02*
D03*
X281199Y318655D02*
D03*
X288706Y318706D02*
D03*
X296250Y318655D02*
D03*
X303706Y318706D02*
D03*
X311199D02*
D03*
X318801Y318853D02*
D03*
Y118853D02*
D03*
X311199Y118706D02*
D03*
X303706D02*
D03*
X296250Y118655D02*
D03*
X288706Y118706D02*
D03*
X281199Y118655D02*
D03*
X318801Y111345D02*
D03*
X311199Y111199D02*
D03*
X303706D02*
D03*
X296250Y111147D02*
D03*
X288706Y111199D02*
D03*
X281199Y111147D02*
D03*
X318801Y103853D02*
D03*
X311199Y103706D02*
D03*
X303706D02*
D03*
X296250Y103655D02*
D03*
X288706Y103706D02*
D03*
X281199Y103655D02*
D03*
X318801Y96147D02*
D03*
X311199Y96000D02*
D03*
X303706D02*
D03*
X296250Y95949D02*
D03*
X288706Y96000D02*
D03*
X281199Y95949D02*
D03*
X318801Y88853D02*
D03*
X311199Y88706D02*
D03*
X303706D02*
D03*
X296250Y88655D02*
D03*
X288706Y88706D02*
D03*
X281199Y88655D02*
D03*
X281147Y81147D02*
D03*
X288655Y81199D02*
D03*
X296199Y81147D02*
D03*
X303655Y81199D02*
D03*
X311147D02*
D03*
X318750Y81345D02*
D03*
Y-118655D02*
D03*
X311147Y-118801D02*
D03*
X303655D02*
D03*
X296199Y-118853D02*
D03*
X288655Y-118801D02*
D03*
X281147Y-118853D02*
D03*
X281199Y-111345D02*
D03*
X288706Y-111294D02*
D03*
X296250Y-111345D02*
D03*
X303706Y-111294D02*
D03*
X311199D02*
D03*
X318801Y-111147D02*
D03*
X281199Y-104051D02*
D03*
X288706Y-104000D02*
D03*
X296250Y-104051D02*
D03*
X303706Y-104000D02*
D03*
X311199D02*
D03*
X318801Y-103853D02*
D03*
X281199Y-96345D02*
D03*
X288706Y-96294D02*
D03*
X296250Y-96345D02*
D03*
X303706Y-96294D02*
D03*
X311199D02*
D03*
X318801Y-96147D02*
D03*
X281199Y-88853D02*
D03*
X288706Y-88801D02*
D03*
X296250Y-88853D02*
D03*
X303706Y-88801D02*
D03*
X311199D02*
D03*
X318801Y-88655D02*
D03*
X281199Y-81345D02*
D03*
X288706Y-81294D02*
D03*
X296250Y-81345D02*
D03*
X303706Y-81294D02*
D03*
X311199D02*
D03*
X318801Y-81147D02*
D03*
Y-281147D02*
D03*
X311199Y-281294D02*
D03*
X303706D02*
D03*
X296250Y-281345D02*
D03*
X288706Y-281294D02*
D03*
X281199Y-281345D02*
D03*
X318801Y-288655D02*
D03*
X311199Y-288801D02*
D03*
X303706D02*
D03*
X296250Y-288853D02*
D03*
X288706Y-288801D02*
D03*
X281199Y-288853D02*
D03*
X318801Y-296147D02*
D03*
X311199Y-296294D02*
D03*
X303706D02*
D03*
X296250Y-296345D02*
D03*
X288706Y-296294D02*
D03*
X281199Y-296345D02*
D03*
X318801Y-303853D02*
D03*
X311199Y-304000D02*
D03*
X303706D02*
D03*
X296250Y-304051D02*
D03*
X288706Y-304000D02*
D03*
X281199Y-304051D02*
D03*
X318801Y-311147D02*
D03*
X311199Y-311294D02*
D03*
X303706D02*
D03*
X296250Y-311345D02*
D03*
X288706Y-311294D02*
D03*
X281199Y-311345D02*
D03*
X281147Y-318853D02*
D03*
X288655Y-318801D02*
D03*
X296199Y-318853D02*
D03*
X303655Y-318801D02*
D03*
X311147D02*
D03*
X318750Y-318655D02*
D03*
X81250Y-281345D02*
D03*
X88853Y-281199D02*
D03*
X96345D02*
D03*
X103801Y-281147D02*
D03*
X111345Y-281199D02*
D03*
X118853Y-281147D02*
D03*
X118801Y-288655D02*
D03*
X111294Y-288706D02*
D03*
X103750Y-288655D02*
D03*
X96294Y-288706D02*
D03*
X88801D02*
D03*
X81199Y-288853D02*
D03*
X118801Y-295949D02*
D03*
X111294Y-296000D02*
D03*
X103750Y-295949D02*
D03*
X96294Y-296000D02*
D03*
X88801D02*
D03*
X81199Y-296147D02*
D03*
X118801Y-303655D02*
D03*
X111294Y-303706D02*
D03*
X103750Y-303655D02*
D03*
X96294Y-303706D02*
D03*
X88801D02*
D03*
X81199Y-303853D02*
D03*
X118801Y-311147D02*
D03*
X111294Y-311199D02*
D03*
X103750Y-311147D02*
D03*
X96294Y-311199D02*
D03*
X88801D02*
D03*
X81199Y-311345D02*
D03*
X118801Y-318655D02*
D03*
X111294Y-318706D02*
D03*
X103750Y-318655D02*
D03*
X96294Y-318706D02*
D03*
X88801D02*
D03*
X81199Y-318853D02*
D03*
Y-118853D02*
D03*
X88801Y-118706D02*
D03*
X96294D02*
D03*
X103750Y-118655D02*
D03*
X111294Y-118706D02*
D03*
X118801Y-118655D02*
D03*
X81199Y-111345D02*
D03*
X88801Y-111199D02*
D03*
X96294D02*
D03*
X103750Y-111147D02*
D03*
X111294Y-111199D02*
D03*
X118801Y-111147D02*
D03*
X81199Y-103853D02*
D03*
X88801Y-103706D02*
D03*
X96294D02*
D03*
X103750Y-103655D02*
D03*
X111294Y-103706D02*
D03*
X118801Y-103655D02*
D03*
X81199Y-96147D02*
D03*
X88801Y-96000D02*
D03*
X96294D02*
D03*
X103750Y-95949D02*
D03*
X111294Y-96000D02*
D03*
X118801Y-95949D02*
D03*
X81199Y-88853D02*
D03*
X88801Y-88706D02*
D03*
X96294D02*
D03*
X103750Y-88655D02*
D03*
X111294Y-88706D02*
D03*
X118801Y-88655D02*
D03*
X118853Y-81147D02*
D03*
X111345Y-81199D02*
D03*
X103801Y-81147D02*
D03*
X96345Y-81199D02*
D03*
X88853D02*
D03*
X81250Y-81345D02*
D03*
Y118655D02*
D03*
X88853Y118801D02*
D03*
X96345D02*
D03*
X103801Y118853D02*
D03*
X111345Y118801D02*
D03*
X118853Y118853D02*
D03*
X118801Y111345D02*
D03*
X111294Y111294D02*
D03*
X103750Y111345D02*
D03*
X96294Y111294D02*
D03*
X88801D02*
D03*
X81199Y111147D02*
D03*
X118801Y104051D02*
D03*
X111294Y104000D02*
D03*
X103750Y104051D02*
D03*
X96294Y104000D02*
D03*
X88801D02*
D03*
X81199Y103853D02*
D03*
X118801Y96345D02*
D03*
X111294Y96294D02*
D03*
X103750Y96345D02*
D03*
X96294Y96294D02*
D03*
X88801D02*
D03*
X81199Y96147D02*
D03*
X118801Y88853D02*
D03*
X111294Y88801D02*
D03*
X103750Y88853D02*
D03*
X96294Y88801D02*
D03*
X88801D02*
D03*
X81199Y88655D02*
D03*
X118801Y81345D02*
D03*
X111294Y81294D02*
D03*
X103750Y81345D02*
D03*
X96294Y81294D02*
D03*
X88801D02*
D03*
X81199Y81147D02*
D03*
Y281147D02*
D03*
X88801Y281294D02*
D03*
X96294D02*
D03*
X103750Y281345D02*
D03*
X111294Y281294D02*
D03*
X118801Y281345D02*
D03*
X81199Y288655D02*
D03*
X88801Y288801D02*
D03*
X96294D02*
D03*
X103750Y288853D02*
D03*
X111294Y288801D02*
D03*
X118801Y288853D02*
D03*
X81199Y296147D02*
D03*
X88801Y296294D02*
D03*
X96294D02*
D03*
X103750Y296345D02*
D03*
X111294Y296294D02*
D03*
X118801Y296345D02*
D03*
X81199Y303853D02*
D03*
X88801Y304000D02*
D03*
X96294D02*
D03*
X103750Y304051D02*
D03*
X111294Y304000D02*
D03*
X118801Y304051D02*
D03*
X81199Y311147D02*
D03*
X88801Y311294D02*
D03*
X96294D02*
D03*
X103750Y311345D02*
D03*
X111294Y311294D02*
D03*
X118801Y311345D02*
D03*
X118853Y318853D02*
D03*
X111345Y318801D02*
D03*
X103801Y318853D02*
D03*
X96345Y318801D02*
D03*
X88853D02*
D03*
X81250Y318655D02*
D03*
X-81250Y281345D02*
D03*
X-88853Y281199D02*
D03*
X-96345D02*
D03*
X-103801Y281147D02*
D03*
X-111345Y281199D02*
D03*
X-118853Y281147D02*
D03*
X-118801Y288655D02*
D03*
X-111294Y288706D02*
D03*
X-103750Y288655D02*
D03*
X-96294Y288706D02*
D03*
X-88801D02*
D03*
X-81199Y288853D02*
D03*
X-118801Y295949D02*
D03*
X-111294Y296000D02*
D03*
X-103750Y295949D02*
D03*
X-96294Y296000D02*
D03*
X-88801D02*
D03*
X-81199Y296147D02*
D03*
X-118801Y303655D02*
D03*
X-111294Y303706D02*
D03*
X-103750Y303655D02*
D03*
X-96294Y303706D02*
D03*
X-88801D02*
D03*
X-81199Y303853D02*
D03*
X-118801Y311147D02*
D03*
X-111294Y311199D02*
D03*
X-103750Y311147D02*
D03*
X-96294Y311199D02*
D03*
X-88801D02*
D03*
X-81199Y311345D02*
D03*
X-118801Y318655D02*
D03*
X-111294Y318706D02*
D03*
X-103750Y318655D02*
D03*
X-96294Y318706D02*
D03*
X-88801D02*
D03*
X-81199Y318853D02*
D03*
Y118853D02*
D03*
X-88801Y118706D02*
D03*
X-96294D02*
D03*
X-103750Y118655D02*
D03*
X-111294Y118706D02*
D03*
X-118801Y118655D02*
D03*
X-81199Y111345D02*
D03*
X-88801Y111199D02*
D03*
X-96294D02*
D03*
X-103750Y111147D02*
D03*
X-111294Y111199D02*
D03*
X-118801Y111147D02*
D03*
X-81199Y103853D02*
D03*
X-88801Y103706D02*
D03*
X-96294D02*
D03*
X-103750Y103655D02*
D03*
X-111294Y103706D02*
D03*
X-118801Y103655D02*
D03*
X-81199Y96147D02*
D03*
X-88801Y96000D02*
D03*
X-96294D02*
D03*
X-103750Y95949D02*
D03*
X-111294Y96000D02*
D03*
X-118801Y95949D02*
D03*
X-81199Y88853D02*
D03*
X-88801Y88706D02*
D03*
X-96294D02*
D03*
X-103750Y88655D02*
D03*
X-111294Y88706D02*
D03*
X-118801Y88655D02*
D03*
X-118853Y81147D02*
D03*
X-111345Y81199D02*
D03*
X-103801Y81147D02*
D03*
X-96345Y81199D02*
D03*
X-88853D02*
D03*
X-81250Y81345D02*
D03*
Y-118655D02*
D03*
X-88853Y-118801D02*
D03*
X-96345D02*
D03*
X-103801Y-118853D02*
D03*
X-111345Y-118801D02*
D03*
X-118853Y-118853D02*
D03*
X-118801Y-111345D02*
D03*
X-111294Y-111294D02*
D03*
X-103750Y-111345D02*
D03*
X-96294Y-111294D02*
D03*
X-88801D02*
D03*
X-81199Y-111147D02*
D03*
X-118801Y-104051D02*
D03*
X-111294Y-104000D02*
D03*
X-103750Y-104051D02*
D03*
X-96294Y-104000D02*
D03*
X-88801D02*
D03*
X-81199Y-103853D02*
D03*
X-118801Y-96345D02*
D03*
X-111294Y-96294D02*
D03*
X-103750Y-96345D02*
D03*
X-96294Y-96294D02*
D03*
X-88801D02*
D03*
X-81199Y-96147D02*
D03*
X-118801Y-88853D02*
D03*
X-111294Y-88801D02*
D03*
X-103750Y-88853D02*
D03*
X-96294Y-88801D02*
D03*
X-88801D02*
D03*
X-81199Y-88655D02*
D03*
X-118801Y-81345D02*
D03*
X-111294Y-81294D02*
D03*
X-103750Y-81345D02*
D03*
X-96294Y-81294D02*
D03*
X-88801D02*
D03*
X-81199Y-81147D02*
D03*
Y-281147D02*
D03*
X-88801Y-281294D02*
D03*
X-96294D02*
D03*
X-103750Y-281345D02*
D03*
X-111294Y-281294D02*
D03*
X-118801Y-281345D02*
D03*
X-81199Y-288655D02*
D03*
X-88801Y-288801D02*
D03*
X-96294D02*
D03*
X-103750Y-288853D02*
D03*
X-111294Y-288801D02*
D03*
X-118801Y-288853D02*
D03*
X-81199Y-296147D02*
D03*
X-88801Y-296294D02*
D03*
X-96294D02*
D03*
X-103750Y-296345D02*
D03*
X-111294Y-296294D02*
D03*
X-118801Y-296345D02*
D03*
X-81199Y-303853D02*
D03*
X-88801Y-304000D02*
D03*
X-96294D02*
D03*
X-103750Y-304051D02*
D03*
X-111294Y-304000D02*
D03*
X-118801Y-304051D02*
D03*
X-81199Y-311147D02*
D03*
X-88801Y-311294D02*
D03*
X-96294D02*
D03*
X-103750Y-311345D02*
D03*
X-111294Y-311294D02*
D03*
X-118801Y-311345D02*
D03*
X-118853Y-318853D02*
D03*
X-111345Y-318801D02*
D03*
X-103801Y-318853D02*
D03*
X-96345Y-318801D02*
D03*
X-88853D02*
D03*
X-81250Y-318655D02*
D03*
X-318750Y-281345D02*
D03*
X-311147Y-281199D02*
D03*
X-303655D02*
D03*
X-296199Y-281147D02*
D03*
X-288655Y-281199D02*
D03*
X-281147Y-281147D02*
D03*
X-281199Y-288655D02*
D03*
X-288706Y-288706D02*
D03*
X-296250Y-288655D02*
D03*
X-303706Y-288706D02*
D03*
X-311199D02*
D03*
X-318801Y-288853D02*
D03*
X-281199Y-295949D02*
D03*
X-288706Y-296000D02*
D03*
X-296250Y-295949D02*
D03*
X-303706Y-296000D02*
D03*
X-311199D02*
D03*
X-318801Y-296147D02*
D03*
X-281199Y-303655D02*
D03*
X-288706Y-303706D02*
D03*
X-296250Y-303655D02*
D03*
X-303706Y-303706D02*
D03*
X-311199D02*
D03*
X-318801Y-303853D02*
D03*
X-281199Y-311147D02*
D03*
X-288706Y-311199D02*
D03*
X-296250Y-311147D02*
D03*
X-303706Y-311199D02*
D03*
X-311199D02*
D03*
X-318801Y-311345D02*
D03*
X-281199Y-318655D02*
D03*
X-288706Y-318706D02*
D03*
X-296250Y-318655D02*
D03*
X-303706Y-318706D02*
D03*
X-311199D02*
D03*
X-318801Y-318853D02*
D03*
Y-118853D02*
D03*
X-311199Y-118706D02*
D03*
X-303706D02*
D03*
X-296250Y-118655D02*
D03*
X-288706Y-118706D02*
D03*
X-281199Y-118655D02*
D03*
X-318801Y-111345D02*
D03*
X-311199Y-111199D02*
D03*
X-303706D02*
D03*
X-296250Y-111147D02*
D03*
X-288706Y-111199D02*
D03*
X-281199Y-111147D02*
D03*
X-318801Y-103853D02*
D03*
X-311199Y-103706D02*
D03*
X-303706D02*
D03*
X-296250Y-103655D02*
D03*
X-288706Y-103706D02*
D03*
X-281199Y-103655D02*
D03*
X-318801Y-96147D02*
D03*
X-311199Y-96000D02*
D03*
X-303706D02*
D03*
X-296250Y-95949D02*
D03*
X-288706Y-96000D02*
D03*
X-281199Y-95949D02*
D03*
X-318801Y-88853D02*
D03*
X-311199Y-88706D02*
D03*
X-303706D02*
D03*
X-296250Y-88655D02*
D03*
X-288706Y-88706D02*
D03*
X-281199Y-88655D02*
D03*
X-281147Y-81147D02*
D03*
X-288655Y-81199D02*
D03*
X-296199Y-81147D02*
D03*
X-303655Y-81199D02*
D03*
X-311147D02*
D03*
X-318750Y-81345D02*
D03*
Y118655D02*
D03*
X-311147Y118801D02*
D03*
X-303655D02*
D03*
X-296199Y118853D02*
D03*
X-288655Y118801D02*
D03*
X-281147Y118853D02*
D03*
X-281199Y111345D02*
D03*
X-288706Y111294D02*
D03*
X-296250Y111345D02*
D03*
X-303706Y111294D02*
D03*
X-311199D02*
D03*
X-318801Y111147D02*
D03*
X-281199Y104051D02*
D03*
X-288706Y104000D02*
D03*
X-296250Y104051D02*
D03*
X-303706Y104000D02*
D03*
X-311199D02*
D03*
X-318801Y103853D02*
D03*
X-281199Y96345D02*
D03*
X-288706Y96294D02*
D03*
X-296250Y96345D02*
D03*
X-303706Y96294D02*
D03*
X-311199D02*
D03*
X-318801Y96147D02*
D03*
X-281199Y88853D02*
D03*
X-288706Y88801D02*
D03*
X-296250Y88853D02*
D03*
X-303706Y88801D02*
D03*
X-311199D02*
D03*
X-318801Y88655D02*
D03*
X-281199Y81345D02*
D03*
X-288706Y81294D02*
D03*
X-296250Y81345D02*
D03*
X-303706Y81294D02*
D03*
X-311199D02*
D03*
X-318801Y81147D02*
D03*
Y281147D02*
D03*
X-311199Y281294D02*
D03*
X-303706D02*
D03*
X-296250Y281345D02*
D03*
X-288706Y281294D02*
D03*
X-281199Y281345D02*
D03*
X-318801Y288655D02*
D03*
X-311199Y288801D02*
D03*
X-303706D02*
D03*
X-296250Y288853D02*
D03*
X-288706Y288801D02*
D03*
X-281199Y288853D02*
D03*
X-318801Y296147D02*
D03*
X-311199Y296294D02*
D03*
X-303706D02*
D03*
X-296250Y296345D02*
D03*
X-288706Y296294D02*
D03*
X-281199Y296345D02*
D03*
X-318801Y303853D02*
D03*
X-311199Y304000D02*
D03*
X-303706D02*
D03*
X-296250Y304051D02*
D03*
X-288706Y304000D02*
D03*
X-281199Y304051D02*
D03*
X-318801Y311147D02*
D03*
X-311199Y311294D02*
D03*
X-303706D02*
D03*
X-296250Y311345D02*
D03*
X-288706Y311294D02*
D03*
X-281199Y311345D02*
D03*
X-281147Y318853D02*
D03*
X-288655Y318801D02*
D03*
X-296199Y318853D02*
D03*
X-303655Y318801D02*
D03*
X-311147D02*
D03*
X-318750Y318655D02*
D03*
D108*
X327500Y265500D02*
D03*
X322500D02*
D03*
X317500D02*
D03*
X312500D02*
D03*
X307500D02*
D03*
X302500D02*
D03*
X297500D02*
D03*
X292500D02*
D03*
X287500D02*
D03*
X282500D02*
D03*
X277500D02*
D03*
X272500D02*
D03*
Y334500D02*
D03*
X277500D02*
D03*
X282500D02*
D03*
X287500D02*
D03*
X292500D02*
D03*
X297500D02*
D03*
X302500D02*
D03*
X307500D02*
D03*
X312500D02*
D03*
X317500D02*
D03*
X322500D02*
D03*
X327500D02*
D03*
Y134500D02*
D03*
X322500D02*
D03*
X317500D02*
D03*
X312500D02*
D03*
X307500D02*
D03*
X302500D02*
D03*
X297500D02*
D03*
X292500D02*
D03*
X287500D02*
D03*
X282500D02*
D03*
X277500D02*
D03*
X272500D02*
D03*
Y65500D02*
D03*
X277500D02*
D03*
X282500D02*
D03*
X287500D02*
D03*
X292500D02*
D03*
X297500D02*
D03*
X302500D02*
D03*
X307500D02*
D03*
X312500D02*
D03*
X317500D02*
D03*
X322500D02*
D03*
X327500D02*
D03*
Y-134500D02*
D03*
X322500D02*
D03*
X317500D02*
D03*
X312500D02*
D03*
X307500D02*
D03*
X302500D02*
D03*
X297500D02*
D03*
X292500D02*
D03*
X287500D02*
D03*
X282500D02*
D03*
X277500D02*
D03*
X272500D02*
D03*
Y-65500D02*
D03*
X277500D02*
D03*
X282500D02*
D03*
X287500D02*
D03*
X292500D02*
D03*
X297500D02*
D03*
X302500D02*
D03*
X307500D02*
D03*
X312500D02*
D03*
X317500D02*
D03*
X322500D02*
D03*
X327500D02*
D03*
Y-265500D02*
D03*
X322500D02*
D03*
X317500D02*
D03*
X312500D02*
D03*
X307500D02*
D03*
X302500D02*
D03*
X297500D02*
D03*
X292500D02*
D03*
X287500D02*
D03*
X282500D02*
D03*
X277500D02*
D03*
X272500D02*
D03*
Y-334500D02*
D03*
X277500D02*
D03*
X282500D02*
D03*
X287500D02*
D03*
X292500D02*
D03*
X297500D02*
D03*
X302500D02*
D03*
X307500D02*
D03*
X312500D02*
D03*
X317500D02*
D03*
X322500D02*
D03*
X327500D02*
D03*
X72500Y-265500D02*
D03*
X77500D02*
D03*
X82500D02*
D03*
X87500D02*
D03*
X92500D02*
D03*
X97500D02*
D03*
X102500D02*
D03*
X107500D02*
D03*
X112500D02*
D03*
X117500D02*
D03*
X122500D02*
D03*
X127500D02*
D03*
Y-334500D02*
D03*
X122500D02*
D03*
X117500D02*
D03*
X112500D02*
D03*
X107500D02*
D03*
X102500D02*
D03*
X97500D02*
D03*
X92500D02*
D03*
X87500D02*
D03*
X82500D02*
D03*
X77500D02*
D03*
X72500D02*
D03*
Y-134500D02*
D03*
X77500D02*
D03*
X82500D02*
D03*
X87500D02*
D03*
X92500D02*
D03*
X97500D02*
D03*
X102500D02*
D03*
X107500D02*
D03*
X112500D02*
D03*
X117500D02*
D03*
X122500D02*
D03*
X127500D02*
D03*
Y-65500D02*
D03*
X122500D02*
D03*
X117500D02*
D03*
X112500D02*
D03*
X107500D02*
D03*
X102500D02*
D03*
X97500D02*
D03*
X92500D02*
D03*
X87500D02*
D03*
X82500D02*
D03*
X77500D02*
D03*
X72500D02*
D03*
Y134500D02*
D03*
X77500D02*
D03*
X82500D02*
D03*
X87500D02*
D03*
X92500D02*
D03*
X97500D02*
D03*
X102500D02*
D03*
X107500D02*
D03*
X112500D02*
D03*
X117500D02*
D03*
X122500D02*
D03*
X127500D02*
D03*
Y65500D02*
D03*
X122500D02*
D03*
X117500D02*
D03*
X112500D02*
D03*
X107500D02*
D03*
X102500D02*
D03*
X97500D02*
D03*
X92500D02*
D03*
X87500D02*
D03*
X82500D02*
D03*
X77500D02*
D03*
X72500D02*
D03*
Y265500D02*
D03*
X77500D02*
D03*
X82500D02*
D03*
X87500D02*
D03*
X92500D02*
D03*
X97500D02*
D03*
X102500D02*
D03*
X107500D02*
D03*
X112500D02*
D03*
X117500D02*
D03*
X122500D02*
D03*
X127500D02*
D03*
Y334500D02*
D03*
X122500D02*
D03*
X117500D02*
D03*
X112500D02*
D03*
X107500D02*
D03*
X102500D02*
D03*
X97500D02*
D03*
X92500D02*
D03*
X87500D02*
D03*
X82500D02*
D03*
X77500D02*
D03*
X72500D02*
D03*
X-72500Y265500D02*
D03*
X-77500D02*
D03*
X-82500D02*
D03*
X-87500D02*
D03*
X-92500D02*
D03*
X-97500D02*
D03*
X-102500D02*
D03*
X-107500D02*
D03*
X-112500D02*
D03*
X-117500D02*
D03*
X-122500D02*
D03*
X-127500D02*
D03*
Y334500D02*
D03*
X-122500D02*
D03*
X-117500D02*
D03*
X-112500D02*
D03*
X-107500D02*
D03*
X-102500D02*
D03*
X-97500D02*
D03*
X-92500D02*
D03*
X-87500D02*
D03*
X-82500D02*
D03*
X-77500D02*
D03*
X-72500D02*
D03*
Y134500D02*
D03*
X-77500D02*
D03*
X-82500D02*
D03*
X-87500D02*
D03*
X-92500D02*
D03*
X-97500D02*
D03*
X-102500D02*
D03*
X-107500D02*
D03*
X-112500D02*
D03*
X-117500D02*
D03*
X-122500D02*
D03*
X-127500D02*
D03*
Y65500D02*
D03*
X-122500D02*
D03*
X-117500D02*
D03*
X-112500D02*
D03*
X-107500D02*
D03*
X-102500D02*
D03*
X-97500D02*
D03*
X-92500D02*
D03*
X-87500D02*
D03*
X-82500D02*
D03*
X-77500D02*
D03*
X-72500D02*
D03*
Y-134500D02*
D03*
X-77500D02*
D03*
X-82500D02*
D03*
X-87500D02*
D03*
X-92500D02*
D03*
X-97500D02*
D03*
X-102500D02*
D03*
X-107500D02*
D03*
X-112500D02*
D03*
X-117500D02*
D03*
X-122500D02*
D03*
X-127500D02*
D03*
Y-65500D02*
D03*
X-122500D02*
D03*
X-117500D02*
D03*
X-112500D02*
D03*
X-107500D02*
D03*
X-102500D02*
D03*
X-97500D02*
D03*
X-92500D02*
D03*
X-87500D02*
D03*
X-82500D02*
D03*
X-77500D02*
D03*
X-72500D02*
D03*
Y-265500D02*
D03*
X-77500D02*
D03*
X-82500D02*
D03*
X-87500D02*
D03*
X-92500D02*
D03*
X-97500D02*
D03*
X-102500D02*
D03*
X-107500D02*
D03*
X-112500D02*
D03*
X-117500D02*
D03*
X-122500D02*
D03*
X-127500D02*
D03*
Y-334500D02*
D03*
X-122500D02*
D03*
X-117500D02*
D03*
X-112500D02*
D03*
X-107500D02*
D03*
X-102500D02*
D03*
X-97500D02*
D03*
X-92500D02*
D03*
X-87500D02*
D03*
X-82500D02*
D03*
X-77500D02*
D03*
X-72500D02*
D03*
X-327500Y-265500D02*
D03*
X-322500D02*
D03*
X-317500D02*
D03*
X-312500D02*
D03*
X-307500D02*
D03*
X-302500D02*
D03*
X-297500D02*
D03*
X-292500D02*
D03*
X-287500D02*
D03*
X-282500D02*
D03*
X-277500D02*
D03*
X-272500D02*
D03*
Y-334500D02*
D03*
X-277500D02*
D03*
X-282500D02*
D03*
X-287500D02*
D03*
X-292500D02*
D03*
X-297500D02*
D03*
X-302500D02*
D03*
X-307500D02*
D03*
X-312500D02*
D03*
X-317500D02*
D03*
X-322500D02*
D03*
X-327500D02*
D03*
Y-134500D02*
D03*
X-322500D02*
D03*
X-317500D02*
D03*
X-312500D02*
D03*
X-307500D02*
D03*
X-302500D02*
D03*
X-297500D02*
D03*
X-292500D02*
D03*
X-287500D02*
D03*
X-282500D02*
D03*
X-277500D02*
D03*
X-272500D02*
D03*
Y-65500D02*
D03*
X-277500D02*
D03*
X-282500D02*
D03*
X-287500D02*
D03*
X-292500D02*
D03*
X-297500D02*
D03*
X-302500D02*
D03*
X-307500D02*
D03*
X-312500D02*
D03*
X-317500D02*
D03*
X-322500D02*
D03*
X-327500D02*
D03*
Y134500D02*
D03*
X-322500D02*
D03*
X-317500D02*
D03*
X-312500D02*
D03*
X-307500D02*
D03*
X-302500D02*
D03*
X-297500D02*
D03*
X-292500D02*
D03*
X-287500D02*
D03*
X-282500D02*
D03*
X-277500D02*
D03*
X-272500D02*
D03*
Y65500D02*
D03*
X-277500D02*
D03*
X-282500D02*
D03*
X-287500D02*
D03*
X-292500D02*
D03*
X-297500D02*
D03*
X-302500D02*
D03*
X-307500D02*
D03*
X-312500D02*
D03*
X-317500D02*
D03*
X-322500D02*
D03*
X-327500D02*
D03*
Y265500D02*
D03*
X-322500D02*
D03*
X-317500D02*
D03*
X-312500D02*
D03*
X-307500D02*
D03*
X-302500D02*
D03*
X-297500D02*
D03*
X-292500D02*
D03*
X-287500D02*
D03*
X-282500D02*
D03*
X-277500D02*
D03*
X-272500D02*
D03*
Y334500D02*
D03*
X-277500D02*
D03*
X-282500D02*
D03*
X-287500D02*
D03*
X-292500D02*
D03*
X-297500D02*
D03*
X-302500D02*
D03*
X-307500D02*
D03*
X-312500D02*
D03*
X-317500D02*
D03*
X-322500D02*
D03*
X-327500D02*
D03*
D109*
X265500Y272500D02*
D03*
Y277500D02*
D03*
Y282500D02*
D03*
Y287500D02*
D03*
Y292500D02*
D03*
Y297500D02*
D03*
Y302500D02*
D03*
Y307500D02*
D03*
Y312500D02*
D03*
Y317500D02*
D03*
Y322500D02*
D03*
Y327500D02*
D03*
X334500D02*
D03*
Y322500D02*
D03*
Y317500D02*
D03*
Y312500D02*
D03*
Y307500D02*
D03*
Y302500D02*
D03*
Y297500D02*
D03*
Y292500D02*
D03*
Y287500D02*
D03*
Y282500D02*
D03*
Y277500D02*
D03*
Y272500D02*
D03*
Y72500D02*
D03*
Y77500D02*
D03*
Y82500D02*
D03*
Y87500D02*
D03*
Y92500D02*
D03*
Y97500D02*
D03*
Y102500D02*
D03*
Y107500D02*
D03*
Y112500D02*
D03*
Y117500D02*
D03*
Y122500D02*
D03*
Y127500D02*
D03*
X265500D02*
D03*
Y122500D02*
D03*
Y117500D02*
D03*
Y112500D02*
D03*
Y107500D02*
D03*
Y102500D02*
D03*
Y97500D02*
D03*
Y92500D02*
D03*
Y87500D02*
D03*
Y82500D02*
D03*
Y77500D02*
D03*
Y72500D02*
D03*
Y-127500D02*
D03*
Y-122500D02*
D03*
Y-117500D02*
D03*
Y-112500D02*
D03*
Y-107500D02*
D03*
Y-102500D02*
D03*
Y-97500D02*
D03*
Y-92500D02*
D03*
Y-87500D02*
D03*
Y-82500D02*
D03*
Y-77500D02*
D03*
Y-72500D02*
D03*
X334500D02*
D03*
Y-77500D02*
D03*
Y-82500D02*
D03*
Y-87500D02*
D03*
Y-92500D02*
D03*
Y-97500D02*
D03*
Y-102500D02*
D03*
Y-107500D02*
D03*
Y-112500D02*
D03*
Y-117500D02*
D03*
Y-122500D02*
D03*
Y-127500D02*
D03*
Y-327500D02*
D03*
Y-322500D02*
D03*
Y-317500D02*
D03*
Y-312500D02*
D03*
Y-307500D02*
D03*
Y-302500D02*
D03*
Y-297500D02*
D03*
Y-292500D02*
D03*
Y-287500D02*
D03*
Y-282500D02*
D03*
Y-277500D02*
D03*
Y-272500D02*
D03*
X265500D02*
D03*
Y-277500D02*
D03*
Y-282500D02*
D03*
Y-287500D02*
D03*
Y-292500D02*
D03*
Y-297500D02*
D03*
Y-302500D02*
D03*
Y-307500D02*
D03*
Y-312500D02*
D03*
Y-317500D02*
D03*
Y-322500D02*
D03*
Y-327500D02*
D03*
X134500Y-272500D02*
D03*
Y-277500D02*
D03*
Y-282500D02*
D03*
Y-287500D02*
D03*
Y-292500D02*
D03*
Y-297500D02*
D03*
Y-302500D02*
D03*
Y-307500D02*
D03*
Y-312500D02*
D03*
Y-317500D02*
D03*
Y-322500D02*
D03*
Y-327500D02*
D03*
X65500D02*
D03*
Y-322500D02*
D03*
Y-317500D02*
D03*
Y-312500D02*
D03*
Y-307500D02*
D03*
Y-302500D02*
D03*
Y-297500D02*
D03*
Y-292500D02*
D03*
Y-287500D02*
D03*
Y-282500D02*
D03*
Y-277500D02*
D03*
Y-272500D02*
D03*
Y-72500D02*
D03*
Y-77500D02*
D03*
Y-82500D02*
D03*
Y-87500D02*
D03*
Y-92500D02*
D03*
Y-97500D02*
D03*
Y-102500D02*
D03*
Y-107500D02*
D03*
Y-112500D02*
D03*
Y-117500D02*
D03*
Y-122500D02*
D03*
Y-127500D02*
D03*
X134500D02*
D03*
Y-122500D02*
D03*
Y-117500D02*
D03*
Y-112500D02*
D03*
Y-107500D02*
D03*
Y-102500D02*
D03*
Y-97500D02*
D03*
Y-92500D02*
D03*
Y-87500D02*
D03*
Y-82500D02*
D03*
Y-77500D02*
D03*
Y-72500D02*
D03*
Y127500D02*
D03*
Y122500D02*
D03*
Y117500D02*
D03*
Y112500D02*
D03*
Y107500D02*
D03*
Y102500D02*
D03*
Y97500D02*
D03*
Y92500D02*
D03*
Y87500D02*
D03*
Y82500D02*
D03*
Y77500D02*
D03*
Y72500D02*
D03*
X65500D02*
D03*
Y77500D02*
D03*
Y82500D02*
D03*
Y87500D02*
D03*
Y92500D02*
D03*
Y97500D02*
D03*
Y102500D02*
D03*
Y107500D02*
D03*
Y112500D02*
D03*
Y117500D02*
D03*
Y122500D02*
D03*
Y127500D02*
D03*
Y327500D02*
D03*
Y322500D02*
D03*
Y317500D02*
D03*
Y312500D02*
D03*
Y307500D02*
D03*
Y302500D02*
D03*
Y297500D02*
D03*
Y292500D02*
D03*
Y287500D02*
D03*
Y282500D02*
D03*
Y277500D02*
D03*
Y272500D02*
D03*
X134500D02*
D03*
Y277500D02*
D03*
Y282500D02*
D03*
Y287500D02*
D03*
Y292500D02*
D03*
Y297500D02*
D03*
Y302500D02*
D03*
Y307500D02*
D03*
Y312500D02*
D03*
Y317500D02*
D03*
Y322500D02*
D03*
Y327500D02*
D03*
X-134500Y272500D02*
D03*
Y277500D02*
D03*
Y282500D02*
D03*
Y287500D02*
D03*
Y292500D02*
D03*
Y297500D02*
D03*
Y302500D02*
D03*
Y307500D02*
D03*
Y312500D02*
D03*
Y317500D02*
D03*
Y322500D02*
D03*
Y327500D02*
D03*
X-65500D02*
D03*
Y322500D02*
D03*
Y317500D02*
D03*
Y312500D02*
D03*
Y307500D02*
D03*
Y302500D02*
D03*
Y297500D02*
D03*
Y292500D02*
D03*
Y287500D02*
D03*
Y282500D02*
D03*
Y277500D02*
D03*
Y272500D02*
D03*
Y72500D02*
D03*
Y77500D02*
D03*
Y82500D02*
D03*
Y87500D02*
D03*
Y92500D02*
D03*
Y97500D02*
D03*
Y102500D02*
D03*
Y107500D02*
D03*
Y112500D02*
D03*
Y117500D02*
D03*
Y122500D02*
D03*
Y127500D02*
D03*
X-134500D02*
D03*
Y122500D02*
D03*
Y117500D02*
D03*
Y112500D02*
D03*
Y107500D02*
D03*
Y102500D02*
D03*
Y97500D02*
D03*
Y92500D02*
D03*
Y87500D02*
D03*
Y82500D02*
D03*
Y77500D02*
D03*
Y72500D02*
D03*
Y-127500D02*
D03*
Y-122500D02*
D03*
Y-117500D02*
D03*
Y-112500D02*
D03*
Y-107500D02*
D03*
Y-102500D02*
D03*
Y-97500D02*
D03*
Y-92500D02*
D03*
Y-87500D02*
D03*
Y-82500D02*
D03*
Y-77500D02*
D03*
Y-72500D02*
D03*
X-65500D02*
D03*
Y-77500D02*
D03*
Y-82500D02*
D03*
Y-87500D02*
D03*
Y-92500D02*
D03*
Y-97500D02*
D03*
Y-102500D02*
D03*
Y-107500D02*
D03*
Y-112500D02*
D03*
Y-117500D02*
D03*
Y-122500D02*
D03*
Y-127500D02*
D03*
Y-327500D02*
D03*
Y-322500D02*
D03*
Y-317500D02*
D03*
Y-312500D02*
D03*
Y-307500D02*
D03*
Y-302500D02*
D03*
Y-297500D02*
D03*
Y-292500D02*
D03*
Y-287500D02*
D03*
Y-282500D02*
D03*
Y-277500D02*
D03*
Y-272500D02*
D03*
X-134500D02*
D03*
Y-277500D02*
D03*
Y-282500D02*
D03*
Y-287500D02*
D03*
Y-292500D02*
D03*
Y-297500D02*
D03*
Y-302500D02*
D03*
Y-307500D02*
D03*
Y-312500D02*
D03*
Y-317500D02*
D03*
Y-322500D02*
D03*
Y-327500D02*
D03*
X-265500Y-272500D02*
D03*
Y-277500D02*
D03*
Y-282500D02*
D03*
Y-287500D02*
D03*
Y-292500D02*
D03*
Y-297500D02*
D03*
Y-302500D02*
D03*
Y-307500D02*
D03*
Y-312500D02*
D03*
Y-317500D02*
D03*
Y-322500D02*
D03*
Y-327500D02*
D03*
X-334500D02*
D03*
Y-322500D02*
D03*
Y-317500D02*
D03*
Y-312500D02*
D03*
Y-307500D02*
D03*
Y-302500D02*
D03*
Y-297500D02*
D03*
Y-292500D02*
D03*
Y-287500D02*
D03*
Y-282500D02*
D03*
Y-277500D02*
D03*
Y-272500D02*
D03*
Y-72500D02*
D03*
Y-77500D02*
D03*
Y-82500D02*
D03*
Y-87500D02*
D03*
Y-92500D02*
D03*
Y-97500D02*
D03*
Y-102500D02*
D03*
Y-107500D02*
D03*
Y-112500D02*
D03*
Y-117500D02*
D03*
Y-122500D02*
D03*
Y-127500D02*
D03*
X-265500D02*
D03*
Y-122500D02*
D03*
Y-117500D02*
D03*
Y-112500D02*
D03*
Y-107500D02*
D03*
Y-102500D02*
D03*
Y-97500D02*
D03*
Y-92500D02*
D03*
Y-87500D02*
D03*
Y-82500D02*
D03*
Y-77500D02*
D03*
Y-72500D02*
D03*
Y127500D02*
D03*
Y122500D02*
D03*
Y117500D02*
D03*
Y112500D02*
D03*
Y107500D02*
D03*
Y102500D02*
D03*
Y97500D02*
D03*
Y92500D02*
D03*
Y87500D02*
D03*
Y82500D02*
D03*
Y77500D02*
D03*
Y72500D02*
D03*
X-334500D02*
D03*
Y77500D02*
D03*
Y82500D02*
D03*
Y87500D02*
D03*
Y92500D02*
D03*
Y97500D02*
D03*
Y102500D02*
D03*
Y107500D02*
D03*
Y112500D02*
D03*
Y117500D02*
D03*
Y122500D02*
D03*
Y127500D02*
D03*
Y327500D02*
D03*
Y322500D02*
D03*
Y317500D02*
D03*
Y312500D02*
D03*
Y307500D02*
D03*
Y302500D02*
D03*
Y297500D02*
D03*
Y292500D02*
D03*
Y287500D02*
D03*
Y282500D02*
D03*
Y277500D02*
D03*
Y272500D02*
D03*
X-265500D02*
D03*
Y277500D02*
D03*
Y282500D02*
D03*
Y287500D02*
D03*
Y292500D02*
D03*
Y297500D02*
D03*
Y302500D02*
D03*
Y307500D02*
D03*
Y312500D02*
D03*
Y317500D02*
D03*
Y322500D02*
D03*
Y327500D02*
D03*
D110*
X-315000Y730000D02*
D03*
X-225000Y687500D02*
D03*
X0Y-10000D02*
D03*
Y190000D02*
D03*
X57500Y635000D02*
D03*
X-190000Y802500D02*
D03*
X200000Y-395000D02*
D03*
Y365000D02*
D03*
X-200000Y-395000D02*
D03*
Y365000D02*
D03*
Y-10000D02*
D03*
X200000D02*
D03*
X0Y-205000D02*
D03*
Y-395000D02*
D03*
D111*
X-315000Y780000D02*
D03*
X-225000Y637500D02*
D03*
X0Y-60000D02*
D03*
Y140000D02*
D03*
X57500Y685000D02*
D03*
X-190000Y752500D02*
D03*
X200000Y-345000D02*
D03*
Y315000D02*
D03*
X-200000Y-345000D02*
D03*
Y315000D02*
D03*
Y-60000D02*
D03*
X200000D02*
D03*
X0Y-255000D02*
D03*
Y-345000D02*
D03*
D112*
X-110000Y830000D02*
D03*
X-215400Y831600D02*
D03*
X-317000D02*
D03*
D113*
X-340000Y780000D02*
D03*
X-290000D02*
D03*
X-240000D02*
D03*
D114*
X170000Y835000D02*
D03*
X100000D02*
D03*
X367500Y846422D02*
D03*
D115*
X-200000Y200000D02*
D03*
Y-200000D02*
D03*
X200000Y200000D02*
D03*
Y-200000D02*
D03*
X-412500Y412500D02*
D03*
X412500D02*
D03*
X-412500Y-412500D02*
D03*
X412500D02*
D03*
X-412500Y825000D02*
D03*
X412500D02*
D03*
D116*
X400000Y653000D02*
D03*
Y609000D02*
D03*
D117*
X310000Y825000D02*
D03*
X349600D02*
D03*
D118*
X-367800Y755400D02*
D03*
X-164600D02*
D03*
D119*
X-190000Y730000D02*
D03*
X-240800D02*
D03*
X-291600D02*
D03*
D120*
X-342400D02*
D03*
M02*
