%FSLAX44Y44*%
%MOMM*%
G71*
G01*
G75*
G04 Layer_Physical_Order=2*
G04 Layer_Color=36540*
G04:AMPARAMS|DCode=10|XSize=1mm|YSize=0.9mm|CornerRadius=0.198mm|HoleSize=0mm|Usage=FLASHONLY|Rotation=180.000|XOffset=0mm|YOffset=0mm|HoleType=Round|Shape=RoundedRectangle|*
%AMROUNDEDRECTD10*
21,1,1.0000,0.5040,0,0,180.0*
21,1,0.6040,0.9000,0,0,180.0*
1,1,0.3960,-0.3020,0.2520*
1,1,0.3960,0.3020,0.2520*
1,1,0.3960,0.3020,-0.2520*
1,1,0.3960,-0.3020,-0.2520*
%
%ADD10ROUNDEDRECTD10*%
G04:AMPARAMS|DCode=11|XSize=1mm|YSize=0.9mm|CornerRadius=0.198mm|HoleSize=0mm|Usage=FLASHONLY|Rotation=90.000|XOffset=0mm|YOffset=0mm|HoleType=Round|Shape=RoundedRectangle|*
%AMROUNDEDRECTD11*
21,1,1.0000,0.5040,0,0,90.0*
21,1,0.6040,0.9000,0,0,90.0*
1,1,0.3960,0.2520,0.3020*
1,1,0.3960,0.2520,-0.3020*
1,1,0.3960,-0.2520,-0.3020*
1,1,0.3960,-0.2520,0.3020*
%
%ADD11ROUNDEDRECTD11*%
G04:AMPARAMS|DCode=12|XSize=1mm|YSize=0.95mm|CornerRadius=0.1995mm|HoleSize=0mm|Usage=FLASHONLY|Rotation=90.000|XOffset=0mm|YOffset=0mm|HoleType=Round|Shape=RoundedRectangle|*
%AMROUNDEDRECTD12*
21,1,1.0000,0.5510,0,0,90.0*
21,1,0.6010,0.9500,0,0,90.0*
1,1,0.3990,0.2755,0.3005*
1,1,0.3990,0.2755,-0.3005*
1,1,0.3990,-0.2755,-0.3005*
1,1,0.3990,-0.2755,0.3005*
%
%ADD12ROUNDEDRECTD12*%
G04:AMPARAMS|DCode=13|XSize=1.45mm|YSize=1.15mm|CornerRadius=0.2013mm|HoleSize=0mm|Usage=FLASHONLY|Rotation=90.000|XOffset=0mm|YOffset=0mm|HoleType=Round|Shape=RoundedRectangle|*
%AMROUNDEDRECTD13*
21,1,1.4500,0.7475,0,0,90.0*
21,1,1.0475,1.1500,0,0,90.0*
1,1,0.4025,0.3738,0.5238*
1,1,0.4025,0.3738,-0.5238*
1,1,0.4025,-0.3738,-0.5238*
1,1,0.4025,-0.3738,0.5238*
%
%ADD13ROUNDEDRECTD13*%
G04:AMPARAMS|DCode=14|XSize=1.45mm|YSize=1.15mm|CornerRadius=0.2013mm|HoleSize=0mm|Usage=FLASHONLY|Rotation=180.000|XOffset=0mm|YOffset=0mm|HoleType=Round|Shape=RoundedRectangle|*
%AMROUNDEDRECTD14*
21,1,1.4500,0.7475,0,0,180.0*
21,1,1.0475,1.1500,0,0,180.0*
1,1,0.4025,-0.5238,0.3738*
1,1,0.4025,0.5238,0.3738*
1,1,0.4025,0.5238,-0.3738*
1,1,0.4025,-0.5238,-0.3738*
%
%ADD14ROUNDEDRECTD14*%
G04:AMPARAMS|DCode=15|XSize=6.4mm|YSize=10.5mm|CornerRadius=0.128mm|HoleSize=0mm|Usage=FLASHONLY|Rotation=90.000|XOffset=0mm|YOffset=0mm|HoleType=Round|Shape=RoundedRectangle|*
%AMROUNDEDRECTD15*
21,1,6.4000,10.2440,0,0,90.0*
21,1,6.1440,10.5000,0,0,90.0*
1,1,0.2560,5.1220,3.0720*
1,1,0.2560,5.1220,-3.0720*
1,1,0.2560,-5.1220,-3.0720*
1,1,0.2560,-5.1220,3.0720*
%
%ADD15ROUNDEDRECTD15*%
G04:AMPARAMS|DCode=16|XSize=3.95mm|YSize=1.5mm|CornerRadius=0.2475mm|HoleSize=0mm|Usage=FLASHONLY|Rotation=90.000|XOffset=0mm|YOffset=0mm|HoleType=Round|Shape=RoundedRectangle|*
%AMROUNDEDRECTD16*
21,1,3.9500,1.0050,0,0,90.0*
21,1,3.4550,1.5000,0,0,90.0*
1,1,0.4950,0.5025,1.7275*
1,1,0.4950,0.5025,-1.7275*
1,1,0.4950,-0.5025,-1.7275*
1,1,0.4950,-0.5025,1.7275*
%
%ADD16ROUNDEDRECTD16*%
G04:AMPARAMS|DCode=17|XSize=2.85mm|YSize=1mm|CornerRadius=0.2mm|HoleSize=0mm|Usage=FLASHONLY|Rotation=90.000|XOffset=0mm|YOffset=0mm|HoleType=Round|Shape=RoundedRectangle|*
%AMROUNDEDRECTD17*
21,1,2.8500,0.6000,0,0,90.0*
21,1,2.4500,1.0000,0,0,90.0*
1,1,0.4000,0.3000,1.2250*
1,1,0.4000,0.3000,-1.2250*
1,1,0.4000,-0.3000,-1.2250*
1,1,0.4000,-0.3000,1.2250*
%
%ADD17ROUNDEDRECTD17*%
G04:AMPARAMS|DCode=18|XSize=6.45mm|YSize=6mm|CornerRadius=0.21mm|HoleSize=0mm|Usage=FLASHONLY|Rotation=90.000|XOffset=0mm|YOffset=0mm|HoleType=Round|Shape=RoundedRectangle|*
%AMROUNDEDRECTD18*
21,1,6.4500,5.5800,0,0,90.0*
21,1,6.0300,6.0000,0,0,90.0*
1,1,0.4200,2.7900,3.0150*
1,1,0.4200,2.7900,-3.0150*
1,1,0.4200,-2.7900,-3.0150*
1,1,0.4200,-2.7900,3.0150*
%
%ADD18ROUNDEDRECTD18*%
%ADD19O,1.3500X0.5000*%
G04:AMPARAMS|DCode=20|XSize=3mm|YSize=1.65mm|CornerRadius=0.1073mm|HoleSize=0mm|Usage=FLASHONLY|Rotation=90.000|XOffset=0mm|YOffset=0mm|HoleType=Round|Shape=RoundedRectangle|*
%AMROUNDEDRECTD20*
21,1,3.0000,1.4355,0,0,90.0*
21,1,2.7855,1.6500,0,0,90.0*
1,1,0.2145,0.7178,1.3927*
1,1,0.2145,0.7178,-1.3927*
1,1,0.2145,-0.7178,-1.3927*
1,1,0.2145,-0.7178,1.3927*
%
%ADD20ROUNDEDRECTD20*%
G04:AMPARAMS|DCode=21|XSize=1mm|YSize=0.45mm|CornerRadius=0.1125mm|HoleSize=0mm|Usage=FLASHONLY|Rotation=0.000|XOffset=0mm|YOffset=0mm|HoleType=Round|Shape=RoundedRectangle|*
%AMROUNDEDRECTD21*
21,1,1.0000,0.2250,0,0,0.0*
21,1,0.7750,0.4500,0,0,0.0*
1,1,0.2250,0.3875,-0.1125*
1,1,0.2250,-0.3875,-0.1125*
1,1,0.2250,-0.3875,0.1125*
1,1,0.2250,0.3875,0.1125*
%
%ADD21ROUNDEDRECTD21*%
G04:AMPARAMS|DCode=22|XSize=0.7mm|YSize=0.25mm|CornerRadius=0.0838mm|HoleSize=0mm|Usage=FLASHONLY|Rotation=0.000|XOffset=0mm|YOffset=0mm|HoleType=Round|Shape=RoundedRectangle|*
%AMROUNDEDRECTD22*
21,1,0.7000,0.0825,0,0,0.0*
21,1,0.5325,0.2500,0,0,0.0*
1,1,0.1675,0.2662,-0.0413*
1,1,0.1675,-0.2662,-0.0413*
1,1,0.1675,-0.2662,0.0413*
1,1,0.1675,0.2662,0.0413*
%
%ADD22ROUNDEDRECTD22*%
G04:AMPARAMS|DCode=23|XSize=1.35mm|YSize=1.65mm|CornerRadius=0.27mm|HoleSize=0mm|Usage=FLASHONLY|Rotation=90.000|XOffset=0mm|YOffset=0mm|HoleType=Round|Shape=RoundedRectangle|*
%AMROUNDEDRECTD23*
21,1,1.3500,1.1100,0,0,90.0*
21,1,0.8100,1.6500,0,0,90.0*
1,1,0.5400,0.5550,0.4050*
1,1,0.5400,0.5550,-0.4050*
1,1,0.5400,-0.5550,-0.4050*
1,1,0.5400,-0.5550,0.4050*
%
%ADD23ROUNDEDRECTD23*%
G04:AMPARAMS|DCode=24|XSize=1.2mm|YSize=1.2mm|CornerRadius=0.198mm|HoleSize=0mm|Usage=FLASHONLY|Rotation=270.000|XOffset=0mm|YOffset=0mm|HoleType=Round|Shape=RoundedRectangle|*
%AMROUNDEDRECTD24*
21,1,1.2000,0.8040,0,0,270.0*
21,1,0.8040,1.2000,0,0,270.0*
1,1,0.3960,-0.4020,-0.4020*
1,1,0.3960,-0.4020,0.4020*
1,1,0.3960,0.4020,0.4020*
1,1,0.3960,0.4020,-0.4020*
%
%ADD24ROUNDEDRECTD24*%
G04:AMPARAMS|DCode=25|XSize=1.2mm|YSize=1.2mm|CornerRadius=0.198mm|HoleSize=0mm|Usage=FLASHONLY|Rotation=0.000|XOffset=0mm|YOffset=0mm|HoleType=Round|Shape=RoundedRectangle|*
%AMROUNDEDRECTD25*
21,1,1.2000,0.8040,0,0,0.0*
21,1,0.8040,1.2000,0,0,0.0*
1,1,0.3960,0.4020,-0.4020*
1,1,0.3960,-0.4020,-0.4020*
1,1,0.3960,-0.4020,0.4020*
1,1,0.3960,0.4020,0.4020*
%
%ADD25ROUNDEDRECTD25*%
G04:AMPARAMS|DCode=26|XSize=1.75mm|YSize=1.05mm|CornerRadius=0.1995mm|HoleSize=0mm|Usage=FLASHONLY|Rotation=270.000|XOffset=0mm|YOffset=0mm|HoleType=Round|Shape=RoundedRectangle|*
%AMROUNDEDRECTD26*
21,1,1.7500,0.6510,0,0,270.0*
21,1,1.3510,1.0500,0,0,270.0*
1,1,0.3990,-0.3255,-0.6755*
1,1,0.3990,-0.3255,0.6755*
1,1,0.3990,0.3255,0.6755*
1,1,0.3990,0.3255,-0.6755*
%
%ADD26ROUNDEDRECTD26*%
%ADD27O,0.5000X1.3500*%
G04:AMPARAMS|DCode=28|XSize=6.5mm|YSize=5mm|CornerRadius=0.25mm|HoleSize=0mm|Usage=FLASHONLY|Rotation=90.000|XOffset=0mm|YOffset=0mm|HoleType=Round|Shape=RoundedRectangle|*
%AMROUNDEDRECTD28*
21,1,6.5000,4.5000,0,0,90.0*
21,1,6.0000,5.0000,0,0,90.0*
1,1,0.5000,2.2500,3.0000*
1,1,0.5000,2.2500,-3.0000*
1,1,0.5000,-2.2500,-3.0000*
1,1,0.5000,-2.2500,3.0000*
%
%ADD28ROUNDEDRECTD28*%
G04:AMPARAMS|DCode=29|XSize=1.05mm|YSize=0.65mm|CornerRadius=0.2015mm|HoleSize=0mm|Usage=FLASHONLY|Rotation=180.000|XOffset=0mm|YOffset=0mm|HoleType=Round|Shape=RoundedRectangle|*
%AMROUNDEDRECTD29*
21,1,1.0500,0.2470,0,0,180.0*
21,1,0.6470,0.6500,0,0,180.0*
1,1,0.4030,-0.3235,0.1235*
1,1,0.4030,0.3235,0.1235*
1,1,0.4030,0.3235,-0.1235*
1,1,0.4030,-0.3235,-0.1235*
%
%ADD29ROUNDEDRECTD29*%
G04:AMPARAMS|DCode=30|XSize=1mm|YSize=0.95mm|CornerRadius=0.1995mm|HoleSize=0mm|Usage=FLASHONLY|Rotation=0.000|XOffset=0mm|YOffset=0mm|HoleType=Round|Shape=RoundedRectangle|*
%AMROUNDEDRECTD30*
21,1,1.0000,0.5510,0,0,0.0*
21,1,0.6010,0.9500,0,0,0.0*
1,1,0.3990,0.3005,-0.2755*
1,1,0.3990,-0.3005,-0.2755*
1,1,0.3990,-0.3005,0.2755*
1,1,0.3990,0.3005,0.2755*
%
%ADD30ROUNDEDRECTD30*%
%ADD31C,0.4000*%
%ADD32C,0.0500*%
G04:AMPARAMS|DCode=33|XSize=2.3mm|YSize=0.5mm|CornerRadius=0.2mm|HoleSize=0mm|Usage=FLASHONLY|Rotation=180.000|XOffset=0mm|YOffset=0mm|HoleType=Round|Shape=RoundedRectangle|*
%AMROUNDEDRECTD33*
21,1,2.3000,0.1000,0,0,180.0*
21,1,1.9000,0.5000,0,0,180.0*
1,1,0.4000,-0.9500,0.0500*
1,1,0.4000,0.9500,0.0500*
1,1,0.4000,0.9500,-0.0500*
1,1,0.4000,-0.9500,-0.0500*
%
%ADD33ROUNDEDRECTD33*%
G04:AMPARAMS|DCode=34|XSize=2.5mm|YSize=2mm|CornerRadius=0.2mm|HoleSize=0mm|Usage=FLASHONLY|Rotation=180.000|XOffset=0mm|YOffset=0mm|HoleType=Round|Shape=RoundedRectangle|*
%AMROUNDEDRECTD34*
21,1,2.5000,1.6000,0,0,180.0*
21,1,2.1000,2.0000,0,0,180.0*
1,1,0.4000,-1.0500,0.8000*
1,1,0.4000,1.0500,0.8000*
1,1,0.4000,1.0500,-0.8000*
1,1,0.4000,-1.0500,-0.8000*
%
%ADD34ROUNDEDRECTD34*%
G04:AMPARAMS|DCode=35|XSize=1.1mm|YSize=0.6mm|CornerRadius=0.201mm|HoleSize=0mm|Usage=FLASHONLY|Rotation=270.000|XOffset=0mm|YOffset=0mm|HoleType=Round|Shape=RoundedRectangle|*
%AMROUNDEDRECTD35*
21,1,1.1000,0.1980,0,0,270.0*
21,1,0.6980,0.6000,0,0,270.0*
1,1,0.4020,-0.0990,-0.3490*
1,1,0.4020,-0.0990,0.3490*
1,1,0.4020,0.0990,0.3490*
1,1,0.4020,0.0990,-0.3490*
%
%ADD35ROUNDEDRECTD35*%
%ADD36C,1.0000*%
%ADD37O,0.3000X1.5000*%
%ADD38O,1.5000X0.3000*%
G04:AMPARAMS|DCode=39|XSize=4.9mm|YSize=1.6mm|CornerRadius=0.2mm|HoleSize=0mm|Usage=FLASHONLY|Rotation=180.000|XOffset=0mm|YOffset=0mm|HoleType=Round|Shape=RoundedRectangle|*
%AMROUNDEDRECTD39*
21,1,4.9000,1.2000,0,0,180.0*
21,1,4.5000,1.6000,0,0,180.0*
1,1,0.4000,-2.2500,0.6000*
1,1,0.4000,2.2500,0.6000*
1,1,0.4000,2.2500,-0.6000*
1,1,0.4000,-2.2500,-0.6000*
%
%ADD39ROUNDEDRECTD39*%
%ADD40R,1.3000X1.3000*%
%ADD41C,1.3000*%
%ADD42O,1.5500X0.6000*%
G04:AMPARAMS|DCode=43|XSize=1.75mm|YSize=1.05mm|CornerRadius=0.1995mm|HoleSize=0mm|Usage=FLASHONLY|Rotation=0.000|XOffset=0mm|YOffset=0mm|HoleType=Round|Shape=RoundedRectangle|*
%AMROUNDEDRECTD43*
21,1,1.7500,0.6510,0,0,0.0*
21,1,1.3510,1.0500,0,0,0.0*
1,1,0.3990,0.6755,-0.3255*
1,1,0.3990,-0.6755,-0.3255*
1,1,0.3990,-0.6755,0.3255*
1,1,0.3990,0.6755,0.3255*
%
%ADD43ROUNDEDRECTD43*%
%ADD44C,0.6000*%
%ADD45O,0.6000X1.5500*%
%ADD46C,0.2500*%
%ADD47C,0.6000*%
%ADD48C,0.5000*%
%ADD49C,0.5500*%
%ADD50C,0.4000*%
%ADD51C,0.4500*%
%ADD52C,0.8000*%
%ADD53C,1.0000*%
%ADD54C,0.2540*%
%ADD55C,1.6000*%
%ADD56R,1.6000X1.6000*%
%ADD57C,6.0000*%
%ADD58C,2.3000*%
%ADD59C,3.0000*%
%ADD60C,3.5000*%
%ADD61C,1.8500*%
%ADD62C,2.4000*%
%ADD63C,0.5000*%
%ADD64C,2.0000*%
%ADD65R,1.6000X1.6000*%
%ADD66C,0.3000*%
%ADD67C,2.0000*%
%ADD68C,1.8000*%
G36*
X365328Y1403881D02*
X364299Y1402341D01*
X363833Y1400000D01*
X364299Y1397659D01*
X365625Y1395674D01*
X367610Y1394348D01*
X369951Y1393882D01*
X372292Y1394348D01*
X374276Y1395674D01*
X374316Y1395733D01*
X375586D01*
X375625Y1395674D01*
X377610Y1394348D01*
X379951Y1393882D01*
X382292Y1394348D01*
X384276Y1395674D01*
X384316Y1395733D01*
X385586D01*
X385625Y1395674D01*
X387610Y1394348D01*
X389951Y1393882D01*
X392292Y1394348D01*
X394276Y1395674D01*
X394316Y1395733D01*
X395586D01*
X395625Y1395674D01*
X397610Y1394348D01*
X399951Y1393882D01*
X402292Y1394348D01*
X404038Y1395515D01*
X405159Y1394918D01*
X405178Y1390163D01*
X404675Y1389827D01*
X403349Y1387842D01*
X402883Y1385501D01*
Y1379251D01*
X403349Y1376910D01*
X404675Y1374925D01*
X405243Y1374546D01*
X405282Y1364975D01*
X403660Y1364653D01*
X401675Y1363327D01*
X400349Y1361342D01*
X399883Y1359001D01*
X400138Y1357719D01*
Y1328782D01*
X399883Y1327501D01*
Y1300001D01*
Y1266001D01*
X400349Y1263660D01*
X401675Y1261675D01*
X401705Y1261655D01*
X401726Y1261624D01*
X403710Y1260298D01*
X405714Y1259900D01*
X405997Y1190901D01*
X405101Y1190001D01*
X353000D01*
Y1405001D01*
X364729D01*
X365328Y1403881D01*
D02*
G37*
G36*
X409951Y1421500D02*
Y1397500D01*
X406740D01*
X406595Y1397619D01*
X405474Y1398215D01*
X405047Y1398344D01*
X404634Y1398515D01*
X404479D01*
X404331Y1398559D01*
X403887Y1398515D01*
X403441Y1398515D01*
X403298Y1398455D01*
X403144Y1398440D01*
X402750Y1398228D01*
X402338Y1398058D01*
X401503Y1397500D01*
X398398D01*
X397383Y1398178D01*
X397285Y1398276D01*
X397007Y1398392D01*
X396756Y1398559D01*
X396461Y1398618D01*
X396182Y1398733D01*
X395881Y1398733D01*
X395586Y1398792D01*
X394316D01*
X394020Y1398733D01*
X393719Y1398733D01*
X393441Y1398618D01*
X393145Y1398559D01*
X392895Y1398392D01*
X392616Y1398276D01*
X392518Y1398178D01*
X391503Y1397500D01*
X388398D01*
X387383Y1398178D01*
X387285Y1398276D01*
X387007Y1398392D01*
X386756Y1398559D01*
X386461Y1398618D01*
X386182Y1398733D01*
X385881Y1398733D01*
X385586Y1398792D01*
X384316D01*
X384020Y1398733D01*
X383719Y1398733D01*
X383441Y1398618D01*
X383145Y1398559D01*
X382895Y1398392D01*
X382617Y1398276D01*
X382519Y1398178D01*
X381503Y1397500D01*
X378398D01*
X377383Y1398178D01*
X377285Y1398276D01*
X377007Y1398392D01*
X376756Y1398559D01*
X376461Y1398618D01*
X376182Y1398733D01*
X375881Y1398733D01*
X375586Y1398792D01*
X374316D01*
X374020Y1398733D01*
X373719Y1398733D01*
X373441Y1398618D01*
X373145Y1398559D01*
X372895Y1398392D01*
X372617Y1398276D01*
X372519Y1398178D01*
X371503Y1397500D01*
X369951D01*
Y1421500D01*
X374951Y1427500D01*
X404951D01*
X409951Y1421500D01*
D02*
G37*
G36*
X1248628Y1145000D02*
X1248628Y1145000D01*
X1248628D01*
Y665000D01*
Y251372D01*
X351372D01*
Y1147500D01*
X351372Y1147500D01*
X351372Y1147500D01*
Y1147500D01*
Y1186265D01*
X352354Y1187070D01*
X353000Y1186942D01*
X405101D01*
X405104Y1186943D01*
X405107Y1186942D01*
X405690Y1187059D01*
X406271Y1187175D01*
X406274Y1187177D01*
X406277Y1187177D01*
X406769Y1187508D01*
X407264Y1187838D01*
X407266Y1187841D01*
X407268Y1187842D01*
X408164Y1188742D01*
X408166Y1188745D01*
X408169Y1188747D01*
X408499Y1189245D01*
X408825Y1189736D01*
X408826Y1189739D01*
X408828Y1189742D01*
X408941Y1190322D01*
X409056Y1190907D01*
X409055Y1190910D01*
X409056Y1190913D01*
X408776Y1258933D01*
X409673Y1259833D01*
X417495D01*
X417499Y1259832D01*
X419840Y1260297D01*
X421825Y1261623D01*
X421825Y1261624D01*
X421826Y1261624D01*
X423152Y1263609D01*
X423618Y1265950D01*
X423152Y1268291D01*
X421826Y1270276D01*
X419841Y1271602D01*
X417500Y1272067D01*
X412118D01*
Y1300001D01*
Y1327501D01*
X411863Y1328782D01*
Y1352307D01*
X412845Y1353112D01*
X414000Y1352883D01*
X416341Y1353348D01*
X416408Y1353393D01*
X418467D01*
X418909Y1353098D01*
X421250Y1352632D01*
X423591Y1353098D01*
X425576Y1354424D01*
X426902Y1356409D01*
X427368Y1358750D01*
X427038Y1360406D01*
X427844Y1361388D01*
X429219D01*
X430501Y1361133D01*
X432842Y1361599D01*
X434826Y1362925D01*
X442826Y1370925D01*
X442826Y1370925D01*
X442826Y1370925D01*
X444153Y1372910D01*
X444618Y1375251D01*
Y1387751D01*
X444618Y1387751D01*
X444618Y1387751D01*
Y1387751D01*
Y1395751D01*
X444153Y1398092D01*
X442826Y1400076D01*
X440842Y1401403D01*
X438501Y1401868D01*
X436160Y1401403D01*
X434175Y1400076D01*
X432849Y1398092D01*
X432383Y1395751D01*
Y1387751D01*
X432383Y1387751D01*
X432383D01*
Y1385895D01*
X431401Y1385090D01*
X430001Y1385368D01*
X415118D01*
Y1385501D01*
X414653Y1387842D01*
X413326Y1389827D01*
X411342Y1391153D01*
X409001Y1391618D01*
X408365Y1392138D01*
X408408Y1392102D01*
X408406Y1393372D01*
X409205Y1394031D01*
X409951Y1393882D01*
X412292Y1394348D01*
X414276Y1395674D01*
X415603Y1397659D01*
X416068Y1400000D01*
X415603Y1402341D01*
X414276Y1404326D01*
X414218Y1404365D01*
Y1405635D01*
X414276Y1405674D01*
X415603Y1407659D01*
X416068Y1410000D01*
X415603Y1412341D01*
X414276Y1414326D01*
X414218Y1414365D01*
Y1415635D01*
X414276Y1415674D01*
X415603Y1417659D01*
X416068Y1420000D01*
X415603Y1422341D01*
X414276Y1424326D01*
X412292Y1425652D01*
X410883Y1425932D01*
X410603Y1427341D01*
X409276Y1429326D01*
X407292Y1430652D01*
X404951Y1431118D01*
X402610Y1430652D01*
X402470Y1430559D01*
X397431D01*
X397292Y1430652D01*
X394951Y1431118D01*
X392610Y1430652D01*
X392470Y1430559D01*
X387431D01*
X387292Y1430652D01*
X384951Y1431118D01*
X382610Y1430652D01*
X382470Y1430559D01*
X377431D01*
X377292Y1430652D01*
X374951Y1431118D01*
X372610Y1430652D01*
X370625Y1429326D01*
X369299Y1427341D01*
X369019Y1425932D01*
X367610Y1425652D01*
X365625Y1424326D01*
X364299Y1422341D01*
X363833Y1420000D01*
X364299Y1417659D01*
X365625Y1415674D01*
X365684Y1415635D01*
Y1414365D01*
X365625Y1414326D01*
X364299Y1412341D01*
X363833Y1410000D01*
X364024Y1409041D01*
X363218Y1408060D01*
X353000D01*
X352354Y1407931D01*
X351372Y1408737D01*
Y1561628D01*
X1248628D01*
Y1145000D01*
D02*
G37*
%LPC*%
G36*
X1132500Y1056117D02*
X1130159Y1055652D01*
X1128174Y1054326D01*
X1128135Y1054267D01*
X1126865D01*
X1126826Y1054326D01*
X1124841Y1055652D01*
X1122500Y1056117D01*
X1120159Y1055652D01*
X1118174Y1054326D01*
X1116848Y1052341D01*
X1116383Y1050000D01*
X1116848Y1047659D01*
X1118174Y1045674D01*
X1120159Y1044348D01*
X1122500Y1043883D01*
X1124841Y1044348D01*
X1126826Y1045674D01*
X1126865Y1045733D01*
X1128135D01*
X1128174Y1045674D01*
X1130159Y1044348D01*
X1132500Y1043883D01*
X1134841Y1044348D01*
X1136826Y1045674D01*
X1138152Y1047659D01*
X1138617Y1050000D01*
X1138152Y1052341D01*
X1136826Y1054326D01*
X1134841Y1055652D01*
X1132500Y1056117D01*
D02*
G37*
G36*
X600000Y1076117D02*
X597659Y1075652D01*
X595674Y1074326D01*
X594348Y1072341D01*
X593882Y1070000D01*
X594348Y1067659D01*
X595674Y1065674D01*
X597659Y1064348D01*
X600000Y1063883D01*
X602341Y1064348D01*
X604326Y1065674D01*
X605652Y1067659D01*
X606118Y1070000D01*
X605652Y1072341D01*
X604326Y1074326D01*
X602341Y1075652D01*
X600000Y1076117D01*
D02*
G37*
G36*
Y1061117D02*
X597659Y1060652D01*
X595674Y1059326D01*
X594348Y1057341D01*
X593882Y1055000D01*
X594348Y1052659D01*
X595674Y1050674D01*
X597659Y1049348D01*
X600000Y1048883D01*
X602341Y1049348D01*
X604326Y1050674D01*
X605652Y1052659D01*
X606118Y1055000D01*
X605652Y1057341D01*
X604326Y1059326D01*
X602341Y1060652D01*
X600000Y1061117D01*
D02*
G37*
G36*
X862500Y1053617D02*
X860159Y1053152D01*
X858174Y1051826D01*
X856848Y1049841D01*
X856383Y1047500D01*
X856848Y1045159D01*
X858174Y1043174D01*
X860159Y1041848D01*
X862500Y1041382D01*
X864841Y1041848D01*
X866826Y1043174D01*
X868152Y1045159D01*
X868617Y1047500D01*
X868152Y1049841D01*
X866826Y1051826D01*
X864841Y1053152D01*
X862500Y1053617D01*
D02*
G37*
G36*
X1090000Y1073617D02*
X1087659Y1073152D01*
X1085674Y1071826D01*
X1084348Y1069841D01*
X1083885Y1067513D01*
X1056936Y1040564D01*
X1055997Y1039158D01*
X1055667Y1037500D01*
Y1006486D01*
X1054685Y1005681D01*
X1052499Y1006115D01*
X1050807Y1005779D01*
X1050101Y1006835D01*
X1050652Y1007659D01*
X1051117Y1010000D01*
X1050652Y1012341D01*
X1049326Y1014326D01*
X1047341Y1015652D01*
X1045000Y1016118D01*
X1042659Y1015652D01*
X1040674Y1014326D01*
X1039348Y1012341D01*
X1038883Y1010000D01*
X1039348Y1007659D01*
X1040667Y1005686D01*
Y814315D01*
X1039348Y812341D01*
X1038883Y810000D01*
X1039348Y807659D01*
X1040667Y805686D01*
Y614314D01*
X1039348Y612341D01*
X1038883Y610000D01*
X1039348Y607659D01*
X1040667Y605686D01*
Y414314D01*
X1039348Y412341D01*
X1038883Y410000D01*
X1039348Y407659D01*
X1040674Y405674D01*
X1042659Y404348D01*
X1045000Y403882D01*
X1046692Y404219D01*
X1047397Y403163D01*
X1046847Y402339D01*
X1046381Y399998D01*
X1046847Y397657D01*
X1048173Y395672D01*
X1050158Y394346D01*
X1052499Y393880D01*
X1054685Y394315D01*
X1055667Y393510D01*
Y356815D01*
X1054348Y354841D01*
X1053882Y352500D01*
X1054348Y350159D01*
X1055674Y348174D01*
X1057659Y346848D01*
X1060000Y346382D01*
X1062185Y346817D01*
X1063167Y346011D01*
Y333295D01*
X1059987Y330115D01*
X1057659Y329652D01*
X1055674Y328326D01*
X1054348Y326341D01*
X1053882Y324000D01*
X1054348Y321659D01*
X1055674Y319674D01*
X1057659Y318348D01*
X1060000Y317882D01*
X1062341Y318348D01*
X1064326Y319674D01*
X1065652Y321659D01*
X1066115Y323987D01*
X1070564Y328436D01*
X1071503Y329842D01*
X1071833Y331500D01*
Y433205D01*
X1080013Y441385D01*
X1082341Y441848D01*
X1084326Y443174D01*
X1084365Y443233D01*
X1085635D01*
X1085674Y443174D01*
X1087659Y441848D01*
X1090000Y441382D01*
X1092341Y441848D01*
X1094326Y443174D01*
X1095652Y445159D01*
X1096117Y447500D01*
X1095652Y449841D01*
X1094326Y451826D01*
X1092341Y453152D01*
X1090013Y453615D01*
X1071833Y471795D01*
Y633205D01*
X1080013Y641385D01*
X1082341Y641848D01*
X1084326Y643174D01*
X1084365Y643233D01*
X1085635D01*
X1085674Y643174D01*
X1087659Y641848D01*
X1090000Y641382D01*
X1092341Y641848D01*
X1094326Y643174D01*
X1095652Y645159D01*
X1096117Y647500D01*
X1095652Y649841D01*
X1094326Y651826D01*
X1092341Y653152D01*
X1090013Y653615D01*
X1071833Y671795D01*
Y833205D01*
X1080013Y841385D01*
X1082341Y841848D01*
X1084326Y843174D01*
X1084365Y843233D01*
X1085635D01*
X1085674Y843174D01*
X1087659Y841848D01*
X1090000Y841382D01*
X1092341Y841848D01*
X1094326Y843174D01*
X1095652Y845159D01*
X1096117Y847500D01*
X1095652Y849841D01*
X1094326Y851826D01*
X1092341Y853152D01*
X1090013Y853615D01*
X1071833Y871795D01*
Y1033205D01*
X1080013Y1041385D01*
X1082341Y1041848D01*
X1084326Y1043174D01*
X1084365Y1043233D01*
X1085635D01*
X1085674Y1043174D01*
X1087659Y1041848D01*
X1090000Y1041382D01*
X1092341Y1041848D01*
X1094326Y1043174D01*
X1095652Y1045159D01*
X1096117Y1047500D01*
X1095652Y1049841D01*
X1094326Y1051826D01*
X1092341Y1053152D01*
X1090000Y1053617D01*
X1087659Y1053152D01*
X1085674Y1051826D01*
X1085635Y1051767D01*
X1084365D01*
X1084326Y1051826D01*
X1082837Y1052821D01*
X1082713Y1054084D01*
X1090013Y1061385D01*
X1092341Y1061848D01*
X1094326Y1063174D01*
X1095652Y1065159D01*
X1096117Y1067500D01*
X1095652Y1069841D01*
X1094326Y1071826D01*
X1092341Y1073152D01*
X1090000Y1073617D01*
D02*
G37*
G36*
X835000Y1096117D02*
X832659Y1095652D01*
X830674Y1094326D01*
X829348Y1092341D01*
X828883Y1090000D01*
X829014Y1089337D01*
X828309Y1088281D01*
X827659Y1088152D01*
X825674Y1086826D01*
X824348Y1084841D01*
X823883Y1082500D01*
X824348Y1080159D01*
X825674Y1078174D01*
X827659Y1076848D01*
X828309Y1076719D01*
X829014Y1075663D01*
X828883Y1075000D01*
X829348Y1072659D01*
X830674Y1070674D01*
X832659Y1069348D01*
X835000Y1068883D01*
X837341Y1069348D01*
X839326Y1070674D01*
X840652Y1072659D01*
X841117Y1075000D01*
X840652Y1077341D01*
X839326Y1079326D01*
X837341Y1080652D01*
X836691Y1080781D01*
X835986Y1081837D01*
X836117Y1082500D01*
X835986Y1083163D01*
X836691Y1084219D01*
X837341Y1084348D01*
X839326Y1085674D01*
X840652Y1087659D01*
X841117Y1090000D01*
X840652Y1092341D01*
X839326Y1094326D01*
X837341Y1095652D01*
X835000Y1096117D01*
D02*
G37*
G36*
X616000Y1133617D02*
X613659Y1133152D01*
X611674Y1131826D01*
X610348Y1129841D01*
X609882Y1127500D01*
X610348Y1125159D01*
X611674Y1123174D01*
X613659Y1121848D01*
X615801Y1121422D01*
X616089Y1120185D01*
X615368Y1119632D01*
X613765Y1117543D01*
X612757Y1115110D01*
X612414Y1112500D01*
X612757Y1109890D01*
X613765Y1107457D01*
X615368Y1105368D01*
X616068Y1104831D01*
X616027Y1103561D01*
X615674Y1103326D01*
X614348Y1101341D01*
X613882Y1099000D01*
X614348Y1096659D01*
X615674Y1094674D01*
X616985Y1093799D01*
X616616Y1092583D01*
X603384D01*
X603015Y1093799D01*
X604326Y1094674D01*
X605652Y1096659D01*
X606118Y1099000D01*
X605652Y1101341D01*
X604326Y1103326D01*
X602341Y1104652D01*
X600000Y1105118D01*
X597659Y1104652D01*
X595674Y1103326D01*
X594348Y1101341D01*
X593882Y1099000D01*
X594348Y1096659D01*
X595674Y1094674D01*
X596985Y1093799D01*
X596616Y1092583D01*
X588250D01*
X586592Y1092253D01*
X585186Y1091314D01*
X545575Y1051703D01*
X544326Y1051826D01*
X542341Y1053152D01*
X540000Y1053618D01*
X537659Y1053152D01*
X535674Y1051826D01*
X534348Y1049841D01*
X533882Y1047500D01*
X534348Y1045159D01*
X535667Y1043186D01*
Y934621D01*
X534493Y934135D01*
X516115Y952513D01*
X515652Y954841D01*
X514326Y956826D01*
X512341Y958152D01*
X510000Y958618D01*
X507659Y958152D01*
X505674Y956826D01*
X504348Y954841D01*
X503882Y952500D01*
X504348Y950159D01*
X505674Y948174D01*
X507659Y946848D01*
X509987Y946385D01*
X528167Y928205D01*
Y766795D01*
X519987Y758615D01*
X517659Y758152D01*
X515674Y756826D01*
X515635Y756767D01*
X514365D01*
X514326Y756826D01*
X512341Y758152D01*
X510000Y758618D01*
X507659Y758152D01*
X505674Y756826D01*
X504348Y754841D01*
X503882Y752500D01*
X504348Y750159D01*
X505674Y748174D01*
X507659Y746848D01*
X509987Y746385D01*
X528167Y728205D01*
Y566795D01*
X519987Y558615D01*
X517659Y558152D01*
X515674Y556826D01*
X515635Y556767D01*
X514365D01*
X514326Y556826D01*
X512341Y558152D01*
X510000Y558618D01*
X507659Y558152D01*
X505674Y556826D01*
X504348Y554841D01*
X503882Y552500D01*
X504348Y550159D01*
X505674Y548174D01*
X507659Y546848D01*
X509987Y546385D01*
X528167Y528205D01*
Y366795D01*
X519987Y358615D01*
X517659Y358152D01*
X515674Y356826D01*
X515635Y356767D01*
X514365D01*
X514326Y356826D01*
X512341Y358152D01*
X510000Y358618D01*
X507659Y358152D01*
X505674Y356826D01*
X504348Y354841D01*
X503882Y352500D01*
X504348Y350159D01*
X505674Y348174D01*
X507659Y346848D01*
X510000Y346382D01*
X512341Y346848D01*
X514326Y348174D01*
X514365Y348233D01*
X515635D01*
X515674Y348174D01*
X517659Y346848D01*
X520000Y346382D01*
X522341Y346848D01*
X524326Y348174D01*
X525652Y350159D01*
X526115Y352487D01*
X535564Y361936D01*
X536503Y363342D01*
X536503Y363342D01*
X536503Y363342D01*
X536833Y365000D01*
Y441011D01*
X537815Y441817D01*
X540000Y441382D01*
X542186Y441817D01*
X543168Y441012D01*
Y404316D01*
X541849Y402343D01*
X541384Y400002D01*
X541849Y397661D01*
X543176Y395676D01*
X545160Y394350D01*
X547501Y393885D01*
X549193Y394221D01*
X549899Y393165D01*
X549348Y392341D01*
X548882Y390000D01*
X549348Y387659D01*
X550674Y385674D01*
X552659Y384348D01*
X555000Y383882D01*
X557341Y384348D01*
X559326Y385674D01*
X560652Y387659D01*
X561118Y390000D01*
X560652Y392341D01*
X559333Y394314D01*
Y585685D01*
X560652Y587659D01*
X561118Y590000D01*
X560652Y592341D01*
X559333Y594314D01*
Y785685D01*
X560652Y787659D01*
X561118Y790000D01*
X560652Y792341D01*
X559333Y794314D01*
Y985686D01*
X560652Y987659D01*
X561118Y990000D01*
X560652Y992341D01*
X559333Y994314D01*
Y1045705D01*
X592545Y1078917D01*
X641554D01*
X642153Y1077797D01*
X641848Y1077341D01*
X641383Y1075000D01*
X641848Y1072659D01*
X643174Y1070674D01*
X645159Y1069348D01*
X647500Y1068883D01*
X649841Y1069348D01*
X651826Y1070674D01*
X653152Y1072659D01*
X653617Y1075000D01*
X653152Y1077341D01*
X652847Y1077797D01*
X653446Y1078917D01*
X670750D01*
X672408Y1079247D01*
X673814Y1080186D01*
X673814Y1080186D01*
X673814Y1080186D01*
X677513Y1083885D01*
X679841Y1084348D01*
X681826Y1085674D01*
X683152Y1087659D01*
X683617Y1090000D01*
X683152Y1092341D01*
X681826Y1094326D01*
X681767Y1094365D01*
Y1095635D01*
X681826Y1095674D01*
X683152Y1097659D01*
X683617Y1100000D01*
X683152Y1102341D01*
X681826Y1104326D01*
X679841Y1105652D01*
X677500Y1106117D01*
X675159Y1105652D01*
X673174Y1104326D01*
X671848Y1102341D01*
X671385Y1100013D01*
X663955Y1092583D01*
X623384D01*
X623015Y1093799D01*
X624326Y1094674D01*
X625652Y1096659D01*
X626118Y1099000D01*
X625652Y1101341D01*
X625349Y1101794D01*
X625718Y1103009D01*
X627543Y1103765D01*
X629632Y1105368D01*
X631235Y1107457D01*
X632243Y1109890D01*
X632586Y1112500D01*
X632243Y1115110D01*
X631235Y1117543D01*
X629632Y1119632D01*
X627543Y1121235D01*
X625111Y1122243D01*
X622500Y1122586D01*
X621211Y1122417D01*
X620540Y1123495D01*
X621652Y1125159D01*
X622118Y1127500D01*
X621652Y1129841D01*
X620326Y1131826D01*
X618341Y1133152D01*
X616000Y1133617D01*
D02*
G37*
G36*
X482500Y1122586D02*
X479889Y1122243D01*
X477457Y1121235D01*
X475368Y1119632D01*
X473765Y1117543D01*
X472757Y1115110D01*
X472414Y1112500D01*
X472757Y1109890D01*
X473765Y1107457D01*
X475368Y1105368D01*
X476068Y1104831D01*
X476027Y1103561D01*
X475674Y1103326D01*
X474348Y1101341D01*
X473882Y1099000D01*
X474348Y1096659D01*
X475674Y1094674D01*
X477659Y1093348D01*
X480000Y1092883D01*
X482341Y1093348D01*
X484326Y1094674D01*
X485652Y1096659D01*
X486118Y1099000D01*
X485652Y1101341D01*
X485349Y1101794D01*
X485718Y1103009D01*
X487543Y1103765D01*
X489632Y1105368D01*
X491235Y1107457D01*
X492243Y1109890D01*
X492586Y1112500D01*
X492243Y1115110D01*
X491235Y1117543D01*
X489632Y1119632D01*
X487543Y1121235D01*
X485111Y1122243D01*
X482500Y1122586D01*
D02*
G37*
G36*
X440000Y1105118D02*
X437659Y1104652D01*
X435674Y1103326D01*
X434348Y1101341D01*
X433882Y1099000D01*
X434348Y1096659D01*
X435674Y1094674D01*
X437659Y1093348D01*
X440000Y1092883D01*
X442341Y1093348D01*
X444326Y1094674D01*
X445192Y1095971D01*
X446438Y1095723D01*
X446848Y1093659D01*
X448174Y1091674D01*
X450159Y1090348D01*
X452500Y1089883D01*
X454841Y1090348D01*
X456826Y1091674D01*
X458152Y1093659D01*
X458618Y1096000D01*
X458152Y1098341D01*
X456826Y1100326D01*
X454841Y1101652D01*
X452500Y1102117D01*
X450159Y1101652D01*
X448174Y1100326D01*
X447308Y1099029D01*
X446062Y1099277D01*
X445652Y1101341D01*
X444326Y1103326D01*
X442341Y1104652D01*
X440000Y1105118D01*
D02*
G37*
G36*
X954000Y1176117D02*
X951659Y1175652D01*
X949674Y1174326D01*
X948348Y1172341D01*
X947883Y1170000D01*
X948348Y1167659D01*
X949674Y1165674D01*
X951659Y1164348D01*
X954000Y1163883D01*
X956341Y1164348D01*
X958326Y1165674D01*
X959652Y1167659D01*
X960117Y1170000D01*
X959652Y1172341D01*
X958326Y1174326D01*
X956341Y1175652D01*
X954000Y1176117D01*
D02*
G37*
G36*
X745000Y1088617D02*
X742659Y1088152D01*
X740674Y1086826D01*
X739348Y1084841D01*
X738883Y1082500D01*
X739003Y1081895D01*
X738105Y1080997D01*
X737500Y1081117D01*
X735159Y1080652D01*
X733174Y1079326D01*
X731848Y1077341D01*
X731383Y1075000D01*
X731848Y1072659D01*
X733174Y1070674D01*
X735159Y1069348D01*
X737500Y1068883D01*
X739841Y1069348D01*
X741826Y1070674D01*
X743152Y1072659D01*
X743617Y1075000D01*
X743497Y1075605D01*
X744395Y1076503D01*
X745000Y1076383D01*
X747341Y1076848D01*
X749326Y1078174D01*
X750652Y1080159D01*
X751117Y1082500D01*
X750652Y1084841D01*
X749326Y1086826D01*
X747341Y1088152D01*
X745000Y1088617D01*
D02*
G37*
G36*
X760000Y991117D02*
X757659Y990652D01*
X755674Y989326D01*
X754348Y987341D01*
X753883Y985000D01*
X754348Y982659D01*
X755674Y980674D01*
X757659Y979348D01*
X760000Y978882D01*
X762341Y979348D01*
X764326Y980674D01*
X765652Y982659D01*
X766117Y985000D01*
X765652Y987341D01*
X764326Y989326D01*
X762341Y990652D01*
X760000Y991117D01*
D02*
G37*
G36*
X1160000D02*
X1157659Y990652D01*
X1155674Y989326D01*
X1154348Y987341D01*
X1153883Y985000D01*
X1154348Y982659D01*
X1155674Y980674D01*
X1157659Y979348D01*
X1160000Y978882D01*
X1162341Y979348D01*
X1164326Y980674D01*
X1165652Y982659D01*
X1166118Y985000D01*
X1165652Y987341D01*
X1164326Y989326D01*
X1162341Y990652D01*
X1160000Y991117D01*
D02*
G37*
G36*
X1000000Y1111117D02*
X997659Y1110652D01*
X995674Y1109326D01*
X994348Y1107341D01*
X993883Y1105000D01*
Y1090000D01*
Y1075000D01*
Y1060000D01*
Y1045000D01*
Y1030000D01*
Y1015000D01*
Y1005000D01*
Y982500D01*
Y970000D01*
X994348Y967659D01*
X995674Y965674D01*
X997659Y964348D01*
X1000000Y963883D01*
X1002341Y964348D01*
X1004326Y965674D01*
X1005652Y967659D01*
X1006117Y970000D01*
Y982500D01*
Y1005000D01*
Y1015000D01*
Y1030000D01*
Y1045000D01*
Y1060000D01*
Y1075000D01*
Y1090000D01*
Y1105000D01*
X1005652Y1107341D01*
X1004326Y1109326D01*
X1002341Y1110652D01*
X1000000Y1111117D01*
D02*
G37*
G36*
X600000Y1026117D02*
X597659Y1025652D01*
X595674Y1024326D01*
X594348Y1022341D01*
X593882Y1020000D01*
Y1005000D01*
Y990000D01*
Y975000D01*
Y960000D01*
X593882Y960000D01*
X593882D01*
X594348Y957659D01*
X595674Y955674D01*
X597659Y954348D01*
X600000Y953883D01*
X602341Y954348D01*
X604326Y955674D01*
X605652Y957659D01*
X606118Y960000D01*
Y975000D01*
Y990000D01*
Y1005000D01*
Y1020000D01*
X605652Y1022341D01*
X604326Y1024326D01*
X602341Y1025652D01*
X600000Y1026117D01*
D02*
G37*
G36*
X800000Y1066117D02*
X797659Y1065652D01*
X795674Y1064326D01*
X794348Y1062341D01*
X793883Y1060000D01*
Y1045000D01*
Y1030000D01*
Y1020000D01*
Y1010000D01*
Y990000D01*
Y970000D01*
X794348Y967659D01*
X795674Y965674D01*
X797659Y964348D01*
X800000Y963883D01*
X802341Y964348D01*
X804326Y965674D01*
X805652Y967659D01*
X806117Y970000D01*
X806118Y970000D01*
X806117Y970000D01*
Y970000D01*
Y990000D01*
Y1010000D01*
Y1020000D01*
Y1030000D01*
Y1045000D01*
Y1060000D01*
X805652Y1062341D01*
X804326Y1064326D01*
X802341Y1065652D01*
X800000Y1066117D01*
D02*
G37*
G36*
X897500Y1073617D02*
X895159Y1073152D01*
X893174Y1071826D01*
X891848Y1069841D01*
X891383Y1067500D01*
X891848Y1065159D01*
X893174Y1063174D01*
X895159Y1061848D01*
X897487Y1061385D01*
X928167Y1030705D01*
Y966795D01*
X919987Y958615D01*
X917659Y958152D01*
X915674Y956826D01*
X915635Y956767D01*
X914365D01*
X914326Y956826D01*
X912341Y958152D01*
X910000Y958618D01*
X907659Y958152D01*
X905674Y956826D01*
X904348Y954841D01*
X903883Y952500D01*
X904348Y950159D01*
X905674Y948174D01*
X907659Y946848D01*
X909987Y946385D01*
X928167Y928205D01*
Y766795D01*
X919987Y758615D01*
X917659Y758152D01*
X915674Y756826D01*
X915635Y756767D01*
X914365D01*
X914326Y756826D01*
X912341Y758152D01*
X910000Y758618D01*
X907659Y758152D01*
X905674Y756826D01*
X904348Y754841D01*
X903883Y752500D01*
X904348Y750159D01*
X905674Y748174D01*
X907659Y746848D01*
X909987Y746385D01*
X928167Y728205D01*
Y566795D01*
X919987Y558615D01*
X917659Y558152D01*
X915674Y556826D01*
X915635Y556767D01*
X914365D01*
X914326Y556826D01*
X912341Y558152D01*
X910000Y558618D01*
X907659Y558152D01*
X905674Y556826D01*
X904348Y554841D01*
X903883Y552500D01*
X904348Y550159D01*
X905674Y548174D01*
X907659Y546848D01*
X909987Y546385D01*
X928167Y528205D01*
Y366795D01*
X919987Y358615D01*
X917659Y358152D01*
X915674Y356826D01*
X915635Y356767D01*
X914365D01*
X914326Y356826D01*
X912341Y358152D01*
X910000Y358618D01*
X907659Y358152D01*
X905674Y356826D01*
X904348Y354841D01*
X903883Y352500D01*
X904348Y350159D01*
X905674Y348174D01*
X907659Y346848D01*
X910000Y346382D01*
X912341Y346848D01*
X914326Y348174D01*
X914365Y348233D01*
X915635D01*
X915674Y348174D01*
X917659Y346848D01*
X920000Y346382D01*
X922341Y346848D01*
X924326Y348174D01*
X925652Y350159D01*
X926115Y352487D01*
X935564Y361936D01*
X936503Y363342D01*
X936833Y365000D01*
X936833Y365000D01*
X936833Y365000D01*
Y365000D01*
Y441011D01*
X937815Y441817D01*
X940000Y441382D01*
X942186Y441817D01*
X943168Y441012D01*
Y404316D01*
X941849Y402343D01*
X941384Y400002D01*
X941849Y397661D01*
X943176Y395676D01*
X945160Y394350D01*
X947501Y393885D01*
X949193Y394221D01*
X949899Y393165D01*
X949348Y392341D01*
X948883Y390000D01*
X949348Y387659D01*
X950674Y385674D01*
X952659Y384348D01*
X955000Y383882D01*
X957341Y384348D01*
X959326Y385674D01*
X960652Y387659D01*
X961118Y390000D01*
X960652Y392341D01*
X959333Y394314D01*
Y585685D01*
X960652Y587659D01*
X961118Y590000D01*
X960652Y592341D01*
X959333Y594314D01*
Y785685D01*
X960652Y787659D01*
X961118Y790000D01*
X960652Y792341D01*
X959333Y794314D01*
Y985686D01*
X960652Y987659D01*
X961118Y990000D01*
X960997Y990605D01*
X961895Y991503D01*
X962500Y991383D01*
X964841Y991848D01*
X966826Y993174D01*
X968152Y995159D01*
X968617Y997500D01*
X968152Y999841D01*
X966826Y1001826D01*
X964841Y1003152D01*
X962500Y1003618D01*
X960159Y1003152D01*
X958186Y1001833D01*
X952954D01*
X951296Y1001503D01*
X949890Y1000564D01*
X945507Y996181D01*
X944333Y996667D01*
Y1043186D01*
X945652Y1045159D01*
X946117Y1047500D01*
X945652Y1049841D01*
X944326Y1051826D01*
X942341Y1053152D01*
X940000Y1053617D01*
X937659Y1053152D01*
X935674Y1051826D01*
X934348Y1049841D01*
X933883Y1047500D01*
X934348Y1045159D01*
X935667Y1043185D01*
Y1037121D01*
X934493Y1036635D01*
X903615Y1067513D01*
X903152Y1069841D01*
X901826Y1071826D01*
X899841Y1073152D01*
X897500Y1073617D01*
D02*
G37*
G36*
X462500Y1053617D02*
X460159Y1053152D01*
X458174Y1051826D01*
X456848Y1049841D01*
X456382Y1047500D01*
X456848Y1045159D01*
X458174Y1043174D01*
X460159Y1041848D01*
X462500Y1041382D01*
X464841Y1041848D01*
X466826Y1043174D01*
X468152Y1045159D01*
X468618Y1047500D01*
X468152Y1049841D01*
X466826Y1051826D01*
X464841Y1053152D01*
X462500Y1053617D01*
D02*
G37*
G36*
X680000Y1071117D02*
X677659Y1070652D01*
X675674Y1069326D01*
X674348Y1067341D01*
X673885Y1065013D01*
X641936Y1033064D01*
X640997Y1031658D01*
X640667Y1030000D01*
Y1014315D01*
X639348Y1012341D01*
X638882Y1010000D01*
X639348Y1007659D01*
X640667Y1005685D01*
Y814315D01*
X639348Y812341D01*
X638882Y810000D01*
X639348Y807659D01*
X640667Y805685D01*
Y614315D01*
X639348Y612341D01*
X638882Y610000D01*
X639348Y607659D01*
X640667Y605686D01*
Y414314D01*
X639348Y412341D01*
X638882Y410000D01*
X639348Y407659D01*
X640674Y405674D01*
X642659Y404348D01*
X645000Y403882D01*
X646692Y404219D01*
X647397Y403163D01*
X646847Y402339D01*
X646381Y399998D01*
X646847Y397657D01*
X648173Y395672D01*
X650158Y394346D01*
X652499Y393880D01*
X654685Y394315D01*
X655667Y393510D01*
Y356815D01*
X654348Y354841D01*
X653883Y352500D01*
X654348Y350159D01*
X655674Y348174D01*
X657659Y346848D01*
X660000Y346382D01*
X662185Y346817D01*
X663167Y346011D01*
Y321795D01*
X662487Y321115D01*
X660159Y320652D01*
X658174Y319326D01*
X656848Y317341D01*
X656383Y315000D01*
X656848Y312659D01*
X658174Y310674D01*
X660159Y309348D01*
X662500Y308882D01*
X664841Y309348D01*
X666826Y310674D01*
X668152Y312659D01*
X668615Y314987D01*
X670564Y316936D01*
X671503Y318342D01*
X671833Y320000D01*
Y433205D01*
X680013Y441385D01*
X682341Y441848D01*
X684326Y443174D01*
X684365Y443233D01*
X685635D01*
X685674Y443174D01*
X687659Y441848D01*
X690000Y441382D01*
X692341Y441848D01*
X694326Y443174D01*
X695652Y445159D01*
X696117Y447500D01*
X695652Y449841D01*
X694326Y451826D01*
X692341Y453152D01*
X690013Y453615D01*
X671833Y471795D01*
Y633205D01*
X680013Y641385D01*
X682341Y641848D01*
X684326Y643174D01*
X684365Y643233D01*
X685635D01*
X685674Y643174D01*
X687659Y641848D01*
X690000Y641382D01*
X692341Y641848D01*
X694326Y643174D01*
X695652Y645159D01*
X696117Y647500D01*
X695652Y649841D01*
X694326Y651826D01*
X692341Y653152D01*
X690013Y653615D01*
X671833Y671795D01*
Y830705D01*
X683064Y841936D01*
X683541Y842650D01*
X684326Y843174D01*
X684365Y843233D01*
X685635D01*
X685674Y843174D01*
X687659Y841848D01*
X690000Y841382D01*
X692341Y841848D01*
X694326Y843174D01*
X695652Y845159D01*
X696117Y847500D01*
X695652Y849841D01*
X694326Y851826D01*
X692341Y853152D01*
X690013Y853615D01*
X671833Y871795D01*
Y1033205D01*
X680013Y1041385D01*
X682341Y1041848D01*
X684326Y1043174D01*
X684365Y1043233D01*
X685635D01*
X685674Y1043174D01*
X687659Y1041848D01*
X690000Y1041382D01*
X692341Y1041848D01*
X694326Y1043174D01*
X695652Y1045159D01*
X696117Y1047500D01*
X695652Y1049841D01*
X694326Y1051826D01*
X692341Y1053152D01*
X691691Y1053281D01*
X690986Y1054337D01*
X691117Y1055000D01*
X690652Y1057341D01*
X689326Y1059326D01*
X687341Y1060652D01*
X685787Y1060961D01*
X685301Y1062134D01*
X685652Y1062659D01*
X686118Y1065000D01*
X685652Y1067341D01*
X684326Y1069326D01*
X682341Y1070652D01*
X680000Y1071117D01*
D02*
G37*
G36*
X600000Y1046117D02*
X597659Y1045652D01*
X595674Y1044326D01*
X594348Y1042341D01*
X593882Y1040000D01*
X594348Y1037659D01*
X595674Y1035674D01*
X597659Y1034348D01*
X600000Y1033883D01*
X602341Y1034348D01*
X604326Y1035674D01*
X605652Y1037659D01*
X606118Y1040000D01*
X605652Y1042341D01*
X604326Y1044326D01*
X602341Y1045652D01*
X600000Y1046117D01*
D02*
G37*
G36*
X440000Y1021118D02*
X437659Y1020652D01*
X435674Y1019326D01*
X434348Y1017341D01*
X433882Y1015000D01*
X434348Y1012659D01*
X435674Y1010674D01*
X437659Y1009348D01*
X440000Y1008883D01*
X442341Y1009348D01*
X444326Y1010674D01*
X445652Y1012659D01*
X446118Y1015000D01*
X445652Y1017341D01*
X444326Y1019326D01*
X442341Y1020652D01*
X440000Y1021118D01*
D02*
G37*
G36*
X840000D02*
X837659Y1020652D01*
X835674Y1019326D01*
X834348Y1017341D01*
X833883Y1015000D01*
X834348Y1012659D01*
X835674Y1010674D01*
X837659Y1009348D01*
X840000Y1008883D01*
X842341Y1009348D01*
X844326Y1010674D01*
X845652Y1012659D01*
X846117Y1015000D01*
X845652Y1017341D01*
X844326Y1019326D01*
X842341Y1020652D01*
X840000Y1021118D01*
D02*
G37*
G36*
X500000Y1105118D02*
X497659Y1104652D01*
X495674Y1103326D01*
X494348Y1101341D01*
X493882Y1099000D01*
X494348Y1096659D01*
X495674Y1094674D01*
X497659Y1093348D01*
X500000Y1092883D01*
X502341Y1093348D01*
X504326Y1094674D01*
X505652Y1096659D01*
X506118Y1099000D01*
X505652Y1101341D01*
X504326Y1103326D01*
X502341Y1104652D01*
X500000Y1105118D01*
D02*
G37*
G36*
X512500Y1155118D02*
X510159Y1154652D01*
X508174Y1153326D01*
X506848Y1151341D01*
X506382Y1149000D01*
X506848Y1146659D01*
X508174Y1144674D01*
X510159Y1143348D01*
X512500Y1142883D01*
X514841Y1143348D01*
X516826Y1144674D01*
X518152Y1146659D01*
X518618Y1149000D01*
X518152Y1151341D01*
X516826Y1153326D01*
X514841Y1154652D01*
X512500Y1155118D01*
D02*
G37*
G36*
X532500D02*
X530159Y1154652D01*
X528174Y1153326D01*
X526848Y1151341D01*
X526382Y1149000D01*
X526848Y1146659D01*
X528174Y1144674D01*
X530159Y1143348D01*
X532500Y1142883D01*
X534841Y1143348D01*
X536826Y1144674D01*
X538152Y1146659D01*
X538618Y1149000D01*
X538152Y1151341D01*
X536826Y1153326D01*
X534841Y1154652D01*
X532500Y1155118D01*
D02*
G37*
G36*
X492500D02*
X490159Y1154652D01*
X488174Y1153326D01*
X486848Y1151341D01*
X486382Y1149000D01*
X486848Y1146659D01*
X488174Y1144674D01*
X490159Y1143348D01*
X492500Y1142883D01*
X494841Y1143348D01*
X496826Y1144674D01*
X498152Y1146659D01*
X498618Y1149000D01*
X498152Y1151341D01*
X496826Y1153326D01*
X494841Y1154652D01*
X492500Y1155118D01*
D02*
G37*
G36*
X452500D02*
X450159Y1154652D01*
X448174Y1153326D01*
X446848Y1151341D01*
X446382Y1149000D01*
X446848Y1146659D01*
X448174Y1144674D01*
X450159Y1143348D01*
X452500Y1142883D01*
X454841Y1143348D01*
X456826Y1144674D01*
X458152Y1146659D01*
X458618Y1149000D01*
X458152Y1151341D01*
X456826Y1153326D01*
X454841Y1154652D01*
X452500Y1155118D01*
D02*
G37*
G36*
X472500D02*
X470159Y1154652D01*
X468174Y1153326D01*
X466848Y1151341D01*
X466382Y1149000D01*
X466848Y1146659D01*
X468174Y1144674D01*
X470159Y1143348D01*
X472500Y1142883D01*
X474841Y1143348D01*
X476826Y1144674D01*
X478152Y1146659D01*
X478618Y1149000D01*
X478152Y1151341D01*
X476826Y1153326D01*
X474841Y1154652D01*
X472500Y1155118D01*
D02*
G37*
G36*
X616000Y1173617D02*
X613659Y1173152D01*
X611674Y1171826D01*
X610348Y1169841D01*
X609882Y1167500D01*
X610348Y1165159D01*
X611674Y1163174D01*
X613659Y1161848D01*
X616000Y1161383D01*
X618341Y1161848D01*
X620326Y1163174D01*
X621652Y1165159D01*
X622118Y1167500D01*
X621652Y1169841D01*
X620326Y1171826D01*
X618341Y1173152D01*
X616000Y1173617D01*
D02*
G37*
G36*
X1224500Y1188118D02*
X1210700D01*
X1208359Y1187652D01*
X1206374Y1186326D01*
X1191374Y1171326D01*
X1190048Y1169341D01*
X1189583Y1167000D01*
X1190048Y1164659D01*
X1191374Y1162674D01*
X1193359Y1161348D01*
X1195700Y1160882D01*
X1198041Y1161348D01*
X1200026Y1162674D01*
X1213234Y1175882D01*
X1224500D01*
X1226841Y1176348D01*
X1228826Y1177674D01*
X1230152Y1179659D01*
X1230618Y1182000D01*
X1230152Y1184341D01*
X1228826Y1186326D01*
X1226841Y1187652D01*
X1224500Y1188118D01*
D02*
G37*
G36*
X531000Y1173617D02*
X528659Y1173152D01*
X526674Y1171826D01*
X525348Y1169841D01*
X524883Y1167500D01*
X525348Y1165159D01*
X526674Y1163174D01*
X528659Y1161848D01*
X531000Y1161383D01*
X533341Y1161848D01*
X535326Y1163174D01*
X536652Y1165159D01*
X537118Y1167500D01*
X536652Y1169841D01*
X535326Y1171826D01*
X533341Y1173152D01*
X531000Y1173617D01*
D02*
G37*
G36*
X812500Y1166117D02*
X810159Y1165652D01*
X808174Y1164326D01*
X806848Y1162341D01*
X806383Y1160000D01*
X806848Y1157659D01*
X808174Y1155674D01*
X810159Y1154348D01*
X812500Y1153883D01*
X814841Y1154348D01*
X816826Y1155674D01*
X818152Y1157659D01*
X818617Y1160000D01*
X818152Y1162341D01*
X816826Y1164326D01*
X814841Y1165652D01*
X812500Y1166117D01*
D02*
G37*
G36*
X792500Y1223059D02*
X747500D01*
X746329Y1222826D01*
X745337Y1222163D01*
X744674Y1221171D01*
X744441Y1220000D01*
Y1212480D01*
X744349Y1212342D01*
X743883Y1210001D01*
X744349Y1207660D01*
X744441Y1207521D01*
Y1202480D01*
X744349Y1202342D01*
X743883Y1200001D01*
X744349Y1197660D01*
X744441Y1197521D01*
Y1192480D01*
X744348Y1192341D01*
X743883Y1190000D01*
X744348Y1187659D01*
X744441Y1187520D01*
Y1182480D01*
X744348Y1182341D01*
X743883Y1180000D01*
X744348Y1177659D01*
X744441Y1177520D01*
Y1172480D01*
X744348Y1172341D01*
X743883Y1170000D01*
X744348Y1167659D01*
X744441Y1167520D01*
Y1162480D01*
X744348Y1162341D01*
X743883Y1160000D01*
X744348Y1157659D01*
X744441Y1157520D01*
Y1150000D01*
X744674Y1148829D01*
X745337Y1147837D01*
X746329Y1147174D01*
X747500Y1146941D01*
X792500D01*
X793671Y1147174D01*
X794663Y1147837D01*
X795326Y1148829D01*
X795559Y1150000D01*
Y1157520D01*
X795652Y1157659D01*
X796118Y1160000D01*
X795652Y1162341D01*
X795559Y1162480D01*
Y1167520D01*
X795652Y1167659D01*
X796118Y1170000D01*
X795652Y1172341D01*
X795559Y1172480D01*
Y1177520D01*
X795652Y1177659D01*
X796118Y1180000D01*
X795652Y1182341D01*
X795559Y1182480D01*
Y1187520D01*
X795652Y1187659D01*
X796118Y1190000D01*
X795652Y1192341D01*
X795559Y1192480D01*
Y1197519D01*
X795653Y1197660D01*
X796118Y1200001D01*
X795653Y1202342D01*
X795559Y1202482D01*
Y1207519D01*
X795653Y1207660D01*
X796118Y1210001D01*
X795653Y1212342D01*
X795559Y1212482D01*
Y1220000D01*
X795326Y1221171D01*
X794663Y1222163D01*
X793671Y1222826D01*
X792500Y1223059D01*
D02*
G37*
G36*
X571000Y1163617D02*
X568659Y1163152D01*
X566674Y1161826D01*
X565348Y1159841D01*
X564883Y1157500D01*
X565348Y1155159D01*
X566674Y1153174D01*
X568659Y1151848D01*
X571000Y1151383D01*
X573341Y1151848D01*
X575326Y1153174D01*
X576652Y1155159D01*
X577118Y1157500D01*
X576652Y1159841D01*
X575326Y1161826D01*
X573341Y1163152D01*
X571000Y1163617D01*
D02*
G37*
G36*
X560000Y1105118D02*
X557659Y1104652D01*
X555674Y1103326D01*
X554348Y1101341D01*
X553882Y1099000D01*
X554348Y1096659D01*
X555674Y1094674D01*
X557659Y1093348D01*
X560000Y1092883D01*
X562341Y1093348D01*
X564326Y1094674D01*
X565652Y1096659D01*
X566118Y1099000D01*
X565652Y1101341D01*
X564326Y1103326D01*
X562341Y1104652D01*
X560000Y1105118D01*
D02*
G37*
G36*
X580000D02*
X577659Y1104652D01*
X575674Y1103326D01*
X574348Y1101341D01*
X573882Y1099000D01*
X574348Y1096659D01*
X575674Y1094674D01*
X577659Y1093348D01*
X580000Y1092883D01*
X582341Y1093348D01*
X584326Y1094674D01*
X585652Y1096659D01*
X586118Y1099000D01*
X585652Y1101341D01*
X584326Y1103326D01*
X582341Y1104652D01*
X580000Y1105118D01*
D02*
G37*
G36*
X540000D02*
X537659Y1104652D01*
X535674Y1103326D01*
X534348Y1101341D01*
X533882Y1099000D01*
X534348Y1096659D01*
X535674Y1094674D01*
X537659Y1093348D01*
X540000Y1092883D01*
X542341Y1093348D01*
X544326Y1094674D01*
X545652Y1096659D01*
X546118Y1099000D01*
X545652Y1101341D01*
X544326Y1103326D01*
X542341Y1104652D01*
X540000Y1105118D01*
D02*
G37*
G36*
X520000D02*
X517659Y1104652D01*
X515674Y1103326D01*
X514348Y1101341D01*
X513882Y1099000D01*
X514348Y1096659D01*
X515674Y1094674D01*
X517659Y1093348D01*
X520000Y1092883D01*
X522341Y1093348D01*
X524326Y1094674D01*
X525652Y1096659D01*
X526118Y1099000D01*
X525652Y1101341D01*
X524326Y1103326D01*
X522341Y1104652D01*
X520000Y1105118D01*
D02*
G37*
G36*
X879000Y1186117D02*
X876659Y1185652D01*
X874674Y1184326D01*
X873348Y1182341D01*
X872883Y1180000D01*
X873348Y1177659D01*
X874674Y1175674D01*
X876659Y1174348D01*
X879000Y1173883D01*
X881341Y1174348D01*
X881973Y1174771D01*
X882871Y1173873D01*
X881848Y1172341D01*
X881383Y1170000D01*
X881848Y1167659D01*
X883174Y1165674D01*
X885159Y1164348D01*
X887500Y1163883D01*
X889841Y1164348D01*
X891826Y1165674D01*
X893152Y1167659D01*
X893615Y1169987D01*
X894885D01*
X895348Y1167659D01*
X896674Y1165674D01*
X898659Y1164348D01*
X901000Y1163883D01*
X903341Y1164348D01*
X905326Y1165674D01*
X906652Y1167659D01*
X907117Y1170000D01*
X906652Y1172341D01*
X905326Y1174326D01*
X903341Y1175652D01*
X901000Y1176117D01*
X898659Y1175652D01*
X896674Y1174326D01*
X895348Y1172341D01*
X894885Y1170013D01*
X893615D01*
X893152Y1172341D01*
X891826Y1174326D01*
X889841Y1175652D01*
X887500Y1176117D01*
X885159Y1175652D01*
X884527Y1175229D01*
X883628Y1176127D01*
X884652Y1177659D01*
X885118Y1180000D01*
X884652Y1182341D01*
X883326Y1184326D01*
X881341Y1185652D01*
X879000Y1186117D01*
D02*
G37*
G36*
X972500Y1168618D02*
X970159Y1168152D01*
X968174Y1166826D01*
X966848Y1164841D01*
X966385Y1162513D01*
X965705Y1161833D01*
X857500D01*
X855842Y1161503D01*
X854436Y1160564D01*
X844987Y1151115D01*
X842659Y1150652D01*
X840674Y1149326D01*
X839348Y1147341D01*
X838883Y1145000D01*
X839348Y1142659D01*
X840674Y1140674D01*
X842659Y1139348D01*
X842862Y1138858D01*
X841848Y1137341D01*
X841383Y1135000D01*
X841848Y1132659D01*
X843174Y1130674D01*
X845159Y1129348D01*
X845809Y1129219D01*
X846514Y1128163D01*
X846383Y1127500D01*
X846848Y1125159D01*
X848174Y1123174D01*
X850159Y1121848D01*
X852500Y1121383D01*
X854841Y1121848D01*
X856826Y1123174D01*
X856865Y1123233D01*
X858135D01*
X858174Y1123174D01*
X858233Y1123135D01*
Y1121865D01*
X858174Y1121826D01*
X856848Y1119841D01*
X856383Y1117500D01*
X856848Y1115159D01*
X858174Y1113174D01*
X860159Y1111848D01*
X862500Y1111383D01*
X864841Y1111848D01*
X866826Y1113174D01*
X868115Y1115104D01*
X869385D01*
X870674Y1113174D01*
X872659Y1111848D01*
X875000Y1111383D01*
X877341Y1111848D01*
X877866Y1112199D01*
X879039Y1111713D01*
X879348Y1110159D01*
X880674Y1108174D01*
X882659Y1106848D01*
X885000Y1106383D01*
X887341Y1106848D01*
X889326Y1108174D01*
X890652Y1110159D01*
X890960Y1111710D01*
X892060Y1112345D01*
X892452Y1112213D01*
X892757Y1109890D01*
X893765Y1107457D01*
X895368Y1105368D01*
X897457Y1103765D01*
X899890Y1102757D01*
X902500Y1102414D01*
X905110Y1102757D01*
X907543Y1103765D01*
X909632Y1105368D01*
X911235Y1107457D01*
X912243Y1109890D01*
X912586Y1112500D01*
X912243Y1115110D01*
X911235Y1117543D01*
X909712Y1119528D01*
X910274Y1120667D01*
X960705D01*
X969436Y1111936D01*
X970842Y1110997D01*
X970842Y1110997D01*
X970842Y1110997D01*
D01*
X970842Y1110997D01*
X970842Y1110997D01*
X972500Y1110667D01*
X978186D01*
X980159Y1109348D01*
X982500Y1108883D01*
X984841Y1109348D01*
X986826Y1110674D01*
X988152Y1112659D01*
X988618Y1115000D01*
X988486Y1115663D01*
X989191Y1116719D01*
X989841Y1116848D01*
X991826Y1118174D01*
X993152Y1120159D01*
X993617Y1122500D01*
X993152Y1124841D01*
X991826Y1126826D01*
X989841Y1128152D01*
X988310Y1128456D01*
X988617Y1130000D01*
X988310Y1131544D01*
X989841Y1131848D01*
X991826Y1133174D01*
X993152Y1135159D01*
X993617Y1137500D01*
X993152Y1139841D01*
X991826Y1141826D01*
X989841Y1143152D01*
X989191Y1143281D01*
X988486Y1144337D01*
X988617Y1145000D01*
X988152Y1147341D01*
X986826Y1149326D01*
X984841Y1150652D01*
X982500Y1151117D01*
X981895Y1150997D01*
X980997Y1151895D01*
X981117Y1152500D01*
X980652Y1154841D01*
X979326Y1156826D01*
X977341Y1158152D01*
X977138Y1158642D01*
X978152Y1160159D01*
X978618Y1162500D01*
X978152Y1164841D01*
X976826Y1166826D01*
X974841Y1168152D01*
X972500Y1168618D01*
D02*
G37*
G36*
X616000Y1153618D02*
X613659Y1153152D01*
X611674Y1151826D01*
X610348Y1149841D01*
X609882Y1147500D01*
X610348Y1145159D01*
X611674Y1143174D01*
X613659Y1141848D01*
X616000Y1141383D01*
X618341Y1141848D01*
X620326Y1143174D01*
X621652Y1145159D01*
X622118Y1147500D01*
X621652Y1149841D01*
X620326Y1151826D01*
X618341Y1153152D01*
X616000Y1153618D01*
D02*
G37*
G36*
X432500Y1155118D02*
X430159Y1154652D01*
X428174Y1153326D01*
X426848Y1151341D01*
X426382Y1149000D01*
X426848Y1146659D01*
X428174Y1144674D01*
X430159Y1143348D01*
X432500Y1142883D01*
X434841Y1143348D01*
X436826Y1144674D01*
X438152Y1146659D01*
X438618Y1149000D01*
X438152Y1151341D01*
X436826Y1153326D01*
X434841Y1154652D01*
X432500Y1155118D01*
D02*
G37*
G36*
X571000Y1143618D02*
X568659Y1143152D01*
X566674Y1141826D01*
X565348Y1139841D01*
X564883Y1137500D01*
X565348Y1135159D01*
X566674Y1133174D01*
X568659Y1131848D01*
X571000Y1131383D01*
X573341Y1131848D01*
X575326Y1133174D01*
X576652Y1135159D01*
X577118Y1137500D01*
X576652Y1139841D01*
X575326Y1141826D01*
X573341Y1143152D01*
X571000Y1143618D01*
D02*
G37*
G36*
Y1123617D02*
X568659Y1123152D01*
X566674Y1121826D01*
X565348Y1119841D01*
X564883Y1117500D01*
X565348Y1115159D01*
X566674Y1113174D01*
X568659Y1111848D01*
X571000Y1111383D01*
X573341Y1111848D01*
X575326Y1113174D01*
X576652Y1115159D01*
X577118Y1117500D01*
X576652Y1119841D01*
X575326Y1121826D01*
X573341Y1123152D01*
X571000Y1123617D01*
D02*
G37*
G36*
X812500Y1122586D02*
X809890Y1122243D01*
X807457Y1121235D01*
X805368Y1119632D01*
X803765Y1117543D01*
X803074Y1115874D01*
X802341Y1115652D01*
X800000Y1116117D01*
X797659Y1115652D01*
X795674Y1114326D01*
X794348Y1112341D01*
X793883Y1110000D01*
X794348Y1107659D01*
X795674Y1105674D01*
X797659Y1104348D01*
X800000Y1103883D01*
X802341Y1104348D01*
X804326Y1105674D01*
X805113Y1105700D01*
X805368Y1105368D01*
X807457Y1103765D01*
X809890Y1102757D01*
X812500Y1102414D01*
X815110Y1102757D01*
X817543Y1103765D01*
X819632Y1105368D01*
X821235Y1107457D01*
X822243Y1109890D01*
X822586Y1112500D01*
X822243Y1115110D01*
X821235Y1117543D01*
X819632Y1119632D01*
X817543Y1121235D01*
X815110Y1122243D01*
X812500Y1122586D01*
D02*
G37*
G36*
X1137500Y958617D02*
X1135159Y958152D01*
X1133174Y956826D01*
X1131848Y954841D01*
X1131383Y952500D01*
X1131848Y950159D01*
X1133174Y948174D01*
X1135159Y946848D01*
X1137500Y946383D01*
X1139841Y946848D01*
X1141826Y948174D01*
X1143152Y950159D01*
X1143618Y952500D01*
X1143152Y954841D01*
X1141826Y956826D01*
X1139841Y958152D01*
X1137500Y958617D01*
D02*
G37*
G36*
X737500Y358618D02*
X735159Y358152D01*
X733174Y356826D01*
X731848Y354841D01*
X731383Y352500D01*
X731848Y350159D01*
X733174Y348174D01*
X735159Y346848D01*
X737500Y346382D01*
X739841Y346848D01*
X741826Y348174D01*
X743152Y350159D01*
X743617Y352500D01*
X743152Y354841D01*
X741826Y356826D01*
X739841Y358152D01*
X737500Y358618D01*
D02*
G37*
G36*
X1137500D02*
X1135159Y358152D01*
X1133174Y356826D01*
X1131848Y354841D01*
X1131383Y352500D01*
X1131848Y350159D01*
X1133174Y348174D01*
X1135159Y346848D01*
X1137500Y346382D01*
X1139841Y346848D01*
X1141826Y348174D01*
X1143152Y350159D01*
X1143618Y352500D01*
X1143152Y354841D01*
X1141826Y356826D01*
X1139841Y358152D01*
X1137500Y358618D01*
D02*
G37*
G36*
X1000000Y446118D02*
X997659Y445652D01*
X995674Y444326D01*
X994348Y442341D01*
X993883Y440000D01*
Y420000D01*
Y410000D01*
Y400000D01*
Y385000D01*
Y370000D01*
Y350000D01*
Y340000D01*
Y327500D01*
X994348Y325159D01*
X995674Y323174D01*
X997659Y321848D01*
X1000000Y321382D01*
X1002341Y321848D01*
X1004326Y323174D01*
X1005652Y325159D01*
X1006117Y327500D01*
Y340000D01*
Y350000D01*
Y370000D01*
Y385000D01*
Y400000D01*
Y410000D01*
Y420000D01*
Y440000D01*
X1005652Y442341D01*
X1004326Y444326D01*
X1002341Y445652D01*
X1000000Y446118D01*
D02*
G37*
G36*
X800000Y450086D02*
X797390Y449743D01*
X794957Y448735D01*
X792868Y447132D01*
X791265Y445043D01*
X790257Y442611D01*
X789914Y440000D01*
X790257Y437389D01*
X791265Y434957D01*
X792868Y432868D01*
X793883Y432090D01*
Y420000D01*
Y410000D01*
Y400000D01*
Y385000D01*
Y370000D01*
Y360411D01*
X792868Y359632D01*
X791265Y357543D01*
X790257Y355111D01*
X789914Y352500D01*
X790257Y349889D01*
X791265Y347457D01*
X792868Y345368D01*
X793883Y344590D01*
Y340000D01*
Y325000D01*
X793882Y325000D01*
X793883D01*
X794348Y322659D01*
X795674Y320674D01*
X797659Y319348D01*
X800000Y318883D01*
X802341Y319348D01*
X804326Y320674D01*
X805652Y322659D01*
X806117Y325000D01*
Y340000D01*
Y344590D01*
X807132Y345368D01*
X808735Y347457D01*
X809743Y349889D01*
X810086Y352500D01*
X809743Y355111D01*
X808735Y357543D01*
X807132Y359632D01*
X806117Y360411D01*
Y370000D01*
Y385000D01*
Y400000D01*
Y410000D01*
Y420000D01*
Y432090D01*
X807132Y432868D01*
X808735Y434957D01*
X809743Y437389D01*
X810086Y440000D01*
X809743Y442611D01*
X808735Y445043D01*
X807132Y447132D01*
X805043Y448735D01*
X802610Y449743D01*
X800000Y450086D01*
D02*
G37*
G36*
X600000Y446118D02*
X597659Y445652D01*
X595674Y444326D01*
X594348Y442341D01*
X593882Y440000D01*
Y430000D01*
Y420000D01*
Y410000D01*
Y400000D01*
Y385000D01*
Y370000D01*
Y352500D01*
Y340000D01*
Y327500D01*
X593882Y327500D01*
X593882D01*
X594348Y325159D01*
X595674Y323174D01*
X597659Y321848D01*
X600000Y321382D01*
X602341Y321848D01*
X604326Y323174D01*
X605652Y325159D01*
X606118Y327500D01*
Y340000D01*
Y352500D01*
Y370000D01*
Y385000D01*
Y400000D01*
Y410000D01*
Y420000D01*
Y430000D01*
Y440000D01*
X605652Y442341D01*
X604326Y444326D01*
X602341Y445652D01*
X600000Y446118D01*
D02*
G37*
G36*
X760000Y391118D02*
X757659Y390652D01*
X755674Y389326D01*
X754348Y387341D01*
X753883Y385000D01*
X754348Y382659D01*
X755674Y380674D01*
X757659Y379348D01*
X760000Y378882D01*
X762341Y379348D01*
X764326Y380674D01*
X765652Y382659D01*
X766117Y385000D01*
X765652Y387341D01*
X764326Y389326D01*
X762341Y390652D01*
X760000Y391118D01*
D02*
G37*
G36*
X462500Y453618D02*
X460159Y453152D01*
X458174Y451826D01*
X456848Y449841D01*
X456382Y447500D01*
X456848Y445159D01*
X458174Y443174D01*
X460159Y441848D01*
X462500Y441382D01*
X464841Y441848D01*
X466826Y443174D01*
X468152Y445159D01*
X468618Y447500D01*
X468152Y449841D01*
X466826Y451826D01*
X464841Y453152D01*
X462500Y453618D01*
D02*
G37*
G36*
X862500D02*
X860159Y453152D01*
X858174Y451826D01*
X856848Y449841D01*
X856383Y447500D01*
X856848Y445159D01*
X858174Y443174D01*
X860159Y441848D01*
X862500Y441382D01*
X864841Y441848D01*
X866826Y443174D01*
X868152Y445159D01*
X868617Y447500D01*
X868152Y449841D01*
X866826Y451826D01*
X864841Y453152D01*
X862500Y453618D01*
D02*
G37*
G36*
X840000Y421118D02*
X837659Y420652D01*
X835674Y419326D01*
X834348Y417341D01*
X833883Y415000D01*
X834348Y412659D01*
X835674Y410674D01*
X837659Y409348D01*
X840000Y408882D01*
X842341Y409348D01*
X844326Y410674D01*
X845652Y412659D01*
X846117Y415000D01*
X845652Y417341D01*
X844326Y419326D01*
X842341Y420652D01*
X840000Y421118D01*
D02*
G37*
G36*
X1160000Y391118D02*
X1157659Y390652D01*
X1155674Y389326D01*
X1154348Y387341D01*
X1153883Y385000D01*
X1154348Y382659D01*
X1155674Y380674D01*
X1157659Y379348D01*
X1160000Y378882D01*
X1162341Y379348D01*
X1164326Y380674D01*
X1165652Y382659D01*
X1166118Y385000D01*
X1165652Y387341D01*
X1164326Y389326D01*
X1162341Y390652D01*
X1160000Y391118D01*
D02*
G37*
G36*
X440000Y421118D02*
X437659Y420652D01*
X435674Y419326D01*
X434348Y417341D01*
X433882Y415000D01*
X434348Y412659D01*
X435674Y410674D01*
X437659Y409348D01*
X440000Y408882D01*
X442341Y409348D01*
X444326Y410674D01*
X445652Y412659D01*
X446118Y415000D01*
X445652Y417341D01*
X444326Y419326D01*
X442341Y420652D01*
X440000Y421118D01*
D02*
G37*
G36*
X987500Y318617D02*
X985159Y318152D01*
X983174Y316826D01*
X981848Y314841D01*
X981383Y312500D01*
X981848Y310159D01*
X983174Y308174D01*
X985159Y306848D01*
X987500Y306383D01*
X989841Y306848D01*
X991826Y308174D01*
X993152Y310159D01*
X993617Y312500D01*
X993152Y314841D01*
X991826Y316826D01*
X989841Y318152D01*
X987500Y318617D01*
D02*
G37*
G36*
X662500Y298617D02*
X660159Y298152D01*
X658174Y296826D01*
X656848Y294841D01*
X656383Y292500D01*
X656848Y290159D01*
X658174Y288174D01*
X660159Y286848D01*
X662500Y286383D01*
X664841Y286848D01*
X666826Y288174D01*
X668152Y290159D01*
X668617Y292500D01*
X668152Y294841D01*
X666826Y296826D01*
X664841Y298152D01*
X662500Y298617D01*
D02*
G37*
G36*
X727500D02*
X725159Y298152D01*
X723174Y296826D01*
X721848Y294841D01*
X721383Y292500D01*
X721848Y290159D01*
X723174Y288174D01*
X725159Y286848D01*
X727500Y286383D01*
X729841Y286848D01*
X731826Y288174D01*
X733152Y290159D01*
X733617Y292500D01*
X733152Y294841D01*
X731826Y296826D01*
X729841Y298152D01*
X727500Y298617D01*
D02*
G37*
G36*
X487500D02*
X485159Y298152D01*
X483174Y296826D01*
X481848Y294841D01*
X481382Y292500D01*
X481848Y290159D01*
X483174Y288174D01*
X485159Y286848D01*
X487500Y286383D01*
X489841Y286848D01*
X491826Y288174D01*
X493152Y290159D01*
X493618Y292500D01*
X493152Y294841D01*
X491826Y296826D01*
X489841Y298152D01*
X487500Y298617D01*
D02*
G37*
G36*
X535000Y286117D02*
X532659Y285652D01*
X530674Y284326D01*
X529348Y282341D01*
X528882Y280000D01*
X529348Y277659D01*
X530674Y275674D01*
X532659Y274348D01*
X535000Y273883D01*
X537341Y274348D01*
X539326Y275674D01*
X540652Y277659D01*
X541118Y280000D01*
X540652Y282341D01*
X539326Y284326D01*
X537341Y285652D01*
X535000Y286117D01*
D02*
G37*
G36*
X932500D02*
X930159Y285652D01*
X928174Y284326D01*
X926848Y282341D01*
X926382Y280000D01*
X926848Y277659D01*
X928174Y275674D01*
X930159Y274348D01*
X932500Y273883D01*
X934841Y274348D01*
X936826Y275674D01*
X938152Y277659D01*
X938617Y280000D01*
X938152Y282341D01*
X936826Y284326D01*
X934841Y285652D01*
X932500Y286117D01*
D02*
G37*
G36*
X887500Y298617D02*
X885159Y298152D01*
X883174Y296826D01*
X881848Y294841D01*
X881383Y292500D01*
X881848Y290159D01*
X883174Y288174D01*
X885159Y286848D01*
X887500Y286383D01*
X889841Y286848D01*
X891826Y288174D01*
X893152Y290159D01*
X893617Y292500D01*
X893152Y294841D01*
X891826Y296826D01*
X889841Y298152D01*
X887500Y298617D01*
D02*
G37*
G36*
X587500Y313617D02*
X585159Y313152D01*
X583174Y311826D01*
X581848Y309841D01*
X581382Y307500D01*
X581848Y305159D01*
X583174Y303174D01*
X585159Y301848D01*
X587500Y301383D01*
X589841Y301848D01*
X591826Y303174D01*
X593152Y305159D01*
X593618Y307500D01*
X593152Y309841D01*
X591826Y311826D01*
X589841Y313152D01*
X587500Y313617D01*
D02*
G37*
G36*
X922500Y318617D02*
X920159Y318152D01*
X918174Y316826D01*
X916848Y314841D01*
X916383Y312500D01*
X916848Y310159D01*
X918174Y308174D01*
X920159Y306848D01*
X922500Y306382D01*
X924841Y306848D01*
X926826Y308174D01*
X928152Y310159D01*
X928617Y312500D01*
X928152Y314841D01*
X926826Y316826D01*
X924841Y318152D01*
X922500Y318617D01*
D02*
G37*
G36*
X541500Y313617D02*
X539159Y313152D01*
X537174Y311826D01*
X535848Y309841D01*
X535382Y307500D01*
X535848Y305159D01*
X537174Y303174D01*
X539159Y301848D01*
X541500Y301383D01*
X543841Y301848D01*
X545826Y303174D01*
X547152Y305159D01*
X547617Y307500D01*
X547152Y309841D01*
X545826Y311826D01*
X543841Y313152D01*
X541500Y313617D01*
D02*
G37*
G36*
X1070000Y298617D02*
X1067659Y298152D01*
X1065674Y296826D01*
X1064348Y294841D01*
X1063883Y292500D01*
X1064348Y290159D01*
X1065674Y288174D01*
X1067659Y286848D01*
X1070000Y286383D01*
X1072341Y286848D01*
X1074326Y288174D01*
X1075652Y290159D01*
X1076117Y292500D01*
X1075652Y294841D01*
X1074326Y296826D01*
X1072341Y298152D01*
X1070000Y298617D01*
D02*
G37*
G36*
X1127500D02*
X1125159Y298152D01*
X1123174Y296826D01*
X1121848Y294841D01*
X1121383Y292500D01*
X1121848Y290159D01*
X1123174Y288174D01*
X1125159Y286848D01*
X1127500Y286383D01*
X1129841Y286848D01*
X1131826Y288174D01*
X1133152Y290159D01*
X1133617Y292500D01*
X1133152Y294841D01*
X1131826Y296826D01*
X1129841Y298152D01*
X1127500Y298617D01*
D02*
G37*
G36*
X800000Y850086D02*
X797390Y849743D01*
X794957Y848735D01*
X792868Y847132D01*
X791265Y845043D01*
X790257Y842610D01*
X789914Y840000D01*
X790257Y837390D01*
X791265Y834957D01*
X792868Y832868D01*
X793883Y832089D01*
Y820000D01*
Y805000D01*
Y790000D01*
Y775000D01*
Y760000D01*
X794348Y757659D01*
X795674Y755674D01*
X797659Y754348D01*
X800000Y753883D01*
X802341Y754348D01*
X804326Y755674D01*
X805652Y757659D01*
X806117Y760000D01*
X806118Y760000D01*
X806117Y760000D01*
Y760000D01*
Y775000D01*
Y790000D01*
Y805000D01*
Y820000D01*
Y832089D01*
X807132Y832868D01*
X808735Y834957D01*
X809743Y837390D01*
X810086Y840000D01*
X809743Y842610D01*
X808735Y845043D01*
X807132Y847132D01*
X805043Y848735D01*
X802610Y849743D01*
X800000Y850086D01*
D02*
G37*
G36*
X760000Y791117D02*
X757659Y790652D01*
X755674Y789326D01*
X754348Y787341D01*
X753883Y785000D01*
X754348Y782659D01*
X755674Y780674D01*
X757659Y779348D01*
X760000Y778882D01*
X762341Y779348D01*
X764326Y780674D01*
X765652Y782659D01*
X766117Y785000D01*
X765652Y787341D01*
X764326Y789326D01*
X762341Y790652D01*
X760000Y791117D01*
D02*
G37*
G36*
X600000Y846117D02*
X597659Y845652D01*
X595674Y844326D01*
X594348Y842341D01*
X593882Y840000D01*
Y820000D01*
Y805000D01*
Y790000D01*
Y775000D01*
Y760000D01*
X594348Y757659D01*
X595674Y755674D01*
X597659Y754348D01*
X600000Y753883D01*
X602341Y754348D01*
X604326Y755674D01*
X605652Y757659D01*
X606118Y760000D01*
Y775000D01*
Y790000D01*
Y805000D01*
Y820000D01*
Y840000D01*
X605652Y842341D01*
X604326Y844326D01*
X602341Y845652D01*
X600000Y846117D01*
D02*
G37*
G36*
X1137500Y758617D02*
X1135159Y758152D01*
X1133174Y756826D01*
X1131848Y754841D01*
X1131383Y752500D01*
X1131848Y750159D01*
X1133174Y748174D01*
X1135159Y746848D01*
X1137500Y746383D01*
X1139841Y746848D01*
X1141826Y748174D01*
X1143152Y750159D01*
X1143618Y752500D01*
X1143152Y754841D01*
X1141826Y756826D01*
X1139841Y758152D01*
X1137500Y758617D01*
D02*
G37*
G36*
X1000000Y851118D02*
X997659Y850652D01*
X995674Y849326D01*
X994348Y847341D01*
X993883Y845000D01*
Y827500D01*
Y810000D01*
Y795000D01*
Y780000D01*
Y755000D01*
X993882Y755000D01*
X993883D01*
X994348Y752659D01*
X995674Y750674D01*
X997659Y749348D01*
X1000000Y748882D01*
X1002341Y749348D01*
X1004326Y750674D01*
X1005652Y752659D01*
X1006117Y755000D01*
Y780000D01*
Y795000D01*
Y810000D01*
Y827500D01*
Y845000D01*
X1005652Y847341D01*
X1004326Y849326D01*
X1002341Y850652D01*
X1000000Y851118D01*
D02*
G37*
G36*
X1160000Y791117D02*
X1157659Y790652D01*
X1155674Y789326D01*
X1154348Y787341D01*
X1153883Y785000D01*
X1154348Y782659D01*
X1155674Y780674D01*
X1157659Y779348D01*
X1160000Y778882D01*
X1162341Y779348D01*
X1164326Y780674D01*
X1165652Y782659D01*
X1166118Y785000D01*
X1165652Y787341D01*
X1164326Y789326D01*
X1162341Y790652D01*
X1160000Y791117D01*
D02*
G37*
G36*
X862500Y853617D02*
X860159Y853152D01*
X858174Y851826D01*
X856848Y849841D01*
X856383Y847500D01*
X856848Y845159D01*
X858174Y843174D01*
X860159Y841848D01*
X862500Y841383D01*
X864841Y841848D01*
X866826Y843174D01*
X868152Y845159D01*
X868618Y847500D01*
X868152Y849841D01*
X866826Y851826D01*
X864841Y853152D01*
X862500Y853617D01*
D02*
G37*
G36*
X737500Y958617D02*
X735159Y958152D01*
X733174Y956826D01*
X731848Y954841D01*
X731383Y952500D01*
X731848Y950159D01*
X733174Y948174D01*
X735159Y946848D01*
X737500Y946383D01*
X739841Y946848D01*
X741826Y948174D01*
X743152Y950159D01*
X743617Y952500D01*
X743152Y954841D01*
X741826Y956826D01*
X739841Y958152D01*
X737500Y958617D01*
D02*
G37*
G36*
X462500Y853617D02*
X460159Y853152D01*
X458174Y851826D01*
X456848Y849841D01*
X456382Y847500D01*
X456848Y845159D01*
X458174Y843174D01*
X460159Y841848D01*
X462500Y841383D01*
X464841Y841848D01*
X466826Y843174D01*
X468152Y845159D01*
X468618Y847500D01*
X468152Y849841D01*
X466826Y851826D01*
X464841Y853152D01*
X462500Y853617D01*
D02*
G37*
G36*
X440000Y821118D02*
X437659Y820652D01*
X435674Y819326D01*
X434348Y817341D01*
X433882Y815000D01*
X434348Y812659D01*
X435674Y810674D01*
X437659Y809348D01*
X440000Y808883D01*
X442341Y809348D01*
X444326Y810674D01*
X445652Y812659D01*
X446118Y815000D01*
X445652Y817341D01*
X444326Y819326D01*
X442341Y820652D01*
X440000Y821118D01*
D02*
G37*
G36*
X840000D02*
X837659Y820652D01*
X835674Y819326D01*
X834348Y817341D01*
X833883Y815000D01*
X834348Y812659D01*
X835674Y810674D01*
X837659Y809348D01*
X840000Y808883D01*
X842341Y809348D01*
X844326Y810674D01*
X845652Y812659D01*
X846117Y815000D01*
X845652Y817341D01*
X844326Y819326D01*
X842341Y820652D01*
X840000Y821118D01*
D02*
G37*
G36*
X737500Y758617D02*
X735159Y758152D01*
X733174Y756826D01*
X731848Y754841D01*
X731383Y752500D01*
X731848Y750159D01*
X733174Y748174D01*
X735159Y746848D01*
X737500Y746383D01*
X739841Y746848D01*
X741826Y748174D01*
X743152Y750159D01*
X743617Y752500D01*
X743152Y754841D01*
X741826Y756826D01*
X739841Y758152D01*
X737500Y758617D01*
D02*
G37*
G36*
X600000Y650086D02*
X597389Y649743D01*
X594957Y648735D01*
X592868Y647132D01*
X591265Y645043D01*
X590257Y642610D01*
X589914Y640000D01*
X590257Y637389D01*
X591265Y634957D01*
X592868Y632868D01*
X593882Y632090D01*
Y625000D01*
Y610000D01*
Y597500D01*
Y585000D01*
Y572500D01*
Y560000D01*
X594348Y557659D01*
X595674Y555674D01*
X597659Y554348D01*
X600000Y553882D01*
X602341Y554348D01*
X604326Y555674D01*
X605652Y557659D01*
X606118Y560000D01*
Y572500D01*
Y585000D01*
Y597500D01*
Y610000D01*
Y625000D01*
Y632090D01*
X607132Y632868D01*
X608735Y634957D01*
X609743Y637389D01*
X610086Y640000D01*
X609743Y642610D01*
X608735Y645043D01*
X607132Y647132D01*
X605043Y648735D01*
X602611Y649743D01*
X600000Y650086D01*
D02*
G37*
G36*
X1000000Y652586D02*
X997390Y652243D01*
X994957Y651235D01*
X992868Y649632D01*
X991265Y647543D01*
X990257Y645110D01*
X989914Y642500D01*
X990257Y639889D01*
X991265Y637457D01*
X992868Y635368D01*
X993883Y634590D01*
Y622500D01*
Y610000D01*
Y590000D01*
Y570000D01*
X994348Y567659D01*
X995674Y565674D01*
X997659Y564348D01*
X1000000Y563882D01*
X1002341Y564348D01*
X1004326Y565674D01*
X1005652Y567659D01*
X1006117Y570000D01*
Y590000D01*
Y610000D01*
Y622500D01*
Y634590D01*
X1007132Y635368D01*
X1008735Y637457D01*
X1009743Y639889D01*
X1010086Y642500D01*
X1009743Y645110D01*
X1008735Y647543D01*
X1007132Y649632D01*
X1005043Y651235D01*
X1002610Y652243D01*
X1000000Y652586D01*
D02*
G37*
G36*
X800000Y650086D02*
X797390Y649743D01*
X794957Y648735D01*
X792868Y647132D01*
X791265Y645043D01*
X790257Y642610D01*
X789914Y640000D01*
X790257Y637389D01*
X791265Y634957D01*
X792868Y632868D01*
X793883Y632090D01*
Y625000D01*
Y600000D01*
Y590000D01*
Y580000D01*
Y567500D01*
Y555000D01*
X794348Y552659D01*
X795674Y550674D01*
X797659Y549348D01*
X800000Y548882D01*
X802341Y549348D01*
X804326Y550674D01*
X805652Y552659D01*
X806117Y555000D01*
Y567500D01*
Y580000D01*
Y590000D01*
Y600000D01*
Y625000D01*
Y632090D01*
X807132Y632868D01*
X808735Y634957D01*
X809743Y637389D01*
X810086Y640000D01*
X809743Y642610D01*
X808735Y645043D01*
X807132Y647132D01*
X805043Y648735D01*
X802610Y649743D01*
X800000Y650086D01*
D02*
G37*
G36*
X737500Y558618D02*
X735159Y558152D01*
X733174Y556826D01*
X731848Y554841D01*
X731383Y552500D01*
X731848Y550159D01*
X733174Y548174D01*
X735159Y546848D01*
X737500Y546382D01*
X739841Y546848D01*
X741826Y548174D01*
X743152Y550159D01*
X743617Y552500D01*
X743152Y554841D01*
X741826Y556826D01*
X739841Y558152D01*
X737500Y558618D01*
D02*
G37*
G36*
X1137500D02*
X1135159Y558152D01*
X1133174Y556826D01*
X1131848Y554841D01*
X1131383Y552500D01*
X1131848Y550159D01*
X1133174Y548174D01*
X1135159Y546848D01*
X1137500Y546382D01*
X1139841Y546848D01*
X1141826Y548174D01*
X1143152Y550159D01*
X1143618Y552500D01*
X1143152Y554841D01*
X1141826Y556826D01*
X1139841Y558152D01*
X1137500Y558618D01*
D02*
G37*
G36*
X760000Y591118D02*
X757659Y590652D01*
X755674Y589326D01*
X754348Y587341D01*
X753883Y585000D01*
X754348Y582659D01*
X755674Y580674D01*
X757659Y579348D01*
X760000Y578882D01*
X762341Y579348D01*
X764326Y580674D01*
X765652Y582659D01*
X766117Y585000D01*
X765652Y587341D01*
X764326Y589326D01*
X762341Y590652D01*
X760000Y591118D01*
D02*
G37*
G36*
X462500Y653617D02*
X460159Y653152D01*
X458174Y651826D01*
X456848Y649841D01*
X456382Y647500D01*
X456848Y645159D01*
X458174Y643174D01*
X460159Y641848D01*
X462500Y641383D01*
X464841Y641848D01*
X466826Y643174D01*
X468152Y645159D01*
X468618Y647500D01*
X468152Y649841D01*
X466826Y651826D01*
X464841Y653152D01*
X462500Y653617D01*
D02*
G37*
G36*
X862500D02*
X860159Y653152D01*
X858174Y651826D01*
X856848Y649841D01*
X856383Y647500D01*
X856848Y645159D01*
X858174Y643174D01*
X860159Y641848D01*
X862500Y641383D01*
X864841Y641848D01*
X866826Y643174D01*
X868152Y645159D01*
X868618Y647500D01*
X868152Y649841D01*
X866826Y651826D01*
X864841Y653152D01*
X862500Y653617D01*
D02*
G37*
G36*
X840000Y621118D02*
X837659Y620652D01*
X835674Y619326D01*
X834348Y617341D01*
X833883Y615000D01*
X834348Y612659D01*
X835674Y610674D01*
X837659Y609348D01*
X840000Y608882D01*
X842341Y609348D01*
X844326Y610674D01*
X845652Y612659D01*
X846117Y615000D01*
X845652Y617341D01*
X844326Y619326D01*
X842341Y620652D01*
X840000Y621118D01*
D02*
G37*
G36*
X1160000Y591118D02*
X1157659Y590652D01*
X1155674Y589326D01*
X1154348Y587341D01*
X1153883Y585000D01*
X1154348Y582659D01*
X1155674Y580674D01*
X1157659Y579348D01*
X1160000Y578882D01*
X1162341Y579348D01*
X1164326Y580674D01*
X1165652Y582659D01*
X1166118Y585000D01*
X1165652Y587341D01*
X1164326Y589326D01*
X1162341Y590652D01*
X1160000Y591118D01*
D02*
G37*
G36*
X440000Y621118D02*
X437659Y620652D01*
X435674Y619326D01*
X434348Y617341D01*
X433882Y615000D01*
X434348Y612659D01*
X435674Y610674D01*
X437659Y609348D01*
X440000Y608882D01*
X442341Y609348D01*
X444326Y610674D01*
X445652Y612659D01*
X446118Y615000D01*
X445652Y617341D01*
X444326Y619326D01*
X442341Y620652D01*
X440000Y621118D01*
D02*
G37*
G36*
X571000Y1183617D02*
X568659Y1183152D01*
X566674Y1181826D01*
X565348Y1179841D01*
X564883Y1177500D01*
X565348Y1175159D01*
X566674Y1173174D01*
X568659Y1171848D01*
X571000Y1171383D01*
X573341Y1171848D01*
X575326Y1173174D01*
X576652Y1175159D01*
X577118Y1177500D01*
X576652Y1179841D01*
X575326Y1181826D01*
X573341Y1183152D01*
X571000Y1183617D01*
D02*
G37*
G36*
X1200000Y1359556D02*
X1198303Y1359333D01*
X1196722Y1358678D01*
X1195364Y1357636D01*
X1194322Y1356278D01*
X1193667Y1354697D01*
X1193444Y1353000D01*
X1193667Y1351303D01*
X1194322Y1349722D01*
X1195364Y1348364D01*
X1196722Y1347322D01*
X1198303Y1346667D01*
X1200000Y1346444D01*
X1201697Y1346667D01*
X1203278Y1347322D01*
X1204636Y1348364D01*
X1205678Y1349722D01*
X1206333Y1351303D01*
X1206556Y1353000D01*
X1206333Y1354697D01*
X1205678Y1356278D01*
X1204636Y1357636D01*
X1203278Y1358678D01*
X1201697Y1359333D01*
X1200000Y1359556D01*
D02*
G37*
G36*
X616000Y1361118D02*
X613659Y1360652D01*
X611674Y1359326D01*
X610348Y1357341D01*
X609882Y1355000D01*
X610348Y1352659D01*
X611674Y1350674D01*
X613659Y1349348D01*
X616000Y1348882D01*
X618341Y1349348D01*
X620326Y1350674D01*
X621652Y1352659D01*
X622118Y1355000D01*
X621652Y1357341D01*
X620326Y1359326D01*
X618341Y1360652D01*
X616000Y1361118D01*
D02*
G37*
G36*
X1069727Y1385845D02*
X1067386Y1385379D01*
X1065401Y1384053D01*
X1064075Y1382068D01*
X1063609Y1379727D01*
X1064075Y1377386D01*
X1065401Y1375401D01*
X1065426Y1375385D01*
X1065674Y1374139D01*
X1064422Y1372267D01*
X1063957Y1369926D01*
X1064422Y1367585D01*
X1065749Y1365600D01*
Y1364375D01*
X1065674Y1364326D01*
X1064348Y1362341D01*
X1063883Y1360000D01*
X1064190Y1358456D01*
X1062659Y1358152D01*
X1060674Y1356826D01*
X1059348Y1354841D01*
X1058883Y1352500D01*
X1059348Y1350159D01*
X1060674Y1348174D01*
X1062659Y1346848D01*
X1065000Y1346382D01*
X1067341Y1346848D01*
X1069326Y1348174D01*
X1070652Y1350159D01*
X1071117Y1352500D01*
X1070810Y1354044D01*
X1072341Y1354348D01*
X1074326Y1355674D01*
X1075652Y1357659D01*
X1076117Y1360000D01*
X1075652Y1362341D01*
X1074326Y1364326D01*
Y1365550D01*
X1074400Y1365600D01*
X1075726Y1367585D01*
X1076192Y1369926D01*
X1075726Y1372267D01*
X1074400Y1374252D01*
X1074376Y1374268D01*
X1074128Y1375513D01*
X1075379Y1377386D01*
X1075845Y1379727D01*
X1075379Y1382068D01*
X1074053Y1384053D01*
X1072068Y1385379D01*
X1069727Y1385845D01*
D02*
G37*
G36*
X612500Y1342618D02*
X610159Y1342152D01*
X608174Y1340826D01*
X606848Y1338841D01*
X606382Y1336500D01*
X606848Y1334159D01*
X608174Y1332174D01*
X610159Y1330848D01*
X612500Y1330383D01*
X614841Y1330848D01*
X616826Y1332174D01*
X618152Y1334159D01*
X618618Y1336500D01*
X618152Y1338841D01*
X616826Y1340826D01*
X614841Y1342152D01*
X612500Y1342618D01*
D02*
G37*
G36*
X632500D02*
X630159Y1342152D01*
X628174Y1340826D01*
X626848Y1338841D01*
X626382Y1336500D01*
X626848Y1334159D01*
X628174Y1332174D01*
X630159Y1330848D01*
X632500Y1330383D01*
X634841Y1330848D01*
X636826Y1332174D01*
X638152Y1334159D01*
X638618Y1336500D01*
X638152Y1338841D01*
X636826Y1340826D01*
X634841Y1342152D01*
X632500Y1342618D01*
D02*
G37*
G36*
X594000Y1366118D02*
X591659Y1365652D01*
X589674Y1364326D01*
X588348Y1362341D01*
X587882Y1360000D01*
X588348Y1357659D01*
X589674Y1355674D01*
X591659Y1354348D01*
X594000Y1353882D01*
X596341Y1354348D01*
X598326Y1355674D01*
X599652Y1357659D01*
X600117Y1360000D01*
X599652Y1362341D01*
X598326Y1364326D01*
X596341Y1365652D01*
X594000Y1366118D01*
D02*
G37*
G36*
X1071250Y1403618D02*
X1068909Y1403152D01*
X1066924Y1401826D01*
X1065598Y1399841D01*
X1065133Y1397500D01*
X1065598Y1395159D01*
X1066924Y1393174D01*
X1068909Y1391848D01*
X1070989Y1391434D01*
X1070882Y1390898D01*
X1071348Y1388557D01*
X1072674Y1386572D01*
X1074659Y1385246D01*
X1077000Y1384781D01*
X1079341Y1385246D01*
X1081326Y1386572D01*
X1082652Y1388557D01*
X1083118Y1390898D01*
X1082652Y1393239D01*
X1081326Y1395224D01*
X1079341Y1396550D01*
X1077797Y1396857D01*
X1077367Y1397500D01*
X1076902Y1399841D01*
X1075576Y1401826D01*
X1073591Y1403152D01*
X1071250Y1403618D01*
D02*
G37*
G36*
X1032500Y1396118D02*
X1030159Y1395652D01*
X1028174Y1394326D01*
X1026848Y1392341D01*
X1026383Y1390000D01*
X1026503Y1389395D01*
X1025605Y1388497D01*
X1025000Y1388618D01*
X1022659Y1388152D01*
X1020674Y1386826D01*
X1019348Y1384841D01*
X1018883Y1382500D01*
X1019348Y1380159D01*
X1020674Y1378174D01*
X1022659Y1376848D01*
X1025000Y1376382D01*
X1027341Y1376848D01*
X1029326Y1378174D01*
X1030652Y1380159D01*
X1031117Y1382500D01*
X1030997Y1383105D01*
X1031895Y1384003D01*
X1032500Y1383882D01*
X1034841Y1384348D01*
X1036826Y1385674D01*
X1038152Y1387659D01*
X1038617Y1390000D01*
X1038152Y1392341D01*
X1036826Y1394326D01*
X1034841Y1395652D01*
X1032500Y1396118D01*
D02*
G37*
G36*
X1050000Y1398618D02*
X1047659Y1398152D01*
X1045674Y1396826D01*
X1044348Y1394841D01*
X1043883Y1392500D01*
X1044348Y1390159D01*
X1045674Y1388174D01*
X1047659Y1386848D01*
X1050000Y1386382D01*
X1052341Y1386848D01*
X1053356Y1387527D01*
X1054602Y1387279D01*
X1055674Y1385674D01*
X1057659Y1384348D01*
X1060000Y1383882D01*
X1062341Y1384348D01*
X1064326Y1385674D01*
X1065652Y1387659D01*
X1066117Y1390000D01*
X1065652Y1392341D01*
X1064326Y1394326D01*
X1062341Y1395652D01*
X1060000Y1396118D01*
X1057659Y1395652D01*
X1056644Y1394973D01*
X1055398Y1395221D01*
X1054326Y1396826D01*
X1052341Y1398152D01*
X1050000Y1398618D01*
D02*
G37*
G36*
X857500Y1395086D02*
X854890Y1394743D01*
X852457Y1393735D01*
X850368Y1392132D01*
X848765Y1390043D01*
X847757Y1387610D01*
X847414Y1385000D01*
X847757Y1382390D01*
X848765Y1379957D01*
X850368Y1377868D01*
X852078Y1376555D01*
X851670Y1375353D01*
X828500D01*
X826452Y1374945D01*
X824715Y1373785D01*
X816687Y1365757D01*
X816159Y1365652D01*
X814174Y1364326D01*
X812848Y1362341D01*
X812382Y1360000D01*
X812848Y1357659D01*
X814174Y1355674D01*
X816159Y1354348D01*
X818500Y1353882D01*
X820841Y1354348D01*
X822826Y1355674D01*
X824152Y1357659D01*
X824257Y1358187D01*
X830717Y1364647D01*
X860783D01*
X867243Y1358187D01*
X867348Y1357659D01*
X868674Y1355674D01*
X870659Y1354348D01*
X873000Y1353882D01*
X875341Y1354348D01*
X877326Y1355674D01*
X878652Y1357659D01*
X879118Y1360000D01*
X878652Y1362341D01*
X877326Y1364326D01*
X875341Y1365652D01*
X874813Y1365757D01*
X866785Y1373785D01*
X865048Y1374945D01*
X863202Y1375313D01*
X863000Y1376180D01*
X863000Y1376616D01*
X864632Y1377868D01*
X866235Y1379957D01*
X867243Y1382390D01*
X867586Y1385000D01*
X867243Y1387610D01*
X866235Y1390043D01*
X864632Y1392132D01*
X862543Y1393735D01*
X860110Y1394743D01*
X857500Y1395086D01*
D02*
G37*
G36*
X616000Y1383618D02*
X613659Y1383152D01*
X611674Y1381826D01*
X610348Y1379841D01*
X609882Y1377500D01*
X610348Y1375159D01*
X611674Y1373174D01*
X613659Y1371848D01*
X616000Y1371382D01*
X618341Y1371848D01*
X620326Y1373174D01*
X621652Y1375159D01*
X622118Y1377500D01*
X621652Y1379841D01*
X620326Y1381826D01*
X618341Y1383152D01*
X616000Y1383618D01*
D02*
G37*
G36*
X592500Y1342618D02*
X590159Y1342152D01*
X588174Y1340826D01*
X586848Y1338841D01*
X586382Y1336500D01*
X586848Y1334159D01*
X588174Y1332174D01*
X590159Y1330848D01*
X592500Y1330383D01*
X594841Y1330848D01*
X596826Y1332174D01*
X598152Y1334159D01*
X598618Y1336500D01*
X598152Y1338841D01*
X596826Y1340826D01*
X594841Y1342152D01*
X592500Y1342618D01*
D02*
G37*
G36*
X547500Y1307117D02*
X545159Y1306652D01*
X543174Y1305326D01*
X541848Y1303341D01*
X541382Y1301000D01*
X541848Y1298659D01*
X543174Y1296674D01*
X545159Y1295348D01*
X547500Y1294882D01*
X549841Y1295348D01*
X551826Y1296674D01*
X553152Y1298659D01*
X553618Y1301000D01*
X553152Y1303341D01*
X551826Y1305326D01*
X549841Y1306652D01*
X547500Y1307117D01*
D02*
G37*
G36*
X567500D02*
X565159Y1306652D01*
X563174Y1305326D01*
X561848Y1303341D01*
X561382Y1301000D01*
X561848Y1298659D01*
X563174Y1296674D01*
X565159Y1295348D01*
X567500Y1294882D01*
X569841Y1295348D01*
X571826Y1296674D01*
X573152Y1298659D01*
X573618Y1301000D01*
X573152Y1303341D01*
X571826Y1305326D01*
X569841Y1306652D01*
X567500Y1307117D01*
D02*
G37*
G36*
X507500D02*
X505159Y1306652D01*
X503174Y1305326D01*
X501848Y1303341D01*
X501382Y1301000D01*
X501848Y1298659D01*
X503174Y1296674D01*
X505159Y1295348D01*
X507500Y1294882D01*
X509841Y1295348D01*
X511826Y1296674D01*
X513152Y1298659D01*
X513618Y1301000D01*
X513152Y1303341D01*
X511826Y1305326D01*
X509841Y1306652D01*
X507500Y1307117D01*
D02*
G37*
G36*
X467500D02*
X465159Y1306652D01*
X463174Y1305326D01*
X461848Y1303341D01*
X461382Y1301000D01*
X461848Y1298659D01*
X463174Y1296674D01*
X465159Y1295348D01*
X467500Y1294882D01*
X469841Y1295348D01*
X471826Y1296674D01*
X473152Y1298659D01*
X473618Y1301000D01*
X473152Y1303341D01*
X471826Y1305326D01*
X469841Y1306652D01*
X467500Y1307117D01*
D02*
G37*
G36*
X487500D02*
X485159Y1306652D01*
X483174Y1305326D01*
X481848Y1303341D01*
X481382Y1301000D01*
X481848Y1298659D01*
X483174Y1296674D01*
X485159Y1295348D01*
X487500Y1294882D01*
X489841Y1295348D01*
X491826Y1296674D01*
X493152Y1298659D01*
X493618Y1301000D01*
X493152Y1303341D01*
X491826Y1305326D01*
X489841Y1306652D01*
X487500Y1307117D01*
D02*
G37*
G36*
X754000Y1308618D02*
X751659Y1308152D01*
X749674Y1306826D01*
X748348Y1304841D01*
X747883Y1302500D01*
X748348Y1300159D01*
X749674Y1298174D01*
X751659Y1296848D01*
X754000Y1296382D01*
X756341Y1296848D01*
X758326Y1298174D01*
X759652Y1300159D01*
X760117Y1302500D01*
X759652Y1304841D01*
X758326Y1306826D01*
X756341Y1308152D01*
X754000Y1308618D01*
D02*
G37*
G36*
X754000Y1328618D02*
X751659Y1328152D01*
X749674Y1326826D01*
X748348Y1324841D01*
X747883Y1322500D01*
X748348Y1320159D01*
X749674Y1318174D01*
X751659Y1316848D01*
X754000Y1316382D01*
X756341Y1316848D01*
X758326Y1318174D01*
X759652Y1320159D01*
X760118Y1322500D01*
X759652Y1324841D01*
X758326Y1326826D01*
X756341Y1328152D01*
X754000Y1328618D01*
D02*
G37*
G36*
X575000Y1345086D02*
X572389Y1344743D01*
X569957Y1343735D01*
X567868Y1342132D01*
X566265Y1340043D01*
X565257Y1337610D01*
X564914Y1335000D01*
X565257Y1332390D01*
X566265Y1329957D01*
X567868Y1327868D01*
X569957Y1326265D01*
X572389Y1325257D01*
X575000Y1324914D01*
X577611Y1325257D01*
X580043Y1326265D01*
X582132Y1327868D01*
X583735Y1329957D01*
X584743Y1332390D01*
X585086Y1335000D01*
X584743Y1337610D01*
X583735Y1340043D01*
X582132Y1342132D01*
X580043Y1343735D01*
X577611Y1344743D01*
X575000Y1345086D01*
D02*
G37*
G36*
X792500Y1319118D02*
X790159Y1318652D01*
X788174Y1317326D01*
X786848Y1315341D01*
X786383Y1313000D01*
X786848Y1310659D01*
X788174Y1308674D01*
X790159Y1307348D01*
X792500Y1306882D01*
X794841Y1307348D01*
X796826Y1308674D01*
X798152Y1310659D01*
X798618Y1313000D01*
X798152Y1315341D01*
X796826Y1317326D01*
X794841Y1318652D01*
X792500Y1319118D01*
D02*
G37*
G36*
X1200000Y1315556D02*
X1198303Y1315333D01*
X1196722Y1314678D01*
X1195364Y1313636D01*
X1194322Y1312278D01*
X1193667Y1310697D01*
X1193444Y1309000D01*
X1193667Y1307303D01*
X1194322Y1305722D01*
X1195364Y1304364D01*
X1196722Y1303322D01*
X1198303Y1302667D01*
X1200000Y1302444D01*
X1201697Y1302667D01*
X1203278Y1303322D01*
X1204636Y1304364D01*
X1205678Y1305722D01*
X1206333Y1307303D01*
X1206556Y1309000D01*
X1206333Y1310697D01*
X1205678Y1312278D01*
X1204636Y1313636D01*
X1203278Y1314678D01*
X1201697Y1315333D01*
X1200000Y1315556D01*
D02*
G37*
G36*
X772500Y1319118D02*
X770159Y1318652D01*
X768174Y1317326D01*
X766848Y1315341D01*
X766383Y1313000D01*
X766848Y1310659D01*
X768174Y1308674D01*
X770159Y1307348D01*
X772500Y1306882D01*
X774841Y1307348D01*
X776826Y1308674D01*
X778152Y1310659D01*
X778617Y1313000D01*
X778152Y1315341D01*
X776826Y1317326D01*
X774841Y1318652D01*
X772500Y1319118D01*
D02*
G37*
G36*
X594000Y1406118D02*
X591659Y1405652D01*
X589674Y1404326D01*
X588348Y1402341D01*
X587882Y1400000D01*
X588348Y1397659D01*
X589674Y1395674D01*
X591659Y1394348D01*
X594000Y1393882D01*
X596341Y1394348D01*
X598326Y1395674D01*
X599652Y1397659D01*
X600117Y1400000D01*
X599652Y1402341D01*
X598326Y1404326D01*
X596341Y1405652D01*
X594000Y1406118D01*
D02*
G37*
G36*
X510000Y1497082D02*
X506667Y1496754D01*
X503463Y1495782D01*
X500510Y1494203D01*
X499180Y1493112D01*
X470820D01*
X469490Y1494203D01*
X466537Y1495782D01*
X463333Y1496754D01*
X460000Y1497082D01*
X456667Y1496754D01*
X453463Y1495782D01*
X450510Y1494203D01*
X447921Y1492079D01*
X445797Y1489490D01*
X444218Y1486537D01*
X443967Y1485711D01*
X433157Y1474900D01*
X432200Y1474994D01*
X428377Y1474618D01*
X424702Y1473503D01*
X421314Y1471692D01*
X418345Y1469255D01*
X415908Y1466286D01*
X414097Y1462898D01*
X412982Y1459223D01*
X412606Y1455400D01*
X412982Y1451577D01*
X414097Y1447902D01*
X415908Y1444514D01*
X418345Y1441545D01*
X421314Y1439108D01*
X424702Y1437297D01*
X428377Y1436182D01*
X432200Y1435806D01*
X436023Y1436182D01*
X439698Y1437297D01*
X443086Y1439108D01*
X446055Y1441545D01*
X448492Y1444514D01*
X450303Y1447902D01*
X451418Y1451577D01*
X451794Y1455400D01*
X451700Y1456357D01*
X458417Y1463074D01*
X460000Y1462918D01*
X463333Y1463246D01*
X466537Y1464218D01*
X469490Y1465797D01*
X470820Y1466888D01*
X499180D01*
X500510Y1465797D01*
X503463Y1464218D01*
X506667Y1463246D01*
X510000Y1462918D01*
X513333Y1463246D01*
X516537Y1464218D01*
X519490Y1465797D01*
X522079Y1467921D01*
X524203Y1470510D01*
X525782Y1473463D01*
X526754Y1476667D01*
X527082Y1480000D01*
X526754Y1483333D01*
X525782Y1486537D01*
X524203Y1489490D01*
X522079Y1492079D01*
X519490Y1494203D01*
X516537Y1495782D01*
X513333Y1496754D01*
X510000Y1497082D01*
D02*
G37*
G36*
X935000Y1521347D02*
X932063Y1520960D01*
X929326Y1519827D01*
X926976Y1518024D01*
X925173Y1515674D01*
X924040Y1512937D01*
X923653Y1510000D01*
X923967Y1507618D01*
X910674Y1494326D01*
X909348Y1492341D01*
X908883Y1490000D01*
Y1452000D01*
X908882Y1452000D01*
X908883D01*
X909348Y1449659D01*
X910674Y1447674D01*
X912659Y1446348D01*
X915000Y1445883D01*
X917341Y1446348D01*
X919326Y1447674D01*
X920652Y1449659D01*
X921117Y1452000D01*
Y1487466D01*
X923471Y1489820D01*
X924527Y1489114D01*
X924040Y1487937D01*
X923653Y1485000D01*
X924040Y1482063D01*
X925173Y1479326D01*
X926976Y1476976D01*
X929326Y1475173D01*
X932063Y1474040D01*
X935000Y1473653D01*
X937937Y1474040D01*
X940674Y1475173D01*
X943024Y1476976D01*
X944827Y1479326D01*
X945960Y1482063D01*
X946347Y1485000D01*
X945960Y1487937D01*
X944827Y1490674D01*
X943024Y1493024D01*
X940674Y1494827D01*
X937937Y1495960D01*
X935000Y1496347D01*
X932063Y1495960D01*
X930886Y1495473D01*
X930180Y1496529D01*
X932618Y1498967D01*
X935000Y1498653D01*
X937937Y1499040D01*
X940674Y1500173D01*
X943024Y1501976D01*
X944827Y1504326D01*
X945960Y1507063D01*
X946347Y1510000D01*
X945960Y1512937D01*
X944827Y1515674D01*
X943024Y1518024D01*
X940674Y1519827D01*
X937937Y1520960D01*
X935000Y1521347D01*
D02*
G37*
G36*
X683000Y1496118D02*
X680659Y1495652D01*
X679067Y1494588D01*
X676500D01*
X674744Y1494239D01*
X673256Y1493244D01*
X672640Y1492629D01*
X671376Y1492753D01*
X670326Y1494326D01*
X668341Y1495652D01*
X666000Y1496118D01*
X663659Y1495652D01*
X661674Y1494326D01*
X660348Y1492341D01*
X659882Y1490000D01*
X660298Y1487909D01*
X659178Y1487310D01*
X654244Y1492244D01*
X652756Y1493239D01*
X651000Y1493588D01*
X609000D01*
X607244Y1493239D01*
X605756Y1492244D01*
X575756Y1462244D01*
X574761Y1460756D01*
X574412Y1459000D01*
Y1423401D01*
X561756Y1410744D01*
X554464Y1403452D01*
X550184D01*
X548592Y1404516D01*
X546251Y1404982D01*
X543910Y1404516D01*
X541925Y1403190D01*
X540599Y1401205D01*
X540133Y1398864D01*
X540419Y1397429D01*
X539613Y1396447D01*
X536114D01*
X534982Y1396222D01*
X534250Y1396367D01*
X531909Y1395902D01*
X529924Y1394576D01*
X528598Y1392591D01*
X528133Y1390250D01*
X528598Y1387909D01*
X529924Y1385924D01*
X531909Y1384598D01*
X531996Y1384581D01*
X532364Y1383366D01*
X526506Y1377508D01*
X525512Y1376019D01*
X525163Y1374263D01*
Y1365684D01*
X524099Y1364092D01*
X523633Y1361751D01*
X524099Y1359410D01*
X525425Y1357425D01*
X527410Y1356099D01*
X529751Y1355633D01*
X532092Y1356099D01*
X534076Y1357425D01*
X535403Y1359410D01*
X535868Y1361751D01*
X535403Y1364092D01*
X534339Y1365684D01*
Y1372363D01*
X544252Y1382276D01*
X559364D01*
X561120Y1382625D01*
X562608Y1383620D01*
X593994Y1415006D01*
X594989Y1416494D01*
X595338Y1418250D01*
X595338Y1418250D01*
Y1418250D01*
Y1418250D01*
X595338D01*
X595338D01*
Y1419183D01*
D01*
X596534Y1419611D01*
X597921Y1417921D01*
X600510Y1415797D01*
X603463Y1414218D01*
X606667Y1413246D01*
X610000Y1412918D01*
X613333Y1413246D01*
X616537Y1414218D01*
X619490Y1415797D01*
X622079Y1417921D01*
X624203Y1420510D01*
X625782Y1423463D01*
X626754Y1426667D01*
X626923Y1428379D01*
X634443Y1435900D01*
X635400Y1435806D01*
X639223Y1436182D01*
X642898Y1437297D01*
X646286Y1439108D01*
X649255Y1441545D01*
X651692Y1444514D01*
X652424Y1445883D01*
X875000D01*
X877341Y1446348D01*
X879326Y1447674D01*
X880652Y1449659D01*
X881765Y1449996D01*
X920412Y1411349D01*
Y1382500D01*
X920761Y1380744D01*
X921756Y1379256D01*
X926756Y1374256D01*
X926756D01*
X926756Y1374256D01*
X926756D01*
X926756Y1374256D01*
Y1374256D01*
X926756Y1374256D01*
Y1374256D01*
X928244Y1373261D01*
X930000Y1372912D01*
X940000D01*
X941756Y1373261D01*
X943244Y1374256D01*
X953244Y1384256D01*
X954239Y1385744D01*
X954588Y1387500D01*
Y1389567D01*
X955652Y1391159D01*
X956117Y1393500D01*
X955652Y1395841D01*
X954326Y1397826D01*
X952341Y1399152D01*
X950000Y1399617D01*
X947659Y1399152D01*
X945674Y1397826D01*
X944348Y1395841D01*
X943883Y1393500D01*
X944348Y1391159D01*
X945412Y1389567D01*
Y1389400D01*
X939570Y1383559D01*
X938450Y1384157D01*
X938617Y1385000D01*
X938152Y1387341D01*
X936833Y1389315D01*
Y1413175D01*
X936503Y1414833D01*
X936127Y1415396D01*
X935564Y1416239D01*
X883739Y1468064D01*
X883560Y1468183D01*
X883436Y1469447D01*
X890463Y1476475D01*
X892341Y1476848D01*
X894326Y1478174D01*
X895652Y1480159D01*
X896117Y1482500D01*
X895652Y1484841D01*
X894326Y1486826D01*
X892341Y1488152D01*
X890000Y1488618D01*
X887659Y1488152D01*
X885674Y1486826D01*
X884348Y1484841D01*
X883975Y1482963D01*
X876600Y1475588D01*
X670900D01*
X669739Y1476750D01*
X678400Y1485412D01*
X679067D01*
X680659Y1484348D01*
X683000Y1483882D01*
X685341Y1484348D01*
X687326Y1485674D01*
X688652Y1487659D01*
X689118Y1490000D01*
X688652Y1492341D01*
X687326Y1494326D01*
X685341Y1495652D01*
X683000Y1496118D01*
D02*
G37*
G36*
X560000Y1497082D02*
X556667Y1496754D01*
X553463Y1495782D01*
X550510Y1494203D01*
X547921Y1492079D01*
X545797Y1489490D01*
X544218Y1486537D01*
X543246Y1483333D01*
X542918Y1480000D01*
X543246Y1476667D01*
X544218Y1473463D01*
X545797Y1470510D01*
X547921Y1467921D01*
X550510Y1465797D01*
X553463Y1464218D01*
X556667Y1463246D01*
X560000Y1462918D01*
X563333Y1463246D01*
X566537Y1464218D01*
X569490Y1465797D01*
X572079Y1467921D01*
X574203Y1470510D01*
X575782Y1473463D01*
X576754Y1476667D01*
X577082Y1480000D01*
X576754Y1483333D01*
X575782Y1486537D01*
X574203Y1489490D01*
X572079Y1492079D01*
X569490Y1494203D01*
X566537Y1495782D01*
X563333Y1496754D01*
X560000Y1497082D01*
D02*
G37*
G36*
X1182500Y1488618D02*
X1180159Y1488152D01*
X1178174Y1486826D01*
X1176848Y1484841D01*
X1176383Y1482500D01*
X1176848Y1480159D01*
X1178174Y1478174D01*
X1180159Y1476848D01*
X1182500Y1476382D01*
X1184841Y1476848D01*
X1186826Y1478174D01*
X1188152Y1480159D01*
X1188617Y1482500D01*
X1188152Y1484841D01*
X1186826Y1486826D01*
X1184841Y1488152D01*
X1182500Y1488618D01*
D02*
G37*
G36*
X1110000Y1539121D02*
X1106345Y1538640D01*
X1102940Y1537229D01*
X1100015Y1534985D01*
X1097771Y1532060D01*
X1096360Y1528655D01*
X1095879Y1525000D01*
X1096360Y1521345D01*
X1097771Y1517940D01*
X1100015Y1515015D01*
X1102940Y1512771D01*
X1106345Y1511360D01*
X1110000Y1510879D01*
X1113655Y1511360D01*
X1117060Y1512771D01*
X1119985Y1515015D01*
X1122229Y1517940D01*
X1123640Y1521345D01*
X1124121Y1525000D01*
X1123640Y1528655D01*
X1122229Y1532060D01*
X1119985Y1534985D01*
X1117060Y1537229D01*
X1113655Y1538640D01*
X1110000Y1539121D01*
D02*
G37*
G36*
X1020000Y1556347D02*
X1017063Y1555960D01*
X1014326Y1554827D01*
X1011976Y1553024D01*
X1010173Y1550674D01*
X1009040Y1547937D01*
X1008653Y1545000D01*
X1009040Y1542063D01*
X1010173Y1539326D01*
X1011976Y1536976D01*
X1014326Y1535173D01*
X1017063Y1534040D01*
X1020000Y1533653D01*
X1022937Y1534040D01*
X1025674Y1535173D01*
X1028024Y1536976D01*
X1029827Y1539326D01*
X1030960Y1542063D01*
X1031347Y1545000D01*
X1030960Y1547937D01*
X1029827Y1550674D01*
X1028024Y1553024D01*
X1025674Y1554827D01*
X1022937Y1555960D01*
X1020000Y1556347D01*
D02*
G37*
G36*
X1045400D02*
X1042463Y1555960D01*
X1039726Y1554827D01*
X1037376Y1553024D01*
X1035573Y1550674D01*
X1034440Y1547937D01*
X1034053Y1545000D01*
X1034440Y1542063D01*
X1035573Y1539326D01*
X1037376Y1536976D01*
X1039726Y1535173D01*
X1042463Y1534040D01*
X1045400Y1533653D01*
X1048337Y1534040D01*
X1051074Y1535173D01*
X1053424Y1536976D01*
X1055227Y1539326D01*
X1056360Y1542063D01*
X1056747Y1545000D01*
X1056360Y1547937D01*
X1055227Y1550674D01*
X1053424Y1553024D01*
X1051074Y1554827D01*
X1048337Y1555960D01*
X1045400Y1556347D01*
D02*
G37*
G36*
X970000Y1547104D02*
X966867Y1546691D01*
X963948Y1545482D01*
X961441Y1543559D01*
X959518Y1541052D01*
X958309Y1538133D01*
X957896Y1535000D01*
X958309Y1531867D01*
X959518Y1528948D01*
X961441Y1526441D01*
X963948Y1524518D01*
X966867Y1523309D01*
X970000Y1522896D01*
X973133Y1523309D01*
X976052Y1524518D01*
X978559Y1526441D01*
X980482Y1528948D01*
X981691Y1531867D01*
X982104Y1535000D01*
X981691Y1538133D01*
X980482Y1541052D01*
X978559Y1543559D01*
X976052Y1545482D01*
X973133Y1546691D01*
X970000Y1547104D01*
D02*
G37*
G36*
X1149600Y1539121D02*
X1145945Y1538640D01*
X1142540Y1537229D01*
X1139615Y1534985D01*
X1137371Y1532060D01*
X1135960Y1528655D01*
X1135479Y1525000D01*
X1135960Y1521345D01*
X1137371Y1517940D01*
X1139615Y1515015D01*
X1142540Y1512771D01*
X1145945Y1511360D01*
X1149600Y1510879D01*
X1153255Y1511360D01*
X1156660Y1512771D01*
X1159585Y1515015D01*
X1161829Y1517940D01*
X1163240Y1521345D01*
X1163721Y1525000D01*
X1163240Y1528655D01*
X1161829Y1532060D01*
X1159585Y1534985D01*
X1156660Y1537229D01*
X1153255Y1538640D01*
X1149600Y1539121D01*
D02*
G37*
G36*
X900000Y1547104D02*
X896867Y1546691D01*
X893948Y1545482D01*
X891441Y1543559D01*
X889518Y1541052D01*
X888309Y1538133D01*
X887896Y1535000D01*
X888309Y1531867D01*
X889518Y1528948D01*
X891441Y1526441D01*
X893948Y1524518D01*
X896867Y1523309D01*
X900000Y1522896D01*
X903133Y1523309D01*
X906052Y1524518D01*
X908559Y1526441D01*
X910482Y1528948D01*
X911691Y1531867D01*
X912104Y1535000D01*
X911691Y1538133D01*
X910482Y1541052D01*
X908559Y1543559D01*
X906052Y1545482D01*
X903133Y1546691D01*
X900000Y1547104D01*
D02*
G37*
G36*
X935000Y1471347D02*
X932063Y1470960D01*
X929326Y1469827D01*
X926976Y1468024D01*
X925173Y1465674D01*
X924040Y1462937D01*
X923653Y1460000D01*
X924040Y1457063D01*
X925173Y1454326D01*
X926976Y1451976D01*
X929326Y1450173D01*
X932063Y1449040D01*
X935000Y1448653D01*
X937937Y1449040D01*
X940674Y1450173D01*
X943024Y1451976D01*
X944827Y1454326D01*
X945960Y1457063D01*
X946347Y1460000D01*
X945960Y1462937D01*
X944827Y1465674D01*
X943024Y1468024D01*
X940674Y1469827D01*
X937937Y1470960D01*
X935000Y1471347D01*
D02*
G37*
G36*
X720000Y1441118D02*
X717659Y1440652D01*
X715674Y1439326D01*
X714348Y1437341D01*
X713883Y1435000D01*
X714348Y1432659D01*
X715674Y1430674D01*
X717659Y1429348D01*
X720000Y1428882D01*
X722341Y1429348D01*
X724326Y1430674D01*
X725652Y1432659D01*
X726117Y1435000D01*
X725652Y1437341D01*
X724326Y1439326D01*
X722341Y1440652D01*
X720000Y1441118D01*
D02*
G37*
G36*
X740000D02*
X737659Y1440652D01*
X735674Y1439326D01*
X734348Y1437341D01*
X733883Y1435000D01*
X734348Y1432659D01*
X735674Y1430674D01*
X737659Y1429348D01*
X740000Y1428882D01*
X742341Y1429348D01*
X744326Y1430674D01*
X745652Y1432659D01*
X746117Y1435000D01*
X745652Y1437341D01*
X744326Y1439326D01*
X742341Y1440652D01*
X740000Y1441118D01*
D02*
G37*
G36*
X457600Y1443616D02*
X454076Y1443152D01*
X450792Y1441792D01*
X447972Y1439628D01*
X445808Y1436808D01*
X444448Y1433524D01*
X443983Y1430000D01*
X444448Y1426476D01*
X445808Y1423192D01*
X447972Y1420372D01*
X450792Y1418208D01*
X454076Y1416848D01*
X457600Y1416384D01*
X461124Y1416848D01*
X464408Y1418208D01*
X467228Y1420372D01*
X469392Y1423192D01*
X470752Y1426476D01*
X471217Y1430000D01*
X470752Y1433524D01*
X469392Y1436808D01*
X467228Y1439628D01*
X464408Y1441792D01*
X461124Y1443152D01*
X457600Y1443616D01*
D02*
G37*
G36*
X616000Y1406118D02*
X613659Y1405652D01*
X611674Y1404326D01*
X610348Y1402341D01*
X609882Y1400000D01*
X610348Y1397659D01*
X611674Y1395674D01*
X613659Y1394348D01*
X616000Y1393882D01*
X618341Y1394348D01*
X620326Y1395674D01*
X621652Y1397659D01*
X622118Y1400000D01*
X621652Y1402341D01*
X620326Y1404326D01*
X618341Y1405652D01*
X616000Y1406118D01*
D02*
G37*
G36*
X890000Y1432117D02*
X887659Y1431652D01*
X885674Y1430326D01*
X884348Y1428341D01*
X883883Y1426000D01*
X884348Y1423659D01*
X884392Y1423593D01*
Y1417500D01*
Y1414823D01*
X883677Y1414108D01*
X845887D01*
X843741Y1413681D01*
X841921Y1412465D01*
X833987Y1404531D01*
X833909Y1404515D01*
X831924Y1403189D01*
X830598Y1401204D01*
X830133Y1398863D01*
X830598Y1396522D01*
X831924Y1394538D01*
X833909Y1393211D01*
X836250Y1392746D01*
X838591Y1393211D01*
X840576Y1394538D01*
X841902Y1396522D01*
X841917Y1396600D01*
X848210Y1402892D01*
X886000D01*
X888146Y1403319D01*
X889965Y1404535D01*
X889965Y1404535D01*
X889965Y1404535D01*
X893965Y1408535D01*
X893965Y1408535D01*
X893965Y1408535D01*
X895181Y1410354D01*
X895608Y1412500D01*
Y1417500D01*
Y1423593D01*
X895652Y1423659D01*
X896117Y1426000D01*
X895652Y1428341D01*
X894326Y1430326D01*
X892341Y1431652D01*
X890000Y1432117D01*
D02*
G37*
G36*
X880000Y1441118D02*
X877659Y1440652D01*
X875674Y1439326D01*
X874348Y1437341D01*
X873883Y1435000D01*
X874348Y1432659D01*
X875674Y1430674D01*
X877659Y1429348D01*
X880000Y1428882D01*
X882341Y1429348D01*
X884326Y1430674D01*
X885652Y1432659D01*
X886117Y1435000D01*
X885652Y1437341D01*
X884326Y1439326D01*
X882341Y1440652D01*
X880000Y1441118D01*
D02*
G37*
G36*
X382500Y1459617D02*
X380159Y1459152D01*
X378174Y1457826D01*
X376848Y1455841D01*
X376382Y1453500D01*
X376848Y1451159D01*
X378174Y1449174D01*
X380159Y1447848D01*
X382500Y1447382D01*
X384841Y1447848D01*
X386826Y1449174D01*
X388152Y1451159D01*
X388618Y1453500D01*
X388152Y1455841D01*
X386826Y1457826D01*
X384841Y1459152D01*
X382500Y1459617D01*
D02*
G37*
G36*
X402500D02*
X400159Y1459152D01*
X398174Y1457826D01*
X396848Y1455841D01*
X396382Y1453500D01*
X396848Y1451159D01*
X398174Y1449174D01*
X400159Y1447848D01*
X402500Y1447382D01*
X404841Y1447848D01*
X406826Y1449174D01*
X408152Y1451159D01*
X408618Y1453500D01*
X408152Y1455841D01*
X406826Y1457826D01*
X404841Y1459152D01*
X402500Y1459617D01*
D02*
G37*
G36*
X362500D02*
X360159Y1459152D01*
X358174Y1457826D01*
X356848Y1455841D01*
X356382Y1453500D01*
X356848Y1451159D01*
X358174Y1449174D01*
X360159Y1447848D01*
X362500Y1447382D01*
X364841Y1447848D01*
X366826Y1449174D01*
X368152Y1451159D01*
X368618Y1453500D01*
X368152Y1455841D01*
X366826Y1457826D01*
X364841Y1459152D01*
X362500Y1459617D01*
D02*
G37*
G36*
X695250Y1431118D02*
X692909Y1430652D01*
X692770Y1430559D01*
X687730D01*
X687591Y1430652D01*
X685250Y1431118D01*
X682909Y1430652D01*
X682770Y1430559D01*
X677730D01*
X677591Y1430652D01*
X675250Y1431118D01*
X672909Y1430652D01*
X672770Y1430559D01*
X667730D01*
X667591Y1430652D01*
X665250Y1431118D01*
X662909Y1430652D01*
X660924Y1429326D01*
X659598Y1427341D01*
X659318Y1425932D01*
X657909Y1425652D01*
X655924Y1424326D01*
X654598Y1422341D01*
X654133Y1420000D01*
X654598Y1417659D01*
X655924Y1415674D01*
X655983Y1415635D01*
Y1414365D01*
X655924Y1414326D01*
X654598Y1412341D01*
X654133Y1410000D01*
X654323Y1409041D01*
X653518Y1408059D01*
X642999D01*
X641829Y1407826D01*
X640836Y1407163D01*
X640173Y1406171D01*
X639941Y1405000D01*
Y1150000D01*
X640173Y1148829D01*
X640836Y1147837D01*
X641829Y1147174D01*
X642999Y1146941D01*
X691600D01*
X691603Y1146942D01*
X691606Y1146941D01*
X692190Y1147059D01*
X692771Y1147174D01*
X692773Y1147176D01*
X692776Y1147176D01*
X693267Y1147505D01*
X693763Y1147837D01*
X693765Y1147839D01*
X693767Y1147841D01*
X694663Y1148740D01*
X694665Y1148742D01*
X694667Y1148744D01*
X694999Y1149244D01*
X695325Y1149734D01*
X695325Y1149736D01*
X695327Y1149738D01*
X695441Y1150320D01*
X695556Y1150904D01*
X695555Y1150907D01*
X695556Y1150909D01*
X695535Y1157483D01*
X695652Y1157659D01*
X696118Y1160000D01*
X695652Y1162341D01*
X695518Y1162541D01*
X695502Y1167435D01*
X695652Y1167659D01*
X696118Y1170000D01*
X695652Y1172341D01*
X695486Y1172590D01*
X695470Y1177387D01*
X695652Y1177659D01*
X696118Y1180000D01*
X695652Y1182341D01*
X695453Y1182638D01*
X695438Y1187339D01*
X695652Y1187659D01*
X696118Y1190000D01*
X695652Y1192341D01*
X695421Y1192687D01*
X695406Y1197290D01*
X695653Y1197660D01*
X696118Y1200001D01*
X695653Y1202342D01*
X695388Y1202738D01*
X695374Y1207242D01*
X695653Y1207660D01*
X696118Y1210001D01*
X695653Y1212342D01*
X695356Y1212786D01*
X695341Y1217194D01*
X695653Y1217660D01*
X696118Y1220001D01*
X695653Y1222342D01*
X695323Y1222835D01*
X695309Y1227146D01*
X695653Y1227660D01*
X696118Y1230001D01*
X695653Y1232342D01*
X695291Y1232884D01*
X695277Y1237098D01*
X695653Y1237660D01*
X696118Y1240001D01*
X695653Y1242342D01*
X695258Y1242932D01*
X695245Y1247049D01*
X695653Y1247660D01*
X696118Y1250001D01*
X695653Y1252342D01*
X695226Y1252981D01*
X695066Y1302473D01*
X696238Y1302961D01*
X703174Y1296024D01*
D01*
X703174D01*
Y1296024D01*
D01*
X703174D01*
Y1296024D01*
X703174D01*
X703174Y1296024D01*
Y1296024D01*
X703174Y1296024D01*
Y1296024D01*
X705159Y1294698D01*
X707500Y1294232D01*
X709841Y1294698D01*
X711826Y1296024D01*
X713152Y1298009D01*
X713617Y1300350D01*
X713618Y1300350D01*
X713617Y1300350D01*
Y1300350D01*
X713618D01*
X713617Y1300350D01*
X713152Y1302691D01*
X711826Y1304676D01*
X702117Y1314384D01*
Y1327500D01*
X701863Y1328782D01*
Y1352156D01*
X702379Y1352930D01*
X702844Y1353311D01*
X705000Y1352883D01*
X707341Y1353348D01*
X707407Y1353392D01*
X709593D01*
X709659Y1353348D01*
X712000Y1352883D01*
X714341Y1353348D01*
X716326Y1354674D01*
X717652Y1356659D01*
X718118Y1359000D01*
X717889Y1360151D01*
X718694Y1361133D01*
X720500D01*
X722841Y1361598D01*
X724826Y1362924D01*
X732826Y1370924D01*
X732826Y1370924D01*
X732826Y1370924D01*
X734152Y1372909D01*
X734617Y1375250D01*
Y1387750D01*
Y1395750D01*
X734152Y1398091D01*
X732826Y1400076D01*
X730841Y1401402D01*
X728500Y1401868D01*
X726159Y1401402D01*
X724174Y1400076D01*
X722848Y1398091D01*
X722383Y1395750D01*
Y1387750D01*
Y1385895D01*
X721401Y1385089D01*
X720000Y1385367D01*
X705117D01*
Y1385500D01*
X704652Y1387841D01*
X703326Y1389826D01*
X701341Y1391152D01*
X699000Y1391617D01*
X696659Y1391152D01*
X695899Y1390644D01*
X694778Y1391241D01*
X694772Y1393184D01*
X694743Y1393330D01*
X694757Y1393479D01*
Y1393479D01*
D01*
D01*
D01*
X694757Y1393479D01*
Y1393479D01*
X695073Y1394002D01*
X697246Y1394441D01*
X697770D01*
X697909Y1394348D01*
X700250Y1393882D01*
X702591Y1394348D01*
X704576Y1395674D01*
X705902Y1397659D01*
X706368Y1400000D01*
X705902Y1402341D01*
X704576Y1404326D01*
X704517Y1404365D01*
Y1405635D01*
X704576Y1405674D01*
X705902Y1407659D01*
X706368Y1410000D01*
X705902Y1412341D01*
X704576Y1414326D01*
X704517Y1414365D01*
Y1415635D01*
X704576Y1415674D01*
X705902Y1417659D01*
X706368Y1420000D01*
X705902Y1422341D01*
X704576Y1424326D01*
X702591Y1425652D01*
X701182Y1425932D01*
X700902Y1427341D01*
X699576Y1429326D01*
X697591Y1430652D01*
X695250Y1431118D01*
D02*
G37*
G36*
X860000Y1441118D02*
X857659Y1440652D01*
X857593Y1440608D01*
X842407D01*
X842341Y1440652D01*
X840000Y1441118D01*
X837659Y1440652D01*
X837593Y1440608D01*
X822407D01*
X822341Y1440652D01*
X820000Y1441118D01*
X817659Y1440652D01*
X817593Y1440608D01*
X802407D01*
X802341Y1440652D01*
X800000Y1441118D01*
X797659Y1440652D01*
X797593Y1440608D01*
X782407D01*
X782341Y1440652D01*
X780000Y1441118D01*
X777659Y1440652D01*
X777593Y1440608D01*
X762405D01*
X762340Y1440651D01*
X759999Y1441117D01*
X757658Y1440651D01*
X755674Y1439325D01*
X754347Y1437340D01*
X753882Y1434999D01*
X754347Y1432658D01*
X755674Y1430673D01*
X757658Y1429347D01*
X759999Y1428882D01*
X762340Y1429347D01*
X762408Y1429392D01*
X777593D01*
X777659Y1429348D01*
X780000Y1428882D01*
X782341Y1429348D01*
X782407Y1429392D01*
X797593D01*
X797659Y1429348D01*
X800000Y1428882D01*
X802341Y1429348D01*
X802407Y1429392D01*
X817593D01*
X817659Y1429348D01*
X820000Y1428882D01*
X822341Y1429348D01*
X822407Y1429392D01*
X837593D01*
X837659Y1429348D01*
X840000Y1428882D01*
X842341Y1429348D01*
X842407Y1429392D01*
X857593D01*
X857659Y1429348D01*
X860000Y1428882D01*
X862341Y1429348D01*
X864326Y1430674D01*
X865652Y1432659D01*
X866117Y1435000D01*
X865652Y1437341D01*
X864326Y1439326D01*
X862341Y1440652D01*
X860000Y1441118D01*
D02*
G37*
G36*
X992500Y1218618D02*
X990159Y1218152D01*
X988174Y1216826D01*
X986848Y1214841D01*
X986383Y1212500D01*
X986848Y1210159D01*
X988174Y1208174D01*
X990159Y1206848D01*
X992500Y1206383D01*
X994841Y1206848D01*
X996826Y1208174D01*
X998152Y1210159D01*
X998617Y1212500D01*
X998152Y1214841D01*
X996826Y1216826D01*
X994841Y1218152D01*
X992500Y1218618D01*
D02*
G37*
G36*
X1008500D02*
X1006159Y1218152D01*
X1004174Y1216826D01*
X1002848Y1214841D01*
X1002383Y1212500D01*
X1002848Y1210159D01*
X1004174Y1208174D01*
X1006159Y1206848D01*
X1008500Y1206383D01*
X1010841Y1206848D01*
X1012826Y1208174D01*
X1014152Y1210159D01*
X1014618Y1212500D01*
X1014152Y1214841D01*
X1012826Y1216826D01*
X1010841Y1218152D01*
X1008500Y1218618D01*
D02*
G37*
G36*
X954000Y1216117D02*
X951659Y1215652D01*
X949674Y1214326D01*
X948348Y1212341D01*
X947883Y1210000D01*
X948348Y1207659D01*
X949674Y1205674D01*
X951659Y1204348D01*
X954000Y1203883D01*
X956341Y1204348D01*
X958326Y1205674D01*
X959652Y1207659D01*
X960117Y1210000D01*
X959652Y1212341D01*
X958326Y1214326D01*
X956341Y1215652D01*
X954000Y1216117D01*
D02*
G37*
G36*
X616000Y1213617D02*
X613659Y1213152D01*
X611674Y1211826D01*
X610348Y1209841D01*
X609882Y1207500D01*
X610348Y1205159D01*
X611674Y1203174D01*
X613659Y1201848D01*
X616000Y1201383D01*
X618341Y1201848D01*
X620326Y1203174D01*
X621652Y1205159D01*
X622118Y1207500D01*
X621652Y1209841D01*
X620326Y1211826D01*
X618341Y1213152D01*
X616000Y1213617D01*
D02*
G37*
G36*
X901000Y1216117D02*
X898659Y1215652D01*
X896674Y1214326D01*
X895348Y1212341D01*
X894883Y1210000D01*
X895348Y1207659D01*
X896674Y1205674D01*
X898659Y1204348D01*
X901000Y1203883D01*
X903341Y1204348D01*
X905326Y1205674D01*
X906652Y1207659D01*
X907117Y1210000D01*
X906652Y1212341D01*
X905326Y1214326D01*
X903341Y1215652D01*
X901000Y1216117D01*
D02*
G37*
G36*
X597500Y1225117D02*
X595159Y1224652D01*
X593174Y1223326D01*
X591848Y1221341D01*
X591382Y1219000D01*
X591848Y1216659D01*
X593174Y1214674D01*
X595159Y1213348D01*
X597500Y1212883D01*
X599841Y1213348D01*
X601826Y1214674D01*
X603152Y1216659D01*
X603618Y1219000D01*
X603152Y1221341D01*
X601826Y1223326D01*
X599841Y1224652D01*
X597500Y1225117D01*
D02*
G37*
G36*
X954000Y1236117D02*
X951659Y1235652D01*
X949674Y1234326D01*
X948348Y1232341D01*
X947883Y1230000D01*
X948348Y1227659D01*
X949674Y1225674D01*
X951659Y1224348D01*
X954000Y1223883D01*
X956341Y1224348D01*
X958326Y1225674D01*
X959652Y1227659D01*
X960117Y1230000D01*
X959652Y1232341D01*
X958326Y1234326D01*
X956341Y1235652D01*
X954000Y1236117D01*
D02*
G37*
G36*
X1129000Y1311118D02*
X1126659Y1310652D01*
X1124674Y1309326D01*
X1123348Y1307341D01*
X1122882Y1305000D01*
X1123348Y1302659D01*
X1124667Y1300685D01*
Y1240500D01*
X1124997Y1238842D01*
X1125936Y1237436D01*
X1128385Y1234987D01*
X1128848Y1232659D01*
X1130174Y1230674D01*
X1132159Y1229348D01*
X1134500Y1228883D01*
X1136841Y1229348D01*
X1138826Y1230674D01*
X1140152Y1232659D01*
X1140618Y1235000D01*
X1140152Y1237341D01*
X1138826Y1239326D01*
X1136841Y1240652D01*
X1134513Y1241115D01*
X1133333Y1242295D01*
Y1300685D01*
X1134652Y1302659D01*
X1135117Y1305000D01*
X1134652Y1307341D01*
X1133326Y1309326D01*
X1131341Y1310652D01*
X1129000Y1311118D01*
D02*
G37*
G36*
X901000Y1236117D02*
X898659Y1235652D01*
X896674Y1234326D01*
X895348Y1232341D01*
X894883Y1230000D01*
X895348Y1227659D01*
X896674Y1225674D01*
X898659Y1224348D01*
X901000Y1223883D01*
X903341Y1224348D01*
X905326Y1225674D01*
X906652Y1227659D01*
X907117Y1230000D01*
X906652Y1232341D01*
X905326Y1234326D01*
X903341Y1235652D01*
X901000Y1236117D01*
D02*
G37*
G36*
X812500Y1226117D02*
X810159Y1225652D01*
X808174Y1224326D01*
X806848Y1222341D01*
X806383Y1220000D01*
X806848Y1217659D01*
X808174Y1215674D01*
X810159Y1214348D01*
X812500Y1213883D01*
X814841Y1214348D01*
X816826Y1215674D01*
X818152Y1217659D01*
X818617Y1220000D01*
X818152Y1222341D01*
X816826Y1224326D01*
X814841Y1225652D01*
X812500Y1226117D01*
D02*
G37*
G36*
X865500D02*
X863159Y1225652D01*
X861174Y1224326D01*
X859848Y1222341D01*
X859382Y1220000D01*
X859848Y1217659D01*
X861174Y1215674D01*
X863159Y1214348D01*
X865500Y1213883D01*
X867841Y1214348D01*
X869826Y1215674D01*
X871152Y1217659D01*
X871618Y1220000D01*
X871152Y1222341D01*
X869826Y1224326D01*
X867841Y1225652D01*
X865500Y1226117D01*
D02*
G37*
G36*
X616000Y1193618D02*
X613659Y1193152D01*
X611674Y1191826D01*
X610348Y1189841D01*
X609882Y1187500D01*
X610348Y1185159D01*
X611674Y1183174D01*
X613659Y1181848D01*
X616000Y1181383D01*
X618341Y1181848D01*
X620326Y1183174D01*
X621652Y1185159D01*
X622118Y1187500D01*
X621652Y1189841D01*
X620326Y1191826D01*
X618341Y1193152D01*
X616000Y1193618D01*
D02*
G37*
G36*
X901000Y1196117D02*
X898659Y1195652D01*
X896674Y1194326D01*
X895348Y1192341D01*
X894883Y1190000D01*
X895348Y1187659D01*
X896674Y1185674D01*
X898659Y1184348D01*
X901000Y1183883D01*
X903341Y1184348D01*
X905326Y1185674D01*
X906652Y1187659D01*
X907117Y1190000D01*
X906652Y1192341D01*
X905326Y1194326D01*
X903341Y1195652D01*
X901000Y1196117D01*
D02*
G37*
G36*
X531000Y1193618D02*
X528659Y1193152D01*
X526674Y1191826D01*
X525348Y1189841D01*
X524883Y1187500D01*
X525348Y1185159D01*
X526674Y1183174D01*
X528659Y1181848D01*
X531000Y1181383D01*
X533341Y1181848D01*
X535326Y1183174D01*
X536652Y1185159D01*
X537118Y1187500D01*
X536652Y1189841D01*
X535326Y1191826D01*
X533341Y1193152D01*
X531000Y1193618D01*
D02*
G37*
G36*
X1042500Y1206118D02*
X1040159Y1205652D01*
X1038174Y1204326D01*
X1036848Y1202341D01*
X1036383Y1200000D01*
X1036848Y1197659D01*
X1038174Y1195674D01*
X1040159Y1194348D01*
X1040809Y1194219D01*
X1041514Y1193163D01*
X1041382Y1192500D01*
X1041848Y1190159D01*
X1043174Y1188174D01*
X1045159Y1186848D01*
X1046690Y1186544D01*
X1046383Y1185000D01*
X1046848Y1182659D01*
X1048174Y1180674D01*
X1050159Y1179348D01*
X1050809Y1179219D01*
X1051514Y1178163D01*
X1051383Y1177500D01*
X1051848Y1175159D01*
X1053174Y1173174D01*
X1055159Y1171848D01*
X1057500Y1171383D01*
X1059841Y1171848D01*
X1061826Y1173174D01*
X1063152Y1175159D01*
X1063617Y1177500D01*
X1063152Y1179841D01*
X1061826Y1181826D01*
X1059841Y1183152D01*
X1059191Y1183281D01*
X1058486Y1184337D01*
X1058617Y1185000D01*
X1058152Y1187341D01*
X1056826Y1189326D01*
X1054841Y1190652D01*
X1053310Y1190956D01*
X1053617Y1192500D01*
X1053152Y1194841D01*
X1051826Y1196826D01*
X1049841Y1198152D01*
X1048310Y1198456D01*
X1048618Y1200000D01*
X1048152Y1202341D01*
X1046826Y1204326D01*
X1044841Y1205652D01*
X1042500Y1206118D01*
D02*
G37*
G36*
X812500Y1186117D02*
X810159Y1185652D01*
X808174Y1184326D01*
X806848Y1182341D01*
X806383Y1180000D01*
X806848Y1177659D01*
X808174Y1175674D01*
X810159Y1174348D01*
X812500Y1173883D01*
X814841Y1174348D01*
X816826Y1175674D01*
X818152Y1177659D01*
X818617Y1180000D01*
X818152Y1182341D01*
X816826Y1184326D01*
X814841Y1185652D01*
X812500Y1186117D01*
D02*
G37*
G36*
X954000Y1196117D02*
X951659Y1195652D01*
X949674Y1194326D01*
X948348Y1192341D01*
X947883Y1190000D01*
X948348Y1187659D01*
X949674Y1185674D01*
X951659Y1184348D01*
X954000Y1183883D01*
X956341Y1184348D01*
X958326Y1185674D01*
X959652Y1187659D01*
X960117Y1190000D01*
X959652Y1192341D01*
X958326Y1194326D01*
X956341Y1195652D01*
X954000Y1196117D01*
D02*
G37*
G36*
X575000Y1212586D02*
X572389Y1212243D01*
X569957Y1211235D01*
X567868Y1209632D01*
X566265Y1207543D01*
X565257Y1205110D01*
X564914Y1202500D01*
X565257Y1199890D01*
X566265Y1197457D01*
X567868Y1195368D01*
X569957Y1193765D01*
X572389Y1192757D01*
X575000Y1192414D01*
X577611Y1192757D01*
X580043Y1193765D01*
X582132Y1195368D01*
X583735Y1197457D01*
X584743Y1199890D01*
X585086Y1202500D01*
X584743Y1205110D01*
X583735Y1207543D01*
X582132Y1209632D01*
X580043Y1211235D01*
X577611Y1212243D01*
X575000Y1212586D01*
D02*
G37*
G36*
X1122000Y1206117D02*
X1119659Y1205652D01*
X1117674Y1204326D01*
X1116348Y1202341D01*
X1115882Y1200000D01*
X1116348Y1197659D01*
X1117674Y1195674D01*
X1119659Y1194348D01*
X1122000Y1193882D01*
X1124341Y1194348D01*
X1126326Y1195674D01*
X1127652Y1197659D01*
X1128118Y1200000D01*
X1127652Y1202341D01*
X1126326Y1204326D01*
X1124341Y1205652D01*
X1122000Y1206117D01*
D02*
G37*
G36*
X502000Y1258060D02*
X457500D01*
X456329Y1257827D01*
X455337Y1257164D01*
X454674Y1256171D01*
X454441Y1255001D01*
Y1252482D01*
X454347Y1252342D01*
X453882Y1250001D01*
X454347Y1247660D01*
X454441Y1247519D01*
Y1242482D01*
X454347Y1242342D01*
X453882Y1240001D01*
X454347Y1237660D01*
X454441Y1237519D01*
Y1232480D01*
X454349Y1232342D01*
X453883Y1230001D01*
X454349Y1227660D01*
X454441Y1227521D01*
Y1222480D01*
X454349Y1222342D01*
X453883Y1220001D01*
X454349Y1217660D01*
X454441Y1217521D01*
Y1212480D01*
X454349Y1212342D01*
X453883Y1210001D01*
X454349Y1207660D01*
X454441Y1207521D01*
Y1202480D01*
X454349Y1202342D01*
X453883Y1200001D01*
X454349Y1197660D01*
X454441Y1197521D01*
Y1195000D01*
X454674Y1193829D01*
X455337Y1192837D01*
X456329Y1192174D01*
X457500Y1191941D01*
X502000D01*
X503171Y1192174D01*
X504163Y1192837D01*
X504826Y1193829D01*
X505059Y1195000D01*
Y1196771D01*
X505653Y1197660D01*
X506118Y1200001D01*
X505653Y1202342D01*
X505059Y1203230D01*
Y1206771D01*
X505653Y1207660D01*
X506118Y1210001D01*
X505653Y1212342D01*
X505059Y1213230D01*
Y1216771D01*
X505653Y1217660D01*
X506118Y1220001D01*
X505653Y1222342D01*
X505059Y1223230D01*
Y1226771D01*
X505653Y1227660D01*
X506118Y1230001D01*
X505653Y1232342D01*
X505059Y1233230D01*
Y1236773D01*
X505651Y1237660D01*
X506117Y1240001D01*
X505651Y1242342D01*
X505059Y1243228D01*
Y1246773D01*
X505651Y1247660D01*
X506117Y1250001D01*
X505651Y1252342D01*
X505059Y1253228D01*
Y1255001D01*
X504826Y1256171D01*
X504163Y1257164D01*
X503171Y1257827D01*
X502000Y1258060D01*
D02*
G37*
G36*
X1000000Y1206117D02*
X997659Y1205652D01*
X995674Y1204326D01*
X994348Y1202341D01*
X993883Y1200000D01*
X994348Y1197659D01*
X995674Y1195674D01*
X997659Y1194348D01*
X1000000Y1193882D01*
X1000605Y1194003D01*
X1001503Y1193105D01*
X1001383Y1192500D01*
X1001848Y1190159D01*
X1003174Y1188174D01*
X1005159Y1186848D01*
X1007500Y1186383D01*
X1009841Y1186848D01*
X1011826Y1188174D01*
X1013152Y1190159D01*
X1013617Y1192500D01*
X1013152Y1194841D01*
X1011826Y1196826D01*
X1009841Y1198152D01*
X1007500Y1198617D01*
X1006895Y1198497D01*
X1005997Y1199395D01*
X1006117Y1200000D01*
X1005652Y1202341D01*
X1004326Y1204326D01*
X1002341Y1205652D01*
X1000000Y1206117D01*
D02*
G37*
G36*
X857500Y1210086D02*
X854890Y1209743D01*
X852457Y1208735D01*
X850368Y1207132D01*
X848765Y1205043D01*
X847757Y1202610D01*
X847414Y1200000D01*
X847757Y1197390D01*
X848765Y1194957D01*
X850368Y1192868D01*
X852457Y1191265D01*
X854890Y1190257D01*
X857500Y1189914D01*
X860110Y1190257D01*
X862543Y1191265D01*
X864632Y1192868D01*
X866235Y1194957D01*
X867243Y1197390D01*
X867586Y1200000D01*
X867243Y1202610D01*
X866235Y1205043D01*
X864632Y1207132D01*
X862543Y1208735D01*
X860110Y1209743D01*
X857500Y1210086D01*
D02*
G37*
G36*
X597500Y1242117D02*
X595159Y1241652D01*
X593174Y1240326D01*
X591848Y1238341D01*
X591382Y1236000D01*
X591848Y1233659D01*
X593174Y1231674D01*
X595159Y1230348D01*
X597500Y1229883D01*
X599841Y1230348D01*
X601826Y1231674D01*
X603152Y1233659D01*
X603618Y1236000D01*
X603152Y1238341D01*
X601826Y1240326D01*
X599841Y1241652D01*
X597500Y1242117D01*
D02*
G37*
G36*
X616000Y1286118D02*
X613659Y1285652D01*
X611674Y1284326D01*
X610348Y1282341D01*
X609882Y1280000D01*
X610348Y1277659D01*
X611674Y1275674D01*
X613659Y1274348D01*
X616000Y1273883D01*
X618341Y1274348D01*
X620326Y1275674D01*
X621652Y1277659D01*
X622118Y1280000D01*
X621652Y1282341D01*
X620326Y1284326D01*
X618341Y1285652D01*
X616000Y1286118D01*
D02*
G37*
G36*
X812500D02*
X810159Y1285652D01*
X808174Y1284326D01*
X806848Y1282341D01*
X806383Y1280000D01*
X806848Y1277659D01*
X808174Y1275674D01*
X810159Y1274348D01*
X812500Y1273883D01*
X814841Y1274348D01*
X816826Y1275674D01*
X818152Y1277659D01*
X818617Y1280000D01*
X818152Y1282341D01*
X816826Y1284326D01*
X814841Y1285652D01*
X812500Y1286118D01*
D02*
G37*
G36*
X571000Y1278617D02*
X568659Y1278152D01*
X566674Y1276826D01*
X565348Y1274841D01*
X564883Y1272500D01*
X565348Y1270159D01*
X566674Y1268174D01*
X568659Y1266848D01*
X571000Y1266383D01*
X573341Y1266848D01*
X575326Y1268174D01*
X576652Y1270159D01*
X577118Y1272500D01*
X576652Y1274841D01*
X575326Y1276826D01*
X573341Y1278152D01*
X571000Y1278617D01*
D02*
G37*
G36*
X1172500Y1271117D02*
X1170159Y1270652D01*
X1168174Y1269326D01*
X1166848Y1267341D01*
X1166383Y1265000D01*
X1166848Y1262659D01*
X1168174Y1260674D01*
X1170159Y1259348D01*
X1172500Y1258882D01*
X1174841Y1259348D01*
X1176826Y1260674D01*
X1178152Y1262659D01*
X1178617Y1265000D01*
X1178152Y1267341D01*
X1176826Y1269326D01*
X1174841Y1270652D01*
X1172500Y1271117D01*
D02*
G37*
G36*
X527500Y1307117D02*
X525159Y1306651D01*
X523174Y1305325D01*
X521848Y1303340D01*
X521382Y1300999D01*
X521848Y1298658D01*
X523174Y1296673D01*
X525159Y1295347D01*
X527500Y1294882D01*
X529841Y1295347D01*
X531826Y1296673D01*
X533152Y1298658D01*
X533618Y1300999D01*
X533152Y1303340D01*
X531826Y1305325D01*
X529841Y1306651D01*
X527500Y1307117D01*
D02*
G37*
G36*
X754000Y1288618D02*
X751659Y1288152D01*
X749674Y1286826D01*
X748348Y1284841D01*
X747883Y1282500D01*
X748348Y1280159D01*
X749674Y1278174D01*
X751659Y1276848D01*
X754000Y1276383D01*
X756341Y1276848D01*
X758326Y1278174D01*
X759652Y1280159D01*
X760117Y1282500D01*
X759652Y1284841D01*
X758326Y1286826D01*
X756341Y1288152D01*
X754000Y1288618D01*
D02*
G37*
G36*
X877500Y1301118D02*
X875159Y1300652D01*
X873174Y1299326D01*
X871848Y1297341D01*
X871383Y1295000D01*
X871848Y1292659D01*
X873174Y1290674D01*
X874355Y1289885D01*
Y1288615D01*
X873174Y1287826D01*
X871848Y1285841D01*
X871383Y1283500D01*
X871848Y1281159D01*
X873174Y1279174D01*
X875159Y1277848D01*
X877500Y1277383D01*
X879841Y1277848D01*
X881826Y1279174D01*
X883152Y1281159D01*
X883617Y1283500D01*
X883152Y1285841D01*
X881826Y1287826D01*
X880645Y1288615D01*
Y1289885D01*
X881826Y1290674D01*
X883152Y1292659D01*
X883617Y1295000D01*
X883152Y1297341D01*
X881826Y1299326D01*
X879841Y1300652D01*
X877500Y1301118D01*
D02*
G37*
G36*
X616000Y1306118D02*
X613659Y1305652D01*
X611674Y1304326D01*
X610348Y1302341D01*
X609882Y1300000D01*
X610348Y1297659D01*
X611674Y1295674D01*
X613659Y1294348D01*
X616000Y1293882D01*
X618341Y1294348D01*
X620326Y1295674D01*
X621652Y1297659D01*
X622118Y1300000D01*
X621652Y1302341D01*
X620326Y1304326D01*
X618341Y1305652D01*
X616000Y1306118D01*
D02*
G37*
G36*
X531000Y1288618D02*
X528659Y1288152D01*
X526674Y1286826D01*
X525348Y1284841D01*
X524883Y1282500D01*
X525348Y1280159D01*
X526674Y1278174D01*
X528659Y1276848D01*
X531000Y1276383D01*
X533341Y1276848D01*
X535326Y1278174D01*
X536652Y1280159D01*
X537118Y1282500D01*
X536652Y1284841D01*
X535326Y1286826D01*
X533341Y1288152D01*
X531000Y1288618D01*
D02*
G37*
G36*
X812500Y1306118D02*
X810159Y1305652D01*
X808174Y1304326D01*
X806848Y1302341D01*
X806383Y1300000D01*
X806848Y1297659D01*
X808174Y1295674D01*
X810159Y1294348D01*
X812500Y1293882D01*
X814841Y1294348D01*
X816826Y1295674D01*
X818152Y1297659D01*
X818617Y1300000D01*
X818152Y1302341D01*
X816826Y1304326D01*
X814841Y1305652D01*
X812500Y1306118D01*
D02*
G37*
G36*
X616000Y1268617D02*
X613659Y1268152D01*
X611674Y1266826D01*
X610348Y1264841D01*
X609882Y1262500D01*
X610348Y1260159D01*
X611674Y1258174D01*
X613659Y1256848D01*
X616000Y1256383D01*
X618341Y1256848D01*
X620326Y1258174D01*
X621652Y1260159D01*
X622118Y1262500D01*
X621652Y1264841D01*
X620326Y1266826D01*
X618341Y1268152D01*
X616000Y1268617D01*
D02*
G37*
G36*
X531000Y1248617D02*
X528659Y1248152D01*
X526674Y1246826D01*
X525348Y1244841D01*
X524883Y1242500D01*
X525348Y1240159D01*
X526674Y1238174D01*
X528659Y1236848D01*
X531000Y1236383D01*
X533341Y1236848D01*
X535326Y1238174D01*
X536652Y1240159D01*
X537118Y1242500D01*
X536652Y1244841D01*
X535326Y1246826D01*
X533341Y1248152D01*
X531000Y1248617D01*
D02*
G37*
G36*
X616000D02*
X613659Y1248152D01*
X611674Y1246826D01*
X610348Y1244841D01*
X609882Y1242500D01*
X610348Y1240159D01*
X611674Y1238174D01*
X613659Y1236848D01*
X616000Y1236383D01*
X618341Y1236848D01*
X620326Y1238174D01*
X621652Y1240159D01*
X622118Y1242500D01*
X621652Y1244841D01*
X620326Y1246826D01*
X618341Y1248152D01*
X616000Y1248617D01*
D02*
G37*
G36*
X812500Y1246117D02*
X810159Y1245652D01*
X808174Y1244326D01*
X806848Y1242341D01*
X806383Y1240000D01*
X806848Y1237659D01*
X808174Y1235674D01*
X810159Y1234348D01*
X812500Y1233883D01*
X814841Y1234348D01*
X816826Y1235674D01*
X818152Y1237659D01*
X818617Y1240000D01*
X818152Y1242341D01*
X816826Y1244326D01*
X814841Y1245652D01*
X812500Y1246117D01*
D02*
G37*
G36*
X883000D02*
X880659Y1245652D01*
X878674Y1244326D01*
X877348Y1242341D01*
X876882Y1240000D01*
X877348Y1237659D01*
X878674Y1235674D01*
X880659Y1234348D01*
X883000Y1233883D01*
X885341Y1234348D01*
X887326Y1235674D01*
X888652Y1237659D01*
X889118Y1240000D01*
X888652Y1242341D01*
X887326Y1244326D01*
X885341Y1245652D01*
X883000Y1246117D01*
D02*
G37*
G36*
X901000Y1256117D02*
X898659Y1255652D01*
X896674Y1254326D01*
X895348Y1252341D01*
X894883Y1250000D01*
X895348Y1247659D01*
X896674Y1245674D01*
X898659Y1244348D01*
X901000Y1243882D01*
X903341Y1244348D01*
X905326Y1245674D01*
X906652Y1247659D01*
X907117Y1250000D01*
X906652Y1252341D01*
X905326Y1254326D01*
X903341Y1255652D01*
X901000Y1256117D01*
D02*
G37*
G36*
X883000Y1266117D02*
X880659Y1265652D01*
X878674Y1264326D01*
X877348Y1262341D01*
X876882Y1260000D01*
X877348Y1257659D01*
X878674Y1255674D01*
X880659Y1254348D01*
X883000Y1253883D01*
X885341Y1254348D01*
X887326Y1255674D01*
X888652Y1257659D01*
X889118Y1260000D01*
X888652Y1262341D01*
X887326Y1264326D01*
X885341Y1265652D01*
X883000Y1266117D01*
D02*
G37*
G36*
X531000Y1268617D02*
X528659Y1268152D01*
X526674Y1266826D01*
X525348Y1264841D01*
X524883Y1262500D01*
X525348Y1260159D01*
X526674Y1258174D01*
X528659Y1256848D01*
X531000Y1256383D01*
X533341Y1256848D01*
X535326Y1258174D01*
X536652Y1260159D01*
X537118Y1262500D01*
X536652Y1264841D01*
X535326Y1266826D01*
X533341Y1268152D01*
X531000Y1268617D01*
D02*
G37*
G36*
X812500Y1266117D02*
X810159Y1265652D01*
X808174Y1264326D01*
X806848Y1262341D01*
X806383Y1260000D01*
X806848Y1257659D01*
X808174Y1255674D01*
X810159Y1254348D01*
X812500Y1253883D01*
X814841Y1254348D01*
X816826Y1255674D01*
X818152Y1257659D01*
X818617Y1260000D01*
X818152Y1262341D01*
X816826Y1264326D01*
X814841Y1265652D01*
X812500Y1266117D01*
D02*
G37*
G36*
X975000Y1259118D02*
X972659Y1258652D01*
X970674Y1257326D01*
X969348Y1255341D01*
X968883Y1253000D01*
X969348Y1250659D01*
X970674Y1248674D01*
X972659Y1247348D01*
X975000Y1246882D01*
X977341Y1247348D01*
X979326Y1248674D01*
X980652Y1250659D01*
X981117Y1253000D01*
X980652Y1255341D01*
X979326Y1257326D01*
X977341Y1258652D01*
X975000Y1259118D01*
D02*
G37*
%LPD*%
G36*
X663167Y1032425D02*
Y958989D01*
X662185Y958183D01*
X660000Y958617D01*
X657815Y958183D01*
X656833Y958989D01*
Y995685D01*
X658151Y997657D01*
X658616Y999998D01*
X658151Y1002339D01*
X656832Y1004313D01*
Y1027750D01*
X661993Y1032911D01*
X663167Y1032425D01*
D02*
G37*
G36*
X502000Y1195000D02*
X457500D01*
Y1255001D01*
X502000D01*
Y1195000D01*
D02*
G37*
G36*
X700000Y1421500D02*
Y1397500D01*
X688698D01*
X687682Y1398178D01*
X687584Y1398276D01*
X687306Y1398392D01*
X687056Y1398559D01*
X686760Y1398618D01*
X686482Y1398733D01*
X686180Y1398733D01*
X685885Y1398792D01*
X684615D01*
X684320Y1398733D01*
X684018Y1398733D01*
X683740Y1398618D01*
X683445Y1398559D01*
X683194Y1398392D01*
X682916Y1398276D01*
X682818Y1398178D01*
X681803Y1397500D01*
X678697D01*
X677682Y1398178D01*
X677584Y1398276D01*
X677306Y1398392D01*
X677056Y1398559D01*
X676760Y1398618D01*
X676482Y1398733D01*
X676180Y1398733D01*
X675885Y1398792D01*
X674615D01*
X674320Y1398733D01*
X674018Y1398733D01*
X673740Y1398618D01*
X673445Y1398559D01*
X673194Y1398392D01*
X672916Y1398276D01*
X672818Y1398178D01*
X671803Y1397500D01*
X668698D01*
X667682Y1398178D01*
X667584Y1398276D01*
X667306Y1398392D01*
X667056Y1398559D01*
X666760Y1398618D01*
X666482Y1398733D01*
X666180Y1398733D01*
X665885Y1398792D01*
X664615D01*
X664320Y1398733D01*
X664018Y1398733D01*
X663740Y1398618D01*
X663445Y1398559D01*
X663194Y1398392D01*
X662916Y1398276D01*
X662818Y1398178D01*
X661803Y1397500D01*
X660000D01*
Y1421500D01*
X665000Y1427500D01*
X695000D01*
X700000Y1421500D01*
D02*
G37*
G36*
X655626Y1403880D02*
X654598Y1402341D01*
X654133Y1400000D01*
X654598Y1397659D01*
X655924Y1395674D01*
X657909Y1394348D01*
X660250Y1393882D01*
X662591Y1394348D01*
X664576Y1395674D01*
X664615Y1395733D01*
X665885D01*
X665924Y1395674D01*
X667909Y1394348D01*
X670250Y1393882D01*
X672591Y1394348D01*
X674576Y1395674D01*
X674615Y1395733D01*
X675885D01*
X675924Y1395674D01*
X677909Y1394348D01*
X680250Y1393882D01*
X682591Y1394348D01*
X684576Y1395674D01*
X684615Y1395733D01*
X685885D01*
X685924Y1395674D01*
X687909Y1394348D01*
X690250Y1393882D01*
X690730Y1393978D01*
X691713Y1393174D01*
X691811Y1363080D01*
X690584Y1361243D01*
X690137Y1359000D01*
Y1328782D01*
X689883Y1327500D01*
Y1311850D01*
X690348Y1309509D01*
X691674Y1307524D01*
X691991Y1307207D01*
X692497Y1150900D01*
X691600Y1150000D01*
X642999D01*
Y1405000D01*
X655028D01*
X655626Y1403880D01*
D02*
G37*
G36*
X677287Y854084D02*
X677163Y852821D01*
X675674Y851826D01*
X674348Y849841D01*
X673882Y847500D01*
X674296Y845424D01*
X665507Y836635D01*
X664333Y837121D01*
Y865379D01*
X665507Y865865D01*
X677287Y854084D01*
D02*
G37*
G36*
X792500Y1150000D02*
X747500D01*
Y1220000D01*
X792500D01*
Y1150000D01*
D02*
G37*
D44*
X546277Y1379817D02*
D03*
X1192500Y1342750D02*
D03*
X1200250Y1333750D02*
D03*
X1172000Y1363000D02*
D03*
X1195250Y1385500D02*
D03*
X1211000Y1486500D02*
D03*
X1229750D02*
D03*
X1231000Y1442250D02*
D03*
X1230750Y1417250D02*
D03*
Y1302000D02*
D03*
Y1314000D02*
D03*
X1230250Y1329250D02*
D03*
X1230500Y1342750D02*
D03*
Y1356500D02*
D03*
X421250Y1358750D02*
D03*
X414000Y1359000D02*
D03*
X402999Y1367997D02*
D03*
X406001Y1359001D02*
D03*
X410500Y1367250D02*
D03*
X418000D02*
D03*
X785000Y1165000D02*
D03*
X785000Y1155000D02*
D03*
X765000Y1155000D02*
D03*
X770000Y1160000D02*
D03*
X785000Y1175000D02*
D03*
X780000Y1180000D02*
D03*
X765000Y1165000D02*
D03*
X718655Y418750D02*
D03*
X704000Y403706D02*
D03*
X711345Y396250D02*
D03*
X718801Y403655D02*
D03*
X718853Y396199D02*
D03*
X718801Y411147D02*
D03*
X711294Y403706D02*
D03*
Y411199D02*
D03*
X711147Y418801D02*
D03*
X704000Y411199D02*
D03*
X703853Y418801D02*
D03*
X688801Y403706D02*
D03*
X696294D02*
D03*
Y411199D02*
D03*
X696147Y418801D02*
D03*
X688801Y411199D02*
D03*
X681294Y403706D02*
D03*
X688655Y418801D02*
D03*
X681294Y411199D02*
D03*
X675000Y1478000D02*
D03*
X830500Y1220000D02*
D03*
X818500Y1360000D02*
D03*
X873000D02*
D03*
X845000Y1160000D02*
D03*
X887500Y1170000D02*
D03*
X467500Y1319000D02*
D03*
X487500D02*
D03*
X507500D02*
D03*
X527500Y1318999D02*
D03*
Y1300999D02*
D03*
X507500Y1301000D02*
D03*
X487500D02*
D03*
X467500D02*
D03*
X531000Y1282500D02*
D03*
X549000D02*
D03*
Y1262500D02*
D03*
X531000D02*
D03*
X472500Y1149000D02*
D03*
Y1131000D02*
D03*
X589000Y1137500D02*
D03*
Y1157500D02*
D03*
X647500Y1095000D02*
D03*
X634000Y1147500D02*
D03*
X616000D02*
D03*
Y1127500D02*
D03*
X571000Y1157500D02*
D03*
Y1137500D02*
D03*
X616000Y1300000D02*
D03*
Y1280000D02*
D03*
X547500Y1301000D02*
D03*
Y1319000D02*
D03*
X567500D02*
D03*
Y1301000D02*
D03*
X597500Y1236000D02*
D03*
X571000Y1272500D02*
D03*
X589000D02*
D03*
X597500Y1254000D02*
D03*
X592500Y1336500D02*
D03*
Y1318500D02*
D03*
X706000Y1492500D02*
D03*
X880000Y1380750D02*
D03*
X932500Y1385000D02*
D03*
X916500D02*
D03*
X905000Y1477500D02*
D03*
X861000Y1480000D02*
D03*
X879000Y1492500D02*
D03*
X885000Y1515000D02*
D03*
X879000Y1535500D02*
D03*
Y1554500D02*
D03*
X915000Y1452000D02*
D03*
X925000Y1435000D02*
D03*
X950000Y1393500D02*
D03*
X1042500Y1456500D02*
D03*
X1134500Y1235000D02*
D03*
X1129000Y1305000D02*
D03*
X1170000Y1355000D02*
D03*
X1107500Y1304500D02*
D03*
X862500Y1117500D02*
D03*
X875000D02*
D03*
X885000Y1112500D02*
D03*
X862500Y1127500D02*
D03*
X852500D02*
D03*
X830500Y1240000D02*
D03*
X792500Y1313000D02*
D03*
X772500D02*
D03*
X754000Y1322500D02*
D03*
X792500Y1331000D02*
D03*
X772500D02*
D03*
X736000Y1322500D02*
D03*
X736000Y1282500D02*
D03*
X754000D02*
D03*
X736000Y1302500D02*
D03*
X754000D02*
D03*
X830500Y1280000D02*
D03*
X812500D02*
D03*
Y1260000D02*
D03*
X830500D02*
D03*
X865000D02*
D03*
X883000D02*
D03*
X865500Y1220000D02*
D03*
X883000Y1240000D02*
D03*
X812500D02*
D03*
Y1220000D02*
D03*
Y1300000D02*
D03*
Y1180000D02*
D03*
Y1160000D02*
D03*
X830500D02*
D03*
Y1180000D02*
D03*
Y1300000D02*
D03*
X861000Y1180000D02*
D03*
X879000D02*
D03*
X901000Y1190000D02*
D03*
Y1170000D02*
D03*
X919000D02*
D03*
X936000D02*
D03*
X954000D02*
D03*
Y1190000D02*
D03*
X919000Y1210000D02*
D03*
X901000D02*
D03*
Y1230000D02*
D03*
X919000D02*
D03*
X936000D02*
D03*
Y1210000D02*
D03*
X954000D02*
D03*
Y1230000D02*
D03*
X925000Y1367000D02*
D03*
X892000Y1355000D02*
D03*
X860500Y1301500D02*
D03*
X855000Y1360000D02*
D03*
X975000Y1201000D02*
D03*
X1000000Y1200000D02*
D03*
X975000Y1253000D02*
D03*
X1008000Y1267500D02*
D03*
X985000Y1305000D02*
D03*
X1007000Y1303000D02*
D03*
X1137500Y1214000D02*
D03*
X1156000Y1197500D02*
D03*
X1195700Y1167000D02*
D03*
X1224500Y1182000D02*
D03*
X1215000Y1208000D02*
D03*
X1208400Y1223000D02*
D03*
X1221100D02*
D03*
X529751Y1361751D02*
D03*
X534250Y1390250D02*
D03*
X417499Y1265949D02*
D03*
Y1278649D02*
D03*
X423000Y1297700D02*
D03*
X415000Y1285200D02*
D03*
X423000D02*
D03*
X417499Y1291349D02*
D03*
X415000Y1297700D02*
D03*
X417499Y1304049D02*
D03*
X428999D02*
D03*
Y1291349D02*
D03*
X434500Y1285200D02*
D03*
Y1297700D02*
D03*
X428999Y1278649D02*
D03*
X547751Y1361751D02*
D03*
X546251Y1398864D02*
D03*
X416251Y1379251D02*
D03*
X430001D02*
D03*
X423251D02*
D03*
X467001Y1372251D02*
D03*
X462001Y1369001D02*
D03*
X457001Y1372252D02*
D03*
X438501Y1387751D02*
D03*
Y1395751D02*
D03*
X429001Y1321001D02*
D03*
X434501Y1340052D02*
D03*
Y1327552D02*
D03*
X429001Y1333701D02*
D03*
Y1346401D02*
D03*
X462001Y1362251D02*
D03*
X467001Y1365501D02*
D03*
X457001D02*
D03*
X462001Y1355501D02*
D03*
X457001Y1352251D02*
D03*
X467001D02*
D03*
X457001Y1358751D02*
D03*
X467001D02*
D03*
X417500Y1346350D02*
D03*
X415001Y1340001D02*
D03*
X417500Y1333650D02*
D03*
X423001Y1327501D02*
D03*
X415001D02*
D03*
X423001Y1340001D02*
D03*
X417500Y1320950D02*
D03*
X406001Y1327501D02*
D03*
X409001Y1385501D02*
D03*
Y1379251D02*
D03*
X425000Y1367251D02*
D03*
X409951Y1410000D02*
D03*
Y1420000D02*
D03*
X404951Y1425000D02*
D03*
Y1405000D02*
D03*
Y1415000D02*
D03*
X399951Y1420000D02*
D03*
Y1410000D02*
D03*
X389951Y1400000D02*
D03*
X379951D02*
D03*
X369951D02*
D03*
Y1410000D02*
D03*
Y1420000D02*
D03*
X374951Y1425000D02*
D03*
Y1415000D02*
D03*
Y1405000D02*
D03*
X394951D02*
D03*
Y1415000D02*
D03*
Y1425000D02*
D03*
X389952Y1419999D02*
D03*
X379951Y1410000D02*
D03*
Y1420000D02*
D03*
X384951Y1425000D02*
D03*
Y1415000D02*
D03*
Y1405000D02*
D03*
X409951Y1400000D02*
D03*
X399951D02*
D03*
X389951Y1410000D02*
D03*
X666000Y1490000D02*
D03*
X685000Y1387500D02*
D03*
X655001Y1387501D02*
D03*
X675001Y1387501D02*
D03*
X665001D02*
D03*
X875000Y1452000D02*
D03*
X855000D02*
D03*
X790000Y1480000D02*
D03*
X665000Y1452000D02*
D03*
X992500Y1372500D02*
D03*
X836250Y1380863D02*
D03*
X836500Y1360000D02*
D03*
X836250Y1398863D02*
D03*
X706250Y1379250D02*
D03*
X720000D02*
D03*
X713250D02*
D03*
X756750Y1372500D02*
D03*
X752000Y1369000D02*
D03*
X747001Y1372251D02*
D03*
X728500Y1387750D02*
D03*
Y1395750D02*
D03*
X719000Y1262250D02*
D03*
X724501Y1281301D02*
D03*
Y1268801D02*
D03*
X719000Y1274950D02*
D03*
Y1287650D02*
D03*
Y1321000D02*
D03*
X724501Y1340051D02*
D03*
Y1327551D02*
D03*
X719000Y1333700D02*
D03*
Y1346400D02*
D03*
X752000Y1362250D02*
D03*
X757000Y1365500D02*
D03*
X747000D02*
D03*
X752000Y1355500D02*
D03*
X747001Y1352251D02*
D03*
X757001D02*
D03*
X747000Y1358750D02*
D03*
X757000D02*
D03*
X707499Y1346349D02*
D03*
X705000Y1340000D02*
D03*
X707499Y1333649D02*
D03*
X713000Y1327500D02*
D03*
X705000D02*
D03*
X713000Y1340000D02*
D03*
X707499Y1320949D02*
D03*
X707500Y1287650D02*
D03*
X705001Y1281301D02*
D03*
X707500Y1274950D02*
D03*
X713001Y1268801D02*
D03*
X705001D02*
D03*
X713001Y1281301D02*
D03*
X707500Y1262250D02*
D03*
X665000Y1155000D02*
D03*
X655000D02*
D03*
X685000Y1155000D02*
D03*
X675000D02*
D03*
X755000Y1155000D02*
D03*
X775000Y1155000D02*
D03*
X780000Y1160000D02*
D03*
Y1170000D02*
D03*
X760000Y1180000D02*
D03*
X765000Y1175000D02*
D03*
X770000Y1180000D02*
D03*
X750000Y1160000D02*
D03*
X775000Y1165000D02*
D03*
X755000D02*
D03*
X750000Y1170000D02*
D03*
X770000D02*
D03*
X760000D02*
D03*
X750000Y1180000D02*
D03*
Y1190000D02*
D03*
X765000Y1195000D02*
D03*
X755000D02*
D03*
Y1175000D02*
D03*
X775000D02*
D03*
X760000Y1190000D02*
D03*
X765000Y1185000D02*
D03*
X755000D02*
D03*
X785000Y1195000D02*
D03*
X775000D02*
D03*
X790000Y1190000D02*
D03*
X770000D02*
D03*
X780000D02*
D03*
X790000Y1180000D02*
D03*
Y1170000D02*
D03*
Y1160000D02*
D03*
X785000Y1185000D02*
D03*
X775000D02*
D03*
X760000Y1160000D02*
D03*
X660000D02*
D03*
X680000Y1180000D02*
D03*
X675000Y1185000D02*
D03*
X685000D02*
D03*
X690000Y1160000D02*
D03*
Y1170000D02*
D03*
Y1180000D02*
D03*
X680000Y1190000D02*
D03*
X670000D02*
D03*
X690000D02*
D03*
X675000Y1195000D02*
D03*
X685000D02*
D03*
X655000Y1185000D02*
D03*
X665000D02*
D03*
X660000Y1190000D02*
D03*
X675000Y1175000D02*
D03*
X655000D02*
D03*
Y1195000D02*
D03*
X665000D02*
D03*
X650000Y1190000D02*
D03*
Y1180000D02*
D03*
X660000Y1170000D02*
D03*
X670000D02*
D03*
X650000D02*
D03*
X655000Y1165000D02*
D03*
X675000D02*
D03*
X650000Y1160000D02*
D03*
X670000Y1180000D02*
D03*
X685000Y1175000D02*
D03*
X665000D02*
D03*
X660000Y1180000D02*
D03*
X680000Y1170000D02*
D03*
X665000Y1165000D02*
D03*
X685000D02*
D03*
X680000Y1160000D02*
D03*
X670000D02*
D03*
X707500Y1300350D02*
D03*
X696000Y1327500D02*
D03*
X699000Y1385500D02*
D03*
Y1379250D02*
D03*
X700250Y1400000D02*
D03*
Y1410000D02*
D03*
Y1420000D02*
D03*
X695250Y1425000D02*
D03*
Y1405000D02*
D03*
Y1415000D02*
D03*
X690250Y1400000D02*
D03*
Y1420000D02*
D03*
Y1410000D02*
D03*
X680250Y1400000D02*
D03*
X670250D02*
D03*
X660250D02*
D03*
Y1410000D02*
D03*
Y1420000D02*
D03*
X665250Y1425000D02*
D03*
Y1415000D02*
D03*
Y1405000D02*
D03*
X685250D02*
D03*
Y1415000D02*
D03*
Y1425000D02*
D03*
X680251Y1419999D02*
D03*
X670250Y1410000D02*
D03*
Y1420000D02*
D03*
X675250Y1425000D02*
D03*
Y1415000D02*
D03*
Y1405000D02*
D03*
X680000Y1410000D02*
D03*
X694000Y1367499D02*
D03*
X701125Y1367250D02*
D03*
X708000D02*
D03*
X714999D02*
D03*
X698000Y1359000D02*
D03*
X705000D02*
D03*
X780000Y1435000D02*
D03*
X712000Y1359000D02*
D03*
X600000Y975000D02*
D03*
Y1005000D02*
D03*
Y1055000D02*
D03*
X1000000Y1105000D02*
D03*
X800000Y1020000D02*
D03*
X1000000Y1075000D02*
D03*
X800000Y1045000D02*
D03*
X1000000D02*
D03*
Y1015000D02*
D03*
Y1005000D02*
D03*
Y982500D02*
D03*
Y827500D02*
D03*
Y795000D02*
D03*
Y327500D02*
D03*
Y350000D02*
D03*
Y410000D02*
D03*
Y385000D02*
D03*
X600000Y430000D02*
D03*
X800000Y590000D02*
D03*
Y567500D02*
D03*
X600000Y805000D02*
D03*
Y775000D02*
D03*
X800000D02*
D03*
Y805000D02*
D03*
Y625000D02*
D03*
Y410000D02*
D03*
Y385000D02*
D03*
Y325000D02*
D03*
X600000Y327500D02*
D03*
Y352500D02*
D03*
Y410000D02*
D03*
Y385000D02*
D03*
Y572500D02*
D03*
Y597500D02*
D03*
Y625000D02*
D03*
X725000Y1452000D02*
D03*
X685000D02*
D03*
X705000D02*
D03*
X745000D02*
D03*
X770000D02*
D03*
X835000D02*
D03*
X675001Y1335001D02*
D03*
X665001Y1345001D02*
D03*
X675001D02*
D03*
X685001D02*
D03*
X680001Y1350001D02*
D03*
X670001D02*
D03*
Y1340001D02*
D03*
X680000Y1340000D02*
D03*
X685001Y1335001D02*
D03*
X665001Y1355001D02*
D03*
X675001D02*
D03*
X685001D02*
D03*
X660001Y1350001D02*
D03*
Y1340001D02*
D03*
X680001Y1330001D02*
D03*
X665001Y1325001D02*
D03*
X685001D02*
D03*
X680001Y1280001D02*
D03*
X685001Y1285001D02*
D03*
X665001D02*
D03*
X660001Y1290001D02*
D03*
X680001D02*
D03*
X660001Y1300001D02*
D03*
X685001Y1295001D02*
D03*
X680000Y1300000D02*
D03*
X670001Y1300001D02*
D03*
X660001Y1240001D02*
D03*
X670001D02*
D03*
X665001Y1245001D02*
D03*
X675001D02*
D03*
X660001Y1250001D02*
D03*
X670001D02*
D03*
X660001Y1260001D02*
D03*
X670001Y1280001D02*
D03*
X685001Y1275001D02*
D03*
X675001D02*
D03*
X665001D02*
D03*
Y1255001D02*
D03*
X680000Y1260000D02*
D03*
X680001Y1270001D02*
D03*
X685001Y1265001D02*
D03*
X670001Y1200001D02*
D03*
X680001D02*
D03*
X685001Y1205001D02*
D03*
X665001D02*
D03*
X680001Y1210001D02*
D03*
X660001Y1220001D02*
D03*
X665001Y1215001D02*
D03*
X685001D02*
D03*
X670001Y1220001D02*
D03*
X650001Y1200001D02*
D03*
X675001Y1205001D02*
D03*
X655001D02*
D03*
X650001Y1210001D02*
D03*
X670001D02*
D03*
X660001D02*
D03*
X650001Y1220001D02*
D03*
Y1230001D02*
D03*
X665001Y1235001D02*
D03*
X655001D02*
D03*
Y1215001D02*
D03*
X675001D02*
D03*
X660001Y1230001D02*
D03*
X665001Y1225001D02*
D03*
X655001D02*
D03*
X690001Y1240001D02*
D03*
X680001D02*
D03*
X685001Y1235001D02*
D03*
X675001D02*
D03*
X690001Y1230001D02*
D03*
X670001D02*
D03*
X680001D02*
D03*
X690001Y1220001D02*
D03*
Y1210001D02*
D03*
Y1200001D02*
D03*
X685001Y1225001D02*
D03*
X675001D02*
D03*
X680001Y1220001D02*
D03*
X650001Y1260001D02*
D03*
Y1250001D02*
D03*
Y1240001D02*
D03*
X655001Y1255001D02*
D03*
Y1245001D02*
D03*
X670001Y1260001D02*
D03*
X690001Y1250001D02*
D03*
X685001Y1245001D02*
D03*
Y1255001D02*
D03*
X680001Y1250001D02*
D03*
X675001Y1255001D02*
D03*
Y1265001D02*
D03*
X655001D02*
D03*
X665001D02*
D03*
X650001Y1270001D02*
D03*
X670001D02*
D03*
X660001D02*
D03*
X650001Y1280001D02*
D03*
Y1290001D02*
D03*
Y1300001D02*
D03*
X655001Y1275001D02*
D03*
X660001Y1280001D02*
D03*
X670001Y1290001D02*
D03*
X675001Y1285001D02*
D03*
X655001D02*
D03*
X650001Y1320001D02*
D03*
Y1330001D02*
D03*
Y1340001D02*
D03*
X665001Y1335001D02*
D03*
X655001D02*
D03*
X670000Y1320000D02*
D03*
X660001Y1330001D02*
D03*
X675001Y1325001D02*
D03*
X655001Y1345001D02*
D03*
X650001Y1350001D02*
D03*
Y1360001D02*
D03*
X660001Y1380001D02*
D03*
X670001D02*
D03*
X655001Y1375001D02*
D03*
Y1355001D02*
D03*
X670000Y1360000D02*
D03*
X660001Y1370001D02*
D03*
X670001D02*
D03*
X655001Y1295001D02*
D03*
X660001Y1360001D02*
D03*
X675001Y1365001D02*
D03*
X655001D02*
D03*
X665001D02*
D03*
X650001Y1370001D02*
D03*
Y1380001D02*
D03*
X680001Y1360001D02*
D03*
X685001Y1365001D02*
D03*
X680001Y1370001D02*
D03*
X665001Y1375001D02*
D03*
X675001D02*
D03*
X685001D02*
D03*
X680000Y1380000D02*
D03*
X660001Y1320001D02*
D03*
X655001Y1325001D02*
D03*
X665001Y1315001D02*
D03*
X670001Y1330001D02*
D03*
Y1310001D02*
D03*
X655001Y1305001D02*
D03*
X675001Y1315001D02*
D03*
X680001Y1320001D02*
D03*
Y1310001D02*
D03*
X685001Y1315001D02*
D03*
Y1305001D02*
D03*
X660001Y1310001D02*
D03*
X650001D02*
D03*
X665001Y1305001D02*
D03*
X655001Y1315002D02*
D03*
X665001Y1295001D02*
D03*
X675001D02*
D03*
Y1305001D02*
D03*
X660001Y1200001D02*
D03*
X760001D02*
D03*
X790001Y1200001D02*
D03*
Y1210001D02*
D03*
X775001Y1215001D02*
D03*
X755001D02*
D03*
X760001Y1210001D02*
D03*
X770001D02*
D03*
X750001D02*
D03*
X755001Y1205001D02*
D03*
X775001D02*
D03*
X750001Y1200001D02*
D03*
X785001Y1215001D02*
D03*
X765001D02*
D03*
X780001Y1210001D02*
D03*
X765001Y1205001D02*
D03*
X785001D02*
D03*
X780001Y1200001D02*
D03*
X770001D02*
D03*
X459999Y1250001D02*
D03*
X479999D02*
D03*
X499999Y1240001D02*
D03*
X494999Y1245001D02*
D03*
X489999Y1250001D02*
D03*
X469999Y1240001D02*
D03*
X464999Y1245001D02*
D03*
X484999D02*
D03*
X469999Y1250001D02*
D03*
X474999Y1245001D02*
D03*
X459999Y1240001D02*
D03*
X499999Y1250001D02*
D03*
X480001Y1240001D02*
D03*
Y1200001D02*
D03*
X490001D02*
D03*
X495001Y1205001D02*
D03*
X475001D02*
D03*
X490001Y1210001D02*
D03*
X470001Y1220001D02*
D03*
X475001Y1215001D02*
D03*
X495001D02*
D03*
X480001Y1220001D02*
D03*
X460001Y1200001D02*
D03*
X485001Y1205001D02*
D03*
X465001D02*
D03*
X460001Y1210001D02*
D03*
X480001D02*
D03*
X470001D02*
D03*
X460001Y1220001D02*
D03*
Y1230001D02*
D03*
X475001Y1235001D02*
D03*
X465001D02*
D03*
Y1215001D02*
D03*
X485001D02*
D03*
X470001Y1230001D02*
D03*
X475001Y1225001D02*
D03*
X465001D02*
D03*
X490001Y1240001D02*
D03*
X495001Y1235001D02*
D03*
X485001D02*
D03*
X500001Y1230001D02*
D03*
X480001D02*
D03*
X490001D02*
D03*
X500001Y1220001D02*
D03*
Y1210001D02*
D03*
Y1200001D02*
D03*
X495001Y1225001D02*
D03*
X485001D02*
D03*
X490001Y1220001D02*
D03*
X470001Y1200001D02*
D03*
X370001D02*
D03*
X1008500Y1212500D02*
D03*
X1007500Y1192500D02*
D03*
X992500Y1212500D02*
D03*
X1047500Y1192500D02*
D03*
X1042500Y1200000D02*
D03*
X1052500Y1185000D02*
D03*
X1057500Y1177500D02*
D03*
X1100000Y1357500D02*
D03*
X1009000Y1335000D02*
D03*
X634000Y1167500D02*
D03*
X860000Y1435000D02*
D03*
X1115000Y1428000D02*
D03*
X1134000Y1428000D02*
D03*
X950000Y1411500D02*
D03*
X945000Y1430000D02*
D03*
X900000Y1417000D02*
D03*
Y1391000D02*
D03*
X685000Y1480000D02*
D03*
X735000Y1478000D02*
D03*
X845000D02*
D03*
X855000Y1480000D02*
D03*
X705000D02*
D03*
X880000Y1417000D02*
D03*
X860000D02*
D03*
X840000D02*
D03*
X820000D02*
D03*
X800000D02*
D03*
X759999Y1416999D02*
D03*
X740000Y1417000D02*
D03*
X780000D02*
D03*
X720000D02*
D03*
X402500Y1471500D02*
D03*
X382500D02*
D03*
X362500D02*
D03*
X402500Y1453500D02*
D03*
X382500D02*
D03*
X362500D02*
D03*
X790000Y1452000D02*
D03*
X880000Y1435000D02*
D03*
X840000D02*
D03*
X820000D02*
D03*
X800000D02*
D03*
X759999Y1434999D02*
D03*
X740000Y1435000D02*
D03*
X616000Y1377500D02*
D03*
X594000Y1360000D02*
D03*
X720000Y1435000D02*
D03*
X594000Y1400000D02*
D03*
X612500Y1336500D02*
D03*
X632500D02*
D03*
X616000Y1400000D02*
D03*
X634000D02*
D03*
Y1355000D02*
D03*
X632500Y1318500D02*
D03*
X612500D02*
D03*
X616000Y1355000D02*
D03*
X576000Y1360000D02*
D03*
X634000Y1280000D02*
D03*
Y1300000D02*
D03*
X452500Y1114000D02*
D03*
Y1131000D02*
D03*
X512500Y1112500D02*
D03*
Y1131000D02*
D03*
X589000Y1117500D02*
D03*
X584000Y1065000D02*
D03*
X385001Y1305001D02*
D03*
Y1295001D02*
D03*
X375001D02*
D03*
X365001Y1315002D02*
D03*
X375001Y1305001D02*
D03*
X360001Y1310001D02*
D03*
X370001D02*
D03*
X395001Y1305001D02*
D03*
Y1315001D02*
D03*
X390001Y1310001D02*
D03*
Y1320001D02*
D03*
X385001Y1315001D02*
D03*
X365001Y1305001D02*
D03*
X380001Y1310001D02*
D03*
Y1330001D02*
D03*
X375001Y1315001D02*
D03*
X365001Y1325001D02*
D03*
X370001Y1320001D02*
D03*
X571000Y1117500D02*
D03*
X616000Y1167500D02*
D03*
Y1187500D02*
D03*
X634000D02*
D03*
Y1242500D02*
D03*
X616000D02*
D03*
X452500Y1149000D02*
D03*
X432500D02*
D03*
X512500D02*
D03*
X532500D02*
D03*
X492500D02*
D03*
X589000Y1177500D02*
D03*
X597500Y1201000D02*
D03*
X634000Y1207500D02*
D03*
Y1262500D02*
D03*
X549000Y1242500D02*
D03*
Y1167500D02*
D03*
Y1187500D02*
D03*
X531000Y1167500D02*
D03*
X571000Y1177500D02*
D03*
X597500Y1219000D02*
D03*
X616000Y1207500D02*
D03*
X531000Y1187500D02*
D03*
Y1242500D02*
D03*
X616000Y1262500D02*
D03*
X385001Y1385001D02*
D03*
X395001D02*
D03*
X390000Y1380000D02*
D03*
X395001Y1375001D02*
D03*
X385001D02*
D03*
X375001D02*
D03*
X390001Y1370001D02*
D03*
X395001Y1365001D02*
D03*
X390001Y1360001D02*
D03*
X365001Y1385001D02*
D03*
X375001D02*
D03*
X360001Y1380001D02*
D03*
Y1370001D02*
D03*
X375001Y1365001D02*
D03*
X365001D02*
D03*
X385001D02*
D03*
X370001Y1360001D02*
D03*
X365001Y1295001D02*
D03*
X380001Y1370001D02*
D03*
X370001D02*
D03*
X380000Y1360000D02*
D03*
X365001Y1355001D02*
D03*
Y1375001D02*
D03*
X380001Y1380001D02*
D03*
X370001D02*
D03*
X360001Y1360001D02*
D03*
Y1350001D02*
D03*
X365001Y1345001D02*
D03*
X385001Y1325001D02*
D03*
X370001Y1330001D02*
D03*
X380000Y1320000D02*
D03*
X365001Y1335001D02*
D03*
X375001D02*
D03*
X360001Y1340001D02*
D03*
Y1330001D02*
D03*
Y1320001D02*
D03*
X365001Y1285001D02*
D03*
X385001D02*
D03*
X380001Y1290001D02*
D03*
X370001Y1280001D02*
D03*
X365001Y1275001D02*
D03*
X360001Y1300001D02*
D03*
Y1290001D02*
D03*
Y1280001D02*
D03*
X370001Y1270001D02*
D03*
X380001D02*
D03*
X360001D02*
D03*
X375001Y1265001D02*
D03*
X365001D02*
D03*
X385001D02*
D03*
Y1255001D02*
D03*
X390001Y1250001D02*
D03*
X395001Y1255001D02*
D03*
Y1245001D02*
D03*
X400001Y1250001D02*
D03*
X380001Y1260001D02*
D03*
X365001Y1245001D02*
D03*
Y1255001D02*
D03*
X360001Y1240001D02*
D03*
Y1250001D02*
D03*
Y1260001D02*
D03*
X390001Y1220001D02*
D03*
X385001Y1225001D02*
D03*
X395001D02*
D03*
X400001Y1200001D02*
D03*
Y1210001D02*
D03*
Y1220001D02*
D03*
X390001Y1230001D02*
D03*
X380001D02*
D03*
X400001D02*
D03*
X385001Y1235001D02*
D03*
X395001D02*
D03*
X390001Y1240001D02*
D03*
X400001D02*
D03*
X365001Y1225001D02*
D03*
X375001D02*
D03*
X370001Y1230001D02*
D03*
X385001Y1215001D02*
D03*
X365001D02*
D03*
Y1235001D02*
D03*
X375001D02*
D03*
X360001Y1230001D02*
D03*
Y1220001D02*
D03*
X370001Y1210001D02*
D03*
X380001D02*
D03*
X360001D02*
D03*
X365001Y1205001D02*
D03*
X385001D02*
D03*
X360001Y1200001D02*
D03*
X380001Y1220001D02*
D03*
X395001Y1215001D02*
D03*
X375001D02*
D03*
X370001Y1220001D02*
D03*
X390001Y1210001D02*
D03*
X375001Y1205001D02*
D03*
X395001D02*
D03*
X390001Y1200001D02*
D03*
X380001D02*
D03*
X395001Y1265001D02*
D03*
X390001Y1270001D02*
D03*
X390000Y1260000D02*
D03*
X375001Y1255001D02*
D03*
Y1275001D02*
D03*
X385001D02*
D03*
X395001D02*
D03*
X380001Y1280001D02*
D03*
X370001Y1260001D02*
D03*
X380001Y1250001D02*
D03*
X370001D02*
D03*
X385001Y1245001D02*
D03*
X375001D02*
D03*
X380001Y1240001D02*
D03*
X370001D02*
D03*
X380001Y1300001D02*
D03*
X390000Y1300000D02*
D03*
X395001Y1295001D02*
D03*
X370001Y1300001D02*
D03*
X390001Y1290001D02*
D03*
X370001D02*
D03*
X375001Y1285001D02*
D03*
X395001D02*
D03*
X390001Y1280001D02*
D03*
X395001Y1325001D02*
D03*
X375001D02*
D03*
X390001Y1330001D02*
D03*
X370001Y1340001D02*
D03*
Y1350001D02*
D03*
X395001Y1355001D02*
D03*
X385001D02*
D03*
X375001D02*
D03*
X395001Y1335001D02*
D03*
X390000Y1340000D02*
D03*
X380001Y1340001D02*
D03*
Y1350001D02*
D03*
X390001D02*
D03*
X395001Y1345001D02*
D03*
X385001D02*
D03*
X375001D02*
D03*
X406001Y1266001D02*
D03*
X411725D02*
D03*
X406001Y1300001D02*
D03*
X877500Y1283500D02*
D03*
Y1295000D02*
D03*
X725000Y1125000D02*
D03*
X700000D02*
D03*
X919000Y1250000D02*
D03*
X901000D02*
D03*
X847500Y1220000D02*
D03*
X865000Y1240000D02*
D03*
X892000Y1345000D02*
D03*
X1150000Y1290000D02*
D03*
X481345Y381250D02*
D03*
X481199Y388853D02*
D03*
Y396345D02*
D03*
X481147Y403801D02*
D03*
X481199Y411345D02*
D03*
X481147Y418853D02*
D03*
X488655Y418801D02*
D03*
X488706Y411294D02*
D03*
X488655Y403750D02*
D03*
X488706Y396294D02*
D03*
Y388801D02*
D03*
X488853Y381199D02*
D03*
X495949Y418801D02*
D03*
X496000Y411294D02*
D03*
X495949Y403750D02*
D03*
X496000Y396294D02*
D03*
Y388801D02*
D03*
X496147Y381199D02*
D03*
X503655Y418801D02*
D03*
X503706Y411294D02*
D03*
X503655Y403750D02*
D03*
X503706Y396294D02*
D03*
Y388801D02*
D03*
X503853Y381199D02*
D03*
X511147Y418801D02*
D03*
X511199Y411294D02*
D03*
X511147Y403750D02*
D03*
X511199Y396294D02*
D03*
Y388801D02*
D03*
X511345Y381199D02*
D03*
X518655Y418801D02*
D03*
X518706Y411294D02*
D03*
X518655Y403750D02*
D03*
X518706Y396294D02*
D03*
Y388801D02*
D03*
X518853Y381199D02*
D03*
Y581199D02*
D03*
X518706Y588801D02*
D03*
Y596294D02*
D03*
X518655Y603750D02*
D03*
X518706Y611294D02*
D03*
X518655Y618801D02*
D03*
X511345Y581199D02*
D03*
X511199Y588801D02*
D03*
Y596294D02*
D03*
X511147Y603750D02*
D03*
X511199Y611294D02*
D03*
X511147Y618801D02*
D03*
X503853Y581199D02*
D03*
X503706Y588801D02*
D03*
Y596294D02*
D03*
X503655Y603750D02*
D03*
X503706Y611294D02*
D03*
X503655Y618801D02*
D03*
X496147Y581199D02*
D03*
X496000Y588801D02*
D03*
Y596294D02*
D03*
X495949Y603750D02*
D03*
X496000Y611294D02*
D03*
X495949Y618801D02*
D03*
X488853Y581199D02*
D03*
X488706Y588801D02*
D03*
Y596294D02*
D03*
X488655Y603750D02*
D03*
X488706Y611294D02*
D03*
X488655Y618801D02*
D03*
X481147Y618853D02*
D03*
X481199Y611345D02*
D03*
X481147Y603801D02*
D03*
X481199Y596345D02*
D03*
Y588853D02*
D03*
X481345Y581250D02*
D03*
Y781250D02*
D03*
X481199Y788853D02*
D03*
Y796345D02*
D03*
X481147Y803801D02*
D03*
X481199Y811345D02*
D03*
X481147Y818853D02*
D03*
X488655Y818801D02*
D03*
X488706Y811294D02*
D03*
X488655Y803750D02*
D03*
X488706Y796294D02*
D03*
Y788801D02*
D03*
X488853Y781199D02*
D03*
X495949Y818801D02*
D03*
X496000Y811294D02*
D03*
X495949Y803750D02*
D03*
X496000Y796294D02*
D03*
Y788801D02*
D03*
X496147Y781199D02*
D03*
X503655Y818801D02*
D03*
X503706Y811294D02*
D03*
X503655Y803750D02*
D03*
X503706Y796294D02*
D03*
Y788801D02*
D03*
X503853Y781199D02*
D03*
X511147Y818801D02*
D03*
X511199Y811294D02*
D03*
X511147Y803750D02*
D03*
X511199Y796294D02*
D03*
Y788801D02*
D03*
X511345Y781199D02*
D03*
X518655Y818801D02*
D03*
X518706Y811294D02*
D03*
X518655Y803750D02*
D03*
X518706Y796294D02*
D03*
Y788801D02*
D03*
X518853Y781199D02*
D03*
X800000Y600000D02*
D03*
X600000Y585000D02*
D03*
Y560000D02*
D03*
X1000000Y755000D02*
D03*
X1081147Y618801D02*
D03*
X1081294Y611199D02*
D03*
Y603706D02*
D03*
X1081345Y596250D02*
D03*
X1081294Y588706D02*
D03*
X1081345Y581199D02*
D03*
X1088655Y618801D02*
D03*
X1088801Y611199D02*
D03*
Y603706D02*
D03*
X1088853Y596250D02*
D03*
X1088801Y588706D02*
D03*
X1088853Y581199D02*
D03*
X1096147Y618801D02*
D03*
X1096294Y611199D02*
D03*
Y603706D02*
D03*
X1096345Y596250D02*
D03*
X1096294Y588706D02*
D03*
X1096345Y581199D02*
D03*
X1103853Y618801D02*
D03*
X1104000Y611199D02*
D03*
Y603706D02*
D03*
X1104051Y596250D02*
D03*
X1104000Y588706D02*
D03*
X1104051Y581199D02*
D03*
X1111147Y618801D02*
D03*
X1111294Y611199D02*
D03*
Y603706D02*
D03*
X1111345Y596250D02*
D03*
X1111294Y588706D02*
D03*
X1111345Y581199D02*
D03*
X1118853Y581147D02*
D03*
X1118801Y588655D02*
D03*
X1118853Y596199D02*
D03*
X1118801Y603655D02*
D03*
Y611147D02*
D03*
X1118655Y618750D02*
D03*
Y818750D02*
D03*
X1118801Y811147D02*
D03*
Y803655D02*
D03*
X1118853Y796199D02*
D03*
X1118801Y788655D02*
D03*
X1118853Y781147D02*
D03*
X1111345Y781199D02*
D03*
X1111294Y788706D02*
D03*
X1111345Y796250D02*
D03*
X1111294Y803706D02*
D03*
Y811199D02*
D03*
X1111147Y818801D02*
D03*
X1104051Y781199D02*
D03*
X1104000Y788706D02*
D03*
X1104051Y796250D02*
D03*
X1104000Y803706D02*
D03*
Y811199D02*
D03*
X1103853Y818801D02*
D03*
X1096345Y781199D02*
D03*
X1096294Y788706D02*
D03*
X1096345Y796250D02*
D03*
X1096294Y803706D02*
D03*
Y811199D02*
D03*
X1096147Y818801D02*
D03*
X1088853Y781199D02*
D03*
X1088801Y788706D02*
D03*
X1088853Y796250D02*
D03*
X1088801Y803706D02*
D03*
Y811199D02*
D03*
X1088655Y818801D02*
D03*
X1081345Y781199D02*
D03*
X1081294Y788706D02*
D03*
X1081345Y796250D02*
D03*
X1081294Y803706D02*
D03*
Y811199D02*
D03*
X1081147Y818801D02*
D03*
X1118655Y1018750D02*
D03*
X1118801Y1011147D02*
D03*
Y1003655D02*
D03*
X1118853Y996199D02*
D03*
X1118801Y988655D02*
D03*
X1118853Y981147D02*
D03*
X1111345Y981199D02*
D03*
X1111294Y988706D02*
D03*
X1111345Y996250D02*
D03*
X1111294Y1003706D02*
D03*
Y1011199D02*
D03*
X1111147Y1018801D02*
D03*
X1104051Y981199D02*
D03*
X1104000Y988706D02*
D03*
X1104051Y996250D02*
D03*
X1104000Y1003706D02*
D03*
Y1011199D02*
D03*
X1103853Y1018801D02*
D03*
X1096345Y981199D02*
D03*
X1096294Y988706D02*
D03*
X1096345Y996250D02*
D03*
X1096294Y1003706D02*
D03*
Y1011199D02*
D03*
X1096147Y1018801D02*
D03*
X1088853Y981199D02*
D03*
X1088801Y988706D02*
D03*
X1088853Y996250D02*
D03*
X1088801Y1003706D02*
D03*
Y1011199D02*
D03*
X1088655Y1018801D02*
D03*
X1081345Y981199D02*
D03*
X1081294Y988706D02*
D03*
X1081345Y996250D02*
D03*
X1081294Y1003706D02*
D03*
Y1011199D02*
D03*
X1081147Y1018801D02*
D03*
X481345Y981250D02*
D03*
X481199Y988853D02*
D03*
Y996345D02*
D03*
X481147Y1003801D02*
D03*
X481199Y1011345D02*
D03*
X481147Y1018853D02*
D03*
X488655Y1018801D02*
D03*
X488706Y1011294D02*
D03*
X488655Y1003750D02*
D03*
X488706Y996294D02*
D03*
Y988801D02*
D03*
X488853Y981199D02*
D03*
X495949Y1018801D02*
D03*
X496000Y1011294D02*
D03*
X495949Y1003750D02*
D03*
X496000Y996294D02*
D03*
Y988801D02*
D03*
X496147Y981199D02*
D03*
X503655Y1018801D02*
D03*
X503706Y1011294D02*
D03*
X503655Y1003750D02*
D03*
X503706Y996294D02*
D03*
Y988801D02*
D03*
X503853Y981199D02*
D03*
X511147Y1018801D02*
D03*
X511199Y1011294D02*
D03*
X511147Y1003750D02*
D03*
X511199Y996294D02*
D03*
Y988801D02*
D03*
X511345Y981199D02*
D03*
X518655Y1018801D02*
D03*
X518706Y1011294D02*
D03*
X518655Y1003750D02*
D03*
X518706Y996294D02*
D03*
Y988801D02*
D03*
X518853Y981199D02*
D03*
X1081147Y418801D02*
D03*
X1081294Y411199D02*
D03*
Y403706D02*
D03*
X1081345Y396250D02*
D03*
X1081294Y388706D02*
D03*
X1081345Y381199D02*
D03*
X1088655Y418801D02*
D03*
X1088801Y411199D02*
D03*
Y403706D02*
D03*
X1088853Y396250D02*
D03*
X1088801Y388706D02*
D03*
X1088853Y381199D02*
D03*
X1096147Y418801D02*
D03*
X1096294Y411199D02*
D03*
Y403706D02*
D03*
X1096345Y396250D02*
D03*
X1096294Y388706D02*
D03*
X1096345Y381199D02*
D03*
X1103853Y418801D02*
D03*
X1104000Y411199D02*
D03*
Y403706D02*
D03*
X1104051Y396250D02*
D03*
X1104000Y388706D02*
D03*
X1104051Y381199D02*
D03*
X1111147Y418801D02*
D03*
X1111294Y411199D02*
D03*
Y403706D02*
D03*
X1111345Y396250D02*
D03*
X1111294Y388706D02*
D03*
X1111345Y381199D02*
D03*
X1118853Y381147D02*
D03*
X1118801Y388655D02*
D03*
X1118853Y396199D02*
D03*
X1118801Y403655D02*
D03*
Y411147D02*
D03*
X1118655Y418750D02*
D03*
X1060000Y352500D02*
D03*
X462500Y447500D02*
D03*
X540000Y1047500D02*
D03*
X1052499Y399998D02*
D03*
X835000Y1090000D02*
D03*
X541500Y307500D02*
D03*
X662500Y315000D02*
D03*
X835000Y1075000D02*
D03*
X922500Y312500D02*
D03*
X1060000Y324000D02*
D03*
Y552500D02*
D03*
X1081430Y324000D02*
D03*
Y524000D02*
D03*
Y924000D02*
D03*
Y724000D02*
D03*
X962500Y997500D02*
D03*
X918570Y476000D02*
D03*
Y676000D02*
D03*
Y876000D02*
D03*
Y1076000D02*
D03*
X518570D02*
D03*
Y876000D02*
D03*
Y676000D02*
D03*
Y476000D02*
D03*
X510000Y952500D02*
D03*
X540000Y647500D02*
D03*
X440000Y615000D02*
D03*
X462500Y647500D02*
D03*
X555000Y590000D02*
D03*
X510000Y552500D02*
D03*
X487500Y512500D02*
D03*
X547501Y600002D02*
D03*
X570000Y556500D02*
D03*
X580000Y647500D02*
D03*
X452500Y522002D02*
D03*
X522500Y522500D02*
D03*
X520000Y552500D02*
D03*
X430000Y556500D02*
D03*
Y645000D02*
D03*
X570000Y628500D02*
D03*
X487500Y685000D02*
D03*
X462500Y685000D02*
D03*
X540000Y847500D02*
D03*
X440000Y815000D02*
D03*
X462500Y847500D02*
D03*
X555000Y790000D02*
D03*
X510000Y752500D02*
D03*
X487500Y712500D02*
D03*
X547501Y800002D02*
D03*
X570000Y756500D02*
D03*
X580000Y847500D02*
D03*
X452500Y722002D02*
D03*
X522500Y722500D02*
D03*
X520000Y752500D02*
D03*
X430000Y756500D02*
D03*
Y845000D02*
D03*
X570000Y828500D02*
D03*
X487500Y885000D02*
D03*
X462500Y885000D02*
D03*
X440000Y1015000D02*
D03*
X462500Y1047500D02*
D03*
X555000Y990000D02*
D03*
X487500Y912500D02*
D03*
X547501Y1000002D02*
D03*
X570000Y956500D02*
D03*
X580000Y1047500D02*
D03*
X452500Y922002D02*
D03*
X522500Y922500D02*
D03*
X430000Y956500D02*
D03*
Y1045000D02*
D03*
X570000Y1028500D02*
D03*
X487500Y1085000D02*
D03*
X462500Y1085000D02*
D03*
X540000Y447500D02*
D03*
X440000Y415000D02*
D03*
X555000Y390000D02*
D03*
X510000Y352500D02*
D03*
X487500Y312500D02*
D03*
X547501Y400002D02*
D03*
X570000Y356500D02*
D03*
X580000Y447500D02*
D03*
X452500Y322002D02*
D03*
X522500Y322500D02*
D03*
X520000Y352500D02*
D03*
X430000Y356500D02*
D03*
Y445000D02*
D03*
X570000Y428500D02*
D03*
X487500Y485000D02*
D03*
X462500Y485000D02*
D03*
X940000Y1047500D02*
D03*
X840000Y1015000D02*
D03*
X862500Y1047500D02*
D03*
X955000Y990000D02*
D03*
X910000Y952500D02*
D03*
X887500Y912500D02*
D03*
X970000Y956500D02*
D03*
X852500Y922002D02*
D03*
X922500Y922500D02*
D03*
X920000Y952500D02*
D03*
X830000Y956500D02*
D03*
Y1045000D02*
D03*
X970000Y1028500D02*
D03*
X940000Y447500D02*
D03*
X840000Y415000D02*
D03*
X862500Y447500D02*
D03*
X955000Y390000D02*
D03*
X910000Y352500D02*
D03*
X887500Y312500D02*
D03*
X947501Y400002D02*
D03*
X970000Y356500D02*
D03*
X980000Y447500D02*
D03*
X852500Y322002D02*
D03*
X922500Y322500D02*
D03*
X920000Y352500D02*
D03*
X830000Y356500D02*
D03*
Y445000D02*
D03*
X970000Y428500D02*
D03*
X887500Y485000D02*
D03*
X862500Y485000D02*
D03*
X940000Y647500D02*
D03*
X840000Y615000D02*
D03*
X862500Y647500D02*
D03*
X955000Y590000D02*
D03*
X910000Y552500D02*
D03*
X887500Y512500D02*
D03*
X947501Y600002D02*
D03*
X970000Y556500D02*
D03*
X980000Y647500D02*
D03*
X852500Y522002D02*
D03*
X922500Y522500D02*
D03*
X920000Y552500D02*
D03*
X830000Y556500D02*
D03*
Y645000D02*
D03*
X970000Y628500D02*
D03*
X887500Y685000D02*
D03*
X862500Y685000D02*
D03*
X940000Y847500D02*
D03*
X840000Y815000D02*
D03*
X862500Y847500D02*
D03*
X955000Y790000D02*
D03*
X910000Y752500D02*
D03*
X887500Y712500D02*
D03*
X947501Y800002D02*
D03*
X970000Y756500D02*
D03*
X980000Y847500D02*
D03*
X852500Y722002D02*
D03*
X922500Y722500D02*
D03*
X920000Y752500D02*
D03*
X830000Y756500D02*
D03*
Y845000D02*
D03*
X970000Y828500D02*
D03*
X887500Y885000D02*
D03*
X862500Y885000D02*
D03*
X1137500Y315000D02*
D03*
X1112500Y315000D02*
D03*
X1030000Y371500D02*
D03*
X1170000Y355000D02*
D03*
Y443500D02*
D03*
X1080000Y447500D02*
D03*
X1077500Y477500D02*
D03*
X1147500Y477998D02*
D03*
X1020000Y352500D02*
D03*
X1030000Y443500D02*
D03*
X1112500Y487500D02*
D03*
X1090000Y447500D02*
D03*
X1045000Y410000D02*
D03*
X1137500Y352500D02*
D03*
X1160000Y385000D02*
D03*
X1137500Y515000D02*
D03*
X1112500Y515000D02*
D03*
X1030000Y571500D02*
D03*
X1170000Y555000D02*
D03*
Y643500D02*
D03*
X1080000Y647500D02*
D03*
X1077500Y677500D02*
D03*
X1147500Y677998D02*
D03*
X1020000Y552500D02*
D03*
X1030000Y643500D02*
D03*
X1052499Y599998D02*
D03*
X1112500Y687500D02*
D03*
X1090000Y647500D02*
D03*
X1045000Y610000D02*
D03*
X1137500Y552500D02*
D03*
X1160000Y585000D02*
D03*
X1137500Y715000D02*
D03*
X1112500Y715000D02*
D03*
X1030000Y771500D02*
D03*
X1170000Y755000D02*
D03*
Y843500D02*
D03*
X1080000Y847500D02*
D03*
X1077500Y877500D02*
D03*
X1147500Y877998D02*
D03*
X1021000Y752500D02*
D03*
X1030000Y843500D02*
D03*
X1052499Y799998D02*
D03*
X1112500Y887500D02*
D03*
X1090000Y847500D02*
D03*
X1045000Y810000D02*
D03*
X1137500Y752500D02*
D03*
X1160000Y785000D02*
D03*
X1060000Y752500D02*
D03*
X1137500Y915000D02*
D03*
X1112500Y915000D02*
D03*
X1030000Y971500D02*
D03*
X1170000Y955000D02*
D03*
Y1043500D02*
D03*
X1147500Y1077998D02*
D03*
X1030000Y1043500D02*
D03*
X1052499Y999998D02*
D03*
X1112500Y1087500D02*
D03*
X1090000Y1047500D02*
D03*
X1045000Y1010000D02*
D03*
X1137500Y952500D02*
D03*
X1160000Y985000D02*
D03*
X1060000Y952500D02*
D03*
X1172500Y1265000D02*
D03*
X1122500Y1050000D02*
D03*
X1070000Y292500D02*
D03*
X1127500D02*
D03*
X887500D02*
D03*
X932500Y280000D02*
D03*
X770000Y955000D02*
D03*
X776000Y1017500D02*
D03*
X680000Y1047500D02*
D03*
X677500Y1077500D02*
D03*
X587500Y307500D02*
D03*
X662500Y292500D02*
D03*
X727500D02*
D03*
X487500D02*
D03*
X535000Y280000D02*
D03*
X987500Y312500D02*
D03*
X745000Y1082500D02*
D03*
X763500Y1061998D02*
D03*
X737500Y1075000D02*
D03*
X685000Y1055000D02*
D03*
X680000Y1065000D02*
D03*
X677500Y1090000D02*
D03*
X830000Y1082500D02*
D03*
X1132500Y1050000D02*
D03*
X1050000Y1392500D02*
D03*
X1025000Y1456000D02*
D03*
X1150000Y1275000D02*
D03*
X1162500Y1161000D02*
D03*
X1210000Y1430000D02*
D03*
X1151500Y1421000D02*
D03*
X1070000Y1360000D02*
D03*
X630000Y1043500D02*
D03*
X690000Y1047500D02*
D03*
X737500Y952500D02*
D03*
X760000Y985000D02*
D03*
X660000Y752500D02*
D03*
X760000Y785000D02*
D03*
X737500Y752500D02*
D03*
X645000Y810000D02*
D03*
X690000Y847500D02*
D03*
X712500Y887500D02*
D03*
X652499Y799998D02*
D03*
X747500Y877998D02*
D03*
X677500Y877500D02*
D03*
X680000Y847500D02*
D03*
X770000Y843500D02*
D03*
X619500Y752500D02*
D03*
X630500Y771500D02*
D03*
X630000Y843500D02*
D03*
X682500Y924000D02*
D03*
X712500Y915000D02*
D03*
X737500Y915000D02*
D03*
X712500Y715000D02*
D03*
X737500Y715000D02*
D03*
X681430Y724000D02*
D03*
X737500Y515000D02*
D03*
X712500Y515000D02*
D03*
X681430Y524000D02*
D03*
X630000Y571500D02*
D03*
X770000Y643500D02*
D03*
X680000Y647500D02*
D03*
X677500Y677500D02*
D03*
X747500Y677998D02*
D03*
X620000Y552500D02*
D03*
X652499Y599998D02*
D03*
X712500Y687500D02*
D03*
X690000Y647500D02*
D03*
X645000Y610000D02*
D03*
X737500Y552500D02*
D03*
X660000D02*
D03*
X630000Y643500D02*
D03*
X737500Y315000D02*
D03*
X712500Y315000D02*
D03*
X672430D02*
D03*
X630000Y371500D02*
D03*
X770000Y355000D02*
D03*
Y443500D02*
D03*
X680000Y447500D02*
D03*
X677500Y477500D02*
D03*
X747500Y477998D02*
D03*
X620000Y352500D02*
D03*
X630000Y443500D02*
D03*
X652499Y399998D02*
D03*
X712500Y487500D02*
D03*
X690000Y447500D02*
D03*
X645000Y410000D02*
D03*
X737500Y352500D02*
D03*
X760000Y385000D02*
D03*
X660000Y352500D02*
D03*
X837500Y1060000D02*
D03*
X930000Y1310000D02*
D03*
X1091500Y1455000D02*
D03*
X1151000Y1255500D02*
D03*
X1162500Y1149000D02*
D03*
X1142500D02*
D03*
X1100000Y1242500D02*
D03*
X845000Y1145000D02*
D03*
X972500Y1162500D02*
D03*
X1122000Y1200000D02*
D03*
X887500Y1085000D02*
D03*
X897500Y1067500D02*
D03*
X1029501Y961000D02*
D03*
X980000Y1047500D02*
D03*
X620000Y952500D02*
D03*
X652499Y999998D02*
D03*
X630000Y971500D02*
D03*
X645000Y1010000D02*
D03*
X660000Y952500D02*
D03*
X760000Y585000D02*
D03*
X677500Y1100000D02*
D03*
X600000Y1070000D02*
D03*
Y1040000D02*
D03*
Y1020000D02*
D03*
Y990000D02*
D03*
Y960000D02*
D03*
Y840000D02*
D03*
Y820000D02*
D03*
Y790000D02*
D03*
Y760000D02*
D03*
Y610000D02*
D03*
Y440000D02*
D03*
Y420000D02*
D03*
Y400000D02*
D03*
Y370000D02*
D03*
Y340000D02*
D03*
X800000D02*
D03*
Y370000D02*
D03*
Y400000D02*
D03*
Y420000D02*
D03*
Y555000D02*
D03*
Y580000D02*
D03*
Y760000D02*
D03*
Y790000D02*
D03*
Y820000D02*
D03*
Y990000D02*
D03*
Y970000D02*
D03*
Y1010000D02*
D03*
Y1030000D02*
D03*
Y1060000D02*
D03*
Y1110000D02*
D03*
X1000000Y1090000D02*
D03*
Y1060000D02*
D03*
Y1030000D02*
D03*
Y970000D02*
D03*
Y845000D02*
D03*
Y810000D02*
D03*
Y780000D02*
D03*
Y420000D02*
D03*
Y622500D02*
D03*
Y610000D02*
D03*
Y570000D02*
D03*
Y590000D02*
D03*
Y440000D02*
D03*
Y400000D02*
D03*
Y370000D02*
D03*
Y340000D02*
D03*
X760000Y546000D02*
D03*
Y745500D02*
D03*
X1071250Y1397500D02*
D03*
X1077000Y1390898D02*
D03*
X1069727Y1379727D02*
D03*
X1060000Y1390000D02*
D03*
X1007500Y1275000D02*
D03*
X1032500Y1390000D02*
D03*
X1090000Y1067500D02*
D03*
X1080000Y1047500D02*
D03*
X1025000Y1382500D02*
D03*
X987500Y1122500D02*
D03*
X982500Y1115000D02*
D03*
X1070074Y1369926D02*
D03*
X1080000Y1077500D02*
D03*
X1240000Y1242000D02*
D03*
X1065000Y1352500D02*
D03*
X913000Y1367000D02*
D03*
X1032500Y1489600D02*
D03*
X985000Y1468500D02*
D03*
X712500Y1095000D02*
D03*
X982500Y1130000D02*
D03*
X987500Y1137500D02*
D03*
X982500Y1145000D02*
D03*
X975000Y1152500D02*
D03*
X681147Y1018801D02*
D03*
X681294Y1011199D02*
D03*
Y1003706D02*
D03*
X681345Y996250D02*
D03*
X681294Y988706D02*
D03*
X681345Y981199D02*
D03*
X688655Y1018801D02*
D03*
X688801Y1011199D02*
D03*
Y1003706D02*
D03*
X688853Y996250D02*
D03*
X688801Y988706D02*
D03*
X688853Y981199D02*
D03*
X696147Y1018801D02*
D03*
X696294Y1011199D02*
D03*
Y1003706D02*
D03*
X696345Y996250D02*
D03*
X696294Y988706D02*
D03*
X696345Y981199D02*
D03*
X703853Y1018801D02*
D03*
X704000Y1011199D02*
D03*
Y1003706D02*
D03*
X704051Y996250D02*
D03*
X704000Y988706D02*
D03*
X704051Y981199D02*
D03*
X711147Y1018801D02*
D03*
X711294Y1011199D02*
D03*
Y1003706D02*
D03*
X711345Y996250D02*
D03*
X711294Y988706D02*
D03*
X711345Y981199D02*
D03*
X718853Y981147D02*
D03*
X718801Y988655D02*
D03*
X718853Y996199D02*
D03*
X718801Y1003655D02*
D03*
Y1011147D02*
D03*
X718655Y1018750D02*
D03*
X918853Y981199D02*
D03*
X918706Y988801D02*
D03*
Y996294D02*
D03*
X918655Y1003750D02*
D03*
X918706Y1011294D02*
D03*
X918655Y1018801D02*
D03*
X911345Y981199D02*
D03*
X911199Y988801D02*
D03*
Y996294D02*
D03*
X911147Y1003750D02*
D03*
X911199Y1011294D02*
D03*
X911147Y1018801D02*
D03*
X903853Y981199D02*
D03*
X903706Y988801D02*
D03*
Y996294D02*
D03*
X903655Y1003750D02*
D03*
X903706Y1011294D02*
D03*
X903655Y1018801D02*
D03*
X896147Y981199D02*
D03*
X896000Y988801D02*
D03*
Y996294D02*
D03*
X895949Y1003750D02*
D03*
X896000Y1011294D02*
D03*
X895949Y1018801D02*
D03*
X888853Y981199D02*
D03*
X888706Y988801D02*
D03*
Y996294D02*
D03*
X888655Y1003750D02*
D03*
X888706Y1011294D02*
D03*
X888655Y1018801D02*
D03*
X881147Y1018853D02*
D03*
X881199Y1011345D02*
D03*
X881147Y1003801D02*
D03*
X881199Y996345D02*
D03*
Y988853D02*
D03*
X881345Y981250D02*
D03*
X681147Y818801D02*
D03*
X681294Y811199D02*
D03*
Y803706D02*
D03*
X681345Y796250D02*
D03*
X681294Y788706D02*
D03*
X681345Y781199D02*
D03*
X688655Y818801D02*
D03*
X688801Y811199D02*
D03*
Y803706D02*
D03*
X688853Y796250D02*
D03*
X688801Y788706D02*
D03*
X688853Y781199D02*
D03*
X696147Y818801D02*
D03*
X696294Y811199D02*
D03*
Y803706D02*
D03*
X696345Y796250D02*
D03*
X696294Y788706D02*
D03*
X696345Y781199D02*
D03*
X703853Y818801D02*
D03*
X704000Y811199D02*
D03*
Y803706D02*
D03*
X704051Y796250D02*
D03*
X704000Y788706D02*
D03*
X704051Y781199D02*
D03*
X711147Y818801D02*
D03*
X711294Y811199D02*
D03*
Y803706D02*
D03*
X711345Y796250D02*
D03*
X711294Y788706D02*
D03*
X711345Y781199D02*
D03*
X718853Y781147D02*
D03*
X718801Y788655D02*
D03*
X718853Y796199D02*
D03*
X718801Y803655D02*
D03*
Y811147D02*
D03*
X718655Y818750D02*
D03*
X918853Y781199D02*
D03*
X918706Y788801D02*
D03*
Y796294D02*
D03*
X918655Y803750D02*
D03*
X918706Y811294D02*
D03*
X918655Y818801D02*
D03*
X911345Y781199D02*
D03*
X911199Y788801D02*
D03*
Y796294D02*
D03*
X911147Y803750D02*
D03*
X911199Y811294D02*
D03*
X911147Y818801D02*
D03*
X903853Y781199D02*
D03*
X903706Y788801D02*
D03*
Y796294D02*
D03*
X903655Y803750D02*
D03*
X903706Y811294D02*
D03*
X903655Y818801D02*
D03*
X896147Y781199D02*
D03*
X896000Y788801D02*
D03*
Y796294D02*
D03*
X895949Y803750D02*
D03*
X896000Y811294D02*
D03*
X895949Y818801D02*
D03*
X888853Y781199D02*
D03*
X888706Y788801D02*
D03*
Y796294D02*
D03*
X888655Y803750D02*
D03*
X888706Y811294D02*
D03*
X888655Y818801D02*
D03*
X881147Y818853D02*
D03*
X881199Y811345D02*
D03*
X881147Y803801D02*
D03*
X881199Y796345D02*
D03*
Y788853D02*
D03*
X881345Y781250D02*
D03*
X681147Y618801D02*
D03*
X681294Y611199D02*
D03*
Y603706D02*
D03*
X681345Y596250D02*
D03*
X681294Y588706D02*
D03*
X681345Y581199D02*
D03*
X688655Y618801D02*
D03*
X688801Y611199D02*
D03*
Y603706D02*
D03*
X688853Y596250D02*
D03*
X688801Y588706D02*
D03*
X688853Y581199D02*
D03*
X696147Y618801D02*
D03*
X696294Y611199D02*
D03*
Y603706D02*
D03*
X696345Y596250D02*
D03*
X696294Y588706D02*
D03*
X696345Y581199D02*
D03*
X703853Y618801D02*
D03*
X704000Y611199D02*
D03*
Y603706D02*
D03*
X704051Y596250D02*
D03*
X704000Y588706D02*
D03*
X704051Y581199D02*
D03*
X711147Y618801D02*
D03*
X711294Y611199D02*
D03*
Y603706D02*
D03*
X711345Y596250D02*
D03*
X711294Y588706D02*
D03*
X711345Y581199D02*
D03*
X718853Y581147D02*
D03*
X718801Y588655D02*
D03*
X718853Y596199D02*
D03*
X718801Y603655D02*
D03*
Y611147D02*
D03*
X718655Y618750D02*
D03*
X918853Y581199D02*
D03*
X918706Y588801D02*
D03*
Y596294D02*
D03*
X918655Y603750D02*
D03*
X918706Y611294D02*
D03*
X918655Y618801D02*
D03*
X911345Y581199D02*
D03*
X911199Y588801D02*
D03*
Y596294D02*
D03*
X911147Y603750D02*
D03*
X911199Y611294D02*
D03*
X911147Y618801D02*
D03*
X903853Y581199D02*
D03*
X903706Y588801D02*
D03*
Y596294D02*
D03*
X903655Y603750D02*
D03*
X903706Y611294D02*
D03*
X903655Y618801D02*
D03*
X896147Y581199D02*
D03*
X896000Y588801D02*
D03*
Y596294D02*
D03*
X895949Y603750D02*
D03*
X896000Y611294D02*
D03*
X895949Y618801D02*
D03*
X888853Y581199D02*
D03*
X888706Y588801D02*
D03*
Y596294D02*
D03*
X888655Y603750D02*
D03*
X888706Y611294D02*
D03*
X888655Y618801D02*
D03*
X881147Y618853D02*
D03*
X881199Y611345D02*
D03*
X881147Y603801D02*
D03*
X881199Y596345D02*
D03*
Y588853D02*
D03*
X881345Y581250D02*
D03*
X918853Y381199D02*
D03*
X918706Y388801D02*
D03*
Y396294D02*
D03*
X918655Y403750D02*
D03*
X918706Y411294D02*
D03*
X918655Y418801D02*
D03*
X911345Y381199D02*
D03*
X911199Y388801D02*
D03*
Y396294D02*
D03*
X911147Y403750D02*
D03*
X911199Y411294D02*
D03*
X911147Y418801D02*
D03*
X903853Y381199D02*
D03*
X903706Y388801D02*
D03*
Y396294D02*
D03*
X903655Y403750D02*
D03*
X903706Y411294D02*
D03*
X903655Y418801D02*
D03*
X896147Y381199D02*
D03*
X896000Y388801D02*
D03*
Y396294D02*
D03*
X895949Y403750D02*
D03*
X896000Y411294D02*
D03*
X895949Y418801D02*
D03*
X888853Y381199D02*
D03*
X888706Y388801D02*
D03*
Y396294D02*
D03*
X888655Y403750D02*
D03*
X888706Y411294D02*
D03*
X888655Y418801D02*
D03*
X881147Y418853D02*
D03*
X881199Y411345D02*
D03*
X881147Y403801D02*
D03*
X881199Y396345D02*
D03*
Y388853D02*
D03*
X881345Y381250D02*
D03*
X681147Y418801D02*
D03*
X681345Y396250D02*
D03*
X681294Y388706D02*
D03*
X681345Y381199D02*
D03*
X688853Y396250D02*
D03*
X688801Y388706D02*
D03*
X688853Y381199D02*
D03*
X696345Y396250D02*
D03*
X696294Y388706D02*
D03*
X696345Y381199D02*
D03*
X704051Y396250D02*
D03*
X704000Y388706D02*
D03*
X704051Y381199D02*
D03*
X711294Y388706D02*
D03*
X711345Y381199D02*
D03*
X718853Y381147D02*
D03*
X718801Y388655D02*
D03*
X979500Y1495000D02*
D03*
X893000Y1366000D02*
D03*
X1175000Y1286500D02*
D03*
X1230000D02*
D03*
X1240000Y1258000D02*
D03*
X1175000Y1375500D02*
D03*
X1230000D02*
D03*
Y1400000D02*
D03*
X1237500Y1192500D02*
D03*
X1182500Y1482500D02*
D03*
X683000Y1490000D02*
D03*
X725000Y1480000D02*
D03*
X890000Y1426000D02*
D03*
Y1482500D02*
D03*
X847500Y1135000D02*
D03*
X1085000Y1522500D02*
D03*
X1130000D02*
D03*
X1037500Y1477500D02*
D03*
X1167500Y1500000D02*
D03*
X1175000Y1465000D02*
D03*
X1145000Y1445000D02*
D03*
X1208000Y1402500D02*
D03*
X1009000Y1347000D02*
D03*
X985000Y1350000D02*
D03*
X950000Y1345000D02*
D03*
X947500Y1442500D02*
D03*
X975000Y1457500D02*
D03*
X1215000Y1342500D02*
D03*
Y1325000D02*
D03*
X1242500Y1342500D02*
D03*
Y1322500D02*
D03*
X1150000Y1366000D02*
D03*
X1142500Y1161000D02*
D03*
X1197500Y1277500D02*
D03*
X1015000Y1275000D02*
D03*
X1008000Y1252500D02*
D03*
X1008500Y1237500D02*
D03*
X887500Y1307500D02*
D03*
X915000Y1272500D02*
D03*
X912500Y1295000D02*
D03*
X900000Y1267500D02*
D03*
X1080000Y1285000D02*
D03*
X385001Y1335001D02*
D03*
X500000Y1099000D02*
D03*
X540000D02*
D03*
X520000D02*
D03*
X440000D02*
D03*
X452500Y1096000D02*
D03*
X560000Y1099000D02*
D03*
X580000D02*
D03*
X600000D02*
D03*
X620000D02*
D03*
X647500Y1075000D02*
D03*
X480000Y1099000D02*
D03*
D46*
X560534Y1395534D02*
X585000Y1420000D01*
X557114Y1392114D02*
X560534Y1395534D01*
X549047Y1392114D02*
X557114D01*
X543455D02*
X549047D01*
X543455Y1392114D02*
X543455Y1392114D01*
X536114Y1392114D02*
X543455D01*
X534250Y1390250D02*
X536114Y1392114D01*
X585000Y1455000D02*
X613000Y1483000D01*
X585000Y1420000D02*
Y1455000D01*
X613000Y1483000D02*
X648000D01*
X666000Y1465000D01*
X880675D02*
X932500Y1413175D01*
X666000Y1465000D02*
X880675D01*
X976000Y1130000D02*
X982500D01*
X971000Y1135000D02*
X976000Y1130000D01*
X880000Y1135000D02*
X971000D01*
X974500Y1122500D02*
X987500D01*
X967000Y1130000D02*
X974500Y1122500D01*
X887500Y1130000D02*
X967000D01*
X979500Y1137500D02*
X987500D01*
X977000Y1140000D02*
X979500Y1137500D01*
X875000Y1140000D02*
X977000D01*
X645000Y1010000D02*
Y1030000D01*
X652499Y1029545D02*
X677954Y1055000D01*
X652499Y999998D02*
Y1029545D01*
X667500Y1035000D02*
X680000Y1047500D01*
X667500Y870000D02*
Y1035000D01*
X645000Y610000D02*
Y1010000D01*
X652500Y800000D02*
Y999997D01*
X660000Y472500D02*
Y952500D01*
X667500Y670000D02*
Y832500D01*
X680000Y845000D01*
Y847500D01*
X652499Y599998D02*
Y799998D01*
X667500Y470000D02*
Y635000D01*
X932500Y565000D02*
Y730000D01*
X940000Y447500D02*
Y1047500D01*
X667500Y870000D02*
X690000Y847500D01*
X947501Y600002D02*
Y800002D01*
X955000Y590000D02*
Y790000D01*
X947501Y400002D02*
Y600002D01*
X955000Y390000D02*
Y590000D01*
X920000Y952500D02*
X932500Y965000D01*
Y1032500D01*
X897500Y1067500D02*
X932500Y1032500D01*
X920000Y752500D02*
X932500Y765000D01*
Y930000D01*
X910000Y952500D02*
X932500Y930000D01*
X1045000Y410000D02*
Y610000D01*
X920000Y552500D02*
X932500Y565000D01*
X667500Y320000D02*
Y435000D01*
X680000Y447500D01*
X972500Y1115000D02*
X982500D01*
X962500Y1125000D02*
X972500Y1115000D01*
X897500Y1125000D02*
X962500D01*
X875000Y1117500D02*
X887500Y1130000D01*
X862500Y1117500D02*
X880000Y1135000D01*
X862500Y1127500D02*
X875000Y1140000D01*
X870000Y1145000D02*
X982500D01*
X852500Y1127500D02*
X870000Y1145000D01*
X865000Y1152500D02*
X975000D01*
X847500Y1135000D02*
X865000Y1152500D01*
X967500Y1157500D02*
X972500Y1162500D01*
X857500Y1157500D02*
X967500D01*
X845000Y1145000D02*
X857500Y1157500D01*
X885000Y1112500D02*
X897500Y1125000D01*
X932500Y1385000D02*
Y1413175D01*
X1129000Y1240500D02*
X1134500Y1235000D01*
X1129000Y1240500D02*
Y1305000D01*
X852500Y1127500D02*
X852500D01*
X547501Y1047501D02*
X588250Y1088250D01*
X665750D01*
X677500Y1100000D01*
X670750Y1083250D02*
X677500Y1090000D01*
X590750Y1083250D02*
X670750D01*
X555000Y1047500D02*
X590750Y1083250D01*
X547501Y1000002D02*
Y1047501D01*
X540000Y847500D02*
Y1047500D01*
X555000Y990000D02*
Y1047500D01*
X1060000Y752500D02*
Y952500D01*
Y552500D02*
Y752500D01*
Y352500D02*
Y552500D01*
X540000Y847500D02*
X540000Y847500D01*
X540000Y647500D02*
Y847500D01*
Y447500D02*
Y647500D01*
X662500Y315000D02*
X667500Y320000D01*
X910000Y752500D02*
X932500Y730000D01*
X910000Y552500D02*
X932500Y530000D01*
Y365000D02*
Y530000D01*
X920000Y352500D02*
X932500Y365000D01*
X1067500Y331500D02*
Y435000D01*
X1060000Y324000D02*
X1067500Y331500D01*
Y435000D02*
X1080000Y447500D01*
X1067500Y470000D02*
X1090000Y447500D01*
X1067500Y470000D02*
Y635000D01*
X1052499Y399998D02*
Y599998D01*
X1067500Y635000D02*
X1080000Y647500D01*
X1067500Y670000D02*
X1090000Y647500D01*
X1067500Y670000D02*
Y835000D01*
X1080000Y847500D01*
X1067500Y870000D02*
Y1035000D01*
Y870000D02*
X1090000Y847500D01*
X955000Y790000D02*
Y990000D01*
X1045000Y810000D02*
Y1010000D01*
Y610000D02*
Y810000D01*
X1052499Y599998D02*
Y799998D01*
X510000Y952500D02*
X532500Y930000D01*
Y765000D02*
Y930000D01*
X520000Y752500D02*
X532500Y765000D01*
X510000Y752500D02*
X532500Y730000D01*
Y565000D02*
Y730000D01*
X520000Y552500D02*
X532500Y565000D01*
X510000Y552500D02*
X532500Y530000D01*
Y365000D02*
Y530000D01*
X520000Y352500D02*
X532500Y365000D01*
X547501Y400002D02*
Y600002D01*
X555000Y390000D02*
Y590000D01*
X547501Y800002D02*
Y1000002D01*
Y600002D02*
Y800002D01*
X555000Y590000D02*
Y790000D01*
Y990000D01*
X660000Y352500D02*
Y472500D01*
X652499Y999998D02*
X652500Y999997D01*
X645000Y610000D02*
X645000Y610000D01*
X645000Y410000D02*
Y610000D01*
X652499Y399998D02*
Y599998D01*
X660000Y472500D02*
X660000Y472500D01*
X667500Y670000D02*
X690000Y647500D01*
X667500Y635000D02*
X680000Y647500D01*
X667500Y470000D02*
X690000Y447500D01*
X1052499Y799998D02*
Y999998D01*
X645000Y1010000D02*
X645000Y1010000D01*
X1067500Y1035000D02*
X1080000Y1047500D01*
X1060000Y952500D02*
Y1037500D01*
X1090000Y1067500D01*
X952954Y997500D02*
X962500D01*
X947501Y800002D02*
Y992047D01*
X952954Y997500D01*
X645000Y1030000D02*
X680000Y1065000D01*
X677954Y1055000D02*
X685000D01*
D47*
X1000000Y1090000D02*
Y1105000D01*
Y1075000D02*
Y1090000D01*
Y1060000D02*
Y1075000D01*
Y1045000D02*
Y1060000D01*
Y1030000D02*
Y1045000D01*
Y1015000D02*
Y1030000D01*
Y1005000D02*
Y1015000D01*
Y982500D02*
Y1005000D01*
Y970000D02*
Y982500D01*
X800000Y1045000D02*
Y1060000D01*
Y1030000D02*
Y1045000D01*
Y1020000D02*
Y1030000D01*
Y1010000D02*
Y1020000D01*
Y990000D02*
Y1010000D01*
Y970000D02*
Y990000D01*
X600000Y1005000D02*
Y1020000D01*
Y990000D02*
Y1005000D01*
Y975000D02*
Y990000D01*
Y960000D02*
Y975000D01*
X1000000Y827500D02*
Y845000D01*
Y810000D02*
Y827500D01*
Y795000D02*
Y810000D01*
Y780000D02*
Y795000D01*
Y755000D02*
Y780000D01*
X600000Y820000D02*
Y840000D01*
Y805000D02*
Y820000D01*
Y790000D02*
Y805000D01*
Y775000D02*
Y790000D01*
Y760000D02*
Y775000D01*
X800000Y820000D02*
Y840000D01*
Y805000D02*
Y820000D01*
Y790000D02*
Y805000D01*
Y775000D02*
Y790000D01*
Y760000D02*
Y775000D01*
X1000000Y622500D02*
Y642500D01*
Y610000D02*
Y622500D01*
Y590000D02*
Y610000D01*
Y570000D02*
Y590000D01*
X600000Y625000D02*
Y640000D01*
Y610000D02*
Y625000D01*
Y597500D02*
Y610000D01*
Y585000D02*
Y597500D01*
Y572500D02*
Y585000D01*
Y560000D02*
Y572500D01*
X800000Y625000D02*
Y640000D01*
Y600000D02*
Y625000D01*
Y590000D02*
Y600000D01*
Y580000D02*
Y590000D01*
Y567500D02*
Y580000D01*
Y555000D02*
Y567500D01*
X1000000Y420000D02*
Y440000D01*
Y410000D02*
Y420000D01*
Y400000D02*
Y410000D01*
Y385000D02*
Y400000D01*
Y370000D02*
Y385000D01*
Y350000D02*
Y370000D01*
Y340000D02*
Y350000D01*
Y327500D02*
Y340000D01*
X800000Y410000D02*
Y420000D01*
Y400000D02*
Y410000D01*
Y385000D02*
Y400000D01*
Y370000D02*
Y385000D01*
Y352500D02*
Y370000D01*
Y340000D02*
Y352500D01*
Y325000D02*
Y340000D01*
Y420000D02*
Y440000D01*
X600000Y430000D02*
Y440000D01*
Y420000D02*
Y430000D01*
Y410000D02*
Y420000D01*
Y400000D02*
Y410000D01*
Y385000D02*
Y400000D01*
Y370000D02*
Y385000D01*
Y352500D02*
Y370000D01*
Y340000D02*
Y352500D01*
Y327500D02*
Y340000D01*
X635400Y1455400D02*
X638800Y1452000D01*
X665000D01*
X855000D02*
X875000D01*
X835000D02*
X855000D01*
X790000D02*
X835000D01*
X770000D02*
X790000D01*
X745000D02*
X770000D01*
X725000D02*
X745000D01*
X705000D02*
X725000D01*
X685000D02*
X705000D01*
X665000D02*
X685000D01*
X915000Y1490000D02*
X935000Y1510000D01*
X915000Y1452000D02*
Y1490000D01*
X1195700Y1167000D02*
X1210700Y1182000D01*
X1224500D01*
X423251Y1379251D02*
X430001D01*
X416251D02*
X423251D01*
X409001D02*
X416251D01*
X409001D02*
Y1385501D01*
X438501Y1375251D02*
Y1387751D01*
X430501Y1367251D02*
X438501Y1375251D01*
Y1387751D02*
Y1395751D01*
X428951Y1278649D02*
Y1346401D01*
X417499Y1278649D02*
X428949D01*
X406001Y1300001D02*
Y1327501D01*
X713250Y1379250D02*
X720000D01*
X706250D02*
X713250D01*
X699000D02*
X706250D01*
X699000D02*
Y1385500D01*
X680001Y1370001D02*
X682751Y1367250D01*
X728500Y1375250D02*
Y1387750D01*
X720500Y1367250D02*
X728500Y1375250D01*
X714999Y1367250D02*
X720500D01*
X728500Y1387750D02*
Y1395750D01*
X718950Y1274950D02*
Y1333550D01*
X707500Y1274950D02*
X718950D01*
X696000Y1311850D02*
X707500Y1300350D01*
X696000Y1311850D02*
Y1327500D01*
X406001Y1266001D02*
Y1300001D01*
X406051Y1265950D02*
X417500D01*
D48*
X406001Y1359001D02*
X420999D01*
X421250Y1358750D01*
X840000Y1435000D02*
X860000D01*
X820000D02*
X840000D01*
X800000D02*
X820000D01*
X780000D02*
X800000D01*
X760000D02*
X780000D01*
X759999Y1434999D02*
X760000Y1435000D01*
X890000Y1412500D02*
Y1426000D01*
Y1412500D02*
Y1417500D01*
X886000Y1408500D02*
X890000Y1412500D01*
X845887Y1408500D02*
X886000D01*
X836250Y1398863D02*
X845887Y1408500D01*
X696000Y1359000D02*
X712000D01*
X406001Y1266001D02*
X406051Y1265950D01*
D49*
X406251Y1367251D02*
X425000D01*
X406001Y1327501D02*
Y1359001D01*
X392752Y1367251D02*
X406251D01*
X425000D02*
X430501D01*
X682751Y1367250D02*
X715249D01*
X696000Y1327500D02*
Y1359000D01*
D51*
X863000Y1370000D02*
X873000Y1360000D01*
X828500Y1370000D02*
X863000D01*
X818500Y1360000D02*
X828500Y1370000D01*
D55*
X800000Y302500D02*
D03*
Y352500D02*
D03*
Y490000D02*
D03*
Y440000D02*
D03*
X1000000Y692500D02*
D03*
Y642500D02*
D03*
X600000Y690000D02*
D03*
Y640000D02*
D03*
X812500Y1112500D02*
D03*
X762500D02*
D03*
X622500D02*
D03*
X672500D02*
D03*
X902500D02*
D03*
X952500D02*
D03*
X482500D02*
D03*
X532500D02*
D03*
X610000Y1452500D02*
D03*
Y1502500D02*
D03*
X857500Y1385000D02*
D03*
Y1335000D02*
D03*
X575000Y1202500D02*
D03*
Y1252500D02*
D03*
X800000Y840000D02*
D03*
Y890000D02*
D03*
X857500Y1200000D02*
D03*
Y1250000D02*
D03*
X800000Y640000D02*
D03*
Y690000D02*
D03*
X575000Y1335000D02*
D03*
Y1385000D02*
D03*
X485000Y1480000D02*
D03*
Y1430000D02*
D03*
D57*
X483000Y1531600D02*
D03*
X584600D02*
D03*
X1212500Y1525000D02*
D03*
X387500D02*
D03*
X1212500Y287500D02*
D03*
X387500D02*
D03*
X1212500Y1112500D02*
D03*
X387500D02*
D03*
X1000000Y500000D02*
D03*
Y900000D02*
D03*
X600000Y500000D02*
D03*
Y900000D02*
D03*
X690000Y1530000D02*
D03*
D58*
X457600Y1430000D02*
D03*
D59*
X508400D02*
D03*
X559200D02*
D03*
X610000D02*
D03*
X560000Y1480000D02*
D03*
X510000D02*
D03*
X460000D02*
D03*
D60*
X635400Y1455400D02*
D03*
X432200D02*
D03*
D61*
X935000Y1460000D02*
D03*
Y1485000D02*
D03*
Y1510000D02*
D03*
Y1535000D02*
D03*
X1045400Y1545000D02*
D03*
X1020000D02*
D03*
D62*
X1149600Y1525000D02*
D03*
X1110000D02*
D03*
D63*
X1200000Y1309000D02*
D03*
Y1353000D02*
D03*
D64*
X900000Y1535000D02*
D03*
X970000D02*
D03*
D66*
X559364Y1386864D02*
X590750Y1418250D01*
Y1452342D01*
X556364Y1398864D02*
X565000Y1407500D01*
X546251Y1398864D02*
X556364D01*
X542351Y1386864D02*
X559364D01*
X529751Y1374263D02*
X542351Y1386864D01*
X529751Y1361751D02*
Y1374263D01*
X579000Y1459000D02*
X609000Y1489000D01*
X579000Y1421500D02*
Y1459000D01*
X565000Y1407500D02*
X579000Y1421500D01*
X609000Y1489000D02*
X651000D01*
X615408Y1477000D02*
X645500D01*
X590750Y1452342D02*
X615408Y1477000D01*
X651000Y1489000D02*
X669000Y1471000D01*
X645500Y1477000D02*
X663500Y1459000D01*
X879250D02*
X925000Y1413250D01*
X663500Y1459000D02*
X879250D01*
X878500Y1471000D02*
X890000Y1482500D01*
X669000Y1471000D02*
X878500D01*
X664000Y1477500D02*
X676500Y1490000D01*
X925000Y1382500D02*
Y1413250D01*
Y1382500D02*
X930000Y1377500D01*
X950000Y1387500D02*
Y1393500D01*
X940000Y1377500D02*
X950000Y1387500D01*
X930000Y1377500D02*
X940000D01*
X676500Y1490000D02*
X683000D01*
X684192D01*
X1175000Y1286500D02*
X1230000D01*
D67*
X610000Y1430000D02*
X635400Y1455400D01*
X485000Y1480000D02*
X510000D01*
X460000D02*
X485000D01*
X456800D02*
X460000D01*
X432200Y1455400D02*
X456800Y1480000D01*
D68*
X612900Y1455400D02*
X635400D01*
X610000Y1452500D02*
X612900Y1455400D01*
X610000Y1430000D02*
Y1452500D01*
M02*
